<svg width="309" height="250" viewBox="0 0 309 250" fill="none" xmlns="http://www.w3.org/2000/svg">
<rect x="0.5" y="0.5" width="308" height="249" rx="9.5" fill="#FAFAFA" stroke="#E0E0E0"/>
<rect x="23.9995" y="18" width="65" height="23" rx="2" fill="#0032A0"/>
<path d="M49.4435 27.844H43.3235V27.196H49.0955V26.044H43.3235V25.444H49.3595V24.244H41.7515V29.044H49.4435V27.844ZM41.6195 32.92H47.6915V35.044H49.2755V31.672H41.6195V32.92ZM40.5035 29.716V30.976H50.4995V29.716H40.5035ZM57.9986 25.612H55.5866V24.172H54.0026V25.612L51.5546 25.612V26.896L57.9986 26.896V25.612ZM54.7826 31.444C54.1106 31.444 53.5946 30.952 53.5946 30.136C53.5946 29.32 54.1106 28.828 54.7826 28.828C55.4666 28.828 55.9946 29.32 55.9946 30.136C55.9946 30.952 55.4666 31.444 54.7826 31.444ZM54.7826 27.496C53.2706 27.496 52.1306 28.612 52.1306 30.136C52.1306 31.66 53.2706 32.776 54.7826 32.776C56.3066 32.776 57.4466 31.66 57.4466 30.136C57.4466 28.612 56.3066 27.496 54.7826 27.496ZM59.2466 23.98V28.324H57.7946V29.608H59.2466V35.032H60.8306V23.98H59.2466ZM68.2576 29.872V31.096H70.3936V32.296H71.9776V23.98L70.3936 23.98V29.872H68.2576ZM65.6056 33.58V31.624H66.9856V29.248C67.9096 29.164 68.8336 29.068 69.7336 28.9L69.6256 27.784C69.2896 27.832 68.9416 27.88 68.5936 27.916C68.7856 26.524 68.7856 25.504 68.7856 24.916V24.532H63.5176V25.792H67.2136C67.1896 26.368 67.1296 27.112 66.9976 28.036C65.3896 28.132 63.8056 28.144 62.5096 28.144L62.7016 29.404C63.5176 29.404 64.4416 29.392 65.4136 29.344V31.468H64.0216V34.84L72.2176 34.84V33.58L65.6056 33.58Z" fill="white"/>
<path d="M35.74 66.365H29.5185V65.077H35.4065V64.5825H29.5185V63.3865H35.694V62.892H28.909V66.871H35.74V66.365ZM28.679 70.2405H35.0385V72.805H35.648V69.7345H28.679L28.679 70.2405ZM27.6555 68.0325V68.55H36.8785V68.0325H27.6555ZM44.2836 64.2835H41.5696V62.685H40.9601V64.2835H38.2001V64.801H44.2836V64.2835ZM41.2591 69.8725C40.2241 69.8725 39.4651 69.1135 39.4651 68.113C39.4651 67.1125 40.2241 66.342 41.2591 66.342C42.2826 66.342 43.0531 67.1125 43.0531 68.113C43.0531 69.1135 42.2826 69.8725 41.2591 69.8725ZM41.2591 65.813C39.9021 65.813 38.9016 66.7675 38.9016 68.113C38.9016 69.4585 39.9021 70.4015 41.2591 70.4015C42.6276 70.4015 43.6166 69.4585 43.6166 68.113C43.6166 66.7675 42.6276 65.813 41.2591 65.813ZM45.9396 62.5815V67.032H44.0536V67.5495H45.9396V72.7935H46.5491V62.5815H45.9396ZM53.2757 67.331H49.9062V63.8925L53.2757 63.8925V67.331ZM56.5187 64.8585V66.365H53.8737V64.8585H56.5187ZM53.8737 66.8825H56.5187V68.665H57.1282V62.593H56.5187V64.341H53.8737V63.3865L49.3197 63.3865V67.837H53.8737V66.8825ZM53.8277 72.276C52.1602 72.276 51.0907 71.747 51.0907 70.8845C51.0907 70.0335 52.1602 69.493 53.8277 69.493C55.4952 69.493 56.5762 70.0335 56.5762 70.8845C56.5762 71.747 55.4952 72.276 53.8277 72.276ZM53.8277 68.9985C51.7577 68.9985 50.4812 69.677 50.4812 70.8845C50.4812 72.092 51.7577 72.7705 53.8277 72.7705C55.8977 72.7705 57.1742 72.092 57.1742 70.8845C57.1742 69.677 55.8977 68.9985 53.8277 68.9985Z" fill="#121212"/>
<path d="M83.634 64.5135H85.474V63.743H80.7705V64.5135H82.7255V65.445C82.7255 67.3425 81.9205 69.217 80.483 70.0795L81.058 70.781C82.0815 70.137 82.829 68.9295 83.1855 67.515C83.542 68.826 84.255 69.93 85.2555 70.528L85.8305 69.838C84.4045 69.033 83.634 67.239 83.634 65.445V64.5135ZM86.394 66.2385H84.692V67.009H86.394V72.3105H87.291V62.7655H86.394V66.2385ZM88.464 62.524V72.8395H89.3725V62.524H88.464ZM94.1629 72H98.7859V71.126H97.0954V63.559H96.2904C95.8304 63.835 95.2899 64.0305 94.5424 64.1685V64.8355H96.0374V71.126H94.1629V72ZM102.727 72.1495C104.325 72.1495 105.349 70.689 105.349 67.7565C105.349 64.8355 104.325 63.4095 102.727 63.4095C101.117 63.4095 100.093 64.824 100.093 67.7565C100.093 70.689 101.117 72.1495 102.727 72.1495ZM102.727 71.31C101.761 71.31 101.117 70.2405 101.117 67.7565C101.117 65.2955 101.761 64.249 102.727 64.249C103.681 64.249 104.325 65.2955 104.325 67.7565C104.325 70.2405 103.681 71.31 102.727 71.31ZM106.438 69.1825H109.382V68.3775H106.438V69.1825ZM110.908 72H115.531V71.126H113.84V63.559H113.035C112.575 63.835 112.035 64.0305 111.287 64.1685V64.8355H112.782V71.126H110.908V72ZM119.483 72.1495C121.07 72.1495 122.128 71.195 122.128 69.9645C122.128 68.8145 121.438 68.182 120.702 67.7565V67.699C121.208 67.308 121.829 66.549 121.829 65.6635C121.829 64.364 120.955 63.444 119.517 63.444C118.206 63.444 117.206 64.295 117.206 65.583C117.206 66.4685 117.723 67.101 118.344 67.5265V67.584C117.574 67.998 116.792 68.78 116.792 69.907C116.792 71.2065 117.93 72.1495 119.483 72.1495ZM120.058 67.423C119.069 67.032 118.16 66.595 118.16 65.583C118.16 64.7665 118.724 64.2145 119.506 64.2145C120.414 64.2145 120.932 64.893 120.932 65.721C120.932 66.342 120.633 66.917 120.058 67.423ZM119.506 71.3675C118.494 71.3675 117.746 70.712 117.746 69.815C117.746 69.01 118.218 68.343 118.896 67.906C120.092 68.389 121.127 68.8145 121.127 69.9415C121.127 70.781 120.472 71.3675 119.506 71.3675ZM125.862 72.1495C127.449 72.1495 128.507 71.195 128.507 69.9645C128.507 68.8145 127.817 68.182 127.081 67.7565V67.699C127.587 67.308 128.208 66.549 128.208 65.6635C128.208 64.364 127.334 63.444 125.896 63.444C124.585 63.444 123.585 64.295 123.585 65.583C123.585 66.4685 124.102 67.101 124.723 67.5265V67.584C123.953 67.998 123.171 68.78 123.171 69.907C123.171 71.2065 124.309 72.1495 125.862 72.1495ZM126.437 67.423C125.448 67.032 124.539 66.595 124.539 65.583C124.539 64.7665 125.103 64.2145 125.885 64.2145C126.793 64.2145 127.311 64.893 127.311 65.721C127.311 66.342 127.012 66.917 126.437 67.423ZM125.885 71.3675C124.873 71.3675 124.125 70.712 124.125 69.815C124.125 69.01 124.597 68.343 125.275 67.906C126.471 68.389 127.506 68.8145 127.506 69.9415C127.506 70.781 126.851 71.3675 125.885 71.3675ZM132.034 72.1495C133.46 72.1495 134.794 71.103 134.794 69.2515C134.794 67.4 133.655 66.572 132.252 66.572C131.746 66.572 131.378 66.6985 130.999 66.9055L131.206 64.4675H134.391V63.559H130.286L130.021 67.515L130.585 67.86C131.068 67.538 131.424 67.3655 131.988 67.3655C133.046 67.3655 133.736 68.0785 133.736 69.286C133.736 70.5165 132.931 71.2755 131.942 71.2755C130.964 71.2755 130.355 70.827 129.872 70.344L129.354 71.034C129.918 71.5975 130.723 72.1495 132.034 72.1495ZM138.608 72.1495C140.207 72.1495 141.23 70.689 141.23 67.7565C141.23 64.8355 140.207 63.4095 138.608 63.4095C136.998 63.4095 135.975 64.824 135.975 67.7565C135.975 70.689 136.998 72.1495 138.608 72.1495ZM138.608 71.31C137.642 71.31 136.998 70.2405 136.998 67.7565C136.998 65.2955 137.642 64.249 138.608 64.249C139.563 64.249 140.207 65.2955 140.207 67.7565C140.207 70.2405 139.563 71.31 138.608 71.31ZM144.826 72.1495C146.321 72.1495 147.529 71.2525 147.529 69.746C147.529 68.596 146.735 67.837 145.746 67.607V67.561C146.632 67.2275 147.241 66.549 147.241 65.5255C147.241 64.1915 146.206 63.4095 144.792 63.4095C143.814 63.4095 143.067 63.835 142.434 64.4215L142.998 65.0885C143.469 64.6055 144.067 64.272 144.746 64.272C145.62 64.272 146.172 64.801 146.172 65.606C146.172 66.5145 145.574 67.216 143.837 67.216V68.021C145.781 68.021 146.459 68.6995 146.459 69.7C146.459 70.6775 145.746 71.2755 144.746 71.2755C143.791 71.2755 143.147 70.827 142.653 70.3095L142.124 70.9995C142.676 71.5975 143.504 72.1495 144.826 72.1495ZM149.181 72H153.804V71.126H152.113V63.559H151.308C150.848 63.835 150.308 64.0305 149.56 64.1685V64.8355H151.055V71.126H149.181V72ZM163.989 64.042H160.298V62.6965H159.355V64.042H155.617V64.8125H163.989V64.042ZM157.388 67.469C157.388 66.71 158.32 66.25 159.826 66.25C161.31 66.25 162.23 66.71 162.23 67.469C162.23 68.2395 161.31 68.6995 159.826 68.6995C158.32 68.6995 157.388 68.2395 157.388 67.469ZM160.298 70.873V69.424C162.092 69.309 163.184 68.619 163.184 67.469C163.184 66.227 161.885 65.514 159.826 65.514C157.733 65.514 156.434 66.227 156.434 67.469C156.434 68.619 157.538 69.3205 159.355 69.424V70.873H155.157V71.6435H164.507V70.873H160.298Z" fill="#121212"/>
<path d="M28.4145 88.664C29.967 88.503 31.6805 87.928 32.267 86.8125C32.8535 87.9395 34.567 88.503 36.1195 88.664L36.315 88.181C34.6475 88.0315 32.658 87.3415 32.589 86.0305H35.9125V85.536H32.5775V84.4895H31.968V85.536H28.6445V86.0305H31.945C31.876 87.3415 29.8865 88.0315 28.219 88.181L28.4145 88.664ZM36.8785 89.745V89.2505H27.6555V89.745H31.9565V90.872H28.8055V91.3435H35.0615V92.459H28.8285V94.6555H35.993V94.161H29.4265V92.9305H35.6595V90.872H32.566V89.745H36.8785ZM43.6626 90.688V91.171H45.8361V92.3785H46.4456V84.6045H45.8361V90.688H43.6626ZM41.5121 85.513C42.6391 85.513 43.4211 86.042 43.4211 86.7895C43.4211 87.56 42.6391 88.0775 41.5121 88.0775C40.3851 88.0775 39.6031 87.56 39.6031 86.7895C39.6031 86.042 40.3851 85.513 41.5121 85.513ZM41.5121 88.549C43.0071 88.549 43.9961 87.8705 43.9961 86.7895C43.9961 85.72 43.0071 85.0415 41.5121 85.0415C40.0171 85.0415 39.0166 85.72 39.0166 86.7895C39.0166 87.8705 40.0171 88.549 41.5121 88.549ZM41.2821 91.9645H41.8916V89.883C42.8806 89.8255 43.9041 89.745 44.8701 89.584L44.8126 89.1355C42.6161 89.4115 40.0631 89.4345 38.1656 89.4345L38.2576 89.9635C39.1546 89.9635 40.1781 89.9635 41.2821 89.9175V91.9645ZM40.3161 94.0345V91.608H39.7181V94.552H46.7101V94.0345H40.3161ZM53.2412 89.8255H49.9752V87.7325H53.2412V89.8255ZM53.8392 88.089H56.5187V92.1715H57.1282V84.6045H56.5187V87.5715H53.8392V85.2715H53.2412V87.2265H49.9752V85.2715H49.3657V90.343H53.8392V88.089ZM51.2977 94.0345V91.4355H50.6882V94.552H57.3812V94.0345H51.2977ZM68.0868 86.226H64.3148V84.7885H63.7053V86.226H59.8873V86.7435H68.0868V86.226ZM61.3478 89.4805C61.3478 88.618 62.3943 88.0775 64.0043 88.0775C65.6143 88.0775 66.6608 88.618 66.6608 89.4805C66.6608 90.3545 65.6143 90.9065 64.0043 90.9065C62.3943 90.9065 61.3478 90.3545 61.3478 89.4805ZM64.3148 92.988V91.3895C66.1433 91.3205 67.2703 90.6305 67.2703 89.4805C67.2703 88.273 66.0168 87.5715 64.0043 87.5715C61.9918 87.5715 60.7383 88.273 60.7383 89.4805C60.7383 90.6305 61.8653 91.3205 63.7053 91.401V92.988H59.3928V93.5055H68.6503V92.988H64.3148Z" fill="#121212"/>
<path d="M83.634 86.5135H85.474V85.743H80.7705V86.5135H82.7255V87.445C82.7255 89.3425 81.9205 91.217 80.483 92.0795L81.058 92.781C82.0815 92.137 82.829 90.9295 83.1855 89.515C83.542 90.826 84.255 91.93 85.2555 92.528L85.8305 91.838C84.4045 91.033 83.634 89.239 83.634 87.445V86.5135ZM86.394 88.2385H84.692V89.009H86.394V94.3105H87.291V84.7655H86.394V88.2385ZM88.464 84.524V94.8395H89.3725V84.524H88.464ZM94.1629 94H98.7859V93.126H97.0954V85.559H96.2904C95.8304 85.835 95.2899 86.0305 94.5424 86.1685V86.8355H96.0374V93.126H94.1629V94ZM102.727 94.1495C104.325 94.1495 105.349 92.689 105.349 89.7565C105.349 86.8355 104.325 85.4095 102.727 85.4095C101.117 85.4095 100.093 86.824 100.093 89.7565C100.093 92.689 101.117 94.1495 102.727 94.1495ZM102.727 93.31C101.761 93.31 101.117 92.2405 101.117 89.7565C101.117 87.2955 101.761 86.249 102.727 86.249C103.681 86.249 104.325 87.2955 104.325 89.7565C104.325 92.2405 103.681 93.31 102.727 93.31ZM106.438 91.1825H109.382V90.3775H106.438V91.1825ZM110.402 94H115.703V93.0915H113.369C112.943 93.0915 112.426 93.1375 111.989 93.172C113.967 91.2975 115.289 89.584 115.289 87.905C115.289 86.3985 114.346 85.4095 112.84 85.4095C111.77 85.4095 111.046 85.904 110.356 86.6515L110.965 87.2495C111.425 86.6975 112.023 86.272 112.713 86.272C113.76 86.272 114.266 86.9735 114.266 87.9395C114.266 89.3885 113.047 91.0675 110.402 93.379V94ZM119.471 94.1495C121.07 94.1495 122.093 92.689 122.093 89.7565C122.093 86.8355 121.07 85.4095 119.471 85.4095C117.861 85.4095 116.838 86.824 116.838 89.7565C116.838 92.689 117.861 94.1495 119.471 94.1495ZM119.471 93.31C118.505 93.31 117.861 92.2405 117.861 89.7565C117.861 87.2955 118.505 86.249 119.471 86.249C120.426 86.249 121.07 87.2955 121.07 89.7565C121.07 92.2405 120.426 93.31 119.471 93.31ZM123.665 94H128.288V93.126H126.598V85.559H125.793C125.333 85.835 124.792 86.0305 124.045 86.1685V86.8355H125.54V93.126H123.665V94ZM131.309 94H132.402C132.528 90.6995 132.896 88.733 134.874 86.203V85.559H129.596V86.4675H133.678C132.034 88.7675 131.447 90.803 131.309 94ZM135.94 91.1825H138.884V90.3775H135.94V91.1825ZM142.595 94.1495C144.193 94.1495 145.217 92.689 145.217 89.7565C145.217 86.8355 144.193 85.4095 142.595 85.4095C140.985 85.4095 139.961 86.824 139.961 89.7565C139.961 92.689 140.985 94.1495 142.595 94.1495ZM142.595 93.31C141.629 93.31 140.985 92.2405 140.985 89.7565C140.985 87.2955 141.629 86.249 142.595 86.249C143.549 86.249 144.193 87.2955 144.193 89.7565C144.193 92.2405 143.549 93.31 142.595 93.31ZM148.974 94.1495C150.572 94.1495 151.596 92.689 151.596 89.7565C151.596 86.8355 150.572 85.4095 148.974 85.4095C147.364 85.4095 146.34 86.824 146.34 89.7565C146.34 92.689 147.364 94.1495 148.974 94.1495ZM148.974 93.31C148.008 93.31 147.364 92.2405 147.364 89.7565C147.364 87.2955 148.008 86.249 148.974 86.249C149.928 86.249 150.572 87.2955 150.572 89.7565C150.572 92.2405 149.928 93.31 148.974 93.31ZM155.525 89.5495C156.549 89.5495 157.055 90.274 157.055 91.4125C157.055 92.5625 156.422 93.333 155.617 93.333C154.559 93.333 153.927 92.3785 153.8 90.6305C154.318 89.86 154.996 89.5495 155.525 89.5495ZM155.617 94.1495C156.928 94.1495 158.032 93.0455 158.032 91.4125C158.032 89.653 157.124 88.7675 155.698 88.7675C155.031 88.7675 154.295 89.1585 153.777 89.791C153.823 87.169 154.801 86.2835 155.951 86.2835C156.468 86.2835 156.974 86.525 157.308 86.9275L157.883 86.272C157.423 85.7775 156.79 85.4095 155.916 85.4095C154.283 85.4095 152.8 86.6745 152.8 89.975C152.8 92.758 153.996 94.1495 155.617 94.1495ZM159.857 90.8375L161.778 87.9625C162.019 87.5485 162.249 87.1345 162.456 86.7205H162.502C162.479 87.1575 162.445 87.836 162.445 88.25V90.8375H159.857ZM162.445 94H163.434V91.677H164.549V90.8375H163.434V85.559H162.272L158.765 90.987V91.677H162.445V94ZM165.926 94H170.549V93.126H168.858V85.559H168.053C167.593 85.835 167.053 86.0305 166.305 86.1685V86.8355H167.8V93.126H165.926V94ZM174.328 94.1495C175.823 94.1495 177.031 93.2525 177.031 91.746C177.031 90.596 176.237 89.837 175.248 89.607V89.561C176.134 89.2275 176.743 88.549 176.743 87.5255C176.743 86.1915 175.708 85.4095 174.294 85.4095C173.316 85.4095 172.569 85.835 171.936 86.4215L172.5 87.0885C172.971 86.6055 173.569 86.272 174.248 86.272C175.122 86.272 175.674 86.801 175.674 87.606C175.674 88.5145 175.076 89.216 173.339 89.216V90.021C175.283 90.021 175.961 90.6995 175.961 91.7C175.961 92.6775 175.248 93.2755 174.248 93.2755C173.293 93.2755 172.649 92.827 172.155 92.3095L171.626 92.9995C172.178 93.5975 173.006 94.1495 174.328 94.1495ZM178.994 90.8375L180.914 87.9625C181.156 87.5485 181.386 87.1345 181.593 86.7205H181.639C181.616 87.1575 181.581 87.836 181.581 88.25V90.8375H178.994ZM181.581 94H182.57V91.677H183.686V90.8375H182.57V85.559H181.409L177.901 90.987V91.677H181.581V94ZM193.492 86.042H189.8V84.6965H188.857V86.042H185.12V86.8125H193.492V86.042ZM186.891 89.469C186.891 88.71 187.822 88.25 189.329 88.25C190.812 88.25 191.732 88.71 191.732 89.469C191.732 90.2395 190.812 90.6995 189.329 90.6995C187.822 90.6995 186.891 90.2395 186.891 89.469ZM189.8 92.873V91.424C191.594 91.309 192.687 90.619 192.687 89.469C192.687 88.227 191.387 87.514 189.329 87.514C187.236 87.514 185.936 88.227 185.936 89.469C185.936 90.619 187.04 91.3205 188.857 91.424V92.873H184.66V93.6435H194.009V92.873H189.8Z" fill="#121212"/>
<path d="M28.4145 110.664C29.967 110.503 31.6805 109.928 32.267 108.812C32.8535 109.939 34.567 110.503 36.1195 110.664L36.315 110.181C34.6475 110.031 32.658 109.341 32.589 108.03H35.9125V107.536H32.5775V106.489H31.968V107.536H28.6445V108.03H31.945C31.876 109.341 29.8865 110.031 28.219 110.181L28.4145 110.664ZM36.8785 111.745V111.25H27.6555V111.745H31.9565V112.872H28.8055V113.343H35.0615V114.459H28.8285V116.656H35.993V116.161H29.4265V114.93H35.6595V112.872H32.566V111.745H36.8785ZM43.6626 112.688V113.171H45.8361V114.378H46.4456V106.604H45.8361V112.688H43.6626ZM41.5121 107.513C42.6391 107.513 43.4211 108.042 43.4211 108.789C43.4211 109.56 42.6391 110.077 41.5121 110.077C40.3851 110.077 39.6031 109.56 39.6031 108.789C39.6031 108.042 40.3851 107.513 41.5121 107.513ZM41.5121 110.549C43.0071 110.549 43.9961 109.87 43.9961 108.789C43.9961 107.72 43.0071 107.041 41.5121 107.041C40.0171 107.041 39.0166 107.72 39.0166 108.789C39.0166 109.87 40.0171 110.549 41.5121 110.549ZM41.2821 113.964H41.8916V111.883C42.8806 111.825 43.9041 111.745 44.8701 111.584L44.8126 111.135C42.6161 111.411 40.0631 111.434 38.1656 111.434L38.2576 111.963C39.1546 111.963 40.1781 111.963 41.2821 111.917V113.964ZM40.3161 116.035V113.608H39.7181V116.552H46.7101V116.035H40.3161ZM57.1167 106.581H56.5072V111.906H57.1167V106.581ZM49.6992 109.226C49.6992 108.249 50.5387 107.513 51.6772 107.513C52.8157 107.513 53.6552 108.249 53.6552 109.226C53.6552 110.215 52.8157 110.94 51.6772 110.94C50.5387 110.94 49.6992 110.215 49.6992 109.226ZM54.2532 109.226C54.2532 107.904 53.1837 106.995 51.6772 106.995C50.1707 106.995 49.1012 107.904 49.1012 109.226C49.1012 110.549 50.1707 111.446 51.6772 111.446C53.1837 111.446 54.2532 110.549 54.2532 109.226ZM51.2632 116.138V114.723H57.1167V112.458H50.6307V112.964H56.5187V114.24H50.6652V116.644H57.5192V116.138H51.2632Z" fill="#121212"/>
<path d="M80.506 116H85.8075V115.091H83.473C83.0475 115.091 82.53 115.137 82.093 115.172C84.071 113.297 85.3935 111.584 85.3935 109.905C85.3935 108.398 84.4505 107.409 82.944 107.409C81.8745 107.409 81.15 107.904 80.46 108.651L81.0695 109.249C81.5295 108.697 82.1275 108.272 82.8175 108.272C83.864 108.272 84.37 108.973 84.37 109.939C84.37 111.388 83.151 113.067 80.506 115.379V116ZM89.5759 116.15C91.1744 116.15 92.1979 114.689 92.1979 111.756C92.1979 108.835 91.1744 107.409 89.5759 107.409C87.9659 107.409 86.9424 108.824 86.9424 111.756C86.9424 114.689 87.9659 116.15 89.5759 116.15ZM89.5759 115.31C88.6099 115.31 87.9659 114.24 87.9659 111.756C87.9659 109.295 88.6099 108.249 89.5759 108.249C90.5304 108.249 91.1744 109.295 91.1744 111.756C91.1744 114.24 90.5304 115.31 89.5759 115.31ZM93.7698 116H98.3928V115.126H96.7023V107.559H95.8973C95.4373 107.835 94.8968 108.03 94.1493 108.168V108.835H95.6443V115.126H93.7698V116ZM101.414 116H102.506C102.633 112.699 103.001 110.733 104.979 108.203V107.559H99.7002V108.467H103.783C102.138 110.767 101.552 112.803 101.414 116ZM106.045 113.182H108.989V112.377H106.045V113.182ZM112.699 116.15C114.298 116.15 115.321 114.689 115.321 111.756C115.321 108.835 114.298 107.409 112.699 107.409C111.089 107.409 110.066 108.824 110.066 111.756C110.066 114.689 111.089 116.15 112.699 116.15ZM112.699 115.31C111.733 115.31 111.089 114.24 111.089 111.756C111.089 109.295 111.733 108.249 112.699 108.249C113.654 108.249 114.298 109.295 114.298 111.756C114.298 114.24 113.654 115.31 112.699 115.31ZM118.883 116.15C120.309 116.15 121.643 115.103 121.643 113.251C121.643 111.4 120.504 110.572 119.101 110.572C118.595 110.572 118.227 110.698 117.848 110.905L118.055 108.467H121.24V107.559H117.135L116.87 111.515L117.434 111.86C117.917 111.538 118.273 111.365 118.837 111.365C119.895 111.365 120.585 112.078 120.585 113.286C120.585 114.516 119.78 115.275 118.791 115.275C117.813 115.275 117.204 114.827 116.721 114.344L116.203 115.034C116.767 115.597 117.572 116.15 118.883 116.15ZM122.789 113.182H125.733V112.377H122.789V113.182ZM126.753 116L132.055 116V115.091H129.72C129.295 115.091 128.777 115.137 128.34 115.172C130.318 113.297 131.641 111.584 131.641 109.905C131.641 108.398 130.698 107.409 129.191 107.409C128.122 107.409 127.397 107.904 126.707 108.651L127.317 109.249C127.777 108.697 128.375 108.272 129.065 108.272C130.111 108.272 130.617 108.973 130.617 109.939C130.617 111.388 129.398 113.067 126.753 115.379V116ZM133.948 112.837L135.869 109.962C136.11 109.548 136.34 109.134 136.547 108.72H136.593C136.57 109.157 136.536 109.836 136.536 110.25V112.837H133.948ZM136.536 116H137.525V113.677H138.64V112.837H137.525V107.559H136.363L132.856 112.987V113.677H136.536V116Z" fill="#121212"/>
<path d="M35.786 131.916H29.438V129.593H35.7055V129.076H28.84V132.434H35.786V131.916ZM32.267 138.276C30.519 138.276 29.4035 137.781 29.4035 136.953C29.4035 136.125 30.519 135.631 32.267 135.631C34.015 135.631 35.1305 136.125 35.1305 136.953C35.1305 137.781 34.015 138.276 32.267 138.276ZM32.267 135.136C30.105 135.136 28.794 135.792 28.794 136.953C28.794 138.127 30.105 138.771 32.267 138.771C34.429 138.771 35.74 138.127 35.74 136.953C35.74 135.792 34.429 135.136 32.267 135.136ZM27.6555 133.572V134.09H36.89V133.572H27.6555ZM39.2581 136.24H45.7096V138.667H46.3191V135.723H39.2581V136.24ZM43.1566 134.297V133.009H46.4916V132.503H40.0401V131.18H46.2616V128.892H39.4191V129.386H45.6636V130.697H39.4421V133.009H42.5471V134.297H38.2116V134.814H47.4921V134.297H43.1566ZM57.1167 128.581H56.5072V133.906H57.1167V128.581ZM49.6992 131.226C49.6992 130.249 50.5387 129.513 51.6772 129.513C52.8157 129.513 53.6552 130.249 53.6552 131.226C53.6552 132.215 52.8157 132.94 51.6772 132.94C50.5387 132.94 49.6992 132.215 49.6992 131.226ZM54.2532 131.226C54.2532 129.904 53.1837 128.995 51.6772 128.995C50.1707 128.995 49.1012 129.904 49.1012 131.226C49.1012 132.549 50.1707 133.446 51.6772 133.446C53.1837 133.446 54.2532 132.549 54.2532 131.226ZM51.2632 138.138V136.723H57.1167V134.458H50.6307V134.964H56.5187V136.24H50.6652V138.644H57.5192V138.138H51.2632Z" fill="#121212"/>
<path d="M80.506 138H85.8075V137.091H83.473C83.0475 137.091 82.53 137.137 82.093 137.172C84.071 135.297 85.3935 133.584 85.3935 131.905C85.3935 130.398 84.4505 129.409 82.944 129.409C81.8745 129.409 81.15 129.904 80.46 130.651L81.0695 131.249C81.5295 130.697 82.1275 130.272 82.8175 130.272C83.864 130.272 84.37 130.973 84.37 131.939C84.37 133.388 83.151 135.067 80.506 137.379V138ZM89.5759 138.15C91.1744 138.15 92.1979 136.689 92.1979 133.756C92.1979 130.835 91.1744 129.409 89.5759 129.409C87.9659 129.409 86.9424 130.824 86.9424 133.756C86.9424 136.689 87.9659 138.15 89.5759 138.15ZM89.5759 137.31C88.6099 137.31 87.9659 136.24 87.9659 133.756C87.9659 131.295 88.6099 130.249 89.5759 130.249C90.5304 130.249 91.1744 131.295 91.1744 133.756C91.1744 136.24 90.5304 137.31 89.5759 137.31ZM93.7698 138H98.3928V137.126H96.7023V129.559H95.8973C95.4373 129.835 94.8968 130.03 94.1493 130.168V130.835H95.6443V137.126H93.7698V138ZM102.345 138.15C103.932 138.15 104.99 137.195 104.99 135.964C104.99 134.814 104.3 134.182 103.564 133.756V133.699C104.07 133.308 104.691 132.549 104.691 131.664C104.691 130.364 103.817 129.444 102.38 129.444C101.069 129.444 100.068 130.295 100.068 131.583C100.068 132.468 100.586 133.101 101.207 133.526V133.584C100.436 133.998 99.6542 134.78 99.6542 135.907C99.6542 137.206 100.793 138.15 102.345 138.15ZM102.92 133.423C101.931 133.032 101.023 132.595 101.023 131.583C101.023 130.766 101.586 130.214 102.368 130.214C103.277 130.214 103.794 130.893 103.794 131.721C103.794 132.342 103.495 132.917 102.92 133.423ZM102.368 137.367C101.356 137.367 100.609 136.712 100.609 135.815C100.609 135.01 101.08 134.343 101.759 133.906C102.955 134.389 103.99 134.814 103.99 135.941C103.99 136.781 103.334 137.367 102.368 137.367ZM106.045 135.182H108.989V134.377H106.045V135.182ZM112.699 138.15C114.298 138.15 115.321 136.689 115.321 133.756C115.321 130.835 114.298 129.409 112.699 129.409C111.089 129.409 110.066 130.824 110.066 133.756C110.066 136.689 111.089 138.15 112.699 138.15ZM112.699 137.31C111.733 137.31 111.089 136.24 111.089 133.756C111.089 131.295 111.733 130.249 112.699 130.249C113.654 130.249 114.298 131.295 114.298 133.756C114.298 136.24 113.654 137.31 112.699 137.31ZM118.158 138H119.251C119.377 134.699 119.745 132.733 121.723 130.203V129.559H116.445V130.467H120.527C118.883 132.767 118.296 134.803 118.158 138ZM122.789 135.182H125.733V134.377H122.789V135.182ZM126.753 138H132.055V137.091H129.72C129.295 137.091 128.777 137.137 128.34 137.172C130.318 135.297 131.641 133.584 131.641 131.905C131.641 130.398 130.698 129.409 129.191 129.409C128.122 129.409 127.397 129.904 126.707 130.651L127.317 131.249C127.777 130.697 128.375 130.272 129.065 130.272C130.111 130.272 130.617 130.973 130.617 131.939C130.617 133.388 129.398 135.067 126.753 137.379V138ZM134.903 138H135.995C136.122 134.699 136.49 132.733 138.468 130.203V129.559H133.189V130.467H137.272C135.627 132.767 135.041 134.803 134.903 138Z" fill="#121212"/>
<path d="M32.175 154.928H28.7595V153.111H32.175V154.928ZM32.773 150.984H32.175V152.605H28.7595V150.984H28.15V155.434H32.773V150.984ZM29.806 158.758H35.5215V156.469H29.185V156.964H34.9235V158.263H29.208L29.208 160.656H35.9355V160.15H29.806V158.758ZM35.5215 152.916V150.581H34.912V155.917H35.5215V153.445H37.1085V152.916H35.5215ZM42.6966 155.331H39.3271V151.892H42.6966V155.331ZM45.9396 152.858V154.365H43.2946V152.858H45.9396ZM43.2946 154.882H45.9396V156.665H46.5491V150.593H45.9396V152.341H43.2946V151.386H38.7406V155.837H43.2946V154.882ZM43.2486 160.276C41.5811 160.276 40.5116 159.747 40.5116 158.884C40.5116 158.033 41.5811 157.493 43.2486 157.493C44.9161 157.493 45.9971 158.033 45.9971 158.884C45.9971 159.747 44.9161 160.276 43.2486 160.276ZM43.2486 156.998C41.1786 156.998 39.9021 157.677 39.9021 158.884C39.9021 160.092 41.1786 160.771 43.2486 160.771C45.3186 160.771 46.5951 160.092 46.5951 158.884C46.5951 157.677 45.3186 156.998 43.2486 156.998ZM53.2757 155.331H49.9062V151.892H53.2757V155.331ZM56.5187 152.858V154.365H53.8737V152.858H56.5187ZM53.8737 154.882H56.5187V156.665H57.1282V150.593H56.5187V152.341H53.8737V151.386H49.3197V155.837H53.8737V154.882ZM53.8277 160.276C52.1602 160.276 51.0907 159.747 51.0907 158.884C51.0907 158.033 52.1602 157.493 53.8277 157.493C55.4952 157.493 56.5762 158.033 56.5762 158.884C56.5762 159.747 55.4952 160.276 53.8277 160.276ZM53.8277 156.998C51.7577 156.998 50.4812 157.677 50.4812 158.884C50.4812 160.092 51.7577 160.771 53.8277 160.771C55.8977 160.771 57.1742 160.092 57.1742 158.884C57.1742 157.677 55.8977 156.998 53.8277 156.998ZM67.6958 150.604H67.0863V156.918H67.6958V150.604ZM65.6488 155.768C64.2113 155.331 62.9348 154.158 62.9348 152.732V152.467H65.3843V151.961H62.9348V150.581H62.3253V151.961H59.8528V152.467H62.3253V152.732C62.3253 154.261 61.0833 155.549 59.6573 156.044L59.9678 156.527C61.1753 156.09 62.2218 155.124 62.6473 153.882C63.0843 155.009 64.1653 155.86 65.3498 156.251L65.6488 155.768ZM64.3378 160.276C62.6473 160.276 61.5663 159.77 61.5663 158.965C61.5663 158.148 62.6473 157.654 64.3378 157.654C66.0398 157.654 67.1208 158.148 67.1208 158.965C67.1208 159.77 66.0398 160.276 64.3378 160.276ZM64.3378 157.148C62.2218 157.148 60.9568 157.803 60.9568 158.965C60.9568 160.115 62.2218 160.771 64.3378 160.771C66.4538 160.771 67.7303 160.115 67.7303 158.965C67.7303 157.803 66.4538 157.148 64.3378 157.148Z" fill="#121212"/>
<path d="M87.9005 152.709C87.9005 153.985 87.9005 155.342 87.544 157.182L88.4755 157.297C88.8435 155.365 88.8435 154.02 88.8435 152.709V151.57H81.5755V152.341H87.9005V152.709ZM86.3825 158.631V155.216H85.451V158.631H83.8295V155.216H82.898V158.631H80.6095V159.402H89.936V158.631H86.3825ZM95.8461 160.127C94.1901 160.127 93.2586 159.804 93.2586 159.183C93.2586 158.574 94.1901 158.24 95.8461 158.24C97.5136 158.24 98.4336 158.574 98.4336 159.183C98.4336 159.804 97.5136 160.127 95.8461 160.127ZM95.8461 157.539C93.6036 157.539 92.3156 158.114 92.3156 159.183C92.3156 160.265 93.6036 160.84 95.8461 160.84C98.0886 160.84 99.3766 160.265 99.3766 159.183C99.3766 158.114 98.0886 157.539 95.8461 157.539ZM96.3176 155.998V154.986H99.4226V154.25H93.3506V153.238H99.0891V152.525H93.3506V151.57H99.3651V150.834H92.4076V154.986H95.3746V155.998H91.1771V156.757H100.515V155.998H96.3176ZM105.777 151.639H104.845V158.24H105.501C106.743 158.24 107.893 158.171 109.238 157.895L109.112 157.102C107.916 157.343 106.881 157.412 105.777 157.424V151.639ZM110.009 153.997H107.709V154.779H110.009V160.334H110.906V150.788H110.009V153.997ZM112.205 150.524V160.851H113.102V150.524H112.205ZM123.199 156.101H117.069V154.468H122.865V153.721H117.069V152.191H123.095V151.432H116.115V156.86H123.199V156.101ZM114.907 158.746V159.517H124.268V158.746H114.907ZM128.821 151.777C129.822 151.777 130.523 152.306 130.523 153.077C130.523 153.87 129.822 154.388 128.821 154.388C127.821 154.388 127.119 153.87 127.119 153.077C127.119 152.306 127.821 151.777 128.821 151.777ZM128.821 155.112C130.351 155.112 131.409 154.296 131.409 153.077C131.409 151.869 130.351 151.053 128.821 151.053C127.292 151.053 126.234 151.869 126.234 153.077C126.234 154.296 127.292 155.112 128.821 155.112ZM132.248 155.63C130.006 155.952 127.407 155.963 125.463 155.963L125.578 156.757C126.395 156.757 127.326 156.745 128.304 156.711V160.541H129.247V156.665C130.259 156.607 131.294 156.504 132.306 156.331L132.248 155.63ZM133.03 150.547V157.585H130.696V158.321H133.03V160.863H133.973V150.547H133.03ZM136.928 154.721L137.066 155.503L143.287 155.158C143.23 155.952 143.115 156.803 142.885 157.792L143.816 157.884C144.265 155.768 144.265 154.376 144.265 152.847V151.582H137.192V152.352H143.345V152.847C143.345 153.376 143.345 153.905 143.322 154.445L136.928 154.721ZM136.088 158.643V159.413H145.415V158.643H136.088ZM148.99 157.711C148.162 157.711 147.645 156.665 147.645 154.974C147.645 153.318 148.162 152.272 148.99 152.272C149.795 152.272 150.324 153.318 150.324 154.974C150.324 156.665 149.795 157.711 148.99 157.711ZM152.475 154.549H151.175C151.06 152.605 150.232 151.398 148.99 151.398C147.645 151.398 146.782 152.778 146.782 154.974C146.782 157.205 147.645 158.585 148.99 158.585C150.255 158.585 151.095 157.343 151.175 155.319H152.475V160.345H153.372V150.765H152.475V154.549ZM154.522 150.535V160.851H155.419V150.535H154.522ZM160.416 151.651V152.41H164.292C164.096 154.859 162.716 156.837 159.945 158.16L160.451 158.93C163.878 157.251 165.246 154.629 165.246 151.651H160.416ZM167.328 150.535V160.851H168.271V150.535H167.328ZM174.664 155.63L171.743 155.63V153.744H174.664V155.63ZM175.584 151.283H174.664V153.008H171.743V151.283L170.811 151.283V156.389L175.584 156.389V151.283ZM172.916 157.389H171.973V160.621L178.85 160.621V159.85L172.916 159.85V157.389ZM178.39 153.664V150.547H177.447V158.114H178.39V154.457H179.908V153.664H178.39ZM183.989 157.769C183.058 157.769 182.379 157.102 182.379 156.182C182.379 155.25 183.058 154.583 183.989 154.583C184.932 154.583 185.611 155.25 185.611 156.182C185.611 157.102 184.932 157.769 183.989 157.769ZM183.989 153.801C182.54 153.801 181.494 154.79 181.494 156.182C181.494 157.585 182.54 158.551 183.989 158.551C185.461 158.551 186.508 157.585 186.508 156.182C186.508 154.79 185.461 153.801 183.989 153.801ZM184.449 150.662H183.506V152.191H180.907V152.95H186.991V152.191H184.449V150.662ZM190.602 154.779H188.911V150.547H187.968V160.851H188.911V155.572H190.602V154.779ZM196.754 156.101C196.823 155.745 196.869 155.354 196.869 154.928C196.869 154.457 196.811 154.02 196.719 153.617H199.1V156.101H196.754ZM194.304 157.688C193.315 157.688 192.625 156.607 192.625 154.928C192.625 153.261 193.315 152.18 194.304 152.18C195.282 152.18 195.983 153.261 195.983 154.928C195.983 156.607 195.282 157.688 194.304 157.688ZM199.1 150.535V152.847H196.455C196.018 151.881 195.259 151.329 194.304 151.329C192.798 151.329 191.728 152.732 191.728 154.928C191.728 157.125 192.798 158.528 194.304 158.528C195.293 158.528 196.098 157.918 196.524 156.872H199.1V160.874H200.043V150.535H199.1ZM213.147 150.547H212.204V155.894H213.147V150.547ZM211.008 154.951C209.479 154.503 208.409 153.318 208.409 151.996V151.881H210.744V151.122H205.086V151.881H207.443V151.996C207.443 153.399 206.385 154.664 204.833 155.158L205.281 155.906C206.535 155.48 207.501 154.583 207.938 153.445C208.409 154.503 209.364 155.319 210.571 155.687L211.008 154.951ZM207.432 159.988V158.861H213.159V156.389H206.477V157.125H212.227V158.16H206.5V160.736H213.504V159.988H207.432ZM222.818 152.985V154.33H220.438V152.985H222.818ZM219.506 155.262H216.723V153.571H219.506V155.262ZM220.438 155.101H222.818V156.791H223.773V150.547H222.818V152.226H220.438V151.179H219.506V152.824H216.723V151.179H215.792V156.021H220.438V155.101ZM220.357 160.104C218.816 160.104 217.873 159.666 217.873 158.919C217.873 158.171 218.816 157.723 220.357 157.723C221.921 157.723 222.864 158.171 222.864 158.919C222.864 159.666 221.921 160.104 220.357 160.104ZM220.357 156.998C218.241 156.998 216.93 157.7 216.93 158.919C216.93 160.138 218.241 160.84 220.357 160.84C222.485 160.84 223.807 160.138 223.807 158.919C223.807 157.7 222.485 156.998 220.357 156.998ZM231.806 151.8C232.806 151.8 233.519 152.341 233.519 153.146C233.519 153.951 232.806 154.491 231.806 154.491C230.794 154.491 230.081 153.951 230.081 153.146C230.081 152.341 230.794 151.8 231.806 151.8ZM231.806 155.262C233.335 155.262 234.428 154.399 234.428 153.146C234.428 151.881 233.335 151.018 231.806 151.018C230.265 151.018 229.172 151.881 229.172 153.146C229.172 154.399 230.265 155.262 231.806 155.262ZM235.198 155.768C232.933 156.113 230.322 156.136 228.402 156.136L228.528 156.929C229.379 156.929 230.357 156.918 231.38 156.872V160.529H232.323V156.814C233.301 156.757 234.301 156.642 235.279 156.469L235.198 155.768ZM235.946 150.547V160.863H236.889V150.547H235.946ZM244.996 151.616H242.477V150.432H241.534V151.616H239.016V152.375H244.996V151.616ZM240.511 154.744C240.511 154.077 241.132 153.617 242.006 153.617C242.88 153.617 243.501 154.077 243.501 154.744C243.501 155.411 242.88 155.871 242.006 155.871C241.132 155.871 240.511 155.411 240.511 154.744ZM244.386 154.744C244.386 153.64 243.397 152.904 242.006 152.904C240.603 152.904 239.614 153.64 239.614 154.744C239.614 155.848 240.603 156.573 242.006 156.573C243.397 156.573 244.386 155.848 244.386 154.744ZM241.718 158.079H246.583V159.954H241.718V158.079ZM240.798 160.713H247.503V157.332H240.798V160.713ZM246.548 150.547V153.675H244.835V154.445H246.548V156.78H247.503V150.547H246.548ZM255.835 152.375H258.261V151.593H252.5V152.375H254.892V153.686C254.892 155.469 253.638 157.412 252.155 158.114L252.707 158.873C253.88 158.275 254.892 156.975 255.363 155.469C255.858 156.883 256.87 158.068 258.066 158.62L258.595 157.861C257.077 157.217 255.835 155.434 255.835 153.686V152.375ZM259.653 150.547V160.851H260.596V150.547H259.653ZM264.333 157.953H270.278V160.863H271.233V157.182H264.333V157.953ZM268.082 154.365C268.151 154.123 268.197 153.87 268.197 153.583C268.197 153.307 268.151 153.054 268.082 152.813H270.278V154.365H268.082ZM265.54 155.273C264.54 155.273 263.792 154.572 263.792 153.583C263.792 152.617 264.54 151.915 265.54 151.915C266.552 151.915 267.3 152.617 267.3 153.583C267.3 154.572 266.552 155.273 265.54 155.273ZM270.278 150.547V152.053H267.679C267.196 151.467 266.437 151.11 265.54 151.11C264.022 151.11 262.895 152.134 262.895 153.583C262.895 155.043 264.022 156.078 265.54 156.078C266.437 156.078 267.185 155.722 267.668 155.135H270.278V156.619H271.233V150.535L270.278 150.547ZM277.971 151.421C279.661 151.421 280.627 151.812 280.627 152.502C280.627 153.192 279.661 153.583 277.971 153.583C276.28 153.583 275.314 153.192 275.314 152.502C275.314 151.812 276.28 151.421 277.971 151.421ZM277.971 154.284C280.236 154.284 281.593 153.664 281.593 152.502C281.593 151.34 280.236 150.708 277.971 150.708C275.705 150.708 274.348 151.34 274.348 152.502C274.348 153.664 275.705 154.284 277.971 154.284ZM275.383 158.953H281.444V156.63H274.429V157.343H280.512V158.263H274.463V160.736H281.754V160H275.383V158.953ZM273.302 154.986V155.745H282.64V154.986H273.302ZM81.058 168.191V168.961H84.807C84.623 170.709 83.1165 172.066 80.598 172.745L80.966 173.492C84.002 172.664 85.819 170.813 85.819 168.191H81.058ZM83.0475 174.631H87.682V176.942H83.0475V174.631ZM82.116 177.702H88.6135V173.872H82.116V177.702ZM90.143 170.054H88.6135V167.524H87.6705V173.389H88.6135V170.836H90.143V170.054ZM94.8456 168.432H93.9141V170.284C93.9141 172.239 92.6606 174.217 91.1426 174.941L91.7176 175.712C92.9251 175.091 93.9141 173.803 94.3856 172.25C94.8801 173.722 95.8691 174.941 97.0421 175.516L97.6056 174.757C96.0761 174.067 94.8456 172.17 94.8456 170.284V168.432ZM98.6866 167.535V177.874H99.6296V167.535H98.6866ZM104.792 174.769C103.861 174.769 103.182 174.102 103.182 173.182C103.182 172.25 103.861 171.583 104.792 171.583C105.735 171.583 106.414 172.25 106.414 173.182C106.414 174.102 105.735 174.769 104.792 174.769ZM104.792 170.801C103.343 170.801 102.297 171.79 102.297 173.182C102.297 174.585 103.343 175.551 104.792 175.551C106.264 175.551 107.311 174.585 107.311 173.182C107.311 171.79 106.264 170.801 104.792 170.801ZM105.252 167.662H104.309V169.191H101.71V169.95H107.794V169.191H105.252V167.662ZM111.405 171.779H109.714V167.547H108.771V177.851H109.714V172.572H111.405V171.779ZM119.626 169.594C119.626 170.836 119.626 172.285 119.235 174.263L120.178 174.366C120.569 172.285 120.569 170.87 120.569 169.594V168.57H113.336V169.341H119.626V169.594ZM116.924 175.631V171.94H115.981V175.631H112.358V176.402H121.685V175.631H116.924ZM131.006 170.215V170.985H133.042V173.688H133.996V167.547H133.042V170.215H131.006ZM131.581 172.561C130.086 172.032 129.074 170.732 129.074 169.41V169.053H131.34V168.294H125.831V169.053H128.131V169.41C128.131 170.893 127.073 172.285 125.532 172.848L126.027 173.596C127.234 173.136 128.189 172.17 128.626 170.974C129.074 172.032 129.96 172.883 131.11 173.297L131.581 172.561ZM130.592 177.115C129.04 177.115 128.097 176.678 128.097 175.93C128.097 175.183 129.04 174.734 130.592 174.734C132.145 174.734 133.088 175.183 133.088 175.93C133.088 176.678 132.145 177.115 130.592 177.115ZM130.592 174.01C128.476 174.01 127.154 174.711 127.154 175.93C127.154 177.15 128.476 177.851 130.592 177.851C132.708 177.851 134.031 177.15 134.031 175.93C134.031 174.711 132.708 174.01 130.592 174.01ZM138.112 170.882H143.379V172.779H138.112V170.882ZM141.217 175.758V173.538H144.299V168.271H143.379V170.111H138.112V168.271H137.181V173.538H140.263V175.758H136.077V176.528H145.426V175.758H141.217ZM153.878 169.341H147.852V171.549H154.993V170.87H148.783V169.985H154.809V167.834H147.829V168.501H153.878V169.341ZM148.726 176.08H154.844V173.883H147.771V174.562H153.912V175.424H147.794V177.713H155.166V177.035H148.726V176.08ZM146.656 172.331V173.044H156.005V172.331H146.656ZM162.831 169.513H164.671V168.743H159.968V169.513H161.923V170.445C161.923 172.342 161.118 174.217 159.68 175.079L160.255 175.781C161.279 175.137 162.026 173.929 162.383 172.515C162.739 173.826 163.452 174.93 164.453 175.528L165.028 174.838C163.602 174.033 162.831 172.239 162.831 170.445V169.513ZM165.591 171.238H163.889V172.009H165.591V177.311H166.488V167.765H165.591V171.238ZM167.661 167.524V177.84H168.57V167.524H167.661ZM177.596 168.938C177.596 169.743 177.596 170.503 177.32 171.56L178.24 171.664C178.528 170.606 178.528 169.766 178.528 168.938V168.064H171.501V168.823H177.596V168.938ZM175.009 177.104C173.399 177.104 172.364 176.666 172.364 175.953C172.364 175.217 173.399 174.78 175.009 174.78C176.63 174.78 177.665 175.217 177.665 175.953C177.665 176.666 176.63 177.104 175.009 177.104ZM175.009 174.056C172.812 174.056 171.421 174.757 171.421 175.953C171.421 177.127 172.812 177.84 175.009 177.84C177.205 177.84 178.608 177.127 178.608 175.953C178.608 174.757 177.205 174.056 175.009 174.056ZM175.158 172.342V170.364H174.215V172.342H170.409V173.101L179.689 173.101V172.342L175.158 172.342ZM183.989 174.769C183.058 174.769 182.379 174.102 182.379 173.182C182.379 172.25 183.058 171.583 183.989 171.583C184.932 171.583 185.611 172.25 185.611 173.182C185.611 174.102 184.932 174.769 183.989 174.769ZM183.989 170.801C182.54 170.801 181.494 171.79 181.494 173.182C181.494 174.585 182.54 175.551 183.989 175.551C185.461 175.551 186.508 174.585 186.508 173.182C186.508 171.79 185.461 170.801 183.989 170.801ZM184.449 167.662H183.506V169.191H180.907V169.95H186.991V169.191H184.449V167.662ZM190.602 171.779H188.911V167.547H187.968V177.851H188.911V172.572H190.602V171.779ZM199.813 170.64H193.741V167.915H192.798V171.411H199.813V170.64ZM193.672 174.585H192.729V177.598H199.87V176.827H193.672V174.585ZM191.533 172.791V173.55H200.882V172.791H191.533ZM210.675 172.526C209.157 172.02 208.179 170.813 208.179 169.467V169.065H210.456V168.306H204.925V169.065H207.236V169.467C207.236 170.951 206.201 172.285 204.649 172.825L205.132 173.573C206.362 173.136 207.294 172.216 207.731 171.043C208.168 172.066 209.053 172.883 210.226 173.262L210.675 172.526ZM209.421 177.092C207.88 177.092 206.96 176.666 206.96 175.93C206.96 175.206 207.88 174.78 209.421 174.78C210.939 174.78 211.871 175.206 211.871 175.93C211.871 176.666 210.939 177.092 209.421 177.092ZM209.421 174.033C207.305 174.033 206.017 174.734 206.017 175.93C206.017 177.138 207.305 177.84 209.421 177.84C211.514 177.84 212.814 177.138 212.814 175.93C212.814 174.734 211.514 174.033 209.421 174.033ZM212.699 170.146V167.547H211.756V173.768H212.699V170.939H214.228V170.146H212.699ZM219.069 170.077H221.427V169.318H219.081V167.719H218.126V169.318H215.746V170.077H218.138V170.87C218.138 172.676 216.999 174.412 215.47 175.137L215.999 175.85C217.183 175.275 218.161 174.102 218.621 172.664C219.092 174.021 220.07 175.137 221.254 175.677L221.772 174.941C220.242 174.274 219.069 172.595 219.069 170.87V170.077ZM222.772 167.524V177.84H223.727V167.524H222.772ZM236.877 167.535H235.934V173.458H236.877V167.535ZM232.864 171.664H229.885V168.95H232.864V171.664ZM233.784 168.202H228.965V172.423H233.784V168.202ZM237.119 174.884V174.159H234.094V173.159H233.14V174.159H230.115V174.884H233.128C233.117 175.907 231.472 176.885 229.713 177.092L230.023 177.817C231.576 177.598 233.002 176.908 233.623 175.93C234.232 176.885 235.612 177.598 237.165 177.817L237.487 177.092C235.716 176.873 234.117 175.873 234.106 174.884H237.119ZM245.854 172.181H242.933V170.479H245.854V172.181ZM246.774 168.191H245.854V169.743H242.933V168.191H242.001V172.94H246.774V168.191ZM246.302 177.104C244.761 177.104 243.841 176.666 243.841 175.93C243.841 175.194 244.761 174.769 246.302 174.769C247.82 174.769 248.752 175.194 248.752 175.93C248.752 176.666 247.82 177.104 246.302 177.104ZM246.302 174.01C244.198 174.01 242.898 174.711 242.898 175.93C242.898 177.15 244.198 177.851 246.302 177.851C248.395 177.851 249.695 177.15 249.695 175.93C249.695 174.711 248.395 174.01 246.302 174.01ZM249.58 170.134V167.535H248.637V173.745H249.58V170.916H251.109V170.134H249.58ZM259.71 176.942H254.972V175.654H259.71V176.942ZM259.71 174.918H254.972V173.665H254.041V177.702H260.642V173.665H259.71V174.918ZM256.387 172.02H253.604V170.387H256.387V172.02ZM259.699 167.547V170.077H257.318V168.076H256.387V169.651H253.604V168.076H252.672V172.791H257.318V170.847H259.699V173.182H260.653V167.547H259.699Z" fill="#121212"/>
<path d="M32.175 194.928H28.7595V193.111H32.175V194.928ZM32.773 190.984H32.175V192.605H28.7595V190.984H28.15V195.434H32.773V190.984ZM29.806 198.758H35.5215V196.469H29.185V196.964H34.9235V198.263H29.208L29.208 200.656H35.9355V200.15H29.806V198.758ZM35.5215 192.916V190.581H34.912V195.917H35.5215V193.445H37.1085V192.916H35.5215ZM42.6966 195.331H39.3271V191.892H42.6966V195.331ZM45.9396 192.858V194.365H43.2946V192.858H45.9396ZM43.2946 194.882H45.9396V196.665H46.5491V190.593H45.9396V192.341H43.2946V191.386H38.7406V195.837H43.2946V194.882ZM43.2486 200.276C41.5811 200.276 40.5116 199.747 40.5116 198.884C40.5116 198.033 41.5811 197.493 43.2486 197.493C44.9161 197.493 45.9971 198.033 45.9971 198.884C45.9971 199.747 44.9161 200.276 43.2486 200.276ZM43.2486 196.998C41.1786 196.998 39.9021 197.677 39.9021 198.884C39.9021 200.092 41.1786 200.771 43.2486 200.771C45.3186 200.771 46.5951 200.092 46.5951 198.884C46.5951 197.677 45.3186 196.998 43.2486 196.998ZM52.0682 192.203H54.4717V191.674H49.0207V192.203H51.4702V193.916C51.4702 195.687 49.9982 197.642 48.6757 198.31L49.0552 198.815C50.1592 198.206 51.3207 196.803 51.7692 195.25C52.2177 196.688 53.3217 197.976 54.4257 198.562L54.7822 198.068C53.4367 197.412 52.0682 195.584 52.0682 193.916V192.203ZM58.3587 194.848H56.5762V190.593H55.9667V200.805H56.5762V195.365H58.3587V194.848Z" fill="#121212"/>
<path d="M88.1075 190.535V200.874H89.0505V190.535H88.1075ZM83.611 191.329C82.0815 191.329 80.989 192.732 80.989 194.928C80.989 197.125 82.0815 198.528 83.611 198.528C85.1405 198.528 86.233 197.125 86.233 194.928C86.233 192.732 85.1405 191.329 83.611 191.329ZM83.611 192.18C84.6115 192.18 85.3245 193.261 85.3245 194.928C85.3245 196.607 84.6115 197.688 83.611 197.688C82.599 197.688 81.886 196.607 81.886 194.928C81.886 193.261 82.599 192.18 83.611 192.18ZM99.9746 193.905C98.1461 193.64 96.3406 192.479 96.3406 191.168V190.708H95.3746V191.168C95.3746 192.513 93.5806 193.64 91.7406 193.905L92.0856 194.641C93.6841 194.388 95.2136 193.571 95.8576 192.387C96.5131 193.56 98.0311 194.388 99.6181 194.641L99.9746 193.905ZM95.8576 200.115C94.2246 200.115 93.2701 199.724 93.2701 199.011C93.2701 198.31 94.2246 197.907 95.8576 197.907C97.4676 197.907 98.4221 198.31 98.4221 199.011C98.4221 199.724 97.4676 200.115 95.8576 200.115ZM95.8576 197.182C93.6496 197.182 92.3156 197.838 92.3156 199.011C92.3156 200.196 93.6496 200.851 95.8576 200.851C98.0541 200.851 99.3766 200.196 99.3766 199.011C99.3766 197.838 98.0541 197.182 95.8576 197.182ZM91.1886 195.457V196.228H100.515V195.457H91.1886ZM104.815 192.525H106.69V191.754H101.906V192.525H103.907V193.33C103.907 195.423 103.136 197.182 101.664 198.01L102.239 198.723C103.309 198.102 104.033 196.987 104.378 195.584C104.746 196.803 105.459 197.803 106.471 198.367L107.023 197.642C105.563 196.883 104.815 195.216 104.815 193.33V192.525ZM109.657 190.524V194.698H108.3V190.765H107.414V200.345H108.3V195.48H109.657V200.851H110.565V190.524H109.657ZM112.6 202.185C113.635 201.748 114.279 200.886 114.279 199.781C114.279 199.011 113.945 198.539 113.393 198.539C112.968 198.539 112.6 198.827 112.6 199.275C112.6 199.758 112.968 200.012 113.37 200.012C113.416 200.012 113.451 200.012 113.497 200C113.497 200.679 113.071 201.242 112.347 201.564L112.6 202.185ZM118.775 191.191V191.961H122.512C122.328 193.709 120.753 195.066 118.234 195.722L118.614 196.469C121.627 195.664 123.524 193.824 123.524 191.191H118.775ZM120.833 197.608H125.652V199.942H120.833V197.608ZM119.913 200.702H126.583V196.86H119.913V200.702ZM125.64 190.535V196.366H126.583V190.535H125.64ZM129.618 195.549C131.217 195.273 132.735 194.411 133.367 193.192C133.988 194.411 135.518 195.273 137.116 195.549L137.484 194.802C135.667 194.537 133.885 193.353 133.885 191.996V191.938H137.116V191.179H129.584V191.938H132.838V191.996C132.838 193.353 131.056 194.537 129.262 194.802L129.618 195.549ZM138.025 196.412H128.71V197.182H132.873V200.851H133.816V197.182H138.036L138.025 196.412ZM140.335 193.594C140.335 192.64 141.094 191.95 142.095 191.95C143.107 191.95 143.843 192.64 143.843 193.594C143.843 194.56 143.107 195.25 142.095 195.25C141.094 195.25 140.335 194.56 140.335 193.594ZM146.821 192.789V194.399H144.602C144.694 194.146 144.74 193.882 144.74 193.594C144.74 193.295 144.694 193.031 144.613 192.789H146.821ZM146.821 195.17V196.642H147.776V190.535H146.821V192.019H144.176C143.705 191.49 142.969 191.156 142.095 191.156C140.565 191.156 139.438 192.157 139.438 193.594C139.438 195.043 140.565 196.055 142.095 196.055C142.969 196.055 143.705 195.722 144.176 195.17H146.821ZM144.36 200.092C142.808 200.092 141.865 199.632 141.865 198.861C141.865 198.079 142.808 197.619 144.36 197.619C145.936 197.619 146.879 198.079 146.879 198.861C146.879 199.632 145.936 200.092 144.36 200.092ZM144.36 196.883C142.244 196.883 140.933 197.608 140.933 198.861C140.933 200.115 142.244 200.84 144.36 200.84C146.488 200.84 147.81 200.115 147.81 198.861C147.81 197.608 146.488 196.883 144.36 196.883ZM150.11 202.185C151.145 201.748 151.789 200.886 151.789 199.781C151.789 199.011 151.455 198.539 150.903 198.539C150.478 198.539 150.11 198.827 150.11 199.275C150.11 199.758 150.478 200.012 150.88 200.012C150.926 200.012 150.961 200.012 151.007 200C151.007 200.679 150.581 201.242 149.857 201.564L150.11 202.185ZM156.285 191.191V191.961H160.022C159.838 193.709 158.263 195.066 155.744 195.722L156.124 196.469C159.137 195.664 161.034 193.824 161.034 191.191H156.285ZM158.343 197.608H163.162V199.942H158.343V197.608ZM157.423 200.702H164.093V196.86H157.423V200.702ZM163.15 190.535V196.366H164.093V190.535H163.15ZM174.994 193.905C173.166 193.64 171.36 192.479 171.36 191.168V190.708L170.394 190.708V191.168C170.394 192.513 168.6 193.64 166.76 193.905L167.105 194.641C168.704 194.388 170.233 193.571 170.877 192.387C171.533 193.56 173.051 194.388 174.638 194.641L174.994 193.905ZM170.877 200.115C169.244 200.115 168.29 199.724 168.29 199.011C168.29 198.31 169.244 197.907 170.877 197.907C172.487 197.907 173.442 198.31 173.442 199.011C173.442 199.724 172.487 200.115 170.877 200.115ZM170.877 197.182C168.669 197.182 167.335 197.838 167.335 199.011C167.335 200.196 168.669 200.851 170.877 200.851C173.074 200.851 174.396 200.196 174.396 199.011C174.396 197.838 173.074 197.182 170.877 197.182ZM166.208 195.457V196.228L175.535 196.228V195.457L166.208 195.457ZM182.583 193.284V194.054H184.32V195.446H182.583V196.216H184.32V198.401H185.274V190.547H184.32V193.284H182.583ZM182.583 191.8H180.214V190.524H179.271V191.8H176.81V192.559H182.583V191.8ZM178.294 195.089C178.294 194.365 178.88 193.87 179.731 193.87C180.582 193.87 181.169 194.365 181.169 195.089C181.169 195.825 180.582 196.331 179.731 196.331C178.88 196.331 178.294 195.825 178.294 195.089ZM182.066 195.089C182.066 193.916 181.1 193.134 179.731 193.134C178.363 193.134 177.397 193.916 177.397 195.089C177.397 196.274 178.363 197.067 179.731 197.067C181.1 197.067 182.066 196.274 182.066 195.089ZM179.593 199.85V197.734H178.65V200.621H185.516V199.85H179.593Z" fill="#121212"/>
<path d="M35.74 216.365H29.5185V215.077H35.4065V214.582H29.5185V213.386H35.694V212.892H28.909V216.871H35.74V216.365ZM28.679 220.24H35.0385V222.805H35.648V219.734H28.679L28.679 220.24ZM27.6555 218.032V218.55H36.8785V218.032H27.6555ZM44.2836 214.283H41.5696V212.685H40.9601V214.283H38.2001V214.801H44.2836V214.283ZM41.2591 219.872C40.2241 219.872 39.4651 219.113 39.4651 218.113C39.4651 217.112 40.2241 216.342 41.2591 216.342C42.2826 216.342 43.0531 217.112 43.0531 218.113C43.0531 219.113 42.2826 219.872 41.2591 219.872ZM41.2591 215.813C39.9021 215.813 38.9016 216.767 38.9016 218.113C38.9016 219.458 39.9021 220.401 41.2591 220.401C42.6276 220.401 43.6166 219.458 43.6166 218.113C43.6166 216.767 42.6276 215.813 41.2591 215.813ZM45.9396 212.581V217.032H44.0536V217.549H45.9396V222.794H46.5491V212.581H45.9396ZM54.0577 218.205V218.711H56.4267V220.321H57.0362V212.593H56.4267V218.205H54.0577ZM51.7462 219.642H52.3442V217.181C53.3677 217.112 54.4372 217.02 55.4377 216.848L55.3917 216.388C54.9892 216.445 54.5522 216.503 54.1267 216.549C54.3567 215.226 54.3567 214.272 54.3567 213.685V213.271H49.6532V213.789H53.7587C53.7587 214.375 53.7472 215.307 53.5057 216.583C51.8267 216.721 50.1017 216.733 48.7332 216.733L48.8252 217.273C49.6877 217.273 50.6997 217.262 51.7462 217.216V219.642ZM50.9182 222.035V219.435H50.3087V222.552H57.3007V222.035H50.9182ZM62.6473 214.203H65.0508V213.674H59.5998V214.203H62.0493V215.916C62.0493 217.687 60.5773 219.642 59.2548 220.31L59.6343 220.815C60.7383 220.206 61.8998 218.803 62.3483 217.25C62.7968 218.688 63.9008 219.976 65.0048 220.562L65.3613 220.068C64.0158 219.412 62.6473 217.584 62.6473 215.916V214.203ZM68.9378 216.848H67.1553V212.593H66.5458V222.805H67.1553V217.365H68.9378V216.848Z" fill="#121212"/>
<path d="M82.7485 224.266L83.404 223.955C82.4035 222.322 81.932 220.378 81.932 218.423C81.932 216.468 82.4035 214.536 83.404 212.892L82.7485 212.593C81.6905 214.306 81.058 216.169 81.058 218.423C81.058 220.689 81.6905 222.541 82.7485 224.266ZM85.4152 217.549C87.0137 217.273 88.5317 216.411 89.1642 215.192C89.7852 216.411 91.3147 217.273 92.9132 217.549L93.2812 216.802C91.4642 216.537 89.6817 215.353 89.6817 213.996V213.938H92.9132V213.179H85.3807V213.938H88.6352V213.996C88.6352 215.353 86.8527 216.537 85.0587 216.802L85.4152 217.549ZM93.8217 218.412H84.5067V219.182H88.6697V222.851H89.6127V219.182H93.8332L93.8217 218.412ZM95.6033 224.266C96.6728 222.541 97.3053 220.689 97.3053 218.423C97.3053 216.169 96.6728 214.306 95.6033 212.593L94.9593 212.892C95.9483 214.536 96.4313 216.468 96.4313 218.423C96.4313 220.378 95.9483 222.322 94.9593 223.955L95.6033 224.266ZM107.85 217.722C106.044 217.377 104.089 215.813 104.089 214.053V213.26H103.1V214.053C103.1 215.813 101.157 217.365 99.3511 217.722L99.7766 218.504C101.329 218.136 102.939 217.032 103.595 215.525C104.25 217.043 105.86 218.147 107.424 218.504L107.85 217.722ZM98.9601 220.689V221.471H108.31V220.689H98.9601ZM110.873 214.329H113.76V219.47H110.873V214.329ZM109.953 220.229H114.68V213.57H109.953V220.229ZM119.176 216.652H117.474V212.547H116.531V222.851H117.474V217.446H119.176V216.652ZM128.398 218.101H122.269V216.468H128.065V215.721H122.269V214.191H128.295V213.432H121.314V218.86H128.398V218.101ZM120.107 220.746V221.517H129.468V220.746H120.107ZM132.71 214.145H137.988V217.492H132.71V214.145ZM135.838 220.746V218.239H138.908V213.398H131.801V218.239H134.883V220.746H130.697V221.528H140.047V220.746H135.838ZM149.729 212.547H148.786V217.929H149.729V212.547ZM145.715 216.71H142.748V215.169H145.715V216.71ZM146.647 212.949H145.715V214.444H142.748V212.949H141.817V217.469H146.647V212.949ZM144.013 222V220.896H149.74V218.458H143.059V219.194H148.809V220.206H143.082V222.736H150.085V222H144.013ZM153.167 217.101H156.824V213.49H152.212V214.26H155.904V216.342H152.235V220.378H153.029C154.892 220.378 156.203 220.321 157.755 220.045L157.663 219.263C156.18 219.527 154.926 219.596 153.167 219.596V217.101ZM159.4 212.524V216.503H157.433V217.273H159.4V222.863H160.343V212.524H159.4ZM164.022 217.124H167.713V216.365H164.022V214.237H168.093V213.467H163.09V220.367H163.907C165.873 220.367 167.253 220.298 168.863 220.022L168.771 219.251C167.23 219.527 165.896 219.596 164.022 219.596V217.124ZM169.956 212.535V222.84H170.899V212.535H169.956Z" fill="#121212"/>
</svg>
