<svg width="309" height="233" viewBox="0 0 309 233" fill="none" xmlns="http://www.w3.org/2000/svg">
<rect x="0.5" y="0.5" width="308" height="232" rx="9.5" fill="#FAFAFA" stroke="#E0E0E0"/>
<rect x="23.9995" y="18" width="65" height="23" rx="2" fill="#0032A0"/>
<path d="M49.4435 27.844H43.3235V27.196H49.0955V26.044H43.3235V25.444H49.3595V24.244H41.7515V29.044H49.4435V27.844ZM41.6195 32.92H47.6915V35.044H49.2755V31.672H41.6195V32.92ZM40.5035 29.716V30.976H50.4995V29.716H40.5035ZM57.9986 25.612H55.5866V24.172H54.0026V25.612L51.5546 25.612V26.896L57.9986 26.896V25.612ZM54.7826 31.444C54.1106 31.444 53.5946 30.952 53.5946 30.136C53.5946 29.32 54.1106 28.828 54.7826 28.828C55.4666 28.828 55.9946 29.32 55.9946 30.136C55.9946 30.952 55.4666 31.444 54.7826 31.444ZM54.7826 27.496C53.2706 27.496 52.1306 28.612 52.1306 30.136C52.1306 31.66 53.2706 32.776 54.7826 32.776C56.3066 32.776 57.4466 31.66 57.4466 30.136C57.4466 28.612 56.3066 27.496 54.7826 27.496ZM59.2466 23.98V28.324H57.7946V29.608H59.2466V35.032H60.8306V23.98H59.2466ZM68.2576 29.872V31.096H70.3936V32.296H71.9776V23.98L70.3936 23.98V29.872H68.2576ZM65.6056 33.58V31.624H66.9856V29.248C67.9096 29.164 68.8336 29.068 69.7336 28.9L69.6256 27.784C69.2896 27.832 68.9416 27.88 68.5936 27.916C68.7856 26.524 68.7856 25.504 68.7856 24.916V24.532H63.5176V25.792H67.2136C67.1896 26.368 67.1296 27.112 66.9976 28.036C65.3896 28.132 63.8056 28.144 62.5096 28.144L62.7016 29.404C63.5176 29.404 64.4416 29.392 65.4136 29.344V31.468H64.0216V34.84L72.2176 34.84V33.58L65.6056 33.58Z" fill="white"/>
<path d="M33.5584 66.365H27.3369V65.077H33.2249V64.5825H27.3369V63.3865H33.5124V62.892H26.7274V66.871H33.5584V66.365ZM26.4974 70.2405H32.8569V72.805H33.4664V69.7345H26.4974L26.4974 70.2405ZM25.4739 68.0325V68.55H34.6969V68.0325H25.4739ZM42.102 64.2835H39.388V62.685H38.7785V64.2835H36.0185V64.801H42.102V64.2835ZM39.0775 69.8725C38.0425 69.8725 37.2835 69.1135 37.2835 68.113C37.2835 67.1125 38.0425 66.342 39.0775 66.342C40.101 66.342 40.8715 67.1125 40.8715 68.113C40.8715 69.1135 40.101 69.8725 39.0775 69.8725ZM39.0775 65.813C37.7205 65.813 36.72 66.7675 36.72 68.113C36.72 69.4585 37.7205 70.4015 39.0775 70.4015C40.446 70.4015 41.435 69.4585 41.435 68.113C41.435 66.7675 40.446 65.813 39.0775 65.813ZM43.758 62.5815V67.032H41.872V67.5495H43.758V72.7935H44.3675V62.5815H43.758ZM51.0941 67.331H47.7246V63.8925L51.0941 63.8925V67.331ZM54.3371 64.8585V66.365H51.6921V64.8585H54.3371ZM51.6921 66.8825H54.3371V68.665H54.9466V62.593H54.3371V64.341H51.6921V63.3865L47.1381 63.3865V67.837H51.6921V66.8825ZM51.6461 72.276C49.9786 72.276 48.9091 71.747 48.9091 70.8845C48.9091 70.0335 49.9786 69.493 51.6461 69.493C53.3136 69.493 54.3946 70.0335 54.3946 70.8845C54.3946 71.747 53.3136 72.276 51.6461 72.276ZM51.6461 68.9985C49.5761 68.9985 48.2996 69.677 48.2996 70.8845C48.2996 72.092 49.5761 72.7705 51.6461 72.7705C53.7161 72.7705 54.9926 72.092 54.9926 70.8845C54.9926 69.677 53.7161 68.9985 51.6461 68.9985Z" fill="#121212"/>
<path d="M83.634 64.5135H85.474V63.743H80.7705V64.5135H82.7255V65.445C82.7255 67.3425 81.9205 69.217 80.483 70.0795L81.058 70.781C82.0815 70.137 82.829 68.9295 83.1855 67.515C83.542 68.826 84.255 69.93 85.2555 70.528L85.8305 69.838C84.4045 69.033 83.634 67.239 83.634 65.445V64.5135ZM86.394 66.2385H84.692V67.009H86.394V72.3105H87.291V62.7655H86.394V66.2385ZM88.464 62.524V72.8395H89.3725V62.524H88.464ZM94.1629 72H98.7859V71.126H97.0954V63.559H96.2904C95.8304 63.835 95.2899 64.0305 94.5424 64.1685V64.8355H96.0374V71.126H94.1629V72ZM102.727 72.1495C104.325 72.1495 105.349 70.689 105.349 67.7565C105.349 64.8355 104.325 63.4095 102.727 63.4095C101.117 63.4095 100.093 64.824 100.093 67.7565C100.093 70.689 101.117 72.1495 102.727 72.1495ZM102.727 71.31C101.761 71.31 101.117 70.2405 101.117 67.7565C101.117 65.2955 101.761 64.249 102.727 64.249C103.681 64.249 104.325 65.2955 104.325 67.7565C104.325 70.2405 103.681 71.31 102.727 71.31ZM106.438 69.1825H109.382V68.3775H106.438V69.1825ZM110.908 72H115.531V71.126H113.84V63.559H113.035C112.575 63.835 112.035 64.0305 111.287 64.1685V64.8355H112.782V71.126H110.908V72ZM117.597 68.8375L119.517 65.9625C119.759 65.5485 119.989 65.1345 120.196 64.7205H120.242C120.219 65.1575 120.184 65.836 120.184 66.25V68.8375H117.597ZM120.184 72H121.173V69.677H122.289V68.8375H121.173V63.559H120.012L116.504 68.987V69.677H120.184V72ZM124.93 72H126.023C126.149 68.6995 126.517 66.733 128.495 64.203V63.559H123.217V64.4675L127.299 64.4675C125.655 66.7675 125.068 68.803 124.93 72ZM132.068 72.1495C133.563 72.1495 134.771 71.2525 134.771 69.746C134.771 68.596 133.977 67.837 132.988 67.607V67.561C133.874 67.2275 134.483 66.549 134.483 65.5255C134.483 64.1915 133.448 63.4095 132.034 63.4095C131.056 63.4095 130.309 63.835 129.676 64.4215L130.24 65.0885C130.711 64.6055 131.309 64.272 131.988 64.272C132.862 64.272 133.414 64.801 133.414 65.606C133.414 66.5145 132.816 67.216 131.079 67.216V68.021C133.023 68.021 133.701 68.6995 133.701 69.7C133.701 70.6775 132.988 71.2755 131.988 71.2755C131.033 71.2755 130.389 70.827 129.895 70.3095L129.366 70.9995C129.918 71.5975 130.746 72.1495 132.068 72.1495ZM136.423 72H141.046V71.126H139.356V63.559H138.551C138.091 63.835 137.55 64.0305 136.803 64.1685V64.8355H138.298V71.126H136.423V72ZM144.987 72.1495C146.586 72.1495 147.609 70.689 147.609 67.7565C147.609 64.8355 146.586 63.4095 144.987 63.4095C143.377 63.4095 142.354 64.824 142.354 67.7565C142.354 70.689 143.377 72.1495 144.987 72.1495ZM144.987 71.31C144.021 71.31 143.377 70.2405 143.377 67.7565C143.377 65.2955 144.021 64.249 144.987 64.249C145.942 64.249 146.586 65.2955 146.586 67.7565C146.586 70.2405 145.942 71.31 144.987 71.31ZM151.205 72.1495C152.7 72.1495 153.907 71.2525 153.907 69.746C153.907 68.596 153.114 67.837 152.125 67.607V67.561C153.01 67.2275 153.62 66.549 153.62 65.5255C153.62 64.1915 152.585 63.4095 151.17 63.4095C150.193 63.4095 149.445 63.835 148.813 64.4215L149.376 65.0885C149.848 64.6055 150.446 64.272 151.124 64.272C151.998 64.272 152.55 64.801 152.55 65.606C152.55 66.5145 151.952 67.216 150.216 67.216V68.021C152.159 68.021 152.838 68.6995 152.838 69.7C152.838 70.6775 152.125 71.2755 151.124 71.2755C150.17 71.2755 149.526 70.827 149.031 70.3095L148.502 70.9995C149.054 71.5975 149.882 72.1495 151.205 72.1495ZM163.989 64.042H160.298V62.6965H159.355V64.042H155.617V64.8125H163.989V64.042ZM157.388 67.469C157.388 66.71 158.32 66.25 159.826 66.25C161.31 66.25 162.23 66.71 162.23 67.469C162.23 68.2395 161.31 68.6995 159.826 68.6995C158.32 68.6995 157.388 68.2395 157.388 67.469ZM160.298 70.873V69.424C162.092 69.309 163.184 68.619 163.184 67.469C163.184 66.227 161.885 65.514 159.826 65.514C157.733 65.514 156.434 66.227 156.434 67.469C156.434 68.619 157.538 69.3205 159.355 69.424V70.873H155.157V71.6435H164.507V70.873H160.298Z" fill="#121212"/>
<path d="M26.2329 88.664C27.7854 88.503 29.4989 87.928 30.0854 86.8125C30.6719 87.9395 32.3854 88.503 33.9379 88.664L34.1334 88.181C32.4659 88.0315 30.4764 87.3415 30.4074 86.0305H33.7309V85.536H30.3959V84.4895H29.7864V85.536H26.4629V86.0305H29.7634C29.6944 87.3415 27.7049 88.0315 26.0374 88.181L26.2329 88.664ZM34.6969 89.745V89.2505H25.4739V89.745H29.7749V90.872H26.6239V91.3435H32.8799V92.459H26.6469V94.6555H33.8114V94.161H27.2449V92.9305H33.4779V90.872H30.3844V89.745H34.6969ZM41.481 90.688V91.171H43.6545V92.3785H44.264V84.6045H43.6545V90.688H41.481ZM39.3305 85.513C40.4575 85.513 41.2395 86.042 41.2395 86.7895C41.2395 87.56 40.4575 88.0775 39.3305 88.0775C38.2035 88.0775 37.4215 87.56 37.4215 86.7895C37.4215 86.042 38.2035 85.513 39.3305 85.513ZM39.3305 88.549C40.8255 88.549 41.8145 87.8705 41.8145 86.7895C41.8145 85.72 40.8255 85.0415 39.3305 85.0415C37.8355 85.0415 36.835 85.72 36.835 86.7895C36.835 87.8705 37.8355 88.549 39.3305 88.549ZM39.1005 91.9645H39.71V89.883C40.699 89.8255 41.7225 89.745 42.6885 89.584L42.631 89.1355C40.4345 89.4115 37.8815 89.4345 35.984 89.4345L36.076 89.9635C36.973 89.9635 37.9965 89.9635 39.1005 89.9175V91.9645ZM38.1345 94.0345V91.608H37.5365V94.552H44.5285V94.0345H38.1345ZM51.0596 89.8255H47.7936V87.7325H51.0596V89.8255ZM51.6576 88.089H54.3371V92.1715H54.9466V84.6045H54.3371V87.5715H51.6576V85.2715H51.0596V87.2265H47.7936V85.2715H47.1841V90.343H51.6576V88.089ZM49.1161 94.0345V91.4355H48.5066V94.552H55.1996V94.0345H49.1161ZM65.9052 86.226H62.1332V84.7885H61.5237V86.226H57.7057V86.7435H65.9052V86.226ZM59.1662 89.4805C59.1662 88.618 60.2127 88.0775 61.8227 88.0775C63.4327 88.0775 64.4792 88.618 64.4792 89.4805C64.4792 90.3545 63.4327 90.9065 61.8227 90.9065C60.2127 90.9065 59.1662 90.3545 59.1662 89.4805ZM62.1332 92.988V91.3895C63.9617 91.3205 65.0887 90.6305 65.0887 89.4805C65.0887 88.273 63.8352 87.5715 61.8227 87.5715C59.8102 87.5715 58.5567 88.273 58.5567 89.4805C58.5567 90.6305 59.6837 91.3205 61.5237 91.401V92.988H57.2112V93.5055H66.4687V92.988H62.1332Z" fill="#121212"/>
<path d="M83.634 86.5135H85.474V85.743H80.7705V86.5135H82.7255V87.445C82.7255 89.3425 81.9205 91.217 80.483 92.0795L81.058 92.781C82.0815 92.137 82.829 90.9295 83.1855 89.515C83.542 90.826 84.255 91.93 85.2555 92.528L85.8305 91.838C84.4045 91.033 83.634 89.239 83.634 87.445V86.5135ZM86.394 88.2385H84.692V89.009H86.394V94.3105H87.291V84.7655H86.394V88.2385ZM88.464 84.524V94.8395H89.3725V84.524H88.464ZM94.1629 94H98.7859V93.126H97.0954V85.559H96.2904C95.8304 85.835 95.2899 86.0305 94.5424 86.1685V86.8355H96.0374V93.126H94.1629V94ZM102.727 94.1495C104.325 94.1495 105.349 92.689 105.349 89.7565C105.349 86.8355 104.325 85.4095 102.727 85.4095C101.117 85.4095 100.093 86.824 100.093 89.7565C100.093 92.689 101.117 94.1495 102.727 94.1495ZM102.727 93.31C101.761 93.31 101.117 92.2405 101.117 89.7565C101.117 87.2955 101.761 86.249 102.727 86.249C103.681 86.249 104.325 87.2955 104.325 89.7565C104.325 92.2405 103.681 93.31 102.727 93.31ZM106.438 91.1825H109.382V90.3775H106.438V91.1825ZM110.402 94H115.703V93.0915H113.369C112.943 93.0915 112.426 93.1375 111.989 93.172C113.967 91.2975 115.289 89.584 115.289 87.905C115.289 86.3985 114.346 85.4095 112.84 85.4095C111.77 85.4095 111.046 85.904 110.356 86.6515L110.965 87.2495C111.425 86.6975 112.023 86.272 112.713 86.272C113.76 86.272 114.266 86.9735 114.266 87.9395C114.266 89.3885 113.047 91.0675 110.402 93.379V94ZM119.471 94.1495C121.07 94.1495 122.093 92.689 122.093 89.7565C122.093 86.8355 121.07 85.4095 119.471 85.4095C117.861 85.4095 116.838 86.824 116.838 89.7565C116.838 92.689 117.861 94.1495 119.471 94.1495ZM119.471 93.31C118.505 93.31 117.861 92.2405 117.861 89.7565C117.861 87.2955 118.505 86.249 119.471 86.249C120.426 86.249 121.07 87.2955 121.07 89.7565C121.07 92.2405 120.426 93.31 119.471 93.31ZM123.665 94H128.288V93.126H126.598V85.559H125.793C125.333 85.835 124.792 86.0305 124.045 86.1685V86.8355H125.54V93.126H123.665V94ZM132.068 94.1495C133.563 94.1495 134.771 93.2525 134.771 91.746C134.771 90.596 133.977 89.837 132.988 89.607V89.561C133.874 89.2275 134.483 88.549 134.483 87.5255C134.483 86.1915 133.448 85.4095 132.034 85.4095C131.056 85.4095 130.309 85.835 129.676 86.4215L130.24 87.0885C130.711 86.6055 131.309 86.272 131.988 86.272C132.862 86.272 133.414 86.801 133.414 87.606C133.414 88.5145 132.816 89.216 131.079 89.216V90.021C133.023 90.021 133.701 90.6995 133.701 91.7C133.701 92.6775 132.988 93.2755 131.988 93.2755C131.033 93.2755 130.389 92.827 129.895 92.3095L129.366 92.9995C129.918 93.5975 130.746 94.1495 132.068 94.1495ZM135.94 91.1825H138.884V90.3775H135.94V91.1825ZM142.595 94.1495C144.193 94.1495 145.217 92.689 145.217 89.7565C145.217 86.8355 144.193 85.4095 142.595 85.4095C140.985 85.4095 139.961 86.824 139.961 89.7565C139.961 92.689 140.985 94.1495 142.595 94.1495ZM142.595 93.31C141.629 93.31 140.985 92.2405 140.985 89.7565C140.985 87.2955 141.629 86.249 142.595 86.249C143.549 86.249 144.193 87.2955 144.193 89.7565C144.193 92.2405 143.549 93.31 142.595 93.31ZM148.974 94.1495C150.572 94.1495 151.596 92.689 151.596 89.7565C151.596 86.8355 150.572 85.4095 148.974 85.4095C147.364 85.4095 146.34 86.824 146.34 89.7565C146.34 92.689 147.364 94.1495 148.974 94.1495ZM148.974 93.31C148.008 93.31 147.364 92.2405 147.364 89.7565C147.364 87.2955 148.008 86.249 148.974 86.249C149.928 86.249 150.572 87.2955 150.572 89.7565C150.572 92.2405 149.928 93.31 148.974 93.31ZM154.433 94H155.525C155.652 90.6995 156.02 88.733 157.998 86.203V85.559H152.719V86.4675H156.802C155.157 88.7675 154.571 90.803 154.433 94ZM161.732 94.1495C163.33 94.1495 164.354 92.689 164.354 89.7565C164.354 86.8355 163.33 85.4095 161.732 85.4095C160.122 85.4095 159.098 86.824 159.098 89.7565C159.098 92.689 160.122 94.1495 161.732 94.1495ZM161.732 93.31C160.766 93.31 160.122 92.2405 160.122 89.7565C160.122 87.2955 160.766 86.249 161.732 86.249C162.686 86.249 163.33 87.2955 163.33 89.7565C163.33 92.2405 162.686 93.31 161.732 93.31ZM168.111 94.1495C169.709 94.1495 170.733 92.689 170.733 89.7565C170.733 86.8355 169.709 85.4095 168.111 85.4095C166.501 85.4095 165.477 86.824 165.477 89.7565C165.477 92.689 166.501 94.1495 168.111 94.1495ZM168.111 93.31C167.145 93.31 166.501 92.2405 166.501 89.7565C166.501 87.2955 167.145 86.249 168.111 86.249C169.065 86.249 169.709 87.2955 169.709 89.7565C169.709 92.2405 169.065 93.31 168.111 93.31ZM174.501 94.1495C176.088 94.1495 177.146 93.195 177.146 91.9645C177.146 90.8145 176.456 90.182 175.72 89.7565V89.699C176.226 89.308 176.847 88.549 176.847 87.6635C176.847 86.364 175.973 85.444 174.535 85.444C173.224 85.444 172.224 86.295 172.224 87.583C172.224 88.4685 172.741 89.101 173.362 89.5265V89.584C172.592 89.998 171.81 90.78 171.81 91.907C171.81 93.2065 172.948 94.1495 174.501 94.1495ZM175.076 89.423C174.087 89.032 173.178 88.595 173.178 87.583C173.178 86.7665 173.742 86.2145 174.524 86.2145C175.432 86.2145 175.95 86.893 175.95 87.721C175.95 88.342 175.651 88.917 175.076 89.423ZM174.524 93.3675C173.512 93.3675 172.764 92.712 172.764 91.815C172.764 91.01 173.236 90.343 173.914 89.906C175.11 90.389 176.145 90.8145 176.145 91.9415C176.145 92.781 175.49 93.3675 174.524 93.3675ZM178.994 90.8375L180.914 87.9625C181.156 87.5485 181.386 87.1345 181.593 86.7205H181.639C181.616 87.1575 181.581 87.836 181.581 88.25V90.8375H178.994ZM181.581 94H182.57V91.677H183.686V90.8375H182.57V85.559H181.409L177.901 90.987V91.677H181.581V94ZM193.492 86.042H189.8V84.6965H188.857V86.042H185.12V86.8125H193.492V86.042ZM186.891 89.469C186.891 88.71 187.822 88.25 189.329 88.25C190.812 88.25 191.732 88.71 191.732 89.469C191.732 90.2395 190.812 90.6995 189.329 90.6995C187.822 90.6995 186.891 90.2395 186.891 89.469ZM189.8 92.873V91.424C191.594 91.309 192.687 90.619 192.687 89.469C192.687 88.227 191.387 87.514 189.329 87.514C187.236 87.514 185.936 88.227 185.936 89.469C185.936 90.619 187.04 91.3205 188.857 91.424V92.873H184.66V93.6435H194.009V92.873H189.8Z" fill="#121212"/>
<path d="M26.2329 110.664C27.7854 110.503 29.4989 109.928 30.0854 108.812C30.6719 109.939 32.3854 110.503 33.9379 110.664L34.1334 110.181C32.4659 110.031 30.4764 109.341 30.4074 108.03H33.7309V107.536H30.3959V106.489H29.7864V107.536H26.4629V108.03H29.7634C29.6944 109.341 27.7049 110.031 26.0374 110.181L26.2329 110.664ZM34.6969 111.745V111.25H25.4739V111.745H29.7749V112.872H26.6239V113.343H32.8799V114.459H26.6469V116.656H33.8114V116.161H27.2449V114.93H33.4779V112.872H30.3844V111.745H34.6969ZM41.481 112.688V113.171H43.6545V114.378H44.264V106.604H43.6545V112.688H41.481ZM39.3305 107.513C40.4575 107.513 41.2395 108.042 41.2395 108.789C41.2395 109.56 40.4575 110.077 39.3305 110.077C38.2035 110.077 37.4215 109.56 37.4215 108.789C37.4215 108.042 38.2035 107.513 39.3305 107.513ZM39.3305 110.549C40.8255 110.549 41.8145 109.87 41.8145 108.789C41.8145 107.72 40.8255 107.041 39.3305 107.041C37.8355 107.041 36.835 107.72 36.835 108.789C36.835 109.87 37.8355 110.549 39.3305 110.549ZM39.1005 113.964H39.71V111.883C40.699 111.825 41.7225 111.745 42.6885 111.584L42.631 111.135C40.4345 111.411 37.8815 111.434 35.984 111.434L36.076 111.963C36.973 111.963 37.9965 111.963 39.1005 111.917V113.964ZM38.1345 116.035V113.608H37.5365V116.552H44.5285V116.035H38.1345ZM54.9351 106.581H54.3256V111.906H54.9351V106.581ZM47.5176 109.226C47.5176 108.249 48.3571 107.513 49.4956 107.513C50.6341 107.513 51.4736 108.249 51.4736 109.226C51.4736 110.215 50.6341 110.94 49.4956 110.94C48.3571 110.94 47.5176 110.215 47.5176 109.226ZM52.0716 109.226C52.0716 107.904 51.0021 106.995 49.4956 106.995C47.9891 106.995 46.9196 107.904 46.9196 109.226C46.9196 110.549 47.9891 111.446 49.4956 111.446C51.0021 111.446 52.0716 110.549 52.0716 109.226ZM49.0816 116.138V114.723H54.9351V112.458H48.4491V112.964H54.3371V114.24H48.4836V116.644H55.3376V116.138H49.0816Z" fill="#121212"/>
<path d="M80.506 116H85.8075V115.091H83.473C83.0475 115.091 82.53 115.137 82.093 115.172C84.071 113.297 85.3935 111.584 85.3935 109.905C85.3935 108.398 84.4505 107.409 82.944 107.409C81.8745 107.409 81.15 107.904 80.46 108.651L81.0695 109.249C81.5295 108.697 82.1275 108.272 82.8175 108.272C83.864 108.272 84.37 108.973 84.37 109.939C84.37 111.388 83.151 113.067 80.506 115.379V116ZM89.5759 116.15C91.1744 116.15 92.1979 114.689 92.1979 111.756C92.1979 108.835 91.1744 107.409 89.5759 107.409C87.9659 107.409 86.9424 108.824 86.9424 111.756C86.9424 114.689 87.9659 116.15 89.5759 116.15ZM89.5759 115.31C88.6099 115.31 87.9659 114.24 87.9659 111.756C87.9659 109.295 88.6099 108.249 89.5759 108.249C90.5304 108.249 91.1744 109.295 91.1744 111.756C91.1744 114.24 90.5304 115.31 89.5759 115.31ZM93.7698 116H98.3928V115.126H96.7023V107.559H95.8973C95.4373 107.835 94.8968 108.03 94.1493 108.168V108.835H95.6443V115.126H93.7698V116ZM102.173 116.15C103.668 116.15 104.875 115.252 104.875 113.746C104.875 112.596 104.082 111.837 103.093 111.607V111.561C103.978 111.227 104.588 110.549 104.588 109.525C104.588 108.191 103.553 107.409 102.138 107.409C101.161 107.409 100.413 107.835 99.7807 108.421L100.344 109.088C100.816 108.605 101.414 108.272 102.092 108.272C102.966 108.272 103.518 108.801 103.518 109.606C103.518 110.514 102.92 111.216 101.184 111.216V112.021C103.127 112.021 103.806 112.699 103.806 113.7C103.806 114.677 103.093 115.275 102.092 115.275C101.138 115.275 100.494 114.827 99.9992 114.31L99.4702 114.999C100.022 115.597 100.85 116.15 102.173 116.15ZM106.045 113.182H108.989V112.377H106.045V113.182ZM112.699 116.15C114.298 116.15 115.321 114.689 115.321 111.756C115.321 108.835 114.298 107.409 112.699 107.409C111.089 107.409 110.066 108.824 110.066 111.756C110.066 114.689 111.089 116.15 112.699 116.15ZM112.699 115.31C111.733 115.31 111.089 114.24 111.089 111.756C111.089 109.295 111.733 108.249 112.699 108.249C113.654 108.249 114.298 109.295 114.298 111.756C114.298 114.24 113.654 115.31 112.699 115.31ZM119.251 111.549C120.274 111.549 120.78 112.274 120.78 113.412C120.78 114.562 120.148 115.333 119.343 115.333C118.285 115.333 117.652 114.378 117.526 112.63C118.043 111.86 118.722 111.549 119.251 111.549ZM119.343 116.15C120.654 116.15 121.758 115.045 121.758 113.412C121.758 111.653 120.849 110.767 119.423 110.767C118.756 110.767 118.02 111.158 117.503 111.791C117.549 109.169 118.526 108.283 119.676 108.283C120.194 108.283 120.7 108.525 121.033 108.927L121.608 108.272C121.148 107.777 120.516 107.409 119.642 107.409C118.009 107.409 116.525 108.674 116.525 111.975C116.525 114.758 117.721 116.15 119.343 116.15ZM122.789 113.182H125.733V112.377H122.789V113.182ZM127.259 116L131.882 116V115.126H130.192V107.559H129.387C128.927 107.835 128.386 108.03 127.639 108.168V108.835H129.134V115.126H127.259V116ZM134.121 110.146C134.121 108.996 134.742 108.237 135.547 108.237C136.628 108.237 137.272 109.157 137.387 110.894C136.846 111.687 136.202 112.021 135.627 112.021C134.627 112.021 134.121 111.285 134.121 110.146ZM135.317 116.15C136.904 116.15 138.376 114.838 138.376 111.423C138.376 108.743 137.168 107.409 135.547 107.409C134.236 107.409 133.132 108.513 133.132 110.146C133.132 111.894 134.052 112.803 135.455 112.803C136.156 112.803 136.881 112.4 137.398 111.768C137.318 114.378 136.375 115.275 135.282 115.275C134.742 115.275 134.224 115.034 133.879 114.631L133.293 115.287C133.764 115.781 134.408 116.15 135.317 116.15Z" fill="#121212"/>
<path d="M33.6044 131.916H27.2564V129.593H33.5239V129.076H26.6584V132.434H33.6044V131.916ZM30.0854 138.276C28.3374 138.276 27.2219 137.781 27.2219 136.953C27.2219 136.125 28.3374 135.631 30.0854 135.631C31.8334 135.631 32.9489 136.125 32.9489 136.953C32.9489 137.781 31.8334 138.276 30.0854 138.276ZM30.0854 135.136C27.9234 135.136 26.6124 135.792 26.6124 136.953C26.6124 138.127 27.9234 138.771 30.0854 138.771C32.2474 138.771 33.5584 138.127 33.5584 136.953C33.5584 135.792 32.2474 135.136 30.0854 135.136ZM25.4739 133.572V134.09H34.7084V133.572H25.4739ZM37.0765 136.24H43.528V138.667H44.1375V135.723H37.0765V136.24ZM40.975 134.297V133.009H44.31V132.503H37.8585V131.18H44.08V128.892H37.2375V129.386H43.482V130.697H37.2605V133.009H40.3655V134.297H36.03V134.814H45.3105V134.297H40.975ZM54.9351 128.581H54.3256V133.906H54.9351V128.581ZM47.5176 131.226C47.5176 130.249 48.3571 129.513 49.4956 129.513C50.6341 129.513 51.4736 130.249 51.4736 131.226C51.4736 132.215 50.6341 132.94 49.4956 132.94C48.3571 132.94 47.5176 132.215 47.5176 131.226ZM52.0716 131.226C52.0716 129.904 51.0021 128.995 49.4956 128.995C47.9891 128.995 46.9196 129.904 46.9196 131.226C46.9196 132.549 47.9891 133.446 49.4956 133.446C51.0021 133.446 52.0716 132.549 52.0716 131.226ZM49.0816 138.138V136.723H54.9351V134.458H48.4491V134.964H54.3371V136.24H48.4836V138.644H55.3376V138.138H49.0816Z" fill="#121212"/>
<path d="M80.506 138H85.8075V137.091H83.473C83.0475 137.091 82.53 137.137 82.093 137.172C84.071 135.297 85.3935 133.584 85.3935 131.905C85.3935 130.398 84.4505 129.409 82.944 129.409C81.8745 129.409 81.15 129.904 80.46 130.651L81.0695 131.249C81.5295 130.697 82.1275 130.272 82.8175 130.272C83.864 130.272 84.37 130.973 84.37 131.939C84.37 133.388 83.151 135.067 80.506 137.379V138ZM89.5759 138.15C91.1744 138.15 92.1979 136.689 92.1979 133.756C92.1979 130.835 91.1744 129.409 89.5759 129.409C87.9659 129.409 86.9424 130.824 86.9424 133.756C86.9424 136.689 87.9659 138.15 89.5759 138.15ZM89.5759 137.31C88.6099 137.31 87.9659 136.24 87.9659 133.756C87.9659 131.295 88.6099 130.249 89.5759 130.249C90.5304 130.249 91.1744 131.295 91.1744 133.756C91.1744 136.24 90.5304 137.31 89.5759 137.31ZM93.7698 138H98.3928V137.126H96.7023V129.559H95.8973C95.4373 129.835 94.8968 130.03 94.1493 130.168V130.835H95.6443V137.126H93.7698V138ZM100.459 134.837L102.38 131.962C102.621 131.548 102.851 131.134 103.058 130.72H103.104C103.081 131.157 103.047 131.836 103.047 132.25V134.837H100.459ZM103.047 138H104.036V135.677H105.151V134.837H104.036V129.559H102.874L99.3667 134.987V135.677H103.047V138ZM106.045 135.182H108.989V134.377H106.045V135.182ZM110.514 138H115.137V137.126H113.447V129.559H112.642C112.182 129.835 111.641 130.03 110.894 130.168V130.835H112.389V137.126H110.514V138ZM116.387 138H121.689V137.091H119.354C118.929 137.091 118.411 137.137 117.974 137.172C119.952 135.297 121.275 133.584 121.275 131.905C121.275 130.398 120.332 129.409 118.825 129.409C117.756 129.409 117.031 129.904 116.341 130.651L116.951 131.249C117.411 130.697 118.009 130.272 118.699 130.272C119.745 130.272 120.251 130.973 120.251 131.939C120.251 133.388 119.032 135.067 116.387 137.379V138ZM122.789 135.182H125.733V134.377H122.789V135.182ZM129.444 138.15C131.043 138.15 132.066 136.689 132.066 133.756C132.066 130.835 131.043 129.409 129.444 129.409C127.834 129.409 126.811 130.824 126.811 133.756C126.811 136.689 127.834 138.15 129.444 138.15ZM129.444 137.31C128.478 137.31 127.834 136.24 127.834 133.756C127.834 131.295 128.478 130.249 129.444 130.249C130.399 130.249 131.043 131.295 131.043 133.756C131.043 136.24 130.399 137.31 129.444 137.31ZM134.121 132.146C134.121 130.996 134.742 130.237 135.547 130.237C136.628 130.237 137.272 131.157 137.387 132.894C136.846 133.687 136.202 134.021 135.627 134.021C134.627 134.021 134.121 133.285 134.121 132.146ZM135.317 138.15C136.904 138.15 138.376 136.838 138.376 133.423C138.376 130.743 137.168 129.409 135.547 129.409C134.236 129.409 133.132 130.513 133.132 132.146C133.132 133.894 134.052 134.803 135.455 134.803C136.156 134.803 136.881 134.4 137.398 133.768C137.318 136.378 136.375 137.275 135.282 137.275C134.742 137.275 134.224 137.034 133.879 136.631L133.293 137.287C133.764 137.781 134.408 138.15 135.317 138.15Z" fill="#121212"/>
<path d="M29.9934 154.928H26.5779V153.111H29.9934V154.928ZM30.5914 150.984H29.9934V152.605H26.5779V150.984H25.9684V155.434H30.5914V150.984ZM27.6244 158.758H33.3399V156.469H27.0034V156.964H32.7419V158.263H27.0264L27.0264 160.656H33.7539V160.15H27.6244V158.758ZM33.3399 152.916V150.581H32.7304V155.917H33.3399V153.445H34.9269V152.916H33.3399ZM40.515 155.331H37.1455V151.892H40.515V155.331ZM43.758 152.858V154.365H41.113V152.858H43.758ZM41.113 154.882H43.758V156.665H44.3675V150.593H43.758V152.341H41.113V151.386H36.559V155.837H41.113V154.882ZM41.067 160.276C39.3995 160.276 38.33 159.747 38.33 158.884C38.33 158.033 39.3995 157.493 41.067 157.493C42.7345 157.493 43.8155 158.033 43.8155 158.884C43.8155 159.747 42.7345 160.276 41.067 160.276ZM41.067 156.998C38.997 156.998 37.7205 157.677 37.7205 158.884C37.7205 160.092 38.997 160.771 41.067 160.771C43.137 160.771 44.4135 160.092 44.4135 158.884C44.4135 157.677 43.137 156.998 41.067 156.998ZM51.0941 155.331H47.7246V151.892H51.0941V155.331ZM54.3371 152.858V154.365H51.6921V152.858H54.3371ZM51.6921 154.882H54.3371V156.665H54.9466V150.593H54.3371V152.341H51.6921V151.386H47.1381V155.837H51.6921V154.882ZM51.6461 160.276C49.9786 160.276 48.9091 159.747 48.9091 158.884C48.9091 158.033 49.9786 157.493 51.6461 157.493C53.3136 157.493 54.3946 158.033 54.3946 158.884C54.3946 159.747 53.3136 160.276 51.6461 160.276ZM51.6461 156.998C49.5761 156.998 48.2996 157.677 48.2996 158.884C48.2996 160.092 49.5761 160.771 51.6461 160.771C53.7161 160.771 54.9926 160.092 54.9926 158.884C54.9926 157.677 53.7161 156.998 51.6461 156.998ZM65.5142 150.604H64.9047V156.918H65.5142V150.604ZM63.4672 155.768C62.0297 155.331 60.7532 154.158 60.7532 152.732V152.467H63.2027V151.961H60.7532V150.581H60.1437V151.961H57.6712V152.467H60.1437V152.732C60.1437 154.261 58.9017 155.549 57.4757 156.044L57.7862 156.527C58.9937 156.09 60.0402 155.124 60.4657 153.882C60.9027 155.009 61.9837 155.86 63.1682 156.251L63.4672 155.768ZM62.1562 160.276C60.4657 160.276 59.3847 159.77 59.3847 158.965C59.3847 158.148 60.4657 157.654 62.1562 157.654C63.8582 157.654 64.9392 158.148 64.9392 158.965C64.9392 159.77 63.8582 160.276 62.1562 160.276ZM62.1562 157.148C60.0402 157.148 58.7752 157.803 58.7752 158.965C58.7752 160.115 60.0402 160.771 62.1562 160.771C64.2722 160.771 65.5487 160.115 65.5487 158.965C65.5487 157.803 64.2722 157.148 62.1562 157.148Z" fill="#121212"/>
<path d="M81.0005 151.869V152.64H84.094C83.956 154.779 82.9785 156.642 80.6095 157.964L81.1615 158.643C84.094 156.987 85.0255 154.526 85.0255 151.869H81.0005ZM88.4525 150.535V154.687H87.0495V150.811H86.164V160.334H87.0495V155.457H88.4525V160.851H89.361V150.535H88.4525ZM98.7326 152.743V153.882H96.3521V152.743H98.7326ZM95.4206 154.756H92.6376V153.226H95.4206V154.756ZM96.3521 154.618H98.7326V155.929H99.6756V150.547H98.7326V152.007H96.3521V151.03H95.4206V152.49H92.6376V151.018H91.7061V155.515H96.3521V154.618ZM93.9831 159.965V158.873H99.6756V156.423H93.0286V157.171H98.7441V158.16H93.0516V160.713H100.067V159.965H93.9831ZM106.425 160.127C104.769 160.127 103.838 159.804 103.838 159.183C103.838 158.574 104.769 158.24 106.425 158.24C108.093 158.24 109.013 158.574 109.013 159.183C109.013 159.804 108.093 160.127 106.425 160.127ZM106.425 157.539C104.183 157.539 102.895 158.114 102.895 159.183C102.895 160.265 104.183 160.84 106.425 160.84C108.668 160.84 109.956 160.265 109.956 159.183C109.956 158.114 108.668 157.539 106.425 157.539ZM106.897 155.998V154.986H110.002V154.25H103.93V153.238H109.668V152.525H103.93V151.57H109.944V150.834H102.987V154.986H105.954V155.998H101.756V156.757H111.094V155.998H106.897ZM118.833 154.112H120.144V157.067H121.052V150.535H120.144V153.341H118.833V150.731H117.936V156.688H118.833V154.112ZM117.522 151.766H115.383V150.616H114.451V151.766H112.289V152.513H117.533L117.522 151.766ZM113.566 154.813C113.566 154.181 114.106 153.755 114.923 153.755C115.728 153.755 116.28 154.181 116.28 154.813C116.28 155.457 115.728 155.883 114.923 155.883C114.106 155.883 113.566 155.457 113.566 154.813ZM117.119 154.813C117.119 153.755 116.222 153.054 114.923 153.054C113.623 153.054 112.715 153.755 112.715 154.813C112.715 155.894 113.623 156.584 114.923 156.584C116.222 156.584 117.119 155.894 117.119 154.813ZM117.66 160.115C116.084 160.115 115.141 159.724 115.141 159.045C115.141 158.355 116.084 157.964 117.66 157.964C119.224 157.964 120.167 158.355 120.167 159.045C120.167 159.724 119.224 160.115 117.66 160.115ZM117.66 157.24C115.509 157.24 114.21 157.884 114.21 159.045C114.21 160.196 115.509 160.84 117.66 160.84C119.81 160.84 121.11 160.196 121.11 159.045C121.11 157.884 119.81 157.24 117.66 157.24ZM126.399 152.375H128.687V151.593H123.11V152.375H125.467V153.686C125.467 155.434 124.225 157.389 122.753 158.125L123.305 158.873C124.467 158.275 125.467 156.964 125.939 155.457C126.41 156.837 127.376 158.045 128.526 158.62L129.067 157.861C127.572 157.159 126.399 155.331 126.399 153.686V152.375ZM132.563 154.698H130.861V150.547H129.918V160.851H130.861V155.492H132.563V154.698ZM134.115 151.651V152.41H137.99C137.795 154.859 136.415 156.837 133.643 158.16L134.149 158.93C137.576 157.251 138.945 154.629 138.945 151.651H134.115ZM141.026 150.535V160.851H141.969V150.535H141.026ZM148.362 155.63H145.441V153.744H148.362V155.63ZM149.282 151.283H148.362V153.008H145.441V151.283H144.51V156.389H149.282V151.283ZM146.614 157.389H145.671V160.621H152.548V159.85H146.614V157.389ZM152.088 153.664V150.547H151.145V158.114H152.088V154.457H153.606V153.664H152.088ZM164.526 152.709C164.526 153.985 164.526 155.342 164.169 157.182L165.101 157.297C165.469 155.365 165.469 154.02 165.469 152.709V151.57H158.201V152.341H164.526V152.709ZM163.008 158.631V155.216H162.076V158.631H160.455V155.216H159.523V158.631H157.235V159.402H166.561V158.631H163.008ZM172.472 160.127C170.816 160.127 169.884 159.804 169.884 159.183C169.884 158.574 170.816 158.24 172.472 158.24C174.139 158.24 175.059 158.574 175.059 159.183C175.059 159.804 174.139 160.127 172.472 160.127ZM172.472 157.539C170.229 157.539 168.941 158.114 168.941 159.183C168.941 160.265 170.229 160.84 172.472 160.84C174.714 160.84 176.002 160.265 176.002 159.183C176.002 158.114 174.714 157.539 172.472 157.539ZM172.943 155.998V154.986L176.048 154.986V154.25L169.976 154.25V153.238L175.715 153.238V152.525L169.976 152.525V151.57L175.991 151.57V150.834L169.033 150.834V154.986H172V155.998H167.803V156.757L177.141 156.757V155.998L172.943 155.998ZM187.271 154.468C185.397 154.193 183.557 152.916 183.557 151.478V150.903H182.568V151.478C182.568 152.95 180.751 154.193 178.876 154.468L179.256 155.227C180.866 154.951 182.418 154.066 183.062 152.813C183.729 154.054 185.282 154.951 186.88 155.227L187.271 154.468ZM187.72 156.343H178.405V157.125H182.568V160.863H183.511V157.125H187.731L187.72 156.343ZM192.204 156.32C192.629 156.423 193.124 156.481 193.63 156.481C194.147 156.481 194.642 156.423 195.079 156.32V158.746H192.204V156.32ZM193.63 151.927C195.286 151.927 196.482 152.686 196.482 153.836C196.482 154.986 195.286 155.745 193.63 155.745C191.974 155.745 190.789 154.986 190.789 153.836C190.789 152.686 191.974 151.927 193.63 151.927ZM196.022 158.746V155.952C196.873 155.503 197.379 154.767 197.379 153.836C197.379 152.226 195.826 151.191 193.63 151.191C191.445 151.191 189.881 152.226 189.881 153.836C189.881 154.767 190.398 155.515 191.261 155.963V158.746H188.961V159.528H198.333V158.746H196.022ZM203.99 156.17C204.048 155.802 204.082 155.423 204.082 154.986C204.082 154.549 204.048 154.169 203.99 153.801H205.393V156.17H203.99ZM201.874 157.711C201.058 157.711 200.529 156.665 200.529 154.986C200.529 153.318 201.058 152.272 201.874 152.272C202.702 152.272 203.22 153.318 203.22 154.986C203.22 156.665 202.702 157.711 201.874 157.711ZM205.393 153.031H203.795C203.438 151.996 202.771 151.398 201.874 151.398C200.54 151.398 199.678 152.778 199.678 154.986C199.678 157.205 200.54 158.585 201.874 158.585C202.771 158.585 203.427 157.987 203.795 156.952H205.393V160.345H206.29V150.765H205.393V153.031ZM207.417 150.535V160.851H208.314V150.535H207.417ZM210.981 155.17C212.672 154.997 214.178 154.376 214.799 153.341C215.42 154.376 216.915 154.997 218.606 155.17L218.905 154.457C216.95 154.261 215.386 153.468 215.305 152.318H218.502V151.57H215.271V150.501H214.328V151.57H211.096V152.318H214.282C214.201 153.468 212.637 154.261 210.694 154.457L210.981 155.17ZM211.165 158.355H217.364V160.851H218.307V157.608H211.165V158.355ZM210.13 155.745V156.504H219.457V155.745H210.13ZM224.367 151.432H223.435V153.284C223.435 155.239 222.182 157.217 220.664 157.941L221.239 158.712C222.446 158.091 223.435 156.803 223.907 155.25C224.401 156.722 225.39 157.941 226.563 158.516L227.127 157.757C225.597 157.067 224.367 155.17 224.367 153.284V151.432ZM228.208 150.535V160.874H229.151V150.535H228.208ZM240.178 155.722C238.373 155.377 236.418 153.813 236.418 152.053V151.26H235.429V152.053C235.429 153.813 233.485 155.365 231.68 155.722L232.105 156.504C233.658 156.136 235.268 155.032 235.923 153.525C236.579 155.043 238.189 156.147 239.753 156.504L240.178 155.722ZM231.289 158.689V159.471H240.638V158.689H231.289ZM247.675 156.642H248.572V150.708H247.675V153.134H246.307V153.893H247.675V156.642ZM246.709 155.089C245.64 155.308 244.708 155.365 243.248 155.365V153.974H245.835V153.238H243.248V151.961H246.238V151.202H242.339V156.124H242.995C244.639 156.124 245.617 156.078 246.79 155.848L246.709 155.089ZM244.72 157.987H249.653V159.954H244.72V157.987ZM243.8 160.713H250.573V157.24H243.8V160.713ZM249.665 150.535V156.745H250.573V150.535H249.665Z" fill="#121212"/>
<path d="M29.9934 176.928H26.5779V175.111H29.9934V176.928ZM30.5914 172.984H29.9934V174.605H26.5779V172.984H25.9684V177.434H30.5914V172.984ZM27.6244 180.758H33.3399V178.469H27.0034V178.964H32.7419V180.263H27.0264L27.0264 182.656H33.7539V182.15H27.6244V180.758ZM33.3399 174.916V172.581H32.7304V177.917H33.3399V175.445H34.9269V174.916H33.3399ZM40.515 177.331H37.1455V173.892H40.515V177.331ZM43.758 174.858V176.365H41.113V174.858H43.758ZM41.113 176.882H43.758V178.665H44.3675V172.593H43.758V174.341H41.113V173.386H36.559V177.837H41.113V176.882ZM41.067 182.276C39.3995 182.276 38.33 181.747 38.33 180.884C38.33 180.033 39.3995 179.493 41.067 179.493C42.7345 179.493 43.8155 180.033 43.8155 180.884C43.8155 181.747 42.7345 182.276 41.067 182.276ZM41.067 178.998C38.997 178.998 37.7205 179.677 37.7205 180.884C37.7205 182.092 38.997 182.771 41.067 182.771C43.137 182.771 44.4135 182.092 44.4135 180.884C44.4135 179.677 43.137 178.998 41.067 178.998ZM49.8866 174.203H52.2901V173.674H46.8391V174.203H49.2886V175.916C49.2886 177.687 47.8166 179.642 46.4941 180.31L46.8736 180.815C47.9776 180.206 49.1391 178.803 49.5876 177.25C50.0361 178.688 51.1401 179.976 52.2441 180.562L52.6006 180.068C51.2551 179.412 49.8866 177.584 49.8866 175.916V174.203ZM56.1771 176.848H54.3946V172.593H53.7851V182.805H54.3946V177.365H56.1771V176.848Z" fill="#121212"/>
<path d="M88.1075 172.535V182.874H89.0505V172.535H88.1075ZM83.611 173.329C82.0815 173.329 80.989 174.732 80.989 176.928C80.989 179.125 82.0815 180.528 83.611 180.528C85.1405 180.528 86.233 179.125 86.233 176.928C86.233 174.732 85.1405 173.329 83.611 173.329ZM83.611 174.18C84.6115 174.18 85.3245 175.261 85.3245 176.928C85.3245 178.607 84.6115 179.688 83.611 179.688C82.599 179.688 81.886 178.607 81.886 176.928C81.886 175.261 82.599 174.18 83.611 174.18ZM99.9746 175.905C98.1461 175.64 96.3406 174.479 96.3406 173.168V172.708H95.3746V173.168C95.3746 174.513 93.5806 175.64 91.7406 175.905L92.0856 176.641C93.6841 176.388 95.2136 175.571 95.8576 174.387C96.5131 175.56 98.0311 176.388 99.6181 176.641L99.9746 175.905ZM95.8576 182.115C94.2246 182.115 93.2701 181.724 93.2701 181.011C93.2701 180.31 94.2246 179.907 95.8576 179.907C97.4676 179.907 98.4221 180.31 98.4221 181.011C98.4221 181.724 97.4676 182.115 95.8576 182.115ZM95.8576 179.182C93.6496 179.182 92.3156 179.838 92.3156 181.011C92.3156 182.196 93.6496 182.851 95.8576 182.851C98.0541 182.851 99.3766 182.196 99.3766 181.011C99.3766 179.838 98.0541 179.182 95.8576 179.182ZM91.1886 177.457V178.228H100.515V177.457H91.1886ZM104.815 174.525H106.69V173.754H101.906V174.525H103.907V175.33C103.907 177.423 103.136 179.182 101.664 180.01L102.239 180.723C103.309 180.102 104.033 178.987 104.378 177.584C104.746 178.803 105.459 179.803 106.471 180.367L107.023 179.642C105.563 178.883 104.815 177.216 104.815 175.33V174.525ZM109.657 172.524V176.698H108.3V172.765H107.414V182.345H108.3V177.48H109.657V182.851H110.565V172.524H109.657ZM112.6 184.185C113.635 183.748 114.279 182.886 114.279 181.781C114.279 181.011 113.945 180.539 113.393 180.539C112.968 180.539 112.6 180.827 112.6 181.275C112.6 181.758 112.968 182.012 113.37 182.012C113.416 182.012 113.451 182.012 113.497 182C113.497 182.679 113.071 183.242 112.347 183.564L112.6 184.185ZM126.583 172.535H125.64V180.102H126.583V172.535ZM124.329 177.676C122.8 177.112 121.753 175.709 121.753 174.157V173.11H120.81V174.157C120.81 175.767 119.775 177.262 118.223 177.86L118.717 178.63C119.925 178.124 120.856 177.124 121.293 175.87C121.753 177.043 122.662 177.975 123.835 178.423L124.329 177.676ZM120.891 181.85V179.401H119.948V182.621H126.894V181.85H120.891ZM137.484 173.421H133.839V172.386H132.896V173.421H129.181V174.157H137.484V173.421ZM135.69 176.066C135.69 176.595 134.851 176.882 133.356 176.882C131.861 176.882 131.021 176.595 131.021 176.066C131.021 175.525 131.861 175.238 133.356 175.238C134.851 175.238 135.69 175.525 135.69 176.066ZM130.032 176.066C130.032 177.043 131.228 177.561 133.356 177.561C135.483 177.561 136.691 177.043 136.691 176.066C136.691 175.088 135.483 174.571 133.356 174.571C131.228 174.571 130.032 175.088 130.032 176.066ZM133.356 182.138C131.711 182.138 130.791 181.827 130.791 181.241C130.791 180.666 131.711 180.355 133.356 180.355C135 180.355 135.92 180.666 135.92 181.241C135.92 181.827 135 182.138 133.356 182.138ZM133.356 179.654C131.113 179.654 129.825 180.217 129.825 181.241C129.825 182.288 131.113 182.84 133.356 182.84C135.598 182.84 136.886 182.288 136.886 181.241C136.886 180.217 135.598 179.654 133.356 179.654ZM128.698 178.216V178.964H138.025V178.216H128.698ZM144.579 178.159V178.906H146.821V180.332H147.764V172.547H146.821V178.159H144.579ZM142.106 179.665H143.049V177.285C144.027 177.216 145.027 177.124 145.959 176.951L145.89 176.273C145.522 176.33 145.119 176.365 144.728 176.399C144.947 175.1 144.947 174.134 144.947 173.559V173.168H140.14V173.927H144.027C144.015 174.513 143.981 175.353 143.774 176.48C142.152 176.595 140.519 176.606 139.197 176.618L139.323 177.388C140.151 177.388 141.106 177.377 142.106 177.331V179.665ZM141.658 181.85V179.481H140.726V182.621H148.017V181.85H141.658ZM150.11 184.185C151.145 183.748 151.789 182.886 151.789 181.781C151.789 181.011 151.455 180.539 150.903 180.539C150.478 180.539 150.11 180.827 150.11 181.275C150.11 181.758 150.478 182.012 150.88 182.012C150.926 182.012 150.961 182.012 151.007 182C151.007 182.679 150.581 183.242 149.857 183.564L150.11 184.185ZM156.285 173.191V173.961H160.022C159.838 175.709 158.263 177.066 155.744 177.722L156.124 178.469C159.137 177.664 161.034 175.824 161.034 173.191H156.285ZM158.343 179.608H163.162V181.942H158.343V179.608ZM157.423 182.702H164.093V178.86H157.423V182.702ZM163.15 172.535V178.366H164.093V172.535H163.15ZM167.128 177.549C168.727 177.273 170.245 176.411 170.877 175.192C171.498 176.411 173.028 177.273 174.626 177.549L174.994 176.802C173.177 176.537 171.395 175.353 171.395 173.996V173.938H174.626V173.179L167.094 173.179V173.938H170.348V173.996C170.348 175.353 168.566 176.537 166.772 176.802L167.128 177.549ZM175.535 178.412L166.22 178.412V179.182H170.383V182.851H171.326V179.182L175.546 179.182L175.535 178.412ZM177.845 175.594C177.845 174.64 178.604 173.95 179.605 173.95C180.617 173.95 181.353 174.64 181.353 175.594C181.353 176.56 180.617 177.25 179.605 177.25C178.604 177.25 177.845 176.56 177.845 175.594ZM184.331 174.789V176.399H182.112C182.204 176.146 182.25 175.882 182.25 175.594C182.25 175.295 182.204 175.031 182.123 174.789H184.331ZM184.331 177.17V178.642H185.286V172.535H184.331V174.019H181.686C181.215 173.49 180.479 173.156 179.605 173.156C178.075 173.156 176.948 174.157 176.948 175.594C176.948 177.043 178.075 178.055 179.605 178.055C180.479 178.055 181.215 177.722 181.686 177.17H184.331ZM181.87 182.092C180.318 182.092 179.375 181.632 179.375 180.861C179.375 180.079 180.318 179.619 181.87 179.619C183.446 179.619 184.389 180.079 184.389 180.861C184.389 181.632 183.446 182.092 181.87 182.092ZM181.87 178.883C179.754 178.883 178.443 179.608 178.443 180.861C178.443 182.115 179.754 182.84 181.87 182.84C183.998 182.84 185.32 182.115 185.32 180.861C185.32 179.608 183.998 178.883 181.87 178.883ZM187.619 184.185C188.654 183.748 189.298 182.886 189.298 181.781C189.298 181.011 188.965 180.539 188.413 180.539C187.987 180.539 187.619 180.827 187.619 181.275C187.619 181.758 187.987 182.012 188.39 182.012C188.436 182.012 188.47 182.012 188.516 182C188.516 182.679 188.091 183.242 187.366 183.564L187.619 184.185ZM197.785 173.708C199.36 173.708 200.43 174.283 200.43 175.192C200.43 176.1 199.36 176.687 197.785 176.687C196.221 176.687 195.151 176.1 195.151 175.192C195.151 174.283 196.221 173.708 197.785 173.708ZM197.785 177.446C199.935 177.446 201.396 176.572 201.396 175.192C201.396 173.812 199.935 172.949 197.785 172.949C195.646 172.949 194.185 173.812 194.185 175.192C194.185 176.572 195.646 177.446 197.785 177.446ZM202.477 178.412H193.139V179.182H195.542V182.851H196.497V179.182H199.084V182.851H200.039V179.182H202.477V178.412ZM204.776 175.778C204.776 174.755 205.523 174.019 206.535 174.019C207.536 174.019 208.283 174.755 208.283 175.778C208.283 176.802 207.536 177.538 206.535 177.538C205.523 177.538 204.776 176.802 204.776 175.778ZM211.262 174.916V176.629H209.042C209.134 176.365 209.18 176.077 209.18 175.778C209.18 175.468 209.134 175.18 209.042 174.916H211.262ZM211.262 177.388V180.16H212.216V172.547H211.262V174.157H208.64C208.157 173.559 207.421 173.191 206.535 173.191C205.017 173.191 203.879 174.272 203.879 175.778C203.879 177.285 205.017 178.366 206.535 178.366C207.421 178.366 208.168 177.998 208.651 177.388H211.262ZM206.57 181.85V179.378H205.615V182.621H212.504V181.85H206.57ZM223.083 175.905C221.255 175.64 219.449 174.479 219.449 173.168V172.708H218.483V173.168C218.483 174.513 216.689 175.64 214.849 175.905L215.194 176.641C216.793 176.388 218.322 175.571 218.966 174.387C219.622 175.56 221.14 176.388 222.727 176.641L223.083 175.905ZM218.966 182.115C217.333 182.115 216.379 181.724 216.379 181.011C216.379 180.31 217.333 179.907 218.966 179.907C220.576 179.907 221.531 180.31 221.531 181.011C221.531 181.724 220.576 182.115 218.966 182.115ZM218.966 179.182C216.758 179.182 215.424 179.838 215.424 181.011C215.424 182.196 216.758 182.851 218.966 182.851C221.163 182.851 222.485 182.196 222.485 181.011C222.485 179.838 221.163 179.182 218.966 179.182ZM214.297 177.457V178.228H223.624V177.457H214.297Z" fill="#121212"/>
<path d="M33.5584 198.365H27.3369V197.077H33.2249V196.582H27.3369V195.386H33.5124V194.892H26.7274V198.871H33.5584V198.365ZM26.4974 202.24H32.8569V204.805H33.4664V201.734H26.4974L26.4974 202.24ZM25.4739 200.032V200.55H34.6969V200.032H25.4739ZM42.102 196.283H39.388V194.685H38.7785V196.283H36.0185V196.801H42.102V196.283ZM39.0775 201.872C38.0425 201.872 37.2835 201.113 37.2835 200.113C37.2835 199.112 38.0425 198.342 39.0775 198.342C40.101 198.342 40.8715 199.112 40.8715 200.113C40.8715 201.113 40.101 201.872 39.0775 201.872ZM39.0775 197.813C37.7205 197.813 36.72 198.767 36.72 200.113C36.72 201.458 37.7205 202.401 39.0775 202.401C40.446 202.401 41.435 201.458 41.435 200.113C41.435 198.767 40.446 197.813 39.0775 197.813ZM43.758 194.581V199.032H41.872V199.549H43.758V204.794H44.3675V194.581H43.758ZM51.8761 200.205V200.711H54.2451V202.321H54.8546V194.593H54.2451V200.205H51.8761ZM49.5646 201.642H50.1626V199.181C51.1861 199.112 52.2556 199.02 53.2561 198.848L53.2101 198.388C52.8076 198.445 52.3706 198.503 51.9451 198.549C52.1751 197.226 52.1751 196.272 52.1751 195.685V195.271H47.4716V195.789H51.5771C51.5771 196.375 51.5656 197.307 51.3241 198.583C49.6451 198.721 47.9201 198.733 46.5516 198.733L46.6436 199.273C47.5061 199.273 48.5181 199.262 49.5646 199.216V201.642ZM48.7366 204.035V201.435H48.1271V204.552H55.1191V204.035H48.7366ZM60.4657 196.203H62.8692V195.674H57.4182V196.203H59.8677V197.916C59.8677 199.687 58.3957 201.642 57.0732 202.31L57.4527 202.815C58.5567 202.206 59.7182 200.803 60.1667 199.25C60.6152 200.688 61.7192 201.976 62.8232 202.562L63.1797 202.068C61.8342 201.412 60.4657 199.584 60.4657 197.916V196.203ZM66.7562 198.848H64.9737V194.593H64.3642V204.805H64.9737V199.365H66.7562V198.848Z" fill="#121212"/>
<path d="M82.7485 206.266L83.404 205.955C82.4035 204.322 81.932 202.378 81.932 200.423C81.932 198.468 82.4035 196.536 83.404 194.892L82.7485 194.593C81.6905 196.306 81.058 198.169 81.058 200.423C81.058 202.689 81.6905 204.541 82.7485 206.266ZM85.4152 199.549C87.0137 199.273 88.5317 198.411 89.1642 197.192C89.7852 198.411 91.3147 199.273 92.9132 199.549L93.2812 198.802C91.4642 198.537 89.6817 197.353 89.6817 195.996V195.938H92.9132V195.179H85.3807V195.938H88.6352V195.996C88.6352 197.353 86.8527 198.537 85.0587 198.802L85.4152 199.549ZM93.8217 200.412H84.5067V201.182H88.6697V204.851H89.6127V201.182H93.8332L93.8217 200.412ZM95.6033 206.266C96.6728 204.541 97.3053 202.689 97.3053 200.423C97.3053 198.169 96.6728 196.306 95.6033 194.593L94.9593 194.892C95.9483 196.536 96.4313 198.468 96.4313 200.423C96.4313 202.378 95.9483 204.322 94.9593 205.955L95.6033 206.266ZM107.85 199.722C106.044 199.377 104.089 197.813 104.089 196.053V195.26H103.1V196.053C103.1 197.813 101.157 199.365 99.3511 199.722L99.7766 200.504C101.329 200.136 102.939 199.032 103.595 197.525C104.25 199.043 105.86 200.147 107.424 200.504L107.85 199.722ZM98.9601 202.689V203.471H108.31V202.689H98.9601ZM110.873 196.329H113.76V201.47H110.873V196.329ZM109.953 202.229H114.68V195.57H109.953V202.229ZM119.176 198.652H117.474V194.547H116.531V204.851H117.474V199.446H119.176V198.652ZM128.398 200.101H122.269V198.468H128.065V197.721H122.269V196.191H128.295V195.432H121.314V200.86H128.398V200.101ZM120.107 202.746V203.517H129.468V202.746H120.107ZM132.71 196.145H137.988V199.492H132.71V196.145ZM135.838 202.746V200.239H138.908V195.398H131.801V200.239H134.883V202.746H130.697V203.528H140.047V202.746H135.838ZM149.729 194.547H148.786V199.929H149.729V194.547ZM145.715 198.71H142.748V197.169H145.715V198.71ZM146.647 194.949H145.715V196.444H142.748V194.949H141.817V199.469H146.647V194.949ZM144.013 204V202.896H149.74V200.458H143.059V201.194H148.809V202.206H143.082V204.736H150.085V204H144.013ZM153.167 199.101H156.824V195.49H152.212V196.26H155.904V198.342H152.235V202.378H153.029C154.892 202.378 156.203 202.321 157.755 202.045L157.663 201.263C156.18 201.527 154.926 201.596 153.167 201.596V199.101ZM159.4 194.524V198.503H157.433V199.273H159.4V204.863H160.343V194.524H159.4ZM164.022 199.124H167.713V198.365H164.022V196.237H168.093V195.467H163.09V202.367H163.907C165.873 202.367 167.253 202.298 168.863 202.022L168.771 201.251C167.23 201.527 165.896 201.596 164.022 201.596V199.124ZM169.956 194.535V204.84H170.899V194.535H169.956Z" fill="#121212"/>
</svg>
