<svg width="315" height="102" viewBox="0 0 315 102" fill="none" xmlns="http://www.w3.org/2000/svg">
<path d="M4.18535 50.575H6.31035V49.8125H4.19785V48.125H3.32285L3.32285 49.8125H1.18535L1.18535 50.575H3.32285L3.32285 51.175C3.32285 53.025 2.39785 55.0125 0.910352 55.8875L1.44785 56.5875C2.56035 55.9 3.37285 54.6125 3.76035 53.15C4.17285 54.525 4.99785 55.7125 6.11035 56.3375L6.63535 55.65C5.14785 54.8375 4.18535 52.975 4.18535 51.175V50.575ZM7.33535 52.175H5.53535L5.53535 52.9375H7.33535L7.33535 58.3125H8.19785L8.19785 48H7.33535V52.175ZM9.56035 47.725L9.56035 58.9H10.4354L10.4354 47.725H9.56035ZM18.8469 50.8625H17.0844C17.1844 50.3125 17.2344 49.7375 17.2344 49.1625H12.9594L12.9594 49.925H16.3344C16.1719 52.2875 14.9344 54.3625 12.4969 55.825L13.0344 56.4875C15.1344 55.2125 16.3719 53.5125 16.9094 51.6125H18.8469V53.6625H16.7344V54.425H18.8469L18.8469 58.3375H19.7094L19.7094 48.0375H18.8469V50.8625ZM21.0719 47.7375L21.0719 58.9125H21.9469L21.9469 47.7375H21.0719ZM30.5334 53.25C28.9459 52.6875 27.7834 51.275 27.7834 49.8125V49.2875H30.2959V48.525L24.3209 48.525V49.2875L26.8709 49.2875V49.8125C26.8709 51.4375 25.6584 52.925 24.0209 53.5125L24.5084 54.2375C25.8209 53.75 26.8709 52.7 27.3459 51.4C27.8334 52.5625 28.8209 53.5125 30.0709 53.9625L30.5334 53.25ZM25.7084 55.8L32.2334 55.8V58.9125H33.1459V55.0375L25.7084 55.0375L25.7084 55.8ZM32.2334 47.7375V50.6875H29.9459V51.45H32.2334V54.425H33.1459V47.7375H32.2334ZM44.6199 47.75H43.7074V55.9375H44.6199V47.75ZM36.6324 51.2625C36.6324 50.125 37.4949 49.3125 38.6324 49.3125C39.7824 49.3125 40.6449 50.125 40.6449 51.2625C40.6449 52.4 39.7824 53.2125 38.6324 53.2125C37.4949 53.2125 36.6324 52.4 36.6324 51.2625ZM41.5324 51.2625C41.5324 49.65 40.2949 48.525 38.6324 48.525C36.9824 48.525 35.7449 49.65 35.7449 51.2625C35.7449 52.875 36.9824 54 38.6324 54C40.2949 54 41.5324 52.875 41.5324 51.2625ZM38.3824 57.9V55.0875H37.4824V58.6625H44.9699V57.9H38.3824ZM50.3396 48.4V53.675H55.5396V48.4H54.6396V50.2H51.2521V48.4H50.3396ZM51.2521 50.9375H54.6396V52.925H51.2521V50.9375ZM51.4646 55.1375V55.9H57.9896V58.9125H58.9021V55.1375H51.4646ZM57.9896 47.725V54.5125H58.9021V47.725H57.9896ZM62.5887 49.875L65.8887 49.875V49.125L61.6887 49.125V56.1875H62.4012C64.2012 56.1875 65.2637 56.125 66.5512 55.85L66.4637 55.1C65.2637 55.35 64.2387 55.425 62.5887 55.425V49.875ZM67.6137 52.025H65.1262V52.7875H67.6137V58.325H68.4762V48.0125H67.6137V52.025ZM69.8387 47.7375V58.9125H70.7137V47.7375H69.8387ZM80.9627 47.725V58.925H81.8752V47.725H80.9627ZM76.0002 48.6125C74.3502 48.6125 73.1752 50.125 73.1752 52.4875C73.1752 54.85 74.3502 56.375 76.0002 56.375C77.6502 56.375 78.8252 54.85 78.8252 52.4875C78.8252 50.125 77.6502 48.6125 76.0002 48.6125ZM76.0002 49.425C77.1377 49.425 77.9502 50.65 77.9502 52.4875C77.9502 54.3375 77.1377 55.5625 76.0002 55.5625C74.8627 55.5625 74.0502 54.3375 74.0502 52.4875C74.0502 50.65 74.8627 49.425 76.0002 49.425ZM85.6742 52.6625H89.4242V51.9125H85.6742V49.525H89.9367V48.7625H84.7742V56.2125H85.6117C87.7867 56.2125 89.1242 56.1375 90.7367 55.85L90.6367 55.0875C89.0992 55.3875 87.7867 55.45 85.6742 55.45V52.6625ZM92.5117 47.7125V51.9875H90.1242V52.75H92.5117V58.925H93.4242V47.7125H92.5117ZM99.1939 48.9375V49.6875H103.469C103.281 52.375 101.719 54.6 98.6939 56.05L99.1814 56.7875C102.869 54.9875 104.394 52.1375 104.394 48.9375H99.1939ZM106.769 47.725V58.9125H107.681V47.725H106.769ZM114.768 53.3H111.418V51.1875L114.768 51.1875V53.3ZM115.655 48.525H114.768V50.45L111.418 50.45V48.525H110.518V54.05H115.655V48.525ZM112.68 55.1625H111.768V58.6625L119.193 58.6625V57.9L112.68 57.9V55.1625ZM118.68 51.1625V47.75H117.768V55.9375H118.68V51.925H120.355V51.1625H118.68ZM125.167 48.5625C123.429 48.5625 122.192 49.6125 122.192 51.1625C122.192 52.7125 123.429 53.7625 125.167 53.7625C126.904 53.7625 128.142 52.7125 128.142 51.1625C128.142 49.6125 126.904 48.5625 125.167 48.5625ZM125.167 49.35C126.379 49.35 127.254 50.1 127.254 51.1625C127.254 52.225 126.379 52.9875 125.167 52.9875C123.954 52.9875 123.067 52.225 123.067 51.1625C123.067 50.1 123.954 49.35 125.167 49.35ZM129.692 47.725V58.925H130.592V47.725H129.692ZM121.742 56.4375C123.754 56.4375 126.492 56.425 129.004 55.95L128.929 55.275C126.492 55.6625 123.654 55.6625 121.604 55.6625L121.742 56.4375ZM136.712 54.3125C138.349 53.9625 140.187 52.8375 140.887 51.25C141.599 52.825 143.437 53.925 145.099 54.275L145.462 53.55C143.624 53.2375 141.349 51.7 141.349 49.8875V49.5375H145.112V48.775H136.649V49.5375H140.412V49.8875C140.412 51.7 138.137 53.2625 136.324 53.575L136.712 54.3125ZM141.337 56.6875V53.9375H140.437V56.6875H135.812V57.45H145.962V56.6875H141.337ZM150.998 48.725H150.098V50.8C150.098 52.825 148.748 54.975 147.186 55.775L147.748 56.5125C148.998 55.8375 150.061 54.3875 150.548 52.7125C151.061 54.3 152.111 55.65 153.323 56.2875L153.886 55.5625C152.336 54.7875 150.998 52.75 150.998 50.8V48.725ZM157.748 52.3H155.873V47.7375H154.961V58.9125H155.873V53.075H157.748V52.3ZM159.822 54.525C159.539 54.525 159.293 54.4208 159.085 54.2125C158.876 54.0042 158.772 53.7583 158.772 53.475C158.772 53.1833 158.876 52.9375 159.085 52.7375C159.293 52.5292 159.539 52.425 159.822 52.425C160.114 52.425 160.36 52.5292 160.56 52.7375C160.768 52.9375 160.872 53.1833 160.872 53.475C160.872 53.7583 160.768 54.0042 160.56 54.2125C160.36 54.4208 160.114 54.525 159.822 54.525ZM170.054 51.7875H164.429V50.275H170.054V51.7875ZM170.954 48.075H170.054V49.55H164.429V48.075H163.529V52.5375H170.954V48.075ZM164.379 55.6375H163.466V58.6625H171.179V57.9H164.379V55.6375ZM162.154 53.675V54.425H166.841V56.65H167.754V54.425H172.316V53.675H162.154ZM180.178 53.1C178.59 52.525 177.415 51.075 177.415 49.5125V48.275H176.503V49.475C176.503 51.225 175.365 52.7375 173.703 53.35L174.203 54.0875C175.503 53.5625 176.515 52.525 176.978 51.1625C177.465 52.375 178.453 53.35 179.69 53.825L180.178 53.1ZM175.415 55.725H181.94V58.9125H182.853V54.9625H175.415V55.725ZM181.94 47.725V50.1125H179.428V50.875H181.94V54.325H182.853V47.725H181.94ZM190.989 53.9875C191.314 51.875 191.314 50.3875 191.314 49.525V48.9625H185.689V49.725H190.414C190.414 50.6 190.389 51.9875 190.077 53.9L190.989 53.9875ZM188.389 52.1625H187.489V55.6375C186.627 55.65 185.802 55.6625 185.064 55.6625L185.177 56.4375C187.164 56.425 189.814 56.375 192.139 56.0125L192.077 55.3375C190.914 55.475 189.639 55.5625 188.389 55.6V52.1625ZM195.552 52.4375H193.714V47.725H192.802V58.9125H193.714V53.2125H195.552V52.4375ZM200.109 54.6375L202.322 51.3625C202.572 50.925 202.822 50.475 203.047 50.0375H203.109C203.072 50.4875 203.034 51.2125 203.034 51.6625V54.6375H200.109ZM203.034 58H203.997V55.45L205.247 55.45V54.6375L203.997 54.6375V48.85H202.909L199.022 54.7875V55.45H203.034V58ZM209.995 50.4375H212.52V49.6875H210.007V47.925H209.095V49.6875H206.532V50.4375H209.107V51.375C209.107 53.3375 207.845 55.25 206.232 56.0375L206.77 56.7375C208.032 56.1 209.082 54.7875 209.557 53.2C210.02 54.675 211.007 55.9125 212.22 56.525L212.745 55.825C211.182 55.05 209.995 53.2125 209.995 51.375V50.4375ZM216.757 52.375H214.882V47.725H213.97V58.9125H214.882V53.1375H216.757V52.375ZM224.294 53.4C222.706 52.8375 221.531 51.4 221.531 49.8375V48.4H220.619V49.8125C220.619 51.575 219.469 53.075 217.806 53.6875L218.281 54.425C219.606 53.9125 220.631 52.8625 221.094 51.5125C221.594 52.7125 222.581 53.675 223.844 54.1375L224.294 53.4ZM220.506 55.2H219.594V58.6625H226.981V57.9H220.506V55.2ZM226.469 51.1875V47.7125H225.556V55.9875H226.469V51.95H228.144V51.1875H226.469ZM237.58 58L232.293 58V56.5L237.58 56.5V58ZM237.58 55.7625L232.293 55.7625V54.3H231.393V58.75L238.48 58.75V54.3H237.58V55.7625ZM232.368 52.6375C231.218 52.6375 230.368 51.8875 230.368 50.825C230.368 49.7625 231.218 49.025 232.368 49.025C233.518 49.025 234.355 49.7625 234.355 50.825C234.355 51.8875 233.518 52.6375 232.368 52.6375ZM237.568 47.7375V50.425H235.193C235.005 49.125 233.893 48.2625 232.368 48.2625C230.693 48.2625 229.505 49.3 229.505 50.825C229.505 52.3625 230.693 53.4 232.368 53.4C233.905 53.4 235.03 52.525 235.193 51.1875H237.568V53.725H238.48V47.7375H237.568ZM244.454 48.5625C242.717 48.5625 241.479 49.6125 241.479 51.1625C241.479 52.7125 242.717 53.7625 244.454 53.7625C246.192 53.7625 247.429 52.7125 247.429 51.1625C247.429 49.6125 246.192 48.5625 244.454 48.5625ZM244.454 49.35C245.667 49.35 246.542 50.1 246.542 51.1625C246.542 52.225 245.667 52.9875 244.454 52.9875C243.242 52.9875 242.354 52.225 242.354 51.1625C242.354 50.1 243.242 49.35 244.454 49.35ZM248.979 47.725V58.925H249.879V47.725H248.979ZM241.029 56.4375C243.042 56.4375 245.779 56.425 248.292 55.95L248.217 55.275C245.779 55.6625 242.942 55.6625 240.892 55.6625L241.029 56.4375ZM256.074 53.125C257.749 52.825 259.486 51.8875 260.149 50.5125C260.824 51.8875 262.561 52.825 264.236 53.125L264.586 52.4C262.724 52.125 260.674 50.8375 260.674 49.3125V49.2H264.224V48.4375H256.074V49.2H259.649V49.3125C259.649 50.8375 257.599 52.125 255.724 52.4L256.074 53.125ZM265.211 54.125H255.111V54.8875H259.686V58.9H260.599V54.8875H265.211V54.125ZM270.035 53.9875C270.523 54.1 271.073 54.175 271.648 54.175C272.235 54.175 272.798 54.1 273.285 53.975V56.6875H270.035V53.9875ZM268.473 51.325C268.473 50.05 269.81 49.2 271.648 49.2C273.485 49.2 274.823 50.05 274.823 51.325C274.823 52.5875 273.485 53.4375 271.648 53.4375C269.81 53.4375 268.473 52.5875 268.473 51.325ZM274.185 56.6875V53.625C275.123 53.125 275.685 52.3375 275.685 51.325C275.685 49.5875 274.01 48.4625 271.648 48.4625C269.285 48.4625 267.598 49.5875 267.598 51.325C267.598 52.3375 268.173 53.1375 269.123 53.625V56.6875H266.585V57.45H276.748V56.6875H274.185ZM281.543 48.9375V49.6875H285.818C285.63 52.375 284.068 54.6 281.043 56.05L281.53 56.7875C285.218 54.9875 286.743 52.1375 286.743 48.9375H281.543ZM289.118 47.725V58.9125H290.03V47.725H289.118ZM301.929 50.9625C299.992 50.7375 297.904 49.6625 297.904 48.2375V47.775H296.967V48.2375C296.967 49.6625 294.879 50.7375 292.942 50.9625L293.254 51.6625C294.992 51.425 296.742 50.6375 297.442 49.4C298.129 50.6375 299.892 51.425 301.617 51.6625L301.929 50.9625ZM302.492 53.2V52.45L292.392 52.45V53.2L296.979 53.2V54.3625H293.617V55.0875H300.279V56.175H293.654V58.775H301.517V58.0375H294.542V56.85H301.179V54.3625H297.879V53.2H302.492ZM308.928 48.625C310.791 48.625 311.903 49.0875 311.903 49.875C311.903 50.6625 310.791 51.1125 308.928 51.1125C307.053 51.1125 305.953 50.6625 305.953 49.875C305.953 49.0875 307.053 48.625 308.928 48.625ZM308.928 51.8125C311.378 51.8125 312.828 51.1125 312.828 49.875C312.828 48.625 311.378 47.925 308.928 47.925C306.478 47.925 305.016 48.625 305.016 49.875C305.016 51.1125 306.478 51.8125 308.928 51.8125ZM306.041 56.825H312.678V54.375H305.116V55.075H311.778V56.15H305.153V58.775H313.016V58.0375H306.041V56.825ZM303.891 52.6V53.35H313.991V52.6H303.891ZM12.7626 68.6125H10.0001V67.625H9.1001V68.6125H6.3251L6.3251 69.275H12.7626V68.6125ZM7.8126 71.125C7.8126 70.6 8.4876 70.275 9.5501 70.275C10.5876 70.275 11.2626 70.6 11.2626 71.125C11.2626 71.65 10.5876 72 9.5501 72C8.4876 72 7.8126 71.65 7.8126 71.125ZM13.1001 73.0125C12.1126 73.1625 11.0626 73.2375 10.0001 73.2875V72.5875C11.3126 72.4875 12.1251 71.9625 12.1251 71.125C12.1251 70.2 11.1126 69.65 9.5501 69.65C7.9751 69.65 6.9501 70.2 6.9501 71.125C6.9501 71.9625 7.7751 72.4875 9.1001 72.5875V73.325C8.0001 73.3625 6.9501 73.3625 6.0501 73.3625L6.1626 74.05C8.1126 74.05 10.7876 74.0375 13.1626 73.6125L13.1001 73.0125ZM8.4501 77.0625H14.7126V74.85H7.5251V75.5125H13.8126V76.4375H7.5626V78.775H15.1501V78.1H8.4501V77.0625ZM14.7126 70.625V67.7375H13.8001L13.8001 74.3375H14.7126L14.7126 71.3875H16.3876V70.625H14.7126ZM22.6366 78.175C20.8366 78.175 19.7366 77.7125 19.7366 76.9125C19.7366 76.1125 20.8366 75.6625 22.6366 75.6625C24.4366 75.6625 25.5366 76.1125 25.5366 76.9125C25.5366 77.7125 24.4366 78.175 22.6366 78.175ZM22.6366 74.9375C20.2491 74.9375 18.8241 75.65 18.8241 76.9125C18.8241 78.175 20.2491 78.9 22.6366 78.9C25.0241 78.9 26.4616 78.175 26.4616 76.9125C26.4616 75.65 25.0241 74.9375 22.6366 74.9375ZM21.0241 71.9375C21.5116 72.025 22.0366 72.075 22.6366 72.075C23.2366 72.075 23.7741 72.025 24.2616 71.9375V73.2875H21.0241V71.9375ZM19.6616 70C19.6616 69.1625 20.8116 68.6625 22.6366 68.6625C24.4616 68.6625 25.6116 69.1625 25.6116 70C25.6116 70.85 24.4616 71.35 22.6366 71.35C20.8116 71.35 19.6616 70.85 19.6616 70ZM25.1741 73.2875V71.675C26.0491 71.325 26.5366 70.7625 26.5366 70C26.5366 68.7125 25.0491 67.9375 22.6366 67.9375C20.2241 67.9375 18.7241 68.7125 18.7241 70C18.7241 70.7625 19.2241 71.3375 20.1116 71.6875V73.2875H17.5991V74.05H27.6866V73.2875H25.1741ZM35.7356 69.1375H32.8856V67.75H31.9731V69.1375H29.1356V69.8875H35.7356V69.1375ZM30.6231 72.6125C30.6231 71.8 31.3481 71.25 32.4231 71.25C33.4856 71.25 34.2231 71.8 34.2231 72.6125C34.2231 73.4125 33.4856 73.95 32.4231 73.95C31.3481 73.95 30.6231 73.4125 30.6231 72.6125ZM35.0856 72.6125C35.0856 71.35 34.0106 70.525 32.4231 70.525C30.8356 70.525 29.7606 71.35 29.7606 72.6125C29.7606 73.85 30.8356 74.675 32.4231 74.675C34.0106 74.675 35.0856 73.85 35.0856 72.6125ZM31.7356 75.45H30.8231L30.8231 78.6625H38.2481V77.9H31.7356L31.7356 75.45ZM37.7356 71.475V67.75H36.8231V76.125H37.7356V72.2375H39.4106V71.475H37.7356ZM44.7679 69.575H49.0429V68.8125H43.8554V76.125H44.7179C46.8554 76.125 48.3054 76.05 50.0304 75.7375L49.9304 74.95C48.2679 75.2625 46.8429 75.3375 44.7679 75.3375V69.575ZM53.8054 72.1875H51.9304V67.725H51.0179V78.925H51.9304V72.95H53.8054V72.1875ZM55.9919 71.0125C55.9919 69.9375 56.8294 69.175 57.9919 69.175C59.1544 69.175 60.0044 69.9375 60.0044 71.0125C60.0044 72.1 59.1544 72.875 57.9919 72.875C56.8294 72.875 55.9919 72.1 55.9919 71.0125ZM60.8919 71.0125C60.8919 69.475 59.6794 68.4125 57.9919 68.4125C56.3169 68.4125 55.1044 69.475 55.1044 71.0125C55.1044 72.5625 56.3169 73.6375 57.9919 73.6375C59.6794 73.6375 60.8919 72.5625 60.8919 71.0125ZM59.9794 78.15C58.2794 78.15 57.2169 77.65 57.2169 76.8125C57.2169 75.975 58.2794 75.475 59.9794 75.475C61.6669 75.475 62.7294 75.975 62.7294 76.8125C62.7294 77.65 61.6669 78.15 59.9794 78.15ZM59.9794 74.7375C57.7044 74.7375 56.3169 75.5 56.3169 76.8125C56.3169 78.125 57.7044 78.8875 59.9794 78.8875C62.2419 78.8875 63.6294 78.125 63.6294 76.8125C63.6294 75.5 62.2419 74.7375 59.9794 74.7375ZM65.1794 70.2125V69.45H63.5169V67.7375H62.6044V74.3625H63.5169V72.5875H65.1794V71.825H63.5169V70.2125H65.1794ZM73.0159 69.1375H70.1659V67.75H69.2534V69.1375H66.4159V69.8875H73.0159V69.1375ZM67.9034 72.6125C67.9034 71.8 68.6284 71.25 69.7034 71.25C70.7659 71.25 71.5034 71.8 71.5034 72.6125C71.5034 73.4125 70.7659 73.95 69.7034 73.95C68.6284 73.95 67.9034 73.4125 67.9034 72.6125ZM72.3659 72.6125C72.3659 71.35 71.2909 70.525 69.7034 70.525C68.1159 70.525 67.0409 71.35 67.0409 72.6125C67.0409 73.85 68.1159 74.675 69.7034 74.675C71.2909 74.675 72.3659 73.85 72.3659 72.6125ZM69.0159 75.45H68.1034V78.6625H75.5284V77.9H69.0159V75.45ZM75.0159 71.475V67.75H74.1034V76.125H75.0159V72.2375H76.6909V71.475H75.0159ZM81.6981 71.2375C81.6981 70.1 82.5481 69.25 83.6981 69.25C84.8356 69.25 85.6856 70.1 85.6856 71.2375C85.6856 72.375 84.8356 73.225 83.6981 73.225C82.5481 73.225 81.6981 72.375 81.6981 71.2375ZM88.9106 70.275V72.1875H86.4106C86.4981 71.9 86.5481 71.575 86.5481 71.2375C86.5481 70.9 86.4856 70.575 86.3981 70.275H88.9106ZM88.9106 72.95V76.0125H89.8231V67.75H88.9106V69.5125H85.9856C85.4856 68.85 84.6606 68.45 83.6981 68.45C82.0481 68.45 80.8356 69.6125 80.8356 71.2375C80.8356 72.875 82.0481 74.025 83.6981 74.025C84.6606 74.025 85.4981 73.625 85.9981 72.95H88.9106ZM83.6356 77.9V75.15H82.7231V78.6625H90.1481V77.9H83.6356ZM102.26 73.275H100.572C100.897 71.6625 100.897 70.5 100.897 69.4375V68.4625H93.4472V69.225H99.9972V69.4375C99.9972 70.5 99.9972 71.675 99.6597 73.275H92.1597V74.0375H96.7347V78.925H97.6472V74.0375H102.26V73.275ZM115.567 67.725H114.654V74.1625H115.567V67.725ZM111.304 72.2625H107.917V69.2H111.304V72.2625ZM112.192 68.4625H107.017V73H112.192V68.4625ZM112.542 75.675H115.854V74.95H112.542V73.825H111.617V74.95H108.304V75.675H111.604V75.7C111.604 76.8625 109.704 77.95 107.854 78.175L108.167 78.875C109.817 78.6375 111.417 77.85 112.079 76.775C112.729 77.8375 114.279 78.6375 115.917 78.875L116.242 78.175C114.392 77.9375 112.542 76.825 112.542 75.7V75.675ZM127.362 68.9375H124.512V67.675H123.599V68.9375L120.762 68.9375V69.6875L127.362 69.6875V68.9375ZM122.249 72.325C122.249 71.5375 122.974 71.0375 124.049 71.0375C125.124 71.0375 125.849 71.5375 125.849 72.325C125.849 73.1 125.124 73.6125 124.049 73.6125C122.974 73.6125 122.249 73.1 122.249 72.325ZM126.712 72.325C126.712 71.1125 125.649 70.3125 124.049 70.3125C122.449 70.3125 121.387 71.1125 121.387 72.325C121.387 73.5375 122.449 74.3375 124.049 74.3375C125.649 74.3375 126.712 73.5375 126.712 72.325ZM122.137 76.1H128.449V78.9125H129.362V75.35H122.137V76.1ZM131.037 70.85H129.362V67.725H128.449V74.7125H129.362V71.625H131.037V70.85ZM141.761 70.9625C139.823 70.7375 137.736 69.6625 137.736 68.2375V67.775H136.798V68.2375C136.798 69.6625 134.711 70.7375 132.773 70.9625L133.086 71.6625C134.823 71.425 136.573 70.6375 137.273 69.4C137.961 70.6375 139.723 71.425 141.448 71.6625L141.761 70.9625ZM142.323 73.2V72.45H132.223V73.2H136.811V74.3625H133.448V75.0875H140.111V76.175H133.486V78.775H141.348V78.0375H134.373V76.85H141.011V74.3625H137.711V73.2H142.323ZM150.385 68.6125H147.622V67.625H146.722V68.6125H143.947V69.275H150.385V68.6125ZM145.435 71.125C145.435 70.6 146.11 70.275 147.172 70.275C148.21 70.275 148.885 70.6 148.885 71.125C148.885 71.65 148.21 72 147.172 72C146.11 72 145.435 71.65 145.435 71.125ZM150.722 73.0125C149.735 73.1625 148.685 73.2375 147.622 73.2875V72.5875C148.935 72.4875 149.747 71.9625 149.747 71.125C149.747 70.2 148.735 69.65 147.172 69.65C145.597 69.65 144.572 70.2 144.572 71.125C144.572 71.9625 145.397 72.4875 146.722 72.5875V73.325C145.622 73.3625 144.572 73.3625 143.672 73.3625L143.785 74.05C145.735 74.05 148.41 74.0375 150.785 73.6125L150.722 73.0125ZM146.072 77.0625H152.335V74.85H145.147V75.5125H151.435V76.4375H145.185V78.775H152.772V78.1H146.072V77.0625ZM152.335 70.625V67.7375H151.422V74.3375H152.335V71.3875H154.01V70.625H152.335ZM160.259 78.175C158.459 78.175 157.359 77.7125 157.359 76.8875C157.359 76.075 158.459 75.6125 160.259 75.6125C162.071 75.6125 163.159 76.075 163.159 76.8875C163.159 77.7125 162.071 78.175 160.259 78.175ZM160.259 74.875C157.871 74.875 156.446 75.6125 156.446 76.8875C156.446 78.175 157.871 78.9 160.259 78.9C162.646 78.9 164.084 78.175 164.084 76.8875C164.084 75.6125 162.646 74.875 160.259 74.875ZM160.721 73.275V71.9375H164.134V71.1875H157.396V69H164.059V68.2375H156.496V71.9375H159.809V73.275H155.209V74.0375H165.321V73.275H160.721ZM179.078 72.0375C177.166 71.7375 175.041 70.3875 175.041 68.775V68.125H174.078V68.775C174.078 70.4125 171.978 71.7375 170.041 72.0375L170.403 72.775C172.116 72.4625 173.866 71.5125 174.553 70.1125C175.278 71.5 177.028 72.475 178.716 72.775L179.078 72.0375ZM179.603 74.0625H169.503V74.825H174.078V78.9125H174.991V74.825H179.603V74.0625ZM187.977 71.575H189.527V74.8125H190.402V67.7375H189.527V70.8125H187.977V67.95H187.115V74.425H187.977V71.575ZM186.652 69.1H184.252V67.825H183.352V69.1H180.927V69.8375H186.64L186.652 69.1ZM182.24 72.3625C182.24 71.625 182.865 71.1375 183.802 71.1375C184.727 71.1375 185.352 71.625 185.352 72.3625C185.352 73.0875 184.727 73.575 183.802 73.575C182.865 73.575 182.24 73.0875 182.24 72.3625ZM186.165 72.3625C186.165 71.2 185.215 70.45 183.802 70.45C182.39 70.45 181.427 71.2 181.427 72.3625C181.427 73.5125 182.39 74.2625 183.802 74.2625C185.215 74.2625 186.165 73.5125 186.165 72.3625ZM186.74 78.175C184.99 78.175 183.94 77.725 183.94 76.9625C183.94 76.1875 184.99 75.7375 186.752 75.7375C188.49 75.7375 189.552 76.1875 189.552 76.9625C189.552 77.725 188.477 78.175 186.74 78.175ZM186.752 75.0125C184.415 75.0125 183.027 75.725 183.027 76.9625C183.027 78.1875 184.415 78.8875 186.752 78.8875C189.065 78.8875 190.452 78.1875 190.452 76.9625C190.452 75.725 189.065 75.0125 186.752 75.0125ZM197.539 68.4625C195.214 68.4625 193.489 69.675 193.489 71.525C193.489 73.375 195.214 74.5875 197.539 74.5875C199.864 74.5875 201.576 73.375 201.576 71.525C201.576 69.675 199.864 68.4625 197.539 68.4625ZM197.539 69.225C199.351 69.225 200.714 70.1625 200.714 71.525C200.714 72.8875 199.351 73.825 197.539 73.825C195.726 73.825 194.364 72.8875 194.364 71.525C194.364 70.1625 195.726 69.225 197.539 69.225ZM192.476 76.6375V77.4H202.639V76.6375H192.476ZM209.5 76.7375V74.5625H213.1V73.8125H206.175V71.9H212.838V68.575H205.25V69.3375H211.95V71.1625H205.275V74.5625H208.588V76.7375H203.988V77.5H214.125V76.7375H209.5ZM223.32 78.1875C221.483 78.1875 220.42 77.8 220.42 77.1125C220.42 76.4125 221.483 76.025 223.32 76.025C225.158 76.025 226.22 76.4125 226.22 77.1125C226.22 77.8 225.158 78.1875 223.32 78.1875ZM223.32 75.3125C220.883 75.3125 219.508 75.9375 219.508 77.1125C219.508 78.2625 220.883 78.8875 223.32 78.8875C225.758 78.8875 227.145 78.2625 227.145 77.1125C227.145 75.9375 225.758 75.3125 223.32 75.3125ZM223.77 73.6875V72.5125H227.17V71.775H220.52V70.6H226.808V69.8875H220.52V68.7875H227.12V68.05H219.608V72.5125H222.87V73.6875H218.258V74.4375H228.37V73.6875H223.77ZM236.419 68.9125H233.569V67.625H232.657V68.9125L229.819 68.9125V69.6625L236.419 69.6625V68.9125ZM231.307 72.1625C231.307 71.4125 232.032 70.9125 233.107 70.9125C234.182 70.9125 234.907 71.4125 234.907 72.1625C234.907 72.9375 234.182 73.425 233.107 73.425C232.032 73.425 231.307 72.9375 231.307 72.1625ZM235.769 72.1625C235.769 70.975 234.707 70.2125 233.107 70.2125C231.507 70.2125 230.444 70.975 230.444 72.1625C230.444 73.3625 231.507 74.1375 233.107 74.1375C234.707 74.1375 235.769 73.3625 235.769 72.1625ZM237.519 78H232.344V76.6875H237.519V78ZM237.519 75.9625H232.344V74.7125L231.432 74.7125V78.75H238.419V74.7125H237.519V75.9625ZM240.094 70.6125H238.419V67.7375H237.507V74.2125H238.419V71.375H240.094V70.6125ZM249.231 70.1375C249.231 71.55 249.231 73 248.831 74.9625L249.743 75.0625C250.131 73.025 250.131 71.5875 250.131 70.1375V68.8875H242.331V69.65H249.231V70.1375ZM247.481 76.5375V72.8125H246.581V76.5375H244.718V72.8125H243.818V76.5375L241.268 76.5375V77.3L251.368 77.3V76.5375H247.481ZM257.817 78.1875C255.98 78.1875 254.917 77.8 254.917 77.1125C254.917 76.4125 255.98 76.025 257.817 76.025C259.655 76.025 260.717 76.4125 260.717 77.1125C260.717 77.8 259.655 78.1875 257.817 78.1875ZM257.817 75.3125C255.38 75.3125 254.005 75.9375 254.005 77.1125C254.005 78.2625 255.38 78.8875 257.817 78.8875C260.255 78.8875 261.642 78.2625 261.642 77.1125C261.642 75.9375 260.255 75.3125 257.817 75.3125ZM258.267 73.6875V72.5125H261.667V71.775H255.017V70.6H261.305V69.8875H255.017V68.7875H261.617V68.05H254.105V72.5125H257.367V73.6875H252.755V74.4375H262.867V73.6875H258.267ZM268.129 68.7125H267.216V70.7875C267.216 72.85 265.866 75 264.291 75.8125L264.866 76.5375C266.116 75.85 267.191 74.4 267.679 72.7125C268.179 74.3125 269.241 75.6875 270.504 76.3375L271.041 75.6C269.466 74.8375 268.129 72.8 268.129 70.7875V68.7125ZM272.529 67.725V71.575H269.841V72.3375H272.529V78.925H273.441V67.725H272.529ZM283.978 67.7125V78.925H284.89V67.7125H283.978ZM276.428 68.675V76.2125H281.64V68.675H280.74V71.675H277.328V68.675H276.428ZM277.328 72.4125H280.74V75.45H277.328V72.4125ZM296.864 73.4C295.027 73.0375 292.777 71.3375 292.777 69.3875V68.525H291.814V69.3875C291.814 71.3375 289.564 73.0375 287.727 73.4L288.139 74.1625C289.789 73.7625 291.589 72.55 292.289 70.8875C293.014 72.55 294.827 73.7625 296.464 74.1625L296.864 73.4ZM287.264 76.6125V77.375H297.414V76.6125H287.264ZM306.688 69.7125H300.076V72.05H307.788V71.375H300.976V70.35H307.588V68.075H300.051V68.7375H306.688V69.7125ZM300.913 76.9625H307.626V74.6375H299.988V75.3H306.726V76.3125H300.013V78.75H307.988V78.075H300.913V76.9625ZM298.763 72.95V73.6625H308.901V72.95H298.763ZM10.0209 89.825H12.0834V89.0625H6.9459V89.825H9.1334V90.925C9.1334 93 8.1959 95.05 6.6584 95.975L7.2334 96.65C8.3709 95.9375 9.1959 94.6 9.5834 93.025C9.9709 94.4875 10.7709 95.7125 11.8709 96.375L12.4334 95.7125C10.9084 94.825 10.0209 92.8875 10.0209 90.925V89.825ZM13.1459 91.775H11.2209V92.5375H13.1459L13.1459 98.325H14.0084L14.0084 88H13.1459V91.775ZM15.3709 87.725L15.3709 98.9125H16.2459V87.725H15.3709ZM26.1949 89.25C26.1949 90.125 26.1949 90.9625 25.8949 92.1L26.7824 92.2125C27.0949 91.0625 27.0949 90.15 27.0949 89.25V88.3H19.5074V89.05H26.1949V89.25ZM23.2949 98.1625C21.4949 98.1625 20.3324 97.6625 20.3324 96.85C20.3324 96.025 21.4949 95.525 23.2949 95.525C25.0949 95.525 26.2699 96.025 26.2699 96.85C26.2699 97.6625 25.0949 98.1625 23.2949 98.1625ZM23.2949 94.8C20.9324 94.8 19.4199 95.575 19.4199 96.85C19.4199 98.1125 20.9324 98.8875 23.2949 98.8875C25.6699 98.8875 27.1824 98.1125 27.1824 96.85C27.1824 95.575 25.6699 94.8 23.2949 94.8ZM23.4199 92.975V90.775H22.5199V92.975H18.3074V93.725H28.3699V92.975H23.4199ZM33.0689 95.6125C32.0189 95.6125 31.2439 94.8625 31.2439 93.825C31.2439 92.7875 32.0189 92.0375 33.0689 92.0375C34.1439 92.0375 34.9189 92.7875 34.9189 93.825C34.9189 94.8625 34.1439 95.6125 33.0689 95.6125ZM33.0689 91.275C31.5189 91.275 30.3814 92.325 30.3814 93.825C30.3814 95.3375 31.5189 96.375 33.0689 96.375C34.6564 96.375 35.7814 95.3375 35.7814 93.825C35.7814 92.325 34.6564 91.275 33.0689 91.275ZM33.5189 87.85H32.6064V89.5375H29.7189V90.2875H36.3314V89.5375H33.5189V87.85ZM40.2189 92.375H38.3439V87.725H37.4314V98.9125H38.3439V93.1375H40.2189V92.375ZM49.2305 90.0125C49.2305 91.3375 49.2305 92.9 48.818 95.0125L49.7305 95.1375C50.143 92.9125 50.143 91.375 50.143 90.0125V88.8875H42.3805V89.65H49.2305V90.0125ZM46.193 96.5375V92.5125H45.2805V96.5375H41.293V97.3H51.393V96.5375H46.193ZM53.0295 100.313C54.0795 99.85 54.7545 98.95 54.7545 97.8C54.7545 97.0125 54.4045 96.5375 53.842 96.5375C53.4295 96.5375 53.0545 96.8125 53.0545 97.275C53.0545 97.7625 53.417 98.025 53.8295 98.025C53.8795 98.025 53.9295 98.025 53.9795 98.0125C53.9795 98.75 53.517 99.3625 52.767 99.7125L53.0295 100.313ZM61.1818 94.9625H60.2693V98.65L68.0818 98.65V97.8875L61.1818 97.8875V94.9625ZM67.4443 92.9C67.7443 91.35 67.7443 90.2125 67.7443 89.2625V88.3875L60.2318 88.3875V89.15L66.8568 89.15V89.2625C66.8568 90.2 66.8568 91.3375 66.5318 92.9L58.9193 92.9V93.6625L69.0818 93.6625V92.9H67.4443ZM72.6559 95.575H71.7434V98.6625H79.4184V97.9H72.6559V95.575ZM72.6809 90.375H78.3059V91.8875H72.6809V90.375ZM75.9434 93.8625V92.6375H79.2059L79.2059 88.175H78.3059L78.3059 89.6375H72.6809L72.6809 88.175H71.7809L71.7809 92.6375H75.0434V93.8625H70.4309V94.625H80.5434V93.8625H75.9434ZM88.4924 93.25C86.9049 92.6875 85.7424 91.275 85.7424 89.8125V89.2875H88.2549V88.525H82.2799V89.2875H84.8299V89.8125C84.8299 91.4375 83.6174 92.925 81.9799 93.5125L82.4674 94.2375C83.7799 93.75 84.8299 92.7 85.3049 91.4C85.7924 92.5625 86.7799 93.5125 88.0299 93.9625L88.4924 93.25ZM83.6674 95.8H90.1924V98.9125H91.1049V95.0375H83.6674V95.8ZM90.1924 87.7375L90.1924 90.6875H87.9049V91.45H90.1924V94.425H91.1049L91.1049 87.7375H90.1924ZM102.579 87.75H101.666L101.666 95.9375H102.579L102.579 87.75ZM94.5914 91.2625C94.5914 90.125 95.4539 89.3125 96.5914 89.3125C97.7414 89.3125 98.6039 90.125 98.6039 91.2625C98.6039 92.4 97.7414 93.2125 96.5914 93.2125C95.4539 93.2125 94.5914 92.4 94.5914 91.2625ZM99.4914 91.2625C99.4914 89.65 98.2539 88.525 96.5914 88.525C94.9414 88.525 93.7039 89.65 93.7039 91.2625C93.7039 92.875 94.9414 94 96.5914 94C98.2539 94 99.4914 92.875 99.4914 91.2625ZM96.3414 97.9V95.0875H95.4414V98.6625H102.929V97.9H96.3414ZM113.224 96.7125V93.75H116.674V92.9875L109.924 92.9875V89.4L116.549 89.4V88.6375L109.011 88.6375V93.75L112.311 93.75V96.7125L107.699 96.7125V97.475L117.861 97.475V96.7125H113.224ZM123.11 88.725H122.21V90.8C122.21 92.9125 120.785 95.05 119.173 95.8125L119.735 96.5625C121.023 95.8875 122.16 94.4625 122.66 92.75C123.198 94.375 124.323 95.7375 125.585 96.3625L126.123 95.6375C124.523 94.8875 123.11 92.8375 123.11 90.8V88.725ZM127.423 87.725L127.423 98.925H128.335V87.725H127.423ZM134.505 94.525C134.222 94.525 133.976 94.4208 133.767 94.2125C133.559 94.0042 133.455 93.7583 133.455 93.475C133.455 93.1833 133.559 92.9375 133.767 92.7375C133.976 92.5292 134.222 92.425 134.505 92.425C134.797 92.425 135.042 92.5292 135.242 92.7375C135.451 92.9375 135.555 93.1833 135.555 93.475C135.555 93.7583 135.451 94.0042 135.242 94.2125C135.042 94.4208 134.797 94.525 134.505 94.525ZM147.607 90.1375C147.607 91.55 147.607 93 147.207 94.9625L148.12 95.0625C148.507 93.025 148.507 91.5875 148.507 90.1375V88.8875H140.707V89.65H147.607V90.1375ZM145.857 96.5375V92.8125H144.957V96.5375H143.095V92.8125H142.195V96.5375H139.645V97.3H149.745V96.5375H145.857ZM156.194 98.1875C154.356 98.1875 153.294 97.8 153.294 97.1125C153.294 96.4125 154.356 96.025 156.194 96.025C158.031 96.025 159.094 96.4125 159.094 97.1125C159.094 97.8 158.031 98.1875 156.194 98.1875ZM156.194 95.3125C153.756 95.3125 152.381 95.9375 152.381 97.1125C152.381 98.2625 153.756 98.8875 156.194 98.8875C158.631 98.8875 160.019 98.2625 160.019 97.1125C160.019 95.9375 158.631 95.3125 156.194 95.3125ZM156.644 93.6875V92.5125H160.044V91.775H153.394V90.6H159.681V89.8875H153.394V88.7875H159.994V88.05H152.481V92.5125H155.744V93.6875H151.131V94.4375H161.244V93.6875H156.644ZM170.555 91.4H164.843V89.0125H170.555V91.4ZM171.443 88.2625H163.943V92.15H171.443V88.2625ZM164.843 95.4625H163.93V98.6625H171.643V97.9H164.843V95.4625ZM162.618 93.475V94.225H167.305V96.5625H168.218V94.225H172.78V93.475H162.618ZM177.379 89.825H179.442V89.0625H174.304V89.825H176.492V90.925C176.492 93 175.554 95.05 174.017 95.975L174.592 96.65C175.729 95.9375 176.554 94.6 176.942 93.025C177.329 94.4875 178.129 95.7125 179.229 96.375L179.792 95.7125C178.267 94.825 177.379 92.8875 177.379 90.925V89.825ZM180.504 91.775H178.579V92.5375H180.504V98.325H181.367V88H180.504V91.775ZM182.729 87.725V98.9125H183.604V87.725H182.729ZM191.199 95.5125C190.299 95.5125 189.637 94.7875 189.637 93.7625C189.637 92.75 190.299 92 191.199 92C192.124 92 192.787 92.75 192.787 93.7625C192.787 94.7875 192.124 95.5125 191.199 95.5125ZM191.199 91.225C189.812 91.225 188.824 92.2625 188.824 93.7625C188.824 95.2625 189.812 96.2875 191.199 96.2875C192.599 96.2875 193.599 95.2625 193.599 93.7625C193.599 92.2625 192.599 91.225 191.199 91.225ZM191.649 88.0625H190.749V89.6875H188.412V90.45H193.999V89.6875H191.649V88.0625ZM196.987 87.725V92.475H195.449V88H194.587V98.35H195.449V93.2375H196.987V98.9H197.862V87.725H196.987ZM209.548 93.25C207.711 92.9125 205.436 91.2875 205.436 89.3625V88.5H204.473V89.3625C204.473 91.2875 202.211 92.9125 200.361 93.25L200.748 94.0125C202.411 93.65 204.236 92.475 204.948 90.8375C205.673 92.475 207.511 93.65 209.161 94.0125L209.548 93.25ZM205.411 96.675V93.9125H204.498V96.675H199.923V97.4375H210.073V96.675H205.411ZM213.935 95.575C213.01 95.575 212.41 94.3875 212.41 92.5375C212.41 90.725 213.01 89.5375 213.935 89.5375C214.872 89.5375 215.472 90.725 215.472 92.5375C215.472 94.3875 214.872 95.575 213.935 95.575ZM217.835 92.1125H216.297C216.185 90 215.297 88.7 213.935 88.7C212.51 88.7 211.572 90.1875 211.572 92.5375C211.572 94.925 212.51 96.4125 213.935 96.4125C215.31 96.4125 216.21 95.0625 216.297 92.875H217.835V98.35H218.697V87.9875H217.835V92.1125ZM220.022 87.7375V98.9125H220.897V87.7375H220.022ZM226.367 88.9375V89.6875H230.642C230.454 92.375 228.892 94.6 225.867 96.05L226.354 96.7875C230.042 94.9875 231.567 92.1375 231.567 88.9375H226.367ZM233.942 87.725V98.9125H234.854V87.725H233.942ZM242.803 93.8C242.891 93.3875 242.941 92.9625 242.941 92.4875C242.941 91.95 242.878 91.4625 242.778 91.025L245.466 91.025V93.8L242.803 93.8ZM240.178 95.5625C239.053 95.5625 238.266 94.3375 238.266 92.4875C238.266 90.65 239.053 89.425 240.178 89.425C241.291 89.425 242.078 90.65 242.078 92.4875C242.078 94.3375 241.291 95.5625 240.178 95.5625ZM245.466 87.725V90.2625L242.516 90.2625C242.041 89.225 241.216 88.6125 240.178 88.6125C238.553 88.6125 237.416 90.125 237.416 92.4875C237.416 94.85 238.553 96.375 240.178 96.375C241.266 96.375 242.116 95.7 242.578 94.5625L245.466 94.5625V98.925H246.378V87.725H245.466ZM251.99 95.6125C250.94 95.6125 250.165 94.8625 250.165 93.825C250.165 92.7875 250.94 92.0375 251.99 92.0375C253.065 92.0375 253.84 92.7875 253.84 93.825C253.84 94.8625 253.065 95.6125 251.99 95.6125ZM251.99 91.275C250.44 91.275 249.302 92.325 249.302 93.825C249.302 95.3375 250.44 96.375 251.99 96.375C253.577 96.375 254.702 95.3375 254.702 93.825C254.702 92.325 253.577 91.275 251.99 91.275ZM252.44 87.85H251.527V89.5375H248.64V90.2875H255.252V89.5375H252.44V87.85ZM259.14 92.375H257.265V87.725H256.352V98.9125H257.265V93.1375H259.14V92.375ZM269.614 87.7375H268.739V94.2125H269.614V87.7375ZM266.526 91.7125V94.0375H267.389V87.975H266.526V90.9625H264.626C264.951 90.25 265.126 89.45 265.126 88.575H260.789V89.325H264.176C263.976 91.2625 262.639 92.7875 260.326 93.7375L260.801 94.4125C262.351 93.75 263.501 92.8375 264.226 91.7125H266.526ZM268.176 94.6H267.289V95.3875C267.289 96.25 266.726 97.4125 265.651 98.0875C264.576 97.475 264.039 96.4 264.039 95.3875V94.6H263.164V95.3875C263.164 96.4625 262.276 97.6875 260.889 98.2L261.339 98.8875C262.401 98.4875 263.189 97.675 263.589 96.7625C263.901 97.7125 264.589 98.55 265.664 98.975C266.701 98.5375 267.389 97.65 267.726 96.7375C268.101 97.6875 268.889 98.4875 270.001 98.8875L270.451 98.2C269.051 97.725 268.176 96.5375 268.176 95.3875V94.6ZM281.225 91.275C279.338 91.0375 277.225 89.8125 277.225 88.375V87.85H276.288V88.375C276.288 89.8375 274.2 91.025 272.288 91.275L272.625 92.0125C274.325 91.75 276.075 90.875 276.763 89.5875C277.463 90.8625 279.2 91.75 280.875 92.0125L281.225 91.275ZM279.575 98H273.9V96.525H279.575V98ZM279.575 95.8H273.9V94.4375H272.988V98.75H280.475V94.4375H279.575V95.8ZM271.7 92.85V93.6125H281.813V92.85H271.7ZM284.837 88.825H283.924V96H284.837C286.612 96 288.374 95.875 290.312 95.4625L290.212 94.6875C288.312 95.075 286.562 95.2125 284.837 95.2125V88.825ZM291.412 87.7375V98.9H292.324V87.7375H291.412ZM296.098 89.575H300.373V88.8125H295.186V96.125H296.048C298.186 96.125 299.636 96.05 301.361 95.7375L301.261 94.95C299.598 95.2625 298.173 95.3375 296.098 95.3375V89.575ZM305.136 92.1875H303.261V87.725H302.348V98.925H303.261V92.95H305.136V92.1875ZM307.197 98.1625C307.622 98.1625 307.972 97.8375 307.972 97.3625C307.972 96.8625 307.622 96.5375 307.197 96.5375C306.785 96.5375 306.435 96.8625 306.435 97.3625C306.435 97.8375 306.785 98.1625 307.197 98.1625Z" fill="#333333"/>
<path d="M137.517 4.4L132.027 17H129.723L124.215 4.4H126.753L130.947 14.12L135.177 4.4H137.517ZM138.846 4.4H141.186V17H138.846V4.4ZM148.5 17.18C147.528 17.18 146.586 17.042 145.674 16.766C144.774 16.49 144.06 16.124 143.532 15.668L144.342 13.85C144.858 14.258 145.488 14.594 146.232 14.858C146.988 15.11 147.744 15.236 148.5 15.236C149.436 15.236 150.132 15.086 150.588 14.786C151.056 14.486 151.29 14.09 151.29 13.598C151.29 13.238 151.158 12.944 150.894 12.716C150.642 12.476 150.318 12.29 149.922 12.158C149.526 12.026 148.986 11.876 148.302 11.708C147.342 11.48 146.562 11.252 145.962 11.024C145.374 10.796 144.864 10.442 144.432 9.962C144.012 9.47 143.802 8.81 143.802 7.982C143.802 7.286 143.988 6.656 144.36 6.092C144.744 5.516 145.314 5.06 146.07 4.724C146.838 4.388 147.774 4.22 148.878 4.22C149.646 4.22 150.402 4.316 151.146 4.508C151.89 4.7 152.532 4.976 153.072 5.336L152.334 7.154C151.782 6.83 151.206 6.584 150.606 6.416C150.006 6.248 149.424 6.164 148.86 6.164C147.936 6.164 147.246 6.32 146.79 6.632C146.346 6.944 146.124 7.358 146.124 7.874C146.124 8.234 146.25 8.528 146.502 8.756C146.766 8.984 147.096 9.164 147.492 9.296C147.888 9.428 148.428 9.578 149.112 9.746C150.048 9.962 150.816 10.19 151.416 10.43C152.016 10.658 152.526 11.012 152.946 11.492C153.378 11.972 153.594 12.62 153.594 13.436C153.594 14.132 153.402 14.762 153.018 15.326C152.646 15.89 152.076 16.34 151.308 16.676C150.54 17.012 149.604 17.18 148.5 17.18ZM155.915 4.4H158.255V17L155.915 17V4.4ZM167.549 17.18C166.265 17.18 165.107 16.904 164.075 16.352C163.043 15.788 162.233 15.014 161.645 14.03C161.057 13.034 160.763 11.924 160.763 10.7C160.763 9.476 161.057 8.372 161.645 7.388C162.233 6.392 163.043 5.618 164.075 5.066C165.107 4.502 166.265 4.22 167.549 4.22C168.833 4.22 169.991 4.502 171.023 5.066C172.055 5.618 172.865 6.386 173.453 7.37C174.041 8.354 174.335 9.464 174.335 10.7C174.335 11.936 174.041 13.046 173.453 14.03C172.865 15.014 172.055 15.788 171.023 16.352C169.991 16.904 168.833 17.18 167.549 17.18ZM167.549 15.128C168.389 15.128 169.145 14.942 169.817 14.57C170.489 14.186 171.017 13.658 171.401 12.986C171.785 12.302 171.977 11.54 171.977 10.7C171.977 9.86 171.785 9.104 171.401 8.432C171.017 7.748 170.489 7.22 169.817 6.848C169.145 6.464 168.389 6.272 167.549 6.272C166.709 6.272 165.953 6.464 165.281 6.848C164.609 7.22 164.081 7.748 163.697 8.432C163.313 9.104 163.121 9.86 163.121 10.7C163.121 11.54 163.313 12.302 163.697 12.986C164.081 13.658 164.609 14.186 165.281 14.57C165.953 14.942 166.709 15.128 167.549 15.128ZM188.011 4.4V17H186.085L179.137 8.468V17H176.815V4.4H178.741L185.689 12.932V4.4L188.011 4.4Z" fill="#0032A0"/>
</svg>
