<svg width="309" height="233" viewBox="0 0 309 233" fill="none" xmlns="http://www.w3.org/2000/svg">
<rect x="0.5" y="0.5" width="308" height="232" rx="9.5" fill="#FAFAFA" stroke="#E0E0E0"/>
<path d="M28.002 65.1915H30.44V64.674H24.966V65.1915H27.3925V66.8705C27.3925 68.63 25.9435 70.562 24.6095 71.229L24.989 71.712C26.1045 71.1025 27.2545 69.711 27.7145 68.1585C28.1515 69.6075 29.2785 70.9185 30.394 71.505L30.762 71.022C29.428 70.355 28.002 68.515 28.002 66.8705V65.1915ZM32.349 63.593V67.388H29.8995V67.917H32.349V73.8165H32.9585V63.593H32.349ZM41.0651 68.768C39.6506 68.262 38.5006 67.0085 38.5006 65.5595V64.8925H40.9156V64.375H35.4761V64.8925H37.9026V65.571C37.9026 67.135 36.6836 68.4575 35.2576 68.9865L35.5796 69.4695C36.7756 69.0095 37.7876 68.0435 38.2131 66.79C38.6386 67.9285 39.5931 68.8255 40.7431 69.2625L41.0651 68.768ZM36.5686 70.8495H42.4911V73.7935H43.1006V70.332H36.5686V70.8495ZM44.6991 66.399H43.1006V63.593H42.4911V69.734H43.1006V66.928H44.6991V66.399ZM53.2312 66.491H47.6307V64.444H53.2312V66.491ZM53.8292 63.9495L47.0442 63.9495V66.997H53.8292V63.9495ZM55.0367 68.561V68.055H45.8022V68.561H50.1147V69.7685H46.9637V70.263H53.2197V71.4015H46.9867V73.6555H54.1512V73.1495H47.5847V71.873H53.8177V69.7685H50.7242V68.561H55.0367ZM61.7826 65.3985H63.8181V64.881H59.0801V65.3985H61.1961V66.583C61.1961 68.5265 60.2186 70.401 58.8501 71.2175L59.2526 71.6775C60.3106 71.022 61.1386 69.711 61.4951 68.2045C61.8516 69.6075 62.6451 70.8035 63.6801 71.436L64.0711 70.976C62.7256 70.2055 61.7826 68.3885 61.7826 66.583V65.3985ZM64.9106 67.3535H63.0131V67.8825H64.9106V73.2415H65.4971V63.869H64.9106V67.3535ZM66.9576 63.593V73.805H67.5556V63.593H66.9576ZM78.2152 65.226H74.4432V63.7885H73.8337V65.226L70.0157 65.226V65.7435L78.2152 65.7435V65.226ZM71.4762 68.4805C71.4762 67.618 72.5227 67.0775 74.1327 67.0775C75.7427 67.0775 76.7892 67.618 76.7892 68.4805C76.7892 69.3545 75.7427 69.9065 74.1327 69.9065C72.5227 69.9065 71.4762 69.3545 71.4762 68.4805ZM74.4432 71.988V70.3895C76.2717 70.3205 77.3987 69.6305 77.3987 68.4805C77.3987 67.273 76.1452 66.5715 74.1327 66.5715C72.1202 66.5715 70.8667 67.273 70.8667 68.4805C70.8667 69.6305 71.9937 70.3205 73.8337 70.401V71.988L69.5212 71.988V72.5055L78.7787 72.5055V71.988H74.4432Z" fill="#121212"/>
<path d="M107.901 65.709C107.901 66.9855 107.901 68.3425 107.544 70.1825L108.476 70.2975C108.844 68.3655 108.844 67.02 108.844 65.709V64.5705H101.576V65.341H107.901V65.709ZM106.383 71.6315V68.216H105.451V71.6315H103.83V68.216H102.898V71.6315H100.61V72.402H109.936V71.6315H106.383ZM115.846 73.1265C114.19 73.1265 113.259 72.8045 113.259 72.1835C113.259 71.574 114.19 71.2405 115.846 71.2405C117.514 71.2405 118.434 71.574 118.434 72.1835C118.434 72.8045 117.514 73.1265 115.846 73.1265ZM115.846 70.539C113.604 70.539 112.316 71.114 112.316 72.1835C112.316 73.2645 113.604 73.8395 115.846 73.8395C118.089 73.8395 119.377 73.2645 119.377 72.1835C119.377 71.114 118.089 70.539 115.846 70.539ZM116.318 68.998V67.986H119.423V67.25H113.351V66.238H119.089V65.525H113.351V64.5705H119.365V63.8345H112.408V67.986H115.375V68.998H111.177V69.757H120.515V68.998H116.318ZM122.883 66.5945C122.883 65.617 123.619 64.95 124.654 64.95C125.678 64.95 126.425 65.617 126.425 66.5945C126.425 67.5605 125.678 68.239 124.654 68.239C123.619 68.239 122.883 67.5605 122.883 66.5945ZM127.345 66.5945C127.345 65.1455 126.207 64.1565 124.654 64.1565C123.09 64.1565 121.963 65.1455 121.963 66.5945C121.963 68.032 123.09 69.0325 124.654 69.0325C126.207 69.0325 127.345 68.032 127.345 66.5945ZM123.067 70.9185H128.829V73.851H129.772V70.148H123.067V70.9185ZM131.267 65.893V65.111H129.772V63.547H128.829V69.665H129.772V68.0895H131.267V67.319H129.772V65.893H131.267ZM135.82 65.3755H138.108V64.5935H132.531V65.3755H134.888V66.6865C134.888 68.4345 133.646 70.3895 132.174 71.1255L132.726 71.873C133.888 71.275 134.888 69.964 135.36 68.4575C135.831 69.8375 136.797 71.045 137.947 71.62L138.488 70.861C136.993 70.1595 135.82 68.331 135.82 66.6865V65.3755ZM141.984 67.6985H140.282V63.547H139.339V73.851H140.282V68.492H141.984V67.6985ZM149.741 67.894L146.843 67.894V64.9845L149.741 64.9845V67.894ZM150.661 64.237L145.923 64.237V68.653L150.661 68.653V64.237ZM153.674 70.792V70.033L146.935 70.033V70.792L149.81 70.792C149.695 71.896 148.235 72.839 146.533 73.092L146.878 73.8165C148.407 73.575 149.73 72.839 150.316 71.7925C150.903 72.8275 152.225 73.575 153.72 73.828L154.077 73.1035C152.398 72.839 150.914 71.873 150.799 70.792H153.674ZM153.502 66.008V63.5355H152.559V69.4235H153.502V66.79H155.031V66.008H153.502ZM156.905 68.032C158.607 67.8595 160.113 67.2615 160.746 66.261C161.367 67.2615 162.873 67.8595 164.575 68.032L164.863 67.3075C162.919 67.135 161.332 66.376 161.252 65.249H164.449V64.5015H161.217V63.4665H160.274V64.5015H157.043V65.249H160.228C160.148 66.376 158.561 67.135 156.629 67.3075L156.905 68.032ZM163.345 72.954H158.147V71.275H163.345V72.954ZM165.403 69.4005V68.63H156.077V69.4005H160.274V70.5275H157.227V73.713H164.265V70.5275H161.217V69.4005H165.403ZM174.2 66.2035V67.5835H171.497V68.354H174.2V69.711H175.154V63.547H174.2V65.433H171.865C171.934 65.0765 171.98 64.697 171.98 64.3175H167.323V65.0765H170.957C170.784 66.859 169.255 68.2275 166.794 68.9635L167.173 69.711C169.393 69.067 170.957 67.8595 171.624 66.2035H174.2ZM171.785 73.069C170.267 73.069 169.301 72.5975 169.301 71.8155C169.301 71.045 170.267 70.5735 171.785 70.5735C173.303 70.5735 174.269 71.045 174.269 71.8155C174.269 72.5975 173.303 73.069 171.785 73.069ZM171.785 69.826C169.703 69.826 168.369 70.5735 168.369 71.8155C168.369 73.0575 169.703 73.805 171.785 73.805C173.866 73.805 175.2 73.0575 175.2 71.8155C175.2 70.5735 173.866 69.826 171.785 69.826ZM182.375 71.804V69.8605H185.676V69.1015H179.328V67.434H185.434V64.2945H178.373V65.065H184.514V66.675H178.396V69.8605H181.421V71.804H177.223V72.5745H186.596V71.804H182.375ZM191.501 66.8015C191.501 65.7895 192.26 65.0765 193.272 65.0765C194.284 65.0765 195.043 65.7895 195.043 66.8015C195.043 67.8135 194.284 68.5265 193.272 68.5265C192.26 68.5265 191.501 67.8135 191.501 66.8015ZM195.963 66.8015C195.963 65.3065 194.813 64.26 193.272 64.26C191.731 64.26 190.581 65.3065 190.581 66.8015C190.581 68.2965 191.731 69.343 193.272 69.343C194.813 69.343 195.963 68.2965 195.963 66.8015ZM192.916 70.355H191.973V73.621H198.85V72.8505H192.916V70.355ZM198.39 66.675V63.5355H197.447V71.1255H198.39V67.457H199.908V66.675H198.39ZM202.414 64.789H201.471V71.1715H202.126C203.242 71.1715 204.426 71.114 205.818 70.8495L205.726 70.033C204.495 70.2745 203.403 70.3435 202.414 70.355V64.789ZM208.808 63.5355V67.733H207.347V63.7655H206.462V73.322H207.347V68.515H208.808V73.8395H209.716V63.5355H208.808ZM217.773 64.4325H216.841V66.284C216.841 68.239 215.588 70.217 214.07 70.9415L214.645 71.712C215.852 71.091 216.841 69.803 217.313 68.2505C217.807 69.7225 218.796 70.9415 219.969 71.5165L220.533 70.7575C219.003 70.0675 217.773 68.17 217.773 66.284V64.4325ZM221.614 63.5355V73.874H222.557V63.5355H221.614ZM233.584 68.722C231.779 68.377 229.824 66.813 229.824 65.0535V64.26L228.835 64.26V65.0535C228.835 66.813 226.891 68.3655 225.086 68.722L225.511 69.504C227.064 69.136 228.674 68.032 229.329 66.5255C229.985 68.0435 231.595 69.1475 233.159 69.504L233.584 68.722ZM224.695 71.689V72.471L234.044 72.471V71.689L224.695 71.689ZM241.082 69.642H241.979V63.708H241.082V66.1345H239.713V66.8935H241.082V69.642ZM240.116 68.0895C239.046 68.308 238.115 68.3655 236.654 68.3655V66.974H239.242V66.238H236.654V64.9615H239.644V64.2025H235.746V69.1245H236.401C238.046 69.1245 239.023 69.0785 240.196 68.8485L240.116 68.0895ZM238.126 70.9875H243.06V72.954H238.126V70.9875ZM237.206 73.713H243.98V70.24H237.206V73.713ZM243.071 63.5355V69.7455H243.98V63.5355H243.071Z" fill="#121212"/>
<path d="M28.002 87.1915H30.44V86.674H24.966V87.1915H27.3925V88.8705C27.3925 90.63 25.9435 92.562 24.6095 93.229L24.989 93.712C26.1045 93.1025 27.2545 91.711 27.7145 90.1585C28.1515 91.6075 29.2785 92.9185 30.394 93.505L30.762 93.022C29.428 92.355 28.002 90.515 28.002 88.8705V87.1915ZM32.349 85.593V89.388H29.8995V89.917H32.349V95.8165H32.9585V85.593H32.349ZM41.0651 90.768C39.6506 90.262 38.5006 89.0085 38.5006 87.5595V86.8925H40.9156V86.375H35.4761V86.8925H37.9026V87.571C37.9026 89.135 36.6836 90.4575 35.2576 90.9865L35.5796 91.4695C36.7756 91.0095 37.7876 90.0435 38.2131 88.79C38.6386 89.9285 39.5931 90.8255 40.7431 91.2625L41.0651 90.768ZM36.5686 92.8495H42.4911V95.7935H43.1006V92.332H36.5686V92.8495ZM44.6991 88.399H43.1006V85.593H42.4911V91.734H43.1006V88.928H44.6991V88.399ZM53.2312 88.491H47.6307V86.444H53.2312V88.491ZM53.8292 85.9495H47.0442V88.997H53.8292V85.9495ZM55.0367 90.561V90.055H45.8022V90.561H50.1147V91.7685H46.9637V92.263H53.2197V93.4015H46.9867V95.6555H54.1512V95.1495H47.5847V93.873H53.8177V91.7685H50.7242V90.561H55.0367ZM59.7471 89.664C61.2536 89.457 63.0016 88.7095 63.5536 87.502C64.1171 88.7095 65.8766 89.457 67.3716 89.664L67.5901 89.1695C66.0031 88.974 63.9216 88.0655 63.9216 86.697V86.5935H67.3371V86.0875H59.7931V86.5935H63.2086V86.697C63.2086 88.0655 61.1156 88.974 59.5171 89.1695L59.7471 89.664ZM63.5651 95.276C61.7941 95.276 60.6901 94.816 60.6901 94.034C60.6901 93.275 61.7941 92.8035 63.5651 92.8035C65.3131 92.8035 66.4171 93.275 66.4171 94.034C66.4171 94.816 65.3131 95.276 63.5651 95.276ZM63.5651 92.309C61.3801 92.309 60.0806 92.9415 60.0806 94.034C60.0806 95.1495 61.3801 95.7705 63.5651 95.7705C65.7271 95.7705 67.0266 95.1495 67.0266 94.034C67.0266 92.9415 65.7271 92.309 63.5651 92.309ZM63.8526 90.791V89.1925H63.2431V90.791H58.9306V91.3085H68.1651V90.791H63.8526ZM77.0192 87.9505L70.6712 87.9505V90.492L77.8357 90.492V89.986L71.2807 89.986V88.4335H77.6172V86.03L70.6367 86.03V86.5475L77.0192 86.5475V87.9505ZM78.7787 91.734L69.4982 91.734V92.2515H72.0742V95.805H72.6837V92.2515L75.5817 92.2515V95.805H76.1912V92.2515H78.7787V91.734Z" fill="#121212"/>
<path d="M101.346 86.1335V86.8925H104.934C104.899 87.295 104.819 87.663 104.681 88.0195L100.828 88.192L100.989 88.9625L104.301 88.7095C103.68 89.6525 102.565 90.3885 100.897 90.8945L101.254 91.642C104.462 90.6645 105.923 88.7555 105.923 86.1335H101.346ZM103.37 92.792H108.177V94.954H103.37V92.792ZM102.438 95.713H109.108V92.0445H102.438V95.713ZM108.154 85.547V88.261H105.9V89.043H108.154V91.4925H109.108V85.547H108.154ZM117.134 89.6525H114.57V86.881H117.134V89.6525ZM113.627 89.6525H112.109V90.423H119.595V89.6525H118.077V86.881H119.63V86.1105H112.074V86.881H113.627V89.6525ZM120.527 91.6075H111.177V92.378H113.615V95.851H114.558V92.378H117.18V95.851H118.123V92.378H120.527V91.6075ZM123.182 90.1355H126.563V89.3765H123.182V87.249H127.012V86.467H122.239V93.3785H123.033C124.999 93.3785 126.253 93.321 127.748 93.0565L127.644 92.286C126.241 92.539 125.045 92.608 123.182 92.608V90.1355ZM129.323 85.524V89.4225H127.196V90.2045H129.323V95.8625H130.266V85.524H129.323ZM138.281 90.9175H135.716V87.3295H138.281V90.9175ZM134.773 90.9175H133.198V91.688H140.799V90.9175H139.224V87.3295H140.822V86.5705H133.175V87.3295H134.773V90.9175ZM132.347 93.7465V94.5285H141.696V93.7465H132.347ZM148.066 93.804V91.8605L151.367 91.8605V91.1015L145.019 91.1015V89.434L151.125 89.434V86.2945L144.064 86.2945V87.065L150.205 87.065V88.675L144.087 88.675V91.8605H147.112V93.804H142.914V94.5745L152.287 94.5745V93.804L148.066 93.804ZM160.658 87.663C160.658 88.9395 160.658 90.4805 160.244 92.585L161.187 92.6885C161.59 90.4575 161.59 88.974 161.59 87.663V86.628H154.517V87.3985H160.658V87.663ZM153.517 93.5625V94.3445H162.843V93.5625H153.517ZM169.018 90.1815C167.81 90.423 166.798 90.4805 165.464 90.4805V89.02H168.408V86.214H164.533V86.973H167.5V88.307H164.556V91.2395H165.234C166.718 91.2395 167.799 91.182 169.11 90.9405L169.018 90.1815ZM166.936 92.9415H171.87V94.954H166.936V92.9415ZM166.016 95.713H172.79V92.194H166.016V95.713ZM171.881 85.5355V88.1575H170.501V85.731H169.604V91.5615H170.501V88.928H171.881V91.6995H172.79V85.5355H171.881ZM178.228 87.364H180.574V86.5935H174.951V87.364H177.285V88.56C177.285 90.3885 176.055 92.3435 174.583 93.068L175.135 93.8155C176.308 93.1945 177.308 91.872 177.757 90.354C178.228 91.78 179.217 93.0105 180.367 93.597L180.931 92.861C179.436 92.148 178.228 90.2735 178.228 88.56V87.364ZM182.219 85.5355V89.2845H179.988V90.055H182.219V95.8625H183.162V85.5355H182.219ZM191.234 90.584C189.716 90.0665 188.727 88.79 188.727 87.4215V87.019H191.004V86.26H185.472V87.019H187.784V87.433C187.784 88.905 186.749 90.239 185.196 90.7795L185.691 91.527C186.898 91.0785 187.83 90.17 188.267 89.02C188.715 90.078 189.601 90.9175 190.751 91.32L191.234 90.584ZM186.53 93.068H192.303V95.8625H193.246V92.309H186.53V93.068ZM194.776 88.2495H193.246V85.547H192.303V91.757H193.246V89.0315H194.776V88.2495ZM203.009 88.2725H197.949V86.628H203.009V88.2725ZM203.94 85.8805H197.029V89.02H203.94V85.8805ZM205.148 90.6415V89.8825H195.81V90.6415H200.007V91.6535H196.937V92.3665H203.02V93.2865H196.971V95.736H204.262V95H197.891V93.9765H203.952V91.6535H200.95V90.6415H205.148ZM206.228 93.321L211.737 91.159V90.308L206.228 88.146V89.066L208.942 90.0665L210.667 90.7105V90.7565L208.942 91.4005L206.228 92.401V93.321ZM212.779 90.5495V91.3085H222.094V90.5495H212.779ZM217.437 92.171C215.24 92.171 213.906 92.8265 213.906 94.011C213.906 95.184 215.24 95.851 217.437 95.851C219.645 95.851 220.967 95.184 220.967 94.011C220.967 92.8265 219.645 92.171 217.437 92.171ZM217.437 92.8955C219.058 92.8955 220.013 93.3095 220.013 94.011C220.013 94.7125 219.058 95.115 217.437 95.115C215.815 95.115 214.861 94.7125 214.861 94.011C214.861 93.3095 215.815 92.8955 217.437 92.8955ZM217.437 85.8C215.217 85.8 213.814 86.5245 213.814 87.7665C213.814 88.997 215.217 89.7215 217.437 89.7215C219.668 89.7215 221.059 88.997 221.059 87.7665C221.059 86.5245 219.668 85.8 217.437 85.8ZM217.437 86.536C219.07 86.536 220.093 86.996 220.093 87.7665C220.093 88.5255 219.07 88.9855 217.437 88.9855C215.804 88.9855 214.78 88.5255 214.78 87.7665C214.78 86.996 215.804 86.536 217.437 86.536ZM228.016 95.115C226.395 95.115 225.44 94.7125 225.44 94.011C225.44 93.3095 226.395 92.907 228.016 92.907C229.626 92.907 230.592 93.3095 230.592 94.011C230.592 94.7125 229.626 95.115 228.016 95.115ZM228.016 92.171C225.808 92.171 224.486 92.8265 224.486 94.011C224.486 95.1955 225.808 95.8395 228.016 95.8395C230.236 95.8395 231.547 95.1955 231.547 94.011C231.547 92.8265 230.236 92.171 228.016 92.171ZM226.59 89.434C227.016 89.503 227.499 89.549 228.016 89.549C228.545 89.549 229.028 89.503 229.454 89.434V90.6415L226.59 90.6415V89.434ZM225.36 87.64C225.36 86.8925 226.372 86.4555 228.016 86.4555C229.661 86.4555 230.673 86.8925 230.673 87.64C230.673 88.376 229.661 88.8245 228.016 88.8245C226.372 88.8245 225.36 88.376 225.36 87.64ZM230.385 90.6415V89.181C231.179 88.859 231.639 88.33 231.639 87.64C231.639 86.4325 230.259 85.7195 228.016 85.7195C225.785 85.7195 224.394 86.4325 224.394 87.64C224.394 88.3415 224.842 88.859 225.659 89.1925V90.6415H223.347V91.4005L232.685 91.4005V90.6415H230.385ZM239.872 90.9175H237.307V87.3295H239.872V90.9175ZM236.364 90.9175H234.789V91.688H242.39V90.9175H240.815V87.3295H242.413V86.5705H234.766V87.3295H236.364V90.9175ZM233.938 93.7465V94.5285H243.287V93.7465H233.938ZM249.657 93.804V91.8605H252.958V91.1015H246.61V89.434H252.716V86.2945H245.655V87.065H251.796V88.675H245.678V91.8605H248.703V93.804H244.505V94.5745H253.878V93.804H249.657ZM262.249 87.663C262.249 88.9395 262.249 90.4805 261.835 92.585L262.778 92.6885C263.18 90.4575 263.18 88.974 263.18 87.663V86.628H256.108V87.3985H262.249V87.663ZM255.107 93.5625V94.3445H264.434V93.5625H255.107ZM270.608 90.1815C269.401 90.423 268.389 90.4805 267.055 90.4805V89.02H269.999V86.214H266.123V86.973H269.09V88.307H266.146V91.2395H266.825C268.308 91.2395 269.389 91.182 270.7 90.9405L270.608 90.1815ZM268.527 92.9415H273.46V94.954H268.527V92.9415ZM267.607 95.713H274.38V92.194H267.607V95.713ZM273.472 85.5355V88.1575H272.092V85.731H271.195V91.5615H272.092V88.928H273.472V91.6995H274.38V85.5355H273.472ZM100.437 110.321L105.946 108.159V107.308L100.437 105.146V106.066L103.151 107.066L104.876 107.71V107.756L103.151 108.4L100.437 109.401V110.321ZM112.37 108.32C112.658 106.399 112.658 105.054 112.658 104.226V103.662H107.448V104.433H111.738C111.738 105.261 111.715 106.514 111.427 108.228L112.37 108.32ZM110.001 106.606H109.07V109.78C108.299 109.803 107.54 109.815 106.885 109.815L106.988 110.597C108.817 110.597 111.243 110.551 113.382 110.206L113.325 109.516C112.278 109.642 111.128 109.711 110.001 109.757V106.606ZM116.545 106.848H114.9V102.535H113.957V112.851H114.9V107.641H116.545V106.848ZM123.686 103.628H121.11V102.478H120.167V103.628H117.602V104.387H123.686V103.628ZM119.074 106.779C119.074 106.1 119.695 105.652 120.638 105.652C121.581 105.652 122.214 106.1 122.214 106.779C122.214 107.469 121.581 107.917 120.638 107.917C119.695 107.917 119.074 107.469 119.074 106.779ZM123.111 106.779C123.111 105.652 122.11 104.916 120.638 104.916C119.178 104.916 118.177 105.652 118.177 106.779C118.177 107.917 119.178 108.642 120.638 108.642C122.11 108.642 123.111 107.917 123.111 106.779ZM118.879 110.321H124.629V112.863H125.572V109.55H118.879V110.321ZM127.101 105.387H125.572V102.547H124.629V108.987H125.572V106.169H127.101V105.387ZM128.756 103.651V104.41H132.632C132.436 106.859 131.056 108.837 128.285 110.16L128.791 110.93C132.218 109.251 133.586 106.629 133.586 103.651H128.756ZM135.668 102.535V112.851H136.611V102.535H135.668ZM147.546 105.445C145.672 105.238 143.878 104.226 143.878 102.972V102.581H142.912V102.972C142.912 104.226 141.095 105.238 139.22 105.445L139.542 106.158C141.187 105.951 142.739 105.226 143.395 104.122C144.039 105.226 145.591 105.951 147.224 106.158L147.546 105.445ZM148.052 107.595V106.836H138.714V107.595H142.912V108.619H139.841V109.343H145.925V110.286H139.876V112.736H147.167V112H140.796V110.976H146.856V108.619H143.855V107.595H148.052Z" fill="#121212"/>
<path d="M32.3605 134.127H27.1855V132.631H32.3605V134.127ZM32.3605 132.125H27.1855V130.699H26.576L26.576 134.644H32.9585V130.699H32.3605V132.125ZM29.083 129.216H25.817V127.341H29.083V129.216ZM32.3605 124.581V127.203H29.681V125.11H29.083V126.847H25.817V125.11H25.2075V129.733H29.681V127.721H32.3605V130.17H32.97V124.581H32.3605ZM43.5376 124.604H42.9281V132.137H43.5376V124.604ZM36.1086 127.801C36.1086 126.709 36.9711 125.881 38.1096 125.881C39.2481 125.881 40.1106 126.709 40.1106 127.801C40.1106 128.905 39.2481 129.745 38.1096 129.745C36.9711 129.745 36.1086 128.905 36.1086 127.801ZM40.6971 127.801C40.6971 126.352 39.6046 125.34 38.1096 125.34C36.6146 125.34 35.5221 126.352 35.5221 127.801C35.5221 129.262 36.6146 130.285 38.1096 130.285C39.6046 130.285 40.6971 129.262 40.6971 127.801ZM37.7301 134.035V131.343H37.1206V134.552H43.8826V134.035H37.7301ZM50.2757 129.331H46.9062V125.892H50.2757V129.331ZM53.5187 126.858V128.365H50.8737V126.858H53.5187ZM50.8737 128.882H53.5187V130.665H54.1282V124.593H53.5187V126.341H50.8737V125.386H46.3197V129.837H50.8737V128.882ZM50.8277 134.276C49.1602 134.276 48.0907 133.747 48.0907 132.884C48.0907 132.033 49.1602 131.493 50.8277 131.493C52.4952 131.493 53.5762 132.033 53.5762 132.884C53.5762 133.747 52.4952 134.276 50.8277 134.276ZM50.8277 130.998C48.7577 130.998 47.4812 131.677 47.4812 132.884C47.4812 134.092 48.7577 134.771 50.8277 134.771C52.8977 134.771 54.1742 134.092 54.1742 132.884C54.1742 131.677 52.8977 130.998 50.8277 130.998Z" fill="#121212"/>
<path d="M104.221 125.421H103.278V127.272C103.278 129.181 102.105 131.171 100.61 131.918L101.185 132.666C102.346 132.045 103.301 130.745 103.749 129.216C104.221 130.665 105.164 131.895 106.336 132.482L106.889 131.734C105.394 131.021 104.221 129.147 104.221 127.272V125.421ZM108.165 124.535V128.031H105.773V128.802H108.165V134.863H109.108V124.535H108.165ZM115.846 125.363C117.537 125.363 118.503 125.754 118.503 126.444C118.503 127.134 117.537 127.525 115.846 127.525C114.156 127.525 113.19 127.134 113.19 126.444C113.19 125.754 114.156 125.363 115.846 125.363ZM115.846 128.227C118.123 128.227 119.469 127.606 119.469 126.444C119.469 125.283 118.123 124.65 115.846 124.65C113.581 124.65 112.224 125.283 112.224 126.444C112.224 127.606 113.581 128.227 115.846 128.227ZM120.504 129.664V128.905H111.189V129.664H115.375V130.63H112.316V131.343H118.388V132.263H112.339V134.736H119.63V134H113.259V132.953H119.319V130.63H116.318V129.664H120.504ZM125.425 125.432H124.493V127.284C124.493 129.239 123.24 131.217 121.722 131.941L122.297 132.712C123.504 132.091 124.493 130.803 124.965 129.25C125.459 130.722 126.448 131.941 127.621 132.516L128.185 131.757C126.655 131.067 125.425 129.17 125.425 127.284V125.432ZM129.266 124.535V134.874H130.209V124.535H129.266ZM138.614 128.894C136.981 129.158 135.636 129.216 133.807 129.216V127.824H137.545V125.041H132.853V125.8H136.613V127.1H132.887V129.986H133.715C135.624 129.986 137.027 129.929 138.718 129.653L138.614 128.894ZM139.879 133.942H135.061V132.677H139.879V133.942ZM139.879 131.941H135.061V130.722H134.129V134.713H140.811V130.722H139.879V131.941ZM139.868 124.547V130.205H140.811V124.547H139.868ZM144.225 126.559L147.135 126.559V125.789L143.294 125.789V132.31H143.972C145.513 132.31 146.56 132.263 147.79 131.999L147.71 131.217C146.583 131.458 145.605 131.516 144.225 131.527V126.559ZM150.78 124.535V128.675H149.32V124.765H148.434V134.334H149.32V129.446H150.78V134.851H151.689V124.535H150.78ZM159.623 125.628H157.047V124.478H156.104V125.628H153.54V126.387H159.623V125.628ZM155.012 128.779C155.012 128.1 155.633 127.652 156.576 127.652C157.519 127.652 158.151 128.1 158.151 128.779C158.151 129.469 157.519 129.917 156.576 129.917C155.633 129.917 155.012 129.469 155.012 128.779ZM159.048 128.779C159.048 127.652 158.048 126.916 156.576 126.916C155.115 126.916 154.115 127.652 154.115 128.779C154.115 129.917 155.115 130.642 156.576 130.642C158.048 130.642 159.048 129.917 159.048 128.779ZM154.816 132.321H160.566V134.863H161.509V131.55H154.816V132.321ZM163.039 127.387H161.509V124.547H160.566V130.987H161.509V128.169H163.039V127.387ZM171.375 126.709C171.375 127.985 171.375 129.342 171.019 131.182L171.95 131.297C172.318 129.365 172.318 128.02 172.318 126.709V125.57H165.05V126.341H171.375V126.709ZM169.857 132.631V129.216H168.926V132.631H167.304V129.216H166.373V132.631H164.084V133.402H173.411V132.631H169.857ZM183.249 129.722C181.731 129.181 180.708 127.87 180.708 126.456V125.156H179.765V126.433C179.765 128.031 178.764 129.411 177.189 129.975L177.683 130.722C178.914 130.262 179.834 129.319 180.259 128.1C180.719 129.181 181.616 130.044 182.778 130.469L183.249 129.722ZM179.788 131.424H178.845V134.621H185.687V133.85H179.788V131.424ZM185.239 127.698V124.524H184.296V132.148H185.239V128.48H186.757V127.698H185.239ZM193.932 125.628H191.356V124.478H190.413V125.628H187.849V126.387H193.932V125.628ZM189.321 128.779C189.321 128.1 189.942 127.652 190.885 127.652C191.828 127.652 192.46 128.1 192.46 128.779C192.46 129.469 191.828 129.917 190.885 129.917C189.942 129.917 189.321 129.469 189.321 128.779ZM193.357 128.779C193.357 127.652 192.357 126.916 190.885 126.916C189.424 126.916 188.424 127.652 188.424 128.779C188.424 129.917 189.424 130.642 190.885 130.642C192.357 130.642 193.357 129.917 193.357 128.779ZM189.125 132.321L194.875 132.321V134.863H195.818V131.55L189.125 131.55V132.321ZM197.348 127.387H195.818V124.547H194.875V130.987H195.818V128.169H197.348V127.387ZM204.189 125.57H201.82V124.432H200.877V125.57H198.416V126.329H204.189V125.57ZM199.888 128.698C199.888 128.008 200.475 127.56 201.337 127.56C202.2 127.56 202.786 128.008 202.786 128.698C202.786 129.388 202.2 129.837 201.337 129.837C200.475 129.837 199.888 129.388 199.888 128.698ZM203.672 128.698C203.672 127.583 202.706 126.847 201.337 126.847C199.957 126.847 199.003 127.583 199.003 128.698C199.003 129.814 199.957 130.55 201.337 130.55C202.706 130.55 203.672 129.814 203.672 128.698ZM205.96 133.965H201.142V132.873H205.96V133.965ZM205.96 132.148H201.142V131.09H200.21V134.713H206.892V131.09H205.96V132.148ZM205.937 124.547V126.95H204.201V127.709H205.937V128.951H204.189V129.722H205.937V130.63H206.892V124.547H205.937ZM214.423 129.4C213.227 129.595 212.238 129.641 210.329 129.641V128.077H213.825V125.156H209.375V125.927H212.905V127.353H209.409V130.412H210.145C212.204 130.412 213.25 130.377 214.515 130.159L214.423 129.4ZM210.559 132.206H216.516V134.863H217.471V131.435H210.559V132.206ZM216.516 124.547V126.065H214.504V126.835H216.516V128.215H214.504V128.974H216.516V130.883H217.471V124.547H216.516ZM225.52 129.055C224.174 129.319 223.001 129.4 220.966 129.4V126.191H224.588V125.432H220.023V130.17H220.828C222.99 130.17 224.209 130.101 225.623 129.814L225.52 129.055ZM222.081 131.251H221.138V134.621H228.015V133.85H222.081V131.251ZM227.555 127.594V124.535H226.612V131.999H227.555V128.376H229.085V127.594H227.555Z" fill="#121212"/>
<path d="M32.3605 156.127H27.1855V154.631H32.3605V156.127ZM32.3605 154.125H27.1855V152.699H26.576L26.576 156.644H32.9585V152.699H32.3605V154.125ZM29.083 151.216H25.817V149.341H29.083V151.216ZM32.3605 146.581V149.203H29.681V147.11H29.083V148.847H25.817V147.11H25.2075V151.733H29.681V149.721H32.3605V152.17H32.97V146.581H32.3605ZM43.5376 146.604H42.9281V154.137H43.5376V146.604ZM36.1086 149.801C36.1086 148.709 36.9711 147.881 38.1096 147.881C39.2481 147.881 40.1106 148.709 40.1106 149.801C40.1106 150.905 39.2481 151.745 38.1096 151.745C36.9711 151.745 36.1086 150.905 36.1086 149.801ZM40.6971 149.801C40.6971 148.352 39.6046 147.34 38.1096 147.34C36.6146 147.34 35.5221 148.352 35.5221 149.801C35.5221 151.262 36.6146 152.285 38.1096 152.285C39.6046 152.285 40.6971 151.262 40.6971 149.801ZM37.7301 156.035V153.343H37.1206V156.552H43.8826V156.035H37.7301ZM53.9442 149.916H47.5962V147.593H53.8637V147.076H46.9982V150.434H53.9442V149.916ZM50.4252 156.276C48.6772 156.276 47.5617 155.781 47.5617 154.953C47.5617 154.125 48.6772 153.631 50.4252 153.631C52.1732 153.631 53.2887 154.125 53.2887 154.953C53.2887 155.781 52.1732 156.276 50.4252 156.276ZM50.4252 153.136C48.2632 153.136 46.9522 153.792 46.9522 154.953C46.9522 156.127 48.2632 156.771 50.4252 156.771C52.5872 156.771 53.8982 156.127 53.8982 154.953C53.8982 153.792 52.5872 153.136 50.4252 153.136ZM45.8137 151.572V152.09H55.0482V151.572H45.8137ZM57.4163 154.24H63.8678V156.667H64.4773V153.723H57.4163V154.24ZM61.3148 152.297V151.009H64.6498V150.503H58.1983V149.18H64.4198V146.892H57.5773V147.386H63.8218V148.697H57.6003V151.009H60.7053V152.297H56.3698V152.814H65.6503V152.297H61.3148ZM71.3994 151.825H68.1334V149.732H71.3994V151.825ZM71.9974 150.089H74.6769V154.171H75.2864V146.604H74.6769V149.571H71.9974V147.271H71.3994V149.226H68.1334V147.271H67.5239V152.343H71.9974V150.089ZM69.4559 156.035V153.435H68.8464V156.552H75.5394V156.035H69.4559ZM86.245 148.226H82.473V146.788H81.8635V148.226H78.0455V148.743H86.245V148.226ZM79.506 151.48C79.506 150.618 80.5525 150.077 82.1625 150.077C83.7725 150.077 84.819 150.618 84.819 151.48C84.819 152.354 83.7725 152.906 82.1625 152.906C80.5525 152.906 79.506 152.354 79.506 151.48ZM82.473 154.988V153.389C84.3015 153.32 85.4285 152.63 85.4285 151.48C85.4285 150.273 84.175 149.571 82.1625 149.571C80.15 149.571 78.8965 150.273 78.8965 151.48C78.8965 152.63 80.0235 153.32 81.8635 153.401V154.988H77.551V155.505H86.8085V154.988H82.473Z" fill="#121212"/>
<path d="M100.506 156H105.807V155.091H103.473C103.048 155.091 102.53 155.137 102.093 155.172C104.071 153.297 105.394 151.584 105.394 149.905C105.394 148.398 104.451 147.409 102.944 147.409C101.875 147.409 101.15 147.904 100.46 148.651L101.07 149.249C101.53 148.697 102.128 148.272 102.818 148.272C103.864 148.272 104.37 148.973 104.37 149.939C104.37 151.388 103.151 153.067 100.506 155.379V156ZM109.748 151.549C110.772 151.549 111.278 152.274 111.278 153.412C111.278 154.562 110.645 155.333 109.84 155.333C108.782 155.333 108.15 154.378 108.023 152.63C108.541 151.86 109.219 151.549 109.748 151.549ZM109.84 156.15C111.151 156.15 112.255 155.045 112.255 153.412C112.255 151.653 111.347 150.767 109.921 150.767C109.254 150.767 108.518 151.158 108 151.791C108.046 149.169 109.024 148.283 110.174 148.283C110.691 148.283 111.197 148.525 111.531 148.927L112.106 148.272C111.646 147.777 111.013 147.409 110.139 147.409C108.506 147.409 107.023 148.674 107.023 151.975C107.023 154.758 108.219 156.15 109.84 156.15ZM114.08 152.837L116.001 149.962C116.242 149.548 116.472 149.134 116.679 148.72H116.725C116.702 149.157 116.668 149.836 116.668 150.25V152.837H114.08ZM116.668 156H117.657V153.677H118.772V152.837H117.657V147.559H116.495L112.988 152.987V153.677H116.668V156ZM120.149 156H124.772V155.126H123.081V147.559H122.276C121.816 147.835 121.276 148.03 120.528 148.168V148.835H122.023V155.126H120.149V156ZM127.793 156H128.885C129.012 152.699 129.38 150.733 131.358 148.203V147.559H126.079V148.467H130.162C128.517 150.767 127.931 152.803 127.793 156ZM132.907 156H137.53V155.126H135.839V147.559H135.034C134.574 147.835 134.034 148.03 133.286 148.168V148.835H134.781V155.126H132.907V156ZM138.802 153.182H141.746V152.377H138.802V153.182ZM145.457 156.15C147.056 156.15 148.079 154.689 148.079 151.756C148.079 148.835 147.056 147.409 145.457 147.409C143.847 147.409 142.824 148.824 142.824 151.756C142.824 154.689 143.847 156.15 145.457 156.15ZM145.457 155.31C144.491 155.31 143.847 154.24 143.847 151.756C143.847 149.295 144.491 148.249 145.457 148.249C146.412 148.249 147.056 149.295 147.056 151.756C147.056 154.24 146.412 155.31 145.457 155.31ZM151.836 156.15C153.435 156.15 154.458 154.689 154.458 151.756C154.458 148.835 153.435 147.409 151.836 147.409C150.226 147.409 149.203 148.824 149.203 151.756C149.203 154.689 150.226 156.15 151.836 156.15ZM151.836 155.31C150.87 155.31 150.226 154.24 150.226 151.756C150.226 149.295 150.87 148.249 151.836 148.249C152.791 148.249 153.435 149.295 153.435 151.756C153.435 154.24 152.791 155.31 151.836 155.31ZM158.215 156.15C159.814 156.15 160.837 154.689 160.837 151.756C160.837 148.835 159.814 147.409 158.215 147.409C156.605 147.409 155.582 148.824 155.582 151.756C155.582 154.689 156.605 156.15 158.215 156.15ZM158.215 155.31C157.249 155.31 156.605 154.24 156.605 151.756C156.605 149.295 157.249 148.249 158.215 148.249C159.17 148.249 159.814 149.295 159.814 151.756C159.814 154.24 159.17 155.31 158.215 155.31ZM164.766 151.549C165.79 151.549 166.296 152.274 166.296 153.412C166.296 154.562 165.663 155.333 164.858 155.333C163.8 155.333 163.168 154.378 163.041 152.63C163.559 151.86 164.237 151.549 164.766 151.549ZM164.858 156.15C166.169 156.15 167.273 155.045 167.273 153.412C167.273 151.653 166.365 150.767 164.939 150.767C164.272 150.767 163.536 151.158 163.018 151.791C163.064 149.169 164.042 148.283 165.192 148.283C165.709 148.283 166.215 148.525 166.549 148.927L167.124 148.272C166.664 147.777 166.031 147.409 165.157 147.409C163.524 147.409 162.041 148.674 162.041 151.975C162.041 154.758 163.237 156.15 164.858 156.15ZM168.282 156H173.583V155.091H171.249C170.823 155.091 170.306 155.137 169.869 155.172C171.847 153.297 173.169 151.584 173.169 149.905C173.169 148.398 172.226 147.409 170.72 147.409C169.65 147.409 168.926 147.904 168.236 148.651L168.845 149.249C169.305 148.697 169.903 148.272 170.593 148.272C171.64 148.272 172.146 148.973 172.146 149.939C172.146 151.388 170.927 153.067 168.282 155.379V156ZM176.432 156H177.524C177.651 152.699 178.019 150.733 179.997 148.203V147.559H174.718V148.467H178.801C177.156 150.767 176.57 152.803 176.432 156ZM183.57 156.15C185.065 156.15 186.272 155.252 186.272 153.746C186.272 152.596 185.479 151.837 184.49 151.607V151.561C185.375 151.227 185.985 150.549 185.985 149.525C185.985 148.191 184.95 147.409 183.535 147.409C182.558 147.409 181.81 147.835 181.178 148.421L181.741 149.088C182.213 148.605 182.811 148.272 183.489 148.272C184.363 148.272 184.915 148.801 184.915 149.606C184.915 150.514 184.317 151.216 182.581 151.216V152.021C184.524 152.021 185.203 152.699 185.203 153.7C185.203 154.677 184.49 155.275 183.489 155.275C182.535 155.275 181.891 154.827 181.396 154.31L180.867 154.999C181.419 155.597 182.247 156.15 183.57 156.15Z" fill="#121212"/>
<path d="M30.555 173.779C29.152 173.331 27.9675 172.169 27.9675 170.812V170.444H30.371V169.938H27.979V168.524H27.3695V169.938H24.943V170.444H27.3695V170.812C27.3695 172.319 26.162 173.572 24.736 174.055L25.035 174.538C26.231 174.101 27.266 173.181 27.68 171.985C28.117 173.043 29.106 173.871 30.256 174.262L30.555 173.779ZM29.3015 178.276C27.657 178.276 26.6105 177.781 26.6105 176.988C26.6105 176.183 27.657 175.7 29.3015 175.7C30.946 175.7 32.004 176.183 32.004 176.988C32.004 177.781 30.946 178.276 29.3015 178.276ZM29.3015 175.205C27.243 175.205 26.0125 175.838 26.0125 176.988C26.0125 178.127 27.243 178.759 29.3015 178.759C31.36 178.759 32.602 178.127 32.602 176.988C32.602 175.838 31.36 175.205 29.3015 175.205ZM32.5215 171.376V168.593H31.912V174.906H32.5215V171.905H34.12V171.376H32.5215ZM41.0651 173.768C39.6506 173.262 38.5006 172.008 38.5006 170.559V169.892H40.9156V169.375H35.4761V169.892H37.9026V170.571C37.9026 172.135 36.6836 173.457 35.2576 173.986L35.5796 174.469C36.7756 174.009 37.7876 173.043 38.2131 171.79C38.6386 172.928 39.5931 173.825 40.7431 174.262L41.0651 173.768ZM36.5686 175.849H42.4911V178.794H43.1006V175.332H36.5686V175.849ZM44.6991 171.399H43.1006V168.593H42.4911V174.734H43.1006V171.928H44.6991V171.399ZM46.5727 171.767C46.5727 170.663 47.4237 169.812 48.5737 169.812C49.7237 169.812 50.5747 170.663 50.5747 171.767C50.5747 172.894 49.7237 173.745 48.5737 173.745C47.4237 173.745 46.5727 172.894 46.5727 171.767ZM53.5187 170.801V172.721H51.0002C51.1037 172.434 51.1612 172.112 51.1612 171.767C51.1612 171.422 51.0922 171.088 50.9887 170.801H53.5187ZM53.5187 173.239V176.183H54.1282V168.593H53.5187V170.283H50.7127C50.2412 169.662 49.4822 169.271 48.5737 169.271C47.0787 169.271 45.9862 170.295 45.9862 171.767C45.9862 173.25 47.0787 174.274 48.5737 174.274C49.4937 174.274 50.2642 173.883 50.7242 173.239H53.5187ZM48.3552 178.035V175.389H47.7457V178.552H54.4387V178.035H48.3552ZM61.8208 173.526V173.975H63.9943V174.665H64.6038V168.604H63.9943V173.526H61.8208ZM59.6703 169.271C60.8203 169.271 61.5793 169.708 61.5793 170.352C61.5793 170.996 60.8203 171.433 59.6703 171.433C58.5088 171.433 57.7498 170.996 57.7498 170.352C57.7498 169.708 58.5088 169.271 59.6703 169.271ZM59.6703 171.882C61.1768 171.882 62.1658 171.307 62.1658 170.352C62.1658 169.398 61.1768 168.823 59.6703 168.823C58.1523 168.823 57.1748 169.398 57.1748 170.352C57.1748 171.307 58.1523 171.882 59.6703 171.882ZM59.3023 174.711H59.9118V173.02C60.9698 172.963 62.0623 172.882 63.0858 172.721L63.0513 172.296C60.8548 172.56 58.3018 172.583 56.3353 172.583L56.4273 173.089C57.3013 173.089 58.2788 173.078 59.3023 173.043V174.711ZM58.5663 178.173V177.034H64.6038V175.079H57.9453V175.539H64.0058V176.585H57.9798V178.656H65.0178V178.173H58.5663ZM75.2749 168.581H74.6654V173.906H75.2749V168.581ZM67.8574 171.226C67.8574 170.249 68.6969 169.513 69.8354 169.513C70.9739 169.513 71.8134 170.249 71.8134 171.226C71.8134 172.215 70.9739 172.94 69.8354 172.94C68.6969 172.94 67.8574 172.215 67.8574 171.226ZM72.4114 171.226C72.4114 169.904 71.3419 168.995 69.8354 168.995C68.3289 168.995 67.2594 169.904 67.2594 171.226C67.2594 172.549 68.3289 173.446 69.8354 173.446C71.3419 173.446 72.4114 172.549 72.4114 171.226ZM69.4214 178.138V176.723H75.2749V174.458H68.7889V174.964H74.6769V176.24H68.8234V178.644H75.6774V178.138H69.4214Z" fill="#121212"/>
<path d="M100.506 178H105.807V177.091H103.473C103.048 177.091 102.53 177.137 102.093 177.172C104.071 175.297 105.394 173.584 105.394 171.905C105.394 170.398 104.451 169.409 102.944 169.409C101.875 169.409 101.15 169.904 100.46 170.651L101.07 171.249C101.53 170.697 102.128 170.272 102.818 170.272C103.864 170.272 104.37 170.973 104.37 171.939C104.37 173.388 103.151 175.067 100.506 177.379V178ZM109.576 178.15C111.174 178.15 112.198 176.689 112.198 173.756C112.198 170.835 111.174 169.409 109.576 169.409C107.966 169.409 106.942 170.824 106.942 173.756C106.942 176.689 107.966 178.15 109.576 178.15ZM109.576 177.31C108.61 177.31 107.966 176.24 107.966 173.756C107.966 171.295 108.61 170.249 109.576 170.249C110.53 170.249 111.174 171.295 111.174 173.756C111.174 176.24 110.53 177.31 109.576 177.31ZM113.77 178H118.393V177.126H116.702V169.559H115.897C115.437 169.835 114.897 170.03 114.149 170.168V170.835H115.644V177.126H113.77V178ZM122.345 178.15C123.932 178.15 124.99 177.195 124.99 175.964C124.99 174.814 124.3 174.182 123.564 173.756V173.699C124.07 173.308 124.691 172.549 124.691 171.664C124.691 170.364 123.817 169.444 122.38 169.444C121.069 169.444 120.068 170.295 120.068 171.583C120.068 172.468 120.586 173.101 121.207 173.526V173.584C120.436 173.998 119.654 174.78 119.654 175.907C119.654 177.206 120.793 178.15 122.345 178.15ZM122.92 173.423C121.931 173.032 121.023 172.595 121.023 171.583C121.023 170.766 121.586 170.214 122.368 170.214C123.277 170.214 123.794 170.893 123.794 171.721C123.794 172.342 123.495 172.917 122.92 173.423ZM122.368 177.367C121.356 177.367 120.609 176.712 120.609 175.815C120.609 175.01 121.08 174.343 121.759 173.906C122.955 174.389 123.99 174.814 123.99 175.941C123.99 176.781 123.334 177.367 122.368 177.367ZM126.045 175.182H128.989V174.377H126.045V175.182ZM132.699 178.15C134.298 178.15 135.321 176.689 135.321 173.756C135.321 170.835 134.298 169.409 132.699 169.409C131.089 169.409 130.066 170.824 130.066 173.756C130.066 176.689 131.089 178.15 132.699 178.15ZM132.699 177.31C131.733 177.31 131.089 176.24 131.089 173.756C131.089 171.295 131.733 170.249 132.699 170.249C133.654 170.249 134.298 171.295 134.298 173.756C134.298 176.24 133.654 177.31 132.699 177.31ZM138.883 178.15C140.309 178.15 141.643 177.103 141.643 175.251C141.643 173.4 140.504 172.572 139.101 172.572C138.595 172.572 138.227 172.698 137.848 172.905L138.055 170.467H141.24V169.559H137.135L136.87 173.515L137.434 173.86C137.917 173.538 138.273 173.365 138.837 173.365C139.895 173.365 140.585 174.078 140.585 175.286C140.585 176.516 139.78 177.275 138.791 177.275C137.813 177.275 137.204 176.827 136.721 176.344L136.203 177.034C136.767 177.597 137.572 178.15 138.883 178.15ZM142.789 175.182H145.733V174.377H142.789V175.182ZM149.444 178.15C151.043 178.15 152.066 176.689 152.066 173.756C152.066 170.835 151.043 169.409 149.444 169.409C147.834 169.409 146.811 170.824 146.811 173.756C146.811 176.689 147.834 178.15 149.444 178.15ZM149.444 177.31C148.478 177.31 147.834 176.24 147.834 173.756C147.834 171.295 148.478 170.249 149.444 170.249C150.399 170.249 151.043 171.295 151.043 173.756C151.043 176.24 150.399 177.31 149.444 177.31ZM153.638 178H158.261V177.126H156.57V169.559H155.765C155.305 169.835 154.765 170.03 154.017 170.168V170.835H155.512V177.126H153.638V178Z" fill="#121212"/>
<path d="M32.786 193.916H26.438V191.593H32.7055V191.076H25.84V194.434H32.786V193.916ZM29.267 200.276C27.519 200.276 26.4035 199.781 26.4035 198.953C26.4035 198.125 27.519 197.631 29.267 197.631C31.015 197.631 32.1305 198.125 32.1305 198.953C32.1305 199.781 31.015 200.276 29.267 200.276ZM29.267 197.136C27.105 197.136 25.794 197.792 25.794 198.953C25.794 200.127 27.105 200.771 29.267 200.771C31.429 200.771 32.74 200.127 32.74 198.953C32.74 197.792 31.429 197.136 29.267 197.136ZM24.6555 195.572V196.09H33.89V195.572H24.6555ZM36.2581 198.24H42.7096V200.667H43.3191V197.723H36.2581V198.24ZM40.1566 196.297V195.009H43.4916V194.503H37.0401V193.18H43.2616V190.892H36.4191V191.386H42.6636V192.697H36.4421V195.009H39.5471V196.297H35.2116V196.814H44.4921V196.297H40.1566ZM51.2417 196.688V197.171H53.4152V198.378H54.0247V190.604H53.4152V196.688H51.2417ZM49.0912 191.513C50.2182 191.513 51.0002 192.042 51.0002 192.789C51.0002 193.56 50.2182 194.077 49.0912 194.077C47.9642 194.077 47.1822 193.56 47.1822 192.789C47.1822 192.042 47.9642 191.513 49.0912 191.513ZM49.0912 194.549C50.5862 194.549 51.5752 193.87 51.5752 192.789C51.5752 191.72 50.5862 191.041 49.0912 191.041C47.5962 191.041 46.5957 191.72 46.5957 192.789C46.5957 193.87 47.5962 194.549 49.0912 194.549ZM48.8612 197.964H49.4707V195.883C50.4597 195.825 51.4832 195.745 52.4492 195.584L52.3917 195.135C50.1952 195.411 47.6422 195.434 45.7447 195.434L45.8367 195.963C46.7337 195.963 47.7572 195.963 48.8612 195.917V197.964ZM47.8952 200.035V197.608H47.2972V200.552H54.2892V200.035H47.8952ZM61.8208 195.526V195.975H63.9943V196.665H64.6038V190.604H63.9943V195.526H61.8208ZM59.6703 191.271C60.8203 191.271 61.5793 191.708 61.5793 192.352C61.5793 192.996 60.8203 193.433 59.6703 193.433C58.5088 193.433 57.7498 192.996 57.7498 192.352C57.7498 191.708 58.5088 191.271 59.6703 191.271ZM59.6703 193.882C61.1768 193.882 62.1658 193.307 62.1658 192.352C62.1658 191.398 61.1768 190.823 59.6703 190.823C58.1523 190.823 57.1748 191.398 57.1748 192.352C57.1748 193.307 58.1523 193.882 59.6703 193.882ZM59.3023 196.711H59.9118V195.02C60.9698 194.963 62.0623 194.882 63.0858 194.721L63.0513 194.296C60.8548 194.56 58.3018 194.583 56.3353 194.583L56.4273 195.089C57.3013 195.089 58.2788 195.078 59.3023 195.043V196.711ZM58.5663 200.173V199.034H64.6038V197.079H57.9453V197.539H64.0058V198.585H57.9798V200.656H65.0178V200.173H58.5663ZM75.2749 190.581H74.6654V195.906H75.2749V190.581ZM67.8574 193.226C67.8574 192.249 68.6969 191.513 69.8354 191.513C70.9739 191.513 71.8134 192.249 71.8134 193.226C71.8134 194.215 70.9739 194.94 69.8354 194.94C68.6969 194.94 67.8574 194.215 67.8574 193.226ZM72.4114 193.226C72.4114 191.904 71.3419 190.995 69.8354 190.995C68.3289 190.995 67.2594 191.904 67.2594 193.226C67.2594 194.549 68.3289 195.446 69.8354 195.446C71.3419 195.446 72.4114 194.549 72.4114 193.226ZM69.4214 200.138V198.723H75.2749V196.458H68.7889V196.964H74.6769V198.24H68.8234V200.644H75.6774V200.138H69.4214Z" fill="#121212"/>
<path d="M100.506 200H105.807V199.091H103.473C103.048 199.091 102.53 199.137 102.093 199.172C104.071 197.297 105.394 195.584 105.394 193.905C105.394 192.398 104.451 191.409 102.944 191.409C101.875 191.409 101.15 191.904 100.46 192.651L101.07 193.249C101.53 192.697 102.128 192.272 102.818 192.272C103.864 192.272 104.37 192.973 104.37 193.939C104.37 195.388 103.151 197.067 100.506 199.379V200ZM109.576 200.15C111.174 200.15 112.198 198.689 112.198 195.756C112.198 192.835 111.174 191.409 109.576 191.409C107.966 191.409 106.942 192.824 106.942 195.756C106.942 198.689 107.966 200.15 109.576 200.15ZM109.576 199.31C108.61 199.31 107.966 198.24 107.966 195.756C107.966 193.295 108.61 192.249 109.576 192.249C110.53 192.249 111.174 193.295 111.174 195.756C111.174 198.24 110.53 199.31 109.576 199.31ZM113.77 200H118.393V199.126H116.702V191.559H115.897C115.437 191.835 114.897 192.03 114.149 192.168V192.835H115.644V199.126H113.77V200ZM122.345 200.15C123.932 200.15 124.99 199.195 124.99 197.964C124.99 196.814 124.3 196.182 123.564 195.756V195.699C124.07 195.308 124.691 194.549 124.691 193.664C124.691 192.364 123.817 191.444 122.38 191.444C121.069 191.444 120.068 192.295 120.068 193.583C120.068 194.468 120.586 195.101 121.207 195.526V195.584C120.436 195.998 119.654 196.78 119.654 197.907C119.654 199.206 120.793 200.15 122.345 200.15ZM122.92 195.423C121.931 195.032 121.023 194.595 121.023 193.583C121.023 192.766 121.586 192.214 122.368 192.214C123.277 192.214 123.794 192.893 123.794 193.721C123.794 194.342 123.495 194.917 122.92 195.423ZM122.368 199.367C121.356 199.367 120.609 198.712 120.609 197.815C120.609 197.01 121.08 196.343 121.759 195.906C122.955 196.389 123.99 196.814 123.99 197.941C123.99 198.781 123.334 199.367 122.368 199.367ZM126.045 197.182H128.989V196.377H126.045V197.182ZM132.699 200.15C134.298 200.15 135.321 198.689 135.321 195.756C135.321 192.835 134.298 191.409 132.699 191.409C131.089 191.409 130.066 192.824 130.066 195.756C130.066 198.689 131.089 200.15 132.699 200.15ZM132.699 199.31C131.733 199.31 131.089 198.24 131.089 195.756C131.089 193.295 131.733 192.249 132.699 192.249C133.654 192.249 134.298 193.295 134.298 195.756C134.298 198.24 133.654 199.31 132.699 199.31ZM137.376 194.146C137.376 192.996 137.997 192.237 138.802 192.237C139.883 192.237 140.527 193.157 140.642 194.894C140.102 195.687 139.458 196.021 138.883 196.021C137.882 196.021 137.376 195.285 137.376 194.146ZM138.572 200.15C140.159 200.15 141.631 198.838 141.631 195.423C141.631 192.743 140.424 191.409 138.802 191.409C137.491 191.409 136.387 192.513 136.387 194.146C136.387 195.894 137.307 196.803 138.71 196.803C139.412 196.803 140.136 196.4 140.654 195.768C140.573 198.378 139.63 199.275 138.538 199.275C137.997 199.275 137.48 199.034 137.135 198.631L136.548 199.287C137.02 199.781 137.664 200.15 138.572 200.15ZM142.789 197.182H145.733V196.377H142.789V197.182ZM146.753 200H152.055V199.091H149.72C149.295 199.091 148.777 199.137 148.34 199.172C150.318 197.297 151.641 195.584 151.641 193.905C151.641 192.398 150.698 191.409 149.191 191.409C148.122 191.409 147.397 191.904 146.707 192.651L147.317 193.249C147.777 192.697 148.375 192.272 149.065 192.272C150.111 192.272 150.617 192.973 150.617 193.939C150.617 195.388 149.398 197.067 146.753 199.379V200ZM155.823 200.15C157.421 200.15 158.445 198.689 158.445 195.756C158.445 192.835 157.421 191.409 155.823 191.409C154.213 191.409 153.189 192.824 153.189 195.756C153.189 198.689 154.213 200.15 155.823 200.15ZM155.823 199.31C154.857 199.31 154.213 198.24 154.213 195.756C154.213 193.295 154.857 192.249 155.823 192.249C156.777 192.249 157.421 193.295 157.421 195.756C157.421 198.24 156.777 199.31 155.823 199.31Z" fill="#121212"/>
<rect x="24" y="18" width="66" height="23" rx="2" fill="#0032A0"/>
<path d="M44.668 27.32H46.936V26.036H40.804V27.32H43.072V27.704C43.072 29.756 42.196 31.88 40.348 32.744L41.284 33.992C42.556 33.356 43.42 32.132 43.888 30.644C44.368 32.024 45.22 33.164 46.468 33.776L47.38 32.528C45.544 31.688 44.668 29.648 44.668 27.704V27.32ZM48.208 24.968V28.832H46.264V30.116H48.208V36.056H49.792V24.968H48.208ZM58.1551 30.032C56.4151 29.468 55.6591 28.16 55.6231 26.888H57.7831V25.628L51.8071 25.628V26.888L54.0031 26.888C53.9671 28.256 53.1871 29.636 51.3871 30.224L52.2151 31.46C53.4871 31.04 54.3511 30.188 54.8431 29.12C55.3231 30.092 56.1511 30.872 57.3511 31.256L58.1551 30.032ZM52.8751 33.392H58.6711V36.044H60.2551V32.132H52.8751V33.392ZM61.7191 27.644H60.2551V24.98H58.6711V31.64H60.2551V28.952H61.7191V27.644ZM68.2581 30.872V32.096H70.3941V33.296H71.9781V24.98L70.3941 24.98V30.872H68.2581ZM65.6061 34.58V32.624H66.9861V30.248C67.9101 30.164 68.8341 30.068 69.7341 29.9L69.6261 28.784C69.2901 28.832 68.9421 28.88 68.5941 28.916C68.7861 27.524 68.7861 26.504 68.7861 25.916V25.532H63.5181V26.792H67.2141C67.1901 27.368 67.1301 28.112 66.9981 29.036C65.3901 29.132 63.8061 29.144 62.5101 29.144L62.7021 30.404C63.5181 30.404 64.4421 30.392 65.4141 30.344V32.468H64.0221V35.84L72.2181 35.84V34.58L65.6061 34.58Z" fill="white"/>
</svg>
