<svg width="309" height="233" viewBox="0 0 309 233" fill="none" xmlns="http://www.w3.org/2000/svg">
<rect x="0.5" y="0.5" width="308" height="232" rx="9.5" fill="#FAFAFA" stroke="#E0E0E0"/>
<rect x="23.9995" y="18" width="65" height="23" rx="2" fill="#0032A0"/>
<path d="M44.6675 26.32H46.9355V25.036H40.8035V26.32H43.0715V26.704C43.0715 28.756 42.1955 30.88 40.3475 31.744L41.2835 32.992C42.5555 32.356 43.4195 31.132 43.8875 29.644C44.3675 31.024 45.2195 32.164 46.4675 32.776L47.3795 31.528C45.5435 30.688 44.6675 28.648 44.6675 26.704V26.32ZM48.2075 23.968V27.832H46.2635V29.116H48.2075V35.056H49.7915V23.968H48.2075ZM58.1546 29.032C56.4146 28.468 55.6586 27.16 55.6226 25.888H57.7826V24.628L51.8066 24.628V25.888L54.0026 25.888C53.9666 27.256 53.1866 28.636 51.3866 29.224L52.2146 30.46C53.4866 30.04 54.3506 29.188 54.8426 28.12C55.3226 29.092 56.1506 29.872 57.3506 30.256L58.1546 29.032ZM52.8746 32.392H58.6706V35.044H60.2546V31.132L52.8746 31.132V32.392ZM61.7186 26.644H60.2546V23.98H58.6706V30.64H60.2546V27.952H61.7186V26.644ZM68.2576 29.872V31.096H70.3936V32.296H71.9776V23.98L70.3936 23.98V29.872H68.2576ZM65.6056 33.58V31.624H66.9856V29.248C67.9096 29.164 68.8336 29.068 69.7336 28.9L69.6256 27.784C69.2896 27.832 68.9416 27.88 68.5936 27.916C68.7856 26.524 68.7856 25.504 68.7856 24.916V24.532H63.5176V25.792H67.2136C67.1896 26.368 67.1296 27.112 66.9976 28.036C65.3896 28.132 63.8056 28.144 62.5096 28.144L62.7016 29.404C63.5176 29.404 64.4416 29.392 65.4136 29.344V31.468H64.0216V34.84L72.2176 34.84V33.58L65.6056 33.58Z" fill="white"/>
<path d="M30.002 64.1915H32.44V63.674H26.966V64.1915H29.3925V65.8705C29.3925 67.63 27.9435 69.562 26.6095 70.229L26.989 70.712C28.1045 70.1025 29.2545 68.711 29.7145 67.1585C30.1515 68.6075 31.2785 69.9185 32.394 70.505L32.762 70.022C31.428 69.355 30.002 67.515 30.002 65.8705V64.1915ZM34.349 62.593V66.388H31.8995V66.917H34.349V72.8165H34.9585V62.593H34.349ZM43.0651 67.768C41.6506 67.262 40.5006 66.0085 40.5006 64.5595V63.8925H42.9156V63.375H37.4761V63.8925H39.9026V64.571C39.9026 66.135 38.6836 67.4575 37.2576 67.9865L37.5796 68.4695C38.7756 68.0095 39.7876 67.0435 40.2131 65.79C40.6386 66.9285 41.5931 67.8255 42.7431 68.2625L43.0651 67.768ZM38.5686 69.8495H44.4911V72.7935H45.1006V69.332H38.5686V69.8495ZM46.6991 65.399H45.1006V62.593H44.4911V68.734H45.1006V65.928H46.6991V65.399ZM55.2312 65.491H49.6307V63.444L55.2312 63.444V65.491ZM55.8292 62.9495L49.0442 62.9495V65.997H55.8292V62.9495ZM57.0367 67.561V67.055H47.8022V67.561H52.1147V68.7685H48.9637V69.263H55.2197V70.4015H48.9867V72.6555H56.1512V72.1495H49.5847V70.873H55.8177V68.7685H52.7242V67.561H57.0367ZM63.7826 64.3985H65.8181V63.881H61.0801V64.3985H63.1961V65.583C63.1961 67.5265 62.2186 69.401 60.8501 70.2175L61.2526 70.6775C62.3106 70.022 63.1386 68.711 63.4951 67.2045C63.8516 68.6075 64.6451 69.8035 65.6801 70.436L66.0711 69.976C64.7256 69.2055 63.7826 67.3885 63.7826 65.583V64.3985ZM66.9106 66.3535H65.0131V66.8825H66.9106V72.2415H67.4971V62.869H66.9106V66.3535ZM68.9576 62.593V72.805H69.5556V62.593H68.9576ZM80.2152 64.226H76.4432V62.7885H75.8337V64.226L72.0157 64.226V64.7435L80.2152 64.7435V64.226ZM73.4762 67.4805C73.4762 66.618 74.5227 66.0775 76.1327 66.0775C77.7427 66.0775 78.7892 66.618 78.7892 67.4805C78.7892 68.3545 77.7427 68.9065 76.1327 68.9065C74.5227 68.9065 73.4762 68.3545 73.4762 67.4805ZM76.4432 70.988V69.3895C78.2717 69.3205 79.3987 68.6305 79.3987 67.4805C79.3987 66.273 78.1452 65.5715 76.1327 65.5715C74.1202 65.5715 72.8667 66.273 72.8667 67.4805C72.8667 68.6305 73.9937 69.3205 75.8337 69.401V70.988L71.5212 70.988V71.5055L80.7787 71.5055V70.988H76.4432Z" fill="#121212"/>
<path d="M105.909 64.5595H108.819V63.789H104.978V70.3095H105.656C107.197 70.3095 108.244 70.2635 109.474 69.999L109.394 69.217C108.267 69.4585 107.289 69.516 105.909 69.5275V64.5595ZM112.464 62.5355V66.6755H111.004V62.7655H110.118V72.3335H111.004V67.446H112.464V72.851H113.373V62.5355H112.464ZM116.051 66.7445C117.742 66.5375 119.294 65.7785 119.858 64.64C120.433 65.7785 121.974 66.5375 123.664 66.7445L123.998 65.997C122.192 65.79 120.548 64.9045 120.467 63.766H123.676V63.007H116.051V63.766H119.248C119.168 64.9045 117.523 65.79 115.718 65.997L116.051 66.7445ZM122.422 71.0225C122.422 71.7125 121.456 72.115 119.846 72.115C118.225 72.115 117.27 71.7125 117.27 71.0225C117.27 70.3325 118.225 69.9415 119.846 69.9415C121.456 69.9415 122.422 70.3325 122.422 71.0225ZM124.515 68.1245V67.3655H115.189V68.1245H119.375V69.2285C117.454 69.3205 116.316 69.953 116.316 71.0225C116.316 72.1955 117.65 72.8395 119.858 72.8395C122.054 72.8395 123.377 72.1955 123.377 71.0225C123.377 69.953 122.25 69.3205 120.329 69.2285V68.1245H124.515ZM133.059 64.709C133.059 65.9855 133.059 67.3425 132.702 69.1825L133.634 69.2975C134.002 67.3655 134.002 66.02 134.002 64.709V63.5705L126.734 63.5705V64.341H133.059V64.709ZM131.541 70.6315V67.216H130.609V70.6315H128.988V67.216H128.056V70.6315H125.768V71.402H135.094V70.6315H131.541ZM141.004 72.1265C139.348 72.1265 138.417 71.8045 138.417 71.1835C138.417 70.574 139.348 70.2405 141.004 70.2405C142.672 70.2405 143.592 70.574 143.592 71.1835C143.592 71.8045 142.672 72.1265 141.004 72.1265ZM141.004 69.539C138.762 69.539 137.474 70.114 137.474 71.1835C137.474 72.2645 138.762 72.8395 141.004 72.8395C143.247 72.8395 144.535 72.2645 144.535 71.1835C144.535 70.114 143.247 69.539 141.004 69.539ZM141.476 67.998V66.986H144.581V66.25H138.509V65.238H144.247V64.525H138.509V63.5705H144.523V62.8345H137.566V66.986H140.533V67.998H136.335V68.757H145.673V67.998H141.476ZM154.972 65.3875V66.158H157.042V70.1025H157.996V62.547H157.042V65.3875H154.972ZM155.581 67.814C154.086 67.285 153.074 65.997 153.074 64.6515V64.1455H155.34V63.375H149.831V64.1455L152.131 64.1455V64.663C152.131 66.1235 151.062 67.492 149.532 68.044L150.027 68.78C151.234 68.343 152.177 67.3885 152.626 66.2155C153.074 67.2735 153.96 68.136 155.11 68.55L155.581 67.814ZM152.35 71.8505V69.4355H151.395V72.621L158.284 72.621V71.8505L152.35 71.8505ZM162.791 69.746H167.655V71.954H162.791V69.746ZM161.871 72.713H168.575V68.9985H161.871V72.713ZM165.413 66.3305C165.493 66.089 165.539 65.836 165.539 65.5485C165.539 65.2725 165.493 65.0195 165.413 64.778H167.621V66.3305H165.413ZM162.894 67.2045C161.882 67.2045 161.135 66.5145 161.135 65.5485C161.135 64.6055 161.882 63.927 162.894 63.927C163.906 63.927 164.642 64.6055 164.642 65.5485C164.642 66.5145 163.906 67.2045 162.894 67.2045ZM167.621 62.547V64.0075H164.987C164.516 63.467 163.757 63.1335 162.894 63.1335C161.365 63.1335 160.238 64.134 160.238 65.5485C160.238 66.986 161.365 67.998 162.894 67.998C163.768 67.998 164.516 67.653 164.999 67.0895H167.621V68.4695H168.575V62.5355L167.621 62.547ZM178.2 64.985V66.3305H175.819V64.985H178.2ZM174.888 67.262H172.105V65.5715H174.888V67.262ZM175.819 67.101H178.2V68.7915H179.154V62.547H178.2V64.226H175.819V63.1795H174.888V64.824H172.105V63.1795H171.173V68.021H175.819V67.101ZM175.739 72.1035C174.198 72.1035 173.255 71.6665 173.255 70.919C173.255 70.1715 174.198 69.723 175.739 69.723C177.303 69.723 178.246 70.1715 178.246 70.919C178.246 71.6665 177.303 72.1035 175.739 72.1035ZM175.739 68.9985C173.623 68.9985 172.312 69.7 172.312 70.919C172.312 72.138 173.623 72.8395 175.739 72.8395C177.866 72.8395 179.189 72.138 179.189 70.919C179.189 69.7 177.866 68.9985 175.739 68.9985ZM184.922 65.8015C184.922 64.7895 185.681 64.0765 186.693 64.0765C187.705 64.0765 188.464 64.7895 188.464 65.8015C188.464 66.8135 187.705 67.5265 186.693 67.5265C185.681 67.5265 184.922 66.8135 184.922 65.8015ZM189.384 65.8015C189.384 64.3065 188.234 63.26 186.693 63.26C185.152 63.26 184.002 64.3065 184.002 65.8015C184.002 67.2965 185.152 68.343 186.693 68.343C188.234 68.343 189.384 67.2965 189.384 65.8015ZM186.337 69.355H185.394V72.621H192.271V71.8505H186.337V69.355ZM191.811 65.675V62.5355H190.868V70.1255H191.811V66.457H193.329V65.675H191.811ZM199.86 65.3875V66.158H201.93V70.1025H202.884V62.547H201.93V65.3875H199.86ZM200.469 67.814C198.974 67.285 197.962 65.997 197.962 64.6515V64.1455H200.228V63.375H194.719V64.1455H197.019V64.663C197.019 66.1235 195.95 67.492 194.42 68.044L194.915 68.78C196.122 68.343 197.065 67.3885 197.514 66.2155C197.962 67.2735 198.848 68.136 199.998 68.55L200.469 67.814ZM197.238 71.8505V69.4355H196.283V72.621H203.172V71.8505H197.238ZM212.509 65.2035V66.5835H209.806V67.354H212.509V68.711H213.463V62.547H212.509V64.433H210.174C210.243 64.0765 210.289 63.697 210.289 63.3175H205.632V64.0765H209.266C209.093 65.859 207.564 67.2275 205.103 67.9635L205.482 68.711C207.702 68.067 209.266 66.8595 209.933 65.2035H212.509ZM210.094 72.069C208.576 72.069 207.61 71.5975 207.61 70.8155C207.61 70.045 208.576 69.5735 210.094 69.5735C211.612 69.5735 212.578 70.045 212.578 70.8155C212.578 71.5975 211.612 72.069 210.094 72.069ZM210.094 68.826C208.012 68.826 206.678 69.5735 206.678 70.8155C206.678 72.0575 208.012 72.805 210.094 72.805C212.175 72.805 213.509 72.0575 213.509 70.8155C213.509 69.5735 212.175 68.826 210.094 68.826ZM220.685 70.804V68.8605H223.985V68.1015H217.637V66.434H223.744V63.2945L216.683 63.2945V64.065H222.824V65.675H216.706V68.8605H219.73V70.804H215.533V71.5745H224.905V70.804H220.685ZM234.548 67.055C233.214 67.285 232.087 67.3425 230.109 67.3425V65.974H233.697V65.2265H230.109V63.9385H233.881V63.1795H229.166V68.1015H229.948C232.064 68.1015 233.249 68.0555 234.652 67.8025L234.548 67.055ZM231.144 69.8955H235.767V71.954H231.144V69.8955ZM230.224 72.713L236.699 72.713V69.148L230.224 69.148V72.713ZM238.228 65.1H236.699V62.547H235.756V68.6075H236.699V65.882H238.228V65.1ZM244.438 67.423C243.104 66.894 242.345 65.698 242.345 64.5365V63.145H241.436V64.5365C241.436 65.7095 240.631 67.0665 239.286 67.676L239.792 68.4005C240.792 67.952 241.528 67.078 241.896 66.1005C242.264 66.986 242.977 67.745 243.932 68.136L244.438 67.423ZM241.045 70.1025H247.037V72.851H247.98V69.3435H241.045V70.1025ZM247.071 62.547V65.2265H245.76V62.7195H244.863V68.711H245.76V65.997H247.071V68.78H247.98V62.547H247.071ZM256.082 63.4325L255.15 63.4325V65.284C255.15 67.239 253.897 69.217 252.379 69.9415L252.954 70.712C254.161 70.091 255.15 68.803 255.622 67.2505C256.116 68.7225 257.105 69.9415 258.278 70.5165L258.842 69.7575C257.312 69.0675 256.082 67.17 256.082 65.284V63.4325ZM259.923 62.5355V72.874H260.866V62.5355H259.923ZM271.894 67.722C270.088 67.377 268.133 65.813 268.133 64.0535V63.26H267.144V64.0535C267.144 65.813 265.201 67.3655 263.395 67.722L263.821 68.504C265.373 68.136 266.983 67.032 267.639 65.5255C268.294 67.0435 269.904 68.1475 271.468 68.504L271.894 67.722ZM263.004 70.689V71.471H272.354V70.689H263.004ZM279.391 68.642H280.288V62.708H279.391V65.1345H278.022V65.8935H279.391V68.642ZM278.425 67.0895C277.355 67.308 276.424 67.3655 274.963 67.3655V65.974H277.551V65.238H274.963V63.9615H277.953V63.2025H274.055V68.1245H274.71C276.355 68.1245 277.332 68.0785 278.505 67.8485L278.425 67.0895ZM276.435 69.9875H281.369V71.954H276.435V69.9875ZM275.515 72.713H282.289V69.24H275.515V72.713ZM281.38 62.5355V68.7455H282.289V62.5355H281.38Z" fill="#121212"/>
<path d="M30.002 86.1915H32.44V85.674H26.966V86.1915H29.3925V87.8705C29.3925 89.63 27.9435 91.562 26.6095 92.229L26.989 92.712C28.1045 92.1025 29.2545 90.711 29.7145 89.1585C30.1515 90.6075 31.2785 91.9185 32.394 92.505L32.762 92.022C31.428 91.355 30.002 89.515 30.002 87.8705V86.1915ZM34.349 84.593V88.388H31.8995V88.917H34.349V94.8165H34.9585V84.593H34.349ZM43.0651 89.768C41.6506 89.262 40.5006 88.0085 40.5006 86.5595V85.8925H42.9156V85.375H37.4761V85.8925H39.9026V86.571C39.9026 88.135 38.6836 89.4575 37.2576 89.9865L37.5796 90.4695C38.7756 90.0095 39.7876 89.0435 40.2131 87.79C40.6386 88.9285 41.5931 89.8255 42.7431 90.2625L43.0651 89.768ZM38.5686 91.8495H44.4911V94.7935H45.1006V91.332H38.5686V91.8495ZM46.6991 87.399H45.1006V84.593H44.4911V90.734H45.1006V87.928H46.6991V87.399ZM55.2312 87.491H49.6307V85.444H55.2312V87.491ZM55.8292 84.9495H49.0442V87.997H55.8292V84.9495ZM57.0367 89.561V89.055H47.8022V89.561H52.1147V90.7685H48.9637V91.263H55.2197V92.4015H48.9867V94.6555H56.1512V94.1495H49.5847V92.873H55.8177V90.7685H52.7242V89.561H57.0367ZM61.7471 88.664C63.2536 88.457 65.0016 87.7095 65.5536 86.502C66.1171 87.7095 67.8766 88.457 69.3716 88.664L69.5901 88.1695C68.0031 87.974 65.9216 87.0655 65.9216 85.697V85.5935H69.3371V85.0875H61.7931V85.5935H65.2086V85.697C65.2086 87.0655 63.1156 87.974 61.5171 88.1695L61.7471 88.664ZM65.5651 94.276C63.7941 94.276 62.6901 93.816 62.6901 93.034C62.6901 92.275 63.7941 91.8035 65.5651 91.8035C67.3131 91.8035 68.4171 92.275 68.4171 93.034C68.4171 93.816 67.3131 94.276 65.5651 94.276ZM65.5651 91.309C63.3801 91.309 62.0806 91.9415 62.0806 93.034C62.0806 94.1495 63.3801 94.7705 65.5651 94.7705C67.7271 94.7705 69.0266 94.1495 69.0266 93.034C69.0266 91.9415 67.7271 91.309 65.5651 91.309ZM65.8526 89.791V88.1925H65.2431V89.791H60.9306V90.3085H70.1651V89.791H65.8526ZM79.0192 86.9505L72.6712 86.9505V89.492L79.8357 89.492V88.986L73.2807 88.986V87.4335H79.6172V85.03L72.6367 85.03V85.5475L79.0192 85.5475V86.9505ZM80.7787 90.734L71.4982 90.734V91.2515H74.0742V94.805H74.6837V91.2515L77.5817 91.2515V94.805H78.1912V91.2515H80.7787V90.734Z" fill="#121212"/>
<path d="M105.346 85.1335V85.8925H108.934C108.899 86.295 108.819 86.663 108.681 87.0195L104.828 87.192L104.989 87.9625L108.301 87.7095C107.68 88.6525 106.565 89.3885 104.897 89.8945L105.254 90.642C108.462 89.6645 109.923 87.7555 109.923 85.1335H105.346ZM107.37 91.792H112.177V93.954H107.37V91.792ZM106.438 94.713H113.108V91.0445H106.438V94.713ZM112.154 84.547V87.261H109.9V88.043H112.154V90.4925H113.108V84.547H112.154ZM121.134 88.6525H118.57V85.881H121.134V88.6525ZM117.627 88.6525H116.109V89.423H123.595V88.6525H122.077V85.881H123.63V85.1105H116.074V85.881H117.627V88.6525ZM124.527 90.6075H115.177V91.378H117.615V94.851H118.558V91.378H121.18V94.851H122.123V91.378H124.527V90.6075ZM127.182 89.1355H130.563V88.3765H127.182V86.249H131.012V85.467H126.239V92.3785H127.033C128.999 92.3785 130.253 92.321 131.748 92.0565L131.644 91.286C130.241 91.539 129.045 91.608 127.182 91.608V89.1355ZM133.323 84.524V88.4225H131.196V89.2045H133.323V94.8625H134.266V84.524H133.323ZM142.281 89.9175H139.716V86.3295H142.281V89.9175ZM138.773 89.9175H137.198V90.688H144.799V89.9175H143.224V86.3295H144.822V85.5705H137.175V86.3295H138.773V89.9175ZM136.347 92.7465V93.5285H145.696V92.7465H136.347ZM152.066 92.804V90.8605L155.367 90.8605V90.1015L149.019 90.1015V88.434L155.125 88.434V85.2945L148.064 85.2945V86.065L154.205 86.065V87.675L148.087 87.675V90.8605H151.112V92.804H146.914V93.5745L156.287 93.5745V92.804L152.066 92.804ZM164.658 86.663C164.658 87.9395 164.658 89.4805 164.244 91.585L165.187 91.6885C165.59 89.4575 165.59 87.974 165.59 86.663V85.628H158.517V86.3985H164.658V86.663ZM157.517 92.5625V93.3445H166.843V92.5625H157.517ZM173.018 89.1815C171.81 89.423 170.798 89.4805 169.464 89.4805V88.02H172.408V85.214H168.533V85.973H171.5V87.307H168.556V90.2395H169.234C170.718 90.2395 171.799 90.182 173.11 89.9405L173.018 89.1815ZM170.936 91.9415H175.87V93.954H170.936V91.9415ZM170.016 94.713H176.79V91.194H170.016V94.713ZM175.881 84.5355V87.1575H174.501V84.731H173.604V90.5615H174.501V87.928H175.881V90.6995H176.79V84.5355H175.881ZM182.228 86.364H184.574V85.5935H178.951V86.364H181.285V87.56C181.285 89.3885 180.055 91.3435 178.583 92.068L179.135 92.8155C180.308 92.1945 181.308 90.872 181.757 89.354C182.228 90.78 183.217 92.0105 184.367 92.597L184.931 91.861C183.436 91.148 182.228 89.2735 182.228 87.56V86.364ZM186.219 84.5355V88.2845H183.988V89.055H186.219V94.8625H187.162V84.5355H186.219ZM195.234 89.584C193.716 89.0665 192.727 87.79 192.727 86.4215V86.019H195.004V85.26H189.472V86.019H191.784V86.433C191.784 87.905 190.749 89.239 189.196 89.7795L189.691 90.527C190.898 90.0785 191.83 89.17 192.267 88.02C192.715 89.078 193.601 89.9175 194.751 90.32L195.234 89.584ZM190.53 92.068H196.303V94.8625H197.246V91.309H190.53V92.068ZM198.776 87.2495H197.246V84.547H196.303V90.757H197.246V88.0315H198.776V87.2495ZM207.009 87.2725H201.949V85.628H207.009V87.2725ZM207.94 84.8805H201.029V88.02H207.94V84.8805ZM209.148 89.6415V88.8825H199.81V89.6415H204.007V90.6535H200.937V91.3665H207.02V92.2865H200.971V94.736H208.262V94H201.891V92.9765H207.952V90.6535H204.95V89.6415H209.148ZM210.228 92.321L215.737 90.159V89.308L210.228 87.146V88.066L212.942 89.0665L214.667 89.7105V89.7565L212.942 90.4005L210.228 91.401V92.321ZM216.779 89.5495V90.3085H226.094V89.5495H216.779ZM221.437 91.171C219.24 91.171 217.906 91.8265 217.906 93.011C217.906 94.184 219.24 94.851 221.437 94.851C223.645 94.851 224.967 94.184 224.967 93.011C224.967 91.8265 223.645 91.171 221.437 91.171ZM221.437 91.8955C223.058 91.8955 224.013 92.3095 224.013 93.011C224.013 93.7125 223.058 94.115 221.437 94.115C219.815 94.115 218.861 93.7125 218.861 93.011C218.861 92.3095 219.815 91.8955 221.437 91.8955ZM221.437 84.8C219.217 84.8 217.814 85.5245 217.814 86.7665C217.814 87.997 219.217 88.7215 221.437 88.7215C223.668 88.7215 225.059 87.997 225.059 86.7665C225.059 85.5245 223.668 84.8 221.437 84.8ZM221.437 85.536C223.07 85.536 224.093 85.996 224.093 86.7665C224.093 87.5255 223.07 87.9855 221.437 87.9855C219.804 87.9855 218.78 87.5255 218.78 86.7665C218.78 85.996 219.804 85.536 221.437 85.536ZM232.016 94.115C230.395 94.115 229.44 93.7125 229.44 93.011C229.44 92.3095 230.395 91.907 232.016 91.907C233.626 91.907 234.592 92.3095 234.592 93.011C234.592 93.7125 233.626 94.115 232.016 94.115ZM232.016 91.171C229.808 91.171 228.486 91.8265 228.486 93.011C228.486 94.1955 229.808 94.8395 232.016 94.8395C234.236 94.8395 235.547 94.1955 235.547 93.011C235.547 91.8265 234.236 91.171 232.016 91.171ZM230.59 88.434C231.016 88.503 231.499 88.549 232.016 88.549C232.545 88.549 233.028 88.503 233.454 88.434V89.6415L230.59 89.6415V88.434ZM229.36 86.64C229.36 85.8925 230.372 85.4555 232.016 85.4555C233.661 85.4555 234.673 85.8925 234.673 86.64C234.673 87.376 233.661 87.8245 232.016 87.8245C230.372 87.8245 229.36 87.376 229.36 86.64ZM234.385 89.6415V88.181C235.179 87.859 235.639 87.33 235.639 86.64C235.639 85.4325 234.259 84.7195 232.016 84.7195C229.785 84.7195 228.394 85.4325 228.394 86.64C228.394 87.3415 228.842 87.859 229.659 88.1925V89.6415H227.347V90.4005L236.685 90.4005V89.6415H234.385ZM243.872 89.9175H241.307V86.3295H243.872V89.9175ZM240.364 89.9175H238.789V90.688H246.39V89.9175H244.815V86.3295H246.413V85.5705H238.766V86.3295H240.364V89.9175ZM237.938 92.7465V93.5285H247.287V92.7465H237.938ZM253.657 92.804V90.8605H256.958V90.1015H250.61V88.434H256.716V85.2945H249.655V86.065H255.796V87.675H249.678V90.8605H252.703V92.804H248.505V93.5745H257.878V92.804H253.657ZM266.249 86.663C266.249 87.9395 266.249 89.4805 265.835 91.585L266.778 91.6885C267.18 89.4575 267.18 87.974 267.18 86.663V85.628H260.108V86.3985H266.249V86.663ZM259.107 92.5625V93.3445H268.434V92.5625H259.107ZM274.608 89.1815C273.401 89.423 272.389 89.4805 271.055 89.4805V88.02H273.999V85.214H270.123V85.973H273.09V87.307H270.146V90.2395H270.825C272.308 90.2395 273.389 90.182 274.7 89.9405L274.608 89.1815ZM272.527 91.9415H277.46V93.954H272.527V91.9415ZM271.607 94.713H278.38V91.194H271.607V94.713ZM277.472 84.5355V87.1575H276.092V84.731H275.195V90.5615H276.092V87.928H277.472V90.6995H278.38V84.5355H277.472ZM104.437 109.321L109.946 107.159V106.308L104.437 104.146V105.066L107.151 106.066L108.876 106.71V106.756L107.151 107.4L104.437 108.401V109.321ZM116.37 107.32C116.658 105.399 116.658 104.054 116.658 103.226V102.662H111.448V103.433H115.738C115.738 104.261 115.715 105.514 115.427 107.228L116.37 107.32ZM114.001 105.606H113.07V108.78C112.299 108.803 111.54 108.815 110.885 108.815L110.988 109.597C112.817 109.597 115.243 109.551 117.382 109.206L117.325 108.516C116.278 108.642 115.128 108.711 114.001 108.757V105.606ZM120.545 105.848H118.9V101.535H117.957V111.851H118.9V106.641H120.545V105.848ZM127.686 102.628H125.11V101.478H124.167V102.628H121.602V103.387H127.686V102.628ZM123.074 105.779C123.074 105.1 123.695 104.652 124.638 104.652C125.581 104.652 126.214 105.1 126.214 105.779C126.214 106.469 125.581 106.917 124.638 106.917C123.695 106.917 123.074 106.469 123.074 105.779ZM127.111 105.779C127.111 104.652 126.11 103.916 124.638 103.916C123.178 103.916 122.177 104.652 122.177 105.779C122.177 106.917 123.178 107.642 124.638 107.642C126.11 107.642 127.111 106.917 127.111 105.779ZM122.879 109.321H128.629V111.863H129.572V108.55H122.879V109.321ZM131.101 104.387H129.572V101.547H128.629V107.987H129.572V105.169H131.101V104.387ZM132.756 102.651V103.41H136.632C136.436 105.859 135.056 107.837 132.285 109.16L132.791 109.93C136.218 108.251 137.586 105.629 137.586 102.651H132.756ZM139.668 101.535V111.851H140.611V101.535H139.668ZM151.546 104.445C149.672 104.238 147.878 103.226 147.878 101.972V101.581H146.912V101.972C146.912 103.226 145.095 104.238 143.22 104.445L143.542 105.158C145.187 104.951 146.739 104.226 147.395 103.122C148.039 104.226 149.591 104.951 151.224 105.158L151.546 104.445ZM152.052 106.595V105.836H142.714V106.595H146.912V107.619H143.841V108.343H149.925V109.286H143.876V111.736H151.167V111H144.796V109.976H150.856V107.619H147.855V106.595H152.052Z" fill="#121212"/>
<path d="M34.3605 133.127H29.1855V131.631H34.3605V133.127ZM34.3605 131.125H29.1855V129.699H28.576L28.576 133.644H34.9585V129.699H34.3605V131.125ZM31.083 128.216H27.817V126.341H31.083V128.216ZM34.3605 123.581V126.203H31.681V124.11H31.083V125.847H27.817V124.11H27.2075V128.733H31.681V126.721H34.3605V129.17H34.97V123.581H34.3605ZM45.5376 123.604H44.9281V131.137H45.5376V123.604ZM38.1086 126.801C38.1086 125.709 38.9711 124.881 40.1096 124.881C41.2481 124.881 42.1106 125.709 42.1106 126.801C42.1106 127.905 41.2481 128.745 40.1096 128.745C38.9711 128.745 38.1086 127.905 38.1086 126.801ZM42.6971 126.801C42.6971 125.352 41.6046 124.34 40.1096 124.34C38.6146 124.34 37.5221 125.352 37.5221 126.801C37.5221 128.262 38.6146 129.285 40.1096 129.285C41.6046 129.285 42.6971 128.262 42.6971 126.801ZM39.7301 133.035V130.343H39.1206V133.552H45.8826V133.035H39.7301ZM52.2757 128.331H48.9062V124.892H52.2757V128.331ZM55.5187 125.858V127.365H52.8737V125.858H55.5187ZM52.8737 127.882H55.5187V129.665H56.1282V123.593H55.5187V125.341H52.8737V124.386H48.3197V128.837H52.8737V127.882ZM52.8277 133.276C51.1602 133.276 50.0907 132.747 50.0907 131.884C50.0907 131.033 51.1602 130.493 52.8277 130.493C54.4952 130.493 55.5762 131.033 55.5762 131.884C55.5762 132.747 54.4952 133.276 52.8277 133.276ZM52.8277 129.998C50.7577 129.998 49.4812 130.677 49.4812 131.884C49.4812 133.092 50.7577 133.771 52.8277 133.771C54.8977 133.771 56.1742 133.092 56.1742 131.884C56.1742 130.677 54.8977 129.998 52.8277 129.998Z" fill="#121212"/>
<path d="M108.221 124.421H107.278V126.272C107.278 128.181 106.105 130.171 104.61 130.918L105.185 131.666C106.346 131.045 107.301 129.745 107.749 128.216C108.221 129.665 109.164 130.895 110.336 131.482L110.889 130.734C109.394 130.021 108.221 128.147 108.221 126.272V124.421ZM112.165 123.535V127.031H109.773V127.802H112.165V133.863H113.108V123.535H112.165ZM119.846 124.363C121.537 124.363 122.503 124.754 122.503 125.444C122.503 126.134 121.537 126.525 119.846 126.525C118.156 126.525 117.19 126.134 117.19 125.444C117.19 124.754 118.156 124.363 119.846 124.363ZM119.846 127.227C122.123 127.227 123.469 126.606 123.469 125.444C123.469 124.283 122.123 123.65 119.846 123.65C117.581 123.65 116.224 124.283 116.224 125.444C116.224 126.606 117.581 127.227 119.846 127.227ZM124.504 128.664V127.905H115.189V128.664H119.375V129.63H116.316V130.343H122.388V131.263H116.339V133.736H123.63V133H117.259V131.953H123.319V129.63H120.318V128.664H124.504ZM129.425 124.432H128.493V126.284C128.493 128.239 127.24 130.217 125.722 130.941L126.297 131.712C127.504 131.091 128.493 129.803 128.965 128.25C129.459 129.722 130.448 130.941 131.621 131.516L132.185 130.757C130.655 130.067 129.425 128.17 129.425 126.284V124.432ZM133.266 123.535V133.874H134.209V123.535H133.266ZM142.614 127.894C140.981 128.158 139.636 128.216 137.807 128.216V126.824H141.545V124.041H136.853V124.8H140.613V126.1H136.887V128.986H137.715C139.624 128.986 141.027 128.929 142.718 128.653L142.614 127.894ZM143.879 132.942H139.061V131.677H143.879V132.942ZM143.879 130.941H139.061V129.722H138.129V133.713H144.811V129.722H143.879V130.941ZM143.868 123.547V129.205H144.811V123.547H143.868ZM148.225 125.559L151.135 125.559V124.789L147.294 124.789V131.31H147.972C149.513 131.31 150.56 131.263 151.79 130.999L151.71 130.217C150.583 130.458 149.605 130.516 148.225 130.527V125.559ZM154.78 123.535V127.675L153.32 127.675V123.765H152.434V133.334H153.32V128.446H154.78V133.851H155.689V123.535H154.78ZM163.623 124.628H161.047V123.478H160.104V124.628H157.54V125.387H163.623V124.628ZM159.012 127.779C159.012 127.1 159.633 126.652 160.576 126.652C161.519 126.652 162.151 127.1 162.151 127.779C162.151 128.469 161.519 128.917 160.576 128.917C159.633 128.917 159.012 128.469 159.012 127.779ZM163.048 127.779C163.048 126.652 162.048 125.916 160.576 125.916C159.115 125.916 158.115 126.652 158.115 127.779C158.115 128.917 159.115 129.642 160.576 129.642C162.048 129.642 163.048 128.917 163.048 127.779ZM158.816 131.321H164.566V133.863H165.509V130.55H158.816V131.321ZM167.039 126.387H165.509V123.547H164.566V129.987H165.509V127.169H167.039V126.387ZM175.375 125.709C175.375 126.985 175.375 128.342 175.019 130.182L175.95 130.297C176.318 128.365 176.318 127.02 176.318 125.709V124.57H169.05V125.341H175.375V125.709ZM173.857 131.631V128.216H172.926V131.631H171.304V128.216H170.373V131.631H168.084V132.402H177.411V131.631H173.857ZM187.249 128.722C185.731 128.181 184.708 126.87 184.708 125.456V124.156H183.765V125.433C183.765 127.031 182.764 128.411 181.189 128.975L181.683 129.722C182.914 129.262 183.834 128.319 184.259 127.1C184.719 128.181 185.616 129.044 186.778 129.469L187.249 128.722ZM183.788 130.424H182.845V133.621H189.687V132.85H183.788V130.424ZM189.239 126.698V123.524H188.296V131.148H189.239V127.48H190.757V126.698H189.239ZM197.932 124.628H195.356V123.478H194.413V124.628H191.849V125.387H197.932V124.628ZM193.321 127.779C193.321 127.1 193.942 126.652 194.885 126.652C195.828 126.652 196.46 127.1 196.46 127.779C196.46 128.469 195.828 128.917 194.885 128.917C193.942 128.917 193.321 128.469 193.321 127.779ZM197.357 127.779C197.357 126.652 196.357 125.916 194.885 125.916C193.424 125.916 192.424 126.652 192.424 127.779C192.424 128.917 193.424 129.642 194.885 129.642C196.357 129.642 197.357 128.917 197.357 127.779ZM193.125 131.321L198.875 131.321V133.863H199.818V130.55L193.125 130.55V131.321ZM201.348 126.387H199.818V123.547H198.875V129.987H199.818V127.169H201.348V126.387ZM208.189 124.57H205.82V123.432H204.877V124.57H202.416V125.329H208.189V124.57ZM203.888 127.698C203.888 127.008 204.475 126.56 205.337 126.56C206.2 126.56 206.786 127.008 206.786 127.698C206.786 128.388 206.2 128.837 205.337 128.837C204.475 128.837 203.888 128.388 203.888 127.698ZM207.672 127.698C207.672 126.583 206.706 125.847 205.337 125.847C203.957 125.847 203.003 126.583 203.003 127.698C203.003 128.814 203.957 129.55 205.337 129.55C206.706 129.55 207.672 128.814 207.672 127.698ZM209.96 132.965H205.142V131.873H209.96V132.965ZM209.96 131.148H205.142V130.09H204.21V133.713H210.892V130.09H209.96V131.148ZM209.937 123.547V125.95H208.201V126.709H209.937V127.951H208.189V128.722H209.937V129.63H210.892V123.547H209.937ZM218.423 128.4C217.227 128.595 216.238 128.641 214.329 128.641V127.077H217.825V124.156H213.375V124.927H216.905V126.353H213.409V129.412H214.145C216.204 129.412 217.25 129.377 218.515 129.159L218.423 128.4ZM214.559 131.206H220.516V133.863H221.471V130.435H214.559V131.206ZM220.516 123.547V125.065H218.504V125.835H220.516V127.215H218.504V127.974H220.516V129.883H221.471V123.547H220.516ZM229.52 128.055C228.174 128.319 227.001 128.4 224.966 128.4V125.191H228.588V124.432H224.023V129.17H224.828C226.99 129.17 228.209 129.101 229.623 128.814L229.52 128.055ZM226.081 130.251H225.138V133.621H232.015V132.85H226.081V130.251ZM231.555 126.594V123.535H230.612V130.999H231.555V127.376H233.085V126.594H231.555Z" fill="#121212"/>
<path d="M34.3605 155.127H29.1855V153.631H34.3605V155.127ZM34.3605 153.125H29.1855V151.699H28.576L28.576 155.644H34.9585V151.699H34.3605V153.125ZM31.083 150.216H27.817V148.341H31.083V150.216ZM34.3605 145.581V148.203H31.681V146.11H31.083V147.847H27.817V146.11H27.2075V150.733H31.681V148.721H34.3605V151.17H34.97V145.581H34.3605ZM45.5376 145.604H44.9281V153.137H45.5376V145.604ZM38.1086 148.801C38.1086 147.709 38.9711 146.881 40.1096 146.881C41.2481 146.881 42.1106 147.709 42.1106 148.801C42.1106 149.905 41.2481 150.745 40.1096 150.745C38.9711 150.745 38.1086 149.905 38.1086 148.801ZM42.6971 148.801C42.6971 147.352 41.6046 146.34 40.1096 146.34C38.6146 146.34 37.5221 147.352 37.5221 148.801C37.5221 150.262 38.6146 151.285 40.1096 151.285C41.6046 151.285 42.6971 150.262 42.6971 148.801ZM39.7301 155.035V152.343H39.1206V155.552H45.8826V155.035H39.7301ZM55.9442 148.916H49.5962V146.593H55.8637V146.076H48.9982V149.434H55.9442V148.916ZM52.4252 155.276C50.6772 155.276 49.5617 154.781 49.5617 153.953C49.5617 153.125 50.6772 152.631 52.4252 152.631C54.1732 152.631 55.2887 153.125 55.2887 153.953C55.2887 154.781 54.1732 155.276 52.4252 155.276ZM52.4252 152.136C50.2632 152.136 48.9522 152.792 48.9522 153.953C48.9522 155.127 50.2632 155.771 52.4252 155.771C54.5872 155.771 55.8982 155.127 55.8982 153.953C55.8982 152.792 54.5872 152.136 52.4252 152.136ZM47.8137 150.572V151.09H57.0482V150.572H47.8137ZM59.4163 153.24H65.8678V155.667H66.4773V152.723H59.4163V153.24ZM63.3148 151.297V150.009H66.6498V149.503H60.1983V148.18H66.4198V145.892H59.5773V146.386H65.8218V147.697H59.6003V150.009H62.7053V151.297H58.3698V151.814H67.6503V151.297H63.3148ZM73.3994 150.825H70.1334V148.732H73.3994V150.825ZM73.9974 149.089H76.6769V153.171H77.2864V145.604H76.6769V148.571H73.9974V146.271H73.3994V148.226H70.1334V146.271H69.5239V151.343H73.9974V149.089ZM71.4559 155.035V152.435H70.8464V155.552H77.5394V155.035H71.4559ZM88.245 147.226H84.473V145.788H83.8635V147.226H80.0455V147.743H88.245V147.226ZM81.506 150.48C81.506 149.618 82.5525 149.077 84.1625 149.077C85.7725 149.077 86.819 149.618 86.819 150.48C86.819 151.354 85.7725 151.906 84.1625 151.906C82.5525 151.906 81.506 151.354 81.506 150.48ZM84.473 153.988V152.389C86.3015 152.32 87.4285 151.63 87.4285 150.48C87.4285 149.273 86.175 148.571 84.1625 148.571C82.15 148.571 80.8965 149.273 80.8965 150.48C80.8965 151.63 82.0235 152.32 83.8635 152.401V153.988H79.551V154.505H88.8085V153.988H84.473Z" fill="#121212"/>
<path d="M104.506 155H109.807V154.091H107.473C107.048 154.091 106.53 154.137 106.093 154.172C108.071 152.297 109.394 150.584 109.394 148.905C109.394 147.398 108.451 146.409 106.944 146.409C105.875 146.409 105.15 146.904 104.46 147.651L105.07 148.249C105.53 147.697 106.128 147.272 106.818 147.272C107.864 147.272 108.37 147.973 108.37 148.939C108.37 150.388 107.151 152.067 104.506 154.379V155ZM113.748 150.549C114.772 150.549 115.278 151.274 115.278 152.412C115.278 153.562 114.645 154.333 113.84 154.333C112.782 154.333 112.15 153.378 112.023 151.63C112.541 150.86 113.219 150.549 113.748 150.549ZM113.84 155.15C115.151 155.15 116.255 154.045 116.255 152.412C116.255 150.653 115.347 149.767 113.921 149.767C113.254 149.767 112.518 150.158 112 150.791C112.046 148.169 113.024 147.283 114.174 147.283C114.691 147.283 115.197 147.525 115.531 147.927L116.106 147.272C115.646 146.777 115.013 146.409 114.139 146.409C112.506 146.409 111.023 147.674 111.023 150.975C111.023 153.758 112.219 155.15 113.84 155.15ZM118.08 151.837L120.001 148.962C120.242 148.548 120.472 148.134 120.679 147.72H120.725C120.702 148.157 120.668 148.836 120.668 149.25V151.837H118.08ZM120.668 155H121.657V152.677H122.772V151.837H121.657V146.559H120.495L116.988 151.987V152.677H120.668V155ZM124.149 155H128.772V154.126H127.081V146.559H126.276C125.816 146.835 125.276 147.03 124.528 147.168V147.835H126.023V154.126H124.149V155ZM131.793 155H132.885C133.012 151.699 133.38 149.733 135.358 147.203V146.559H130.079V147.467H134.162C132.517 149.767 131.931 151.803 131.793 155ZM136.907 155H141.53V154.126H139.839V146.559H139.034C138.574 146.835 138.034 147.03 137.286 147.168V147.835H138.781V154.126H136.907V155ZM142.802 152.182H145.746V151.377H142.802V152.182ZM149.457 155.15C151.056 155.15 152.079 153.689 152.079 150.756C152.079 147.835 151.056 146.409 149.457 146.409C147.847 146.409 146.824 147.824 146.824 150.756C146.824 153.689 147.847 155.15 149.457 155.15ZM149.457 154.31C148.491 154.31 147.847 153.24 147.847 150.756C147.847 148.295 148.491 147.249 149.457 147.249C150.412 147.249 151.056 148.295 151.056 150.756C151.056 153.24 150.412 154.31 149.457 154.31ZM155.836 155.15C157.435 155.15 158.458 153.689 158.458 150.756C158.458 147.835 157.435 146.409 155.836 146.409C154.226 146.409 153.203 147.824 153.203 150.756C153.203 153.689 154.226 155.15 155.836 155.15ZM155.836 154.31C154.87 154.31 154.226 153.24 154.226 150.756C154.226 148.295 154.87 147.249 155.836 147.249C156.791 147.249 157.435 148.295 157.435 150.756C157.435 153.24 156.791 154.31 155.836 154.31ZM162.215 155.15C163.814 155.15 164.837 153.689 164.837 150.756C164.837 147.835 163.814 146.409 162.215 146.409C160.605 146.409 159.582 147.824 159.582 150.756C159.582 153.689 160.605 155.15 162.215 155.15ZM162.215 154.31C161.249 154.31 160.605 153.24 160.605 150.756C160.605 148.295 161.249 147.249 162.215 147.249C163.17 147.249 163.814 148.295 163.814 150.756C163.814 153.24 163.17 154.31 162.215 154.31ZM168.766 150.549C169.79 150.549 170.296 151.274 170.296 152.412C170.296 153.562 169.663 154.333 168.858 154.333C167.8 154.333 167.168 153.378 167.041 151.63C167.559 150.86 168.237 150.549 168.766 150.549ZM168.858 155.15C170.169 155.15 171.273 154.045 171.273 152.412C171.273 150.653 170.365 149.767 168.939 149.767C168.272 149.767 167.536 150.158 167.018 150.791C167.064 148.169 168.042 147.283 169.192 147.283C169.709 147.283 170.215 147.525 170.549 147.927L171.124 147.272C170.664 146.777 170.031 146.409 169.157 146.409C167.524 146.409 166.041 147.674 166.041 150.975C166.041 153.758 167.237 155.15 168.858 155.15ZM172.282 155H177.583V154.091H175.249C174.823 154.091 174.306 154.137 173.869 154.172C175.847 152.297 177.169 150.584 177.169 148.905C177.169 147.398 176.226 146.409 174.72 146.409C173.65 146.409 172.926 146.904 172.236 147.651L172.845 148.249C173.305 147.697 173.903 147.272 174.593 147.272C175.64 147.272 176.146 147.973 176.146 148.939C176.146 150.388 174.927 152.067 172.282 154.379V155ZM180.432 155H181.524C181.651 151.699 182.019 149.733 183.997 147.203V146.559H178.718V147.467H182.801C181.156 149.767 180.57 151.803 180.432 155ZM187.57 155.15C189.065 155.15 190.272 154.252 190.272 152.746C190.272 151.596 189.479 150.837 188.49 150.607V150.561C189.375 150.227 189.985 149.549 189.985 148.525C189.985 147.191 188.95 146.409 187.535 146.409C186.558 146.409 185.81 146.835 185.178 147.421L185.741 148.088C186.213 147.605 186.811 147.272 187.489 147.272C188.363 147.272 188.915 147.801 188.915 148.606C188.915 149.514 188.317 150.216 186.581 150.216V151.021C188.524 151.021 189.203 151.699 189.203 152.7C189.203 153.677 188.49 154.275 187.489 154.275C186.535 154.275 185.891 153.827 185.396 153.31L184.867 153.999C185.419 154.597 186.247 155.15 187.57 155.15Z" fill="#121212"/>
<path d="M32.555 172.779C31.152 172.331 29.9675 171.169 29.9675 169.812V169.444H32.371V168.938H29.979V167.524H29.3695V168.938H26.943V169.444H29.3695V169.812C29.3695 171.319 28.162 172.572 26.736 173.055L27.035 173.538C28.231 173.101 29.266 172.181 29.68 170.985C30.117 172.043 31.106 172.871 32.256 173.262L32.555 172.779ZM31.3015 177.276C29.657 177.276 28.6105 176.781 28.6105 175.988C28.6105 175.183 29.657 174.7 31.3015 174.7C32.946 174.7 34.004 175.183 34.004 175.988C34.004 176.781 32.946 177.276 31.3015 177.276ZM31.3015 174.205C29.243 174.205 28.0125 174.838 28.0125 175.988C28.0125 177.127 29.243 177.759 31.3015 177.759C33.36 177.759 34.602 177.127 34.602 175.988C34.602 174.838 33.36 174.205 31.3015 174.205ZM34.5215 170.376V167.593H33.912V173.906H34.5215V170.905H36.12V170.376H34.5215ZM43.0651 172.768C41.6506 172.262 40.5006 171.008 40.5006 169.559V168.892H42.9156V168.375H37.4761V168.892H39.9026V169.571C39.9026 171.135 38.6836 172.457 37.2576 172.986L37.5796 173.469C38.7756 173.009 39.7876 172.043 40.2131 170.79C40.6386 171.928 41.5931 172.825 42.7431 173.262L43.0651 172.768ZM38.5686 174.849H44.4911V177.794H45.1006V174.332H38.5686V174.849ZM46.6991 170.399H45.1006V167.593H44.4911V173.734H45.1006V170.928H46.6991V170.399ZM48.5727 170.767C48.5727 169.663 49.4237 168.812 50.5737 168.812C51.7237 168.812 52.5747 169.663 52.5747 170.767C52.5747 171.894 51.7237 172.745 50.5737 172.745C49.4237 172.745 48.5727 171.894 48.5727 170.767ZM55.5187 169.801V171.721H53.0002C53.1037 171.434 53.1612 171.112 53.1612 170.767C53.1612 170.422 53.0922 170.088 52.9887 169.801H55.5187ZM55.5187 172.239V175.183H56.1282V167.593H55.5187V169.283H52.7127C52.2412 168.662 51.4822 168.271 50.5737 168.271C49.0787 168.271 47.9862 169.295 47.9862 170.767C47.9862 172.25 49.0787 173.274 50.5737 173.274C51.4937 173.274 52.2642 172.883 52.7242 172.239H55.5187ZM50.3552 177.035V174.389H49.7457V177.552H56.4387V177.035H50.3552ZM63.8208 172.526V172.975H65.9943V173.665H66.6038V167.604H65.9943V172.526H63.8208ZM61.6703 168.271C62.8203 168.271 63.5793 168.708 63.5793 169.352C63.5793 169.996 62.8203 170.433 61.6703 170.433C60.5088 170.433 59.7498 169.996 59.7498 169.352C59.7498 168.708 60.5088 168.271 61.6703 168.271ZM61.6703 170.882C63.1768 170.882 64.1658 170.307 64.1658 169.352C64.1658 168.398 63.1768 167.823 61.6703 167.823C60.1523 167.823 59.1748 168.398 59.1748 169.352C59.1748 170.307 60.1523 170.882 61.6703 170.882ZM61.3023 173.711H61.9118V172.02C62.9698 171.963 64.0623 171.882 65.0858 171.721L65.0513 171.296C62.8548 171.56 60.3018 171.583 58.3353 171.583L58.4273 172.089C59.3013 172.089 60.2788 172.078 61.3023 172.043V173.711ZM60.5663 177.173V176.034H66.6038V174.079H59.9453V174.539H66.0058V175.585H59.9798V177.656H67.0178V177.173H60.5663ZM77.2749 167.581H76.6654V172.906H77.2749V167.581ZM69.8574 170.226C69.8574 169.249 70.6969 168.513 71.8354 168.513C72.9739 168.513 73.8134 169.249 73.8134 170.226C73.8134 171.215 72.9739 171.94 71.8354 171.94C70.6969 171.94 69.8574 171.215 69.8574 170.226ZM74.4114 170.226C74.4114 168.904 73.3419 167.995 71.8354 167.995C70.3289 167.995 69.2594 168.904 69.2594 170.226C69.2594 171.549 70.3289 172.446 71.8354 172.446C73.3419 172.446 74.4114 171.549 74.4114 170.226ZM71.4214 177.138V175.723H77.2749V173.458H70.7889V173.964H76.6769V175.24H70.8234V177.644H77.6774V177.138H71.4214Z" fill="#121212"/>
<path d="M104.506 177H109.807V176.091H107.473C107.048 176.091 106.53 176.137 106.093 176.172C108.071 174.297 109.394 172.584 109.394 170.905C109.394 169.398 108.451 168.409 106.944 168.409C105.875 168.409 105.15 168.904 104.46 169.651L105.07 170.249C105.53 169.697 106.128 169.272 106.818 169.272C107.864 169.272 108.37 169.973 108.37 170.939C108.37 172.388 107.151 174.067 104.506 176.379V177ZM113.576 177.15C115.174 177.15 116.198 175.689 116.198 172.756C116.198 169.835 115.174 168.409 113.576 168.409C111.966 168.409 110.942 169.824 110.942 172.756C110.942 175.689 111.966 177.15 113.576 177.15ZM113.576 176.31C112.61 176.31 111.966 175.24 111.966 172.756C111.966 170.295 112.61 169.249 113.576 169.249C114.53 169.249 115.174 170.295 115.174 172.756C115.174 175.24 114.53 176.31 113.576 176.31ZM117.77 177H122.393V176.126H120.702V168.559H119.897C119.437 168.835 118.897 169.03 118.149 169.168V169.835H119.644V176.126H117.77V177ZM126.345 177.15C127.932 177.15 128.99 176.195 128.99 174.964C128.99 173.814 128.3 173.182 127.564 172.756V172.699C128.07 172.308 128.691 171.549 128.691 170.664C128.691 169.364 127.817 168.444 126.38 168.444C125.069 168.444 124.068 169.295 124.068 170.583C124.068 171.468 124.586 172.101 125.207 172.526V172.584C124.436 172.998 123.654 173.78 123.654 174.907C123.654 176.206 124.793 177.15 126.345 177.15ZM126.92 172.423C125.931 172.032 125.023 171.595 125.023 170.583C125.023 169.766 125.586 169.214 126.368 169.214C127.277 169.214 127.794 169.893 127.794 170.721C127.794 171.342 127.495 171.917 126.92 172.423ZM126.368 176.367C125.356 176.367 124.609 175.712 124.609 174.815C124.609 174.01 125.08 173.343 125.759 172.906C126.955 173.389 127.99 173.814 127.99 174.941C127.99 175.781 127.334 176.367 126.368 176.367ZM130.045 174.182H132.989V173.377H130.045V174.182ZM136.699 177.15C138.298 177.15 139.321 175.689 139.321 172.756C139.321 169.835 138.298 168.409 136.699 168.409C135.089 168.409 134.066 169.824 134.066 172.756C134.066 175.689 135.089 177.15 136.699 177.15ZM136.699 176.31C135.733 176.31 135.089 175.24 135.089 172.756C135.089 170.295 135.733 169.249 136.699 169.249C137.654 169.249 138.298 170.295 138.298 172.756C138.298 175.24 137.654 176.31 136.699 176.31ZM142.917 177.15C144.412 177.15 145.62 176.252 145.62 174.746C145.62 173.596 144.826 172.837 143.837 172.607V172.561C144.723 172.227 145.332 171.549 145.332 170.525C145.332 169.191 144.297 168.409 142.883 168.409C141.905 168.409 141.158 168.835 140.525 169.421L141.089 170.088C141.56 169.605 142.158 169.272 142.837 169.272C143.711 169.272 144.263 169.801 144.263 170.606C144.263 171.514 143.665 172.216 141.928 172.216V173.021C143.872 173.021 144.55 173.699 144.55 174.7C144.55 175.677 143.837 176.275 142.837 176.275C141.882 176.275 141.238 175.827 140.744 175.31L140.215 175.999C140.767 176.597 141.595 177.15 142.917 177.15ZM146.789 174.182H149.733V173.377H146.789V174.182ZM153.444 177.15C155.043 177.15 156.066 175.689 156.066 172.756C156.066 169.835 155.043 168.409 153.444 168.409C151.834 168.409 150.811 169.824 150.811 172.756C150.811 175.689 151.834 177.15 153.444 177.15ZM153.444 176.31C152.478 176.31 151.834 175.24 151.834 172.756C151.834 170.295 152.478 169.249 153.444 169.249C154.399 169.249 155.043 170.295 155.043 172.756C155.043 175.24 154.399 176.31 153.444 176.31ZM157.638 177H162.261V176.126H160.57V168.559H159.765C159.305 168.835 158.765 169.03 158.017 169.168V169.835H159.512V176.126H157.638V177Z" fill="#121212"/>
<path d="M34.786 192.916H28.438V190.593H34.7055V190.076H27.84V193.434H34.786V192.916ZM31.267 199.276C29.519 199.276 28.4035 198.781 28.4035 197.953C28.4035 197.125 29.519 196.631 31.267 196.631C33.015 196.631 34.1305 197.125 34.1305 197.953C34.1305 198.781 33.015 199.276 31.267 199.276ZM31.267 196.136C29.105 196.136 27.794 196.792 27.794 197.953C27.794 199.127 29.105 199.771 31.267 199.771C33.429 199.771 34.74 199.127 34.74 197.953C34.74 196.792 33.429 196.136 31.267 196.136ZM26.6555 194.572V195.09H35.89V194.572H26.6555ZM38.2581 197.24H44.7096V199.667H45.3191V196.723H38.2581V197.24ZM42.1566 195.297V194.009H45.4916V193.503H39.0401V192.18H45.2616V189.892H38.4191V190.386H44.6636V191.697H38.4421V194.009H41.5471V195.297H37.2116V195.814H46.4921V195.297H42.1566ZM53.2417 195.688V196.171H55.4152V197.378H56.0247V189.604H55.4152V195.688H53.2417ZM51.0912 190.513C52.2182 190.513 53.0002 191.042 53.0002 191.789C53.0002 192.56 52.2182 193.077 51.0912 193.077C49.9642 193.077 49.1822 192.56 49.1822 191.789C49.1822 191.042 49.9642 190.513 51.0912 190.513ZM51.0912 193.549C52.5862 193.549 53.5752 192.87 53.5752 191.789C53.5752 190.72 52.5862 190.041 51.0912 190.041C49.5962 190.041 48.5957 190.72 48.5957 191.789C48.5957 192.87 49.5962 193.549 51.0912 193.549ZM50.8612 196.964H51.4707V194.883C52.4597 194.825 53.4832 194.745 54.4492 194.584L54.3917 194.135C52.1952 194.411 49.6422 194.434 47.7447 194.434L47.8367 194.963C48.7337 194.963 49.7572 194.963 50.8612 194.917V196.964ZM49.8952 199.035V196.608H49.2972V199.552H56.2892V199.035H49.8952ZM63.8208 194.526V194.975H65.9943V195.665H66.6038V189.604H65.9943V194.526H63.8208ZM61.6703 190.271C62.8203 190.271 63.5793 190.708 63.5793 191.352C63.5793 191.996 62.8203 192.433 61.6703 192.433C60.5088 192.433 59.7498 191.996 59.7498 191.352C59.7498 190.708 60.5088 190.271 61.6703 190.271ZM61.6703 192.882C63.1768 192.882 64.1658 192.307 64.1658 191.352C64.1658 190.398 63.1768 189.823 61.6703 189.823C60.1523 189.823 59.1748 190.398 59.1748 191.352C59.1748 192.307 60.1523 192.882 61.6703 192.882ZM61.3023 195.711H61.9118V194.02C62.9698 193.963 64.0623 193.882 65.0858 193.721L65.0513 193.296C62.8548 193.56 60.3018 193.583 58.3353 193.583L58.4273 194.089C59.3013 194.089 60.2788 194.078 61.3023 194.043V195.711ZM60.5663 199.173V198.034H66.6038V196.079H59.9453V196.539H66.0058V197.585H59.9798V199.656H67.0178V199.173H60.5663ZM77.2749 189.581H76.6654V194.906H77.2749V189.581ZM69.8574 192.226C69.8574 191.249 70.6969 190.513 71.8354 190.513C72.9739 190.513 73.8134 191.249 73.8134 192.226C73.8134 193.215 72.9739 193.94 71.8354 193.94C70.6969 193.94 69.8574 193.215 69.8574 192.226ZM74.4114 192.226C74.4114 190.904 73.3419 189.995 71.8354 189.995C70.3289 189.995 69.2594 190.904 69.2594 192.226C69.2594 193.549 70.3289 194.446 71.8354 194.446C73.3419 194.446 74.4114 193.549 74.4114 192.226ZM71.4214 199.138V197.723H77.2749V195.458H70.7889V195.964H76.6769V197.24H70.8234V199.644H77.6774V199.138H71.4214Z" fill="#121212"/>
<path d="M104.506 199H109.807V198.091H107.473C107.048 198.091 106.53 198.137 106.093 198.172C108.071 196.297 109.394 194.584 109.394 192.905C109.394 191.398 108.451 190.409 106.944 190.409C105.875 190.409 105.15 190.904 104.46 191.651L105.07 192.249C105.53 191.697 106.128 191.272 106.818 191.272C107.864 191.272 108.37 191.973 108.37 192.939C108.37 194.388 107.151 196.067 104.506 198.379V199ZM113.576 199.15C115.174 199.15 116.198 197.689 116.198 194.756C116.198 191.835 115.174 190.409 113.576 190.409C111.966 190.409 110.942 191.824 110.942 194.756C110.942 197.689 111.966 199.15 113.576 199.15ZM113.576 198.31C112.61 198.31 111.966 197.24 111.966 194.756C111.966 192.295 112.61 191.249 113.576 191.249C114.53 191.249 115.174 192.295 115.174 194.756C115.174 197.24 114.53 198.31 113.576 198.31ZM117.77 199H122.393V198.126H120.702V190.559H119.897C119.437 190.835 118.897 191.03 118.149 191.168V191.835H119.644V198.126H117.77V199ZM126.345 199.15C127.932 199.15 128.99 198.195 128.99 196.964C128.99 195.814 128.3 195.182 127.564 194.756V194.699C128.07 194.308 128.691 193.549 128.691 192.664C128.691 191.364 127.817 190.444 126.38 190.444C125.069 190.444 124.068 191.295 124.068 192.583C124.068 193.468 124.586 194.101 125.207 194.526V194.584C124.436 194.998 123.654 195.78 123.654 196.907C123.654 198.206 124.793 199.15 126.345 199.15ZM126.92 194.423C125.931 194.032 125.023 193.595 125.023 192.583C125.023 191.766 125.586 191.214 126.368 191.214C127.277 191.214 127.794 191.893 127.794 192.721C127.794 193.342 127.495 193.917 126.92 194.423ZM126.368 198.367C125.356 198.367 124.609 197.712 124.609 196.815C124.609 196.01 125.08 195.343 125.759 194.906C126.955 195.389 127.99 195.814 127.99 196.941C127.99 197.781 127.334 198.367 126.368 198.367ZM130.045 196.182H132.989V195.377H130.045V196.182ZM136.699 199.15C138.298 199.15 139.321 197.689 139.321 194.756C139.321 191.835 138.298 190.409 136.699 190.409C135.089 190.409 134.066 191.824 134.066 194.756C134.066 197.689 135.089 199.15 136.699 199.15ZM136.699 198.31C135.733 198.31 135.089 197.24 135.089 194.756C135.089 192.295 135.733 191.249 136.699 191.249C137.654 191.249 138.298 192.295 138.298 194.756C138.298 197.24 137.654 198.31 136.699 198.31ZM141.376 193.146C141.376 191.996 141.997 191.237 142.802 191.237C143.883 191.237 144.527 192.157 144.642 193.894C144.102 194.687 143.458 195.021 142.883 195.021C141.882 195.021 141.376 194.285 141.376 193.146ZM142.572 199.15C144.159 199.15 145.631 197.838 145.631 194.423C145.631 191.743 144.424 190.409 142.802 190.409C141.491 190.409 140.387 191.513 140.387 193.146C140.387 194.894 141.307 195.803 142.71 195.803C143.412 195.803 144.136 195.4 144.654 194.768C144.573 197.378 143.63 198.275 142.538 198.275C141.997 198.275 141.48 198.034 141.135 197.631L140.548 198.287C141.02 198.781 141.664 199.15 142.572 199.15ZM146.789 196.182H149.733V195.377H146.789V196.182ZM150.753 199H156.055V198.091H153.72C153.295 198.091 152.777 198.137 152.34 198.172C154.318 196.297 155.641 194.584 155.641 192.905C155.641 191.398 154.698 190.409 153.191 190.409C152.122 190.409 151.397 190.904 150.707 191.651L151.317 192.249C151.777 191.697 152.375 191.272 153.065 191.272C154.111 191.272 154.617 191.973 154.617 192.939C154.617 194.388 153.398 196.067 150.753 198.379V199ZM159.823 199.15C161.421 199.15 162.445 197.689 162.445 194.756C162.445 191.835 161.421 190.409 159.823 190.409C158.213 190.409 157.189 191.824 157.189 194.756C157.189 197.689 158.213 199.15 159.823 199.15ZM159.823 198.31C158.857 198.31 158.213 197.24 158.213 194.756C158.213 192.295 158.857 191.249 159.823 191.249C160.777 191.249 161.421 192.295 161.421 194.756C161.421 197.24 160.777 198.31 159.823 198.31Z" fill="#121212"/>
</svg>
