<svg width="309" height="233" viewBox="0 0 309 233" fill="none" xmlns="http://www.w3.org/2000/svg">
<rect x="0.5" y="0.5" width="308" height="232" rx="9.5" fill="#FAFAFA" stroke="#E0E0E0"/>
<rect x="23.9996" y="18" width="65" height="23" rx="2" fill="#0032A0"/>
<path d="M44.6676 26.32H46.9356V25.036H40.8036V26.32H43.0716V26.704C43.0716 28.756 42.1956 30.88 40.3476 31.744L41.2836 32.992C42.5556 32.356 43.4196 31.132 43.8876 29.644C44.3676 31.024 45.2196 32.164 46.4676 32.776L47.3796 31.528C45.5436 30.688 44.6676 28.648 44.6676 26.704V26.32ZM48.2076 23.968V27.832H46.2636V29.116H48.2076V35.056H49.7916V23.968H48.2076ZM58.1547 29.032C56.4147 28.468 55.6587 27.16 55.6227 25.888H57.7827V24.628L51.8067 24.628V25.888L54.0027 25.888C53.9667 27.256 53.1867 28.636 51.3867 29.224L52.2147 30.46C53.4867 30.04 54.3507 29.188 54.8427 28.12C55.3227 29.092 56.1507 29.872 57.3507 30.256L58.1547 29.032ZM52.8747 32.392H58.6707V35.044H60.2547V31.132L52.8747 31.132V32.392ZM61.7187 26.644H60.2547V23.98H58.6707V30.64H60.2547V27.952H61.7187V26.644ZM68.2578 29.872V31.096H70.3938V32.296H71.9778V23.98L70.3938 23.98V29.872H68.2578ZM65.6058 33.58V31.624H66.9858V29.248C67.9098 29.164 68.8338 29.068 69.7338 28.9L69.6258 27.784C69.2898 27.832 68.9418 27.88 68.5938 27.916C68.7858 26.524 68.7858 25.504 68.7858 24.916V24.532H63.5178V25.792H67.2138C67.1898 26.368 67.1298 27.112 66.9978 28.036C65.3898 28.132 63.8058 28.144 62.5098 28.144L62.7018 29.404C63.5178 29.404 64.4418 29.392 65.4138 29.344V31.468H64.0218V34.84L72.2178 34.84V33.58L65.6058 33.58Z" fill="white"/>
<path d="M30.002 64.1915H32.44V63.674H26.966V64.1915H29.3925V65.8705C29.3925 67.63 27.9435 69.562 26.6095 70.229L26.989 70.712C28.1045 70.1025 29.2545 68.711 29.7145 67.1585C30.1515 68.6075 31.2785 69.9185 32.394 70.505L32.762 70.022C31.428 69.355 30.002 67.515 30.002 65.8705V64.1915ZM34.349 62.593V66.388H31.8995V66.917H34.349V72.8165H34.9585V62.593H34.349ZM43.0651 67.768C41.6506 67.262 40.5006 66.0085 40.5006 64.5595V63.8925H42.9156V63.375H37.4761V63.8925H39.9026V64.571C39.9026 66.135 38.6836 67.4575 37.2576 67.9865L37.5796 68.4695C38.7756 68.0095 39.7876 67.0435 40.2131 65.79C40.6386 66.9285 41.5931 67.8255 42.7431 68.2625L43.0651 67.768ZM38.5686 69.8495H44.4911V72.7935H45.1006V69.332H38.5686V69.8495ZM46.6991 65.399H45.1006V62.593H44.4911V68.734H45.1006V65.928H46.6991V65.399ZM55.2312 65.491H49.6307V63.444L55.2312 63.444V65.491ZM55.8292 62.9495L49.0442 62.9495V65.997H55.8292V62.9495ZM57.0367 67.561V67.055H47.8022V67.561H52.1147V68.7685H48.9637V69.263H55.2197V70.4015H48.9867V72.6555H56.1512V72.1495H49.5847V70.873H55.8177V68.7685H52.7242V67.561H57.0367ZM63.7826 64.3985H65.8181V63.881H61.0801V64.3985H63.1961V65.583C63.1961 67.5265 62.2186 69.401 60.8501 70.2175L61.2526 70.6775C62.3106 70.022 63.1386 68.711 63.4951 67.2045C63.8516 68.6075 64.6451 69.8035 65.6801 70.436L66.0711 69.976C64.7256 69.2055 63.7826 67.3885 63.7826 65.583V64.3985ZM66.9106 66.3535H65.0131V66.8825H66.9106V72.2415H67.4971V62.869H66.9106V66.3535ZM68.9576 62.593V72.805H69.5556V62.593H68.9576ZM80.2152 64.226H76.4432V62.7885H75.8337V64.226L72.0157 64.226V64.7435L80.2152 64.7435V64.226ZM73.4762 67.4805C73.4762 66.618 74.5227 66.0775 76.1327 66.0775C77.7427 66.0775 78.7892 66.618 78.7892 67.4805C78.7892 68.3545 77.7427 68.9065 76.1327 68.9065C74.5227 68.9065 73.4762 68.3545 73.4762 67.4805ZM76.4432 70.988V69.3895C78.2717 69.3205 79.3987 68.6305 79.3987 67.4805C79.3987 66.273 78.1452 65.5715 76.1327 65.5715C74.1202 65.5715 72.8667 66.273 72.8667 67.4805C72.8667 68.6305 73.9937 69.3205 75.8337 69.401V70.988L71.5212 70.988V71.5055L80.7787 71.5055V70.988H76.4432Z" fill="#121212"/>
<path d="M113.901 64.709C113.901 65.9855 113.901 67.3425 113.544 69.1825L114.476 69.2975C114.844 67.3655 114.844 66.02 114.844 64.709V63.5705H107.576V64.341H113.901V64.709ZM112.383 70.6315V67.216H111.451V70.6315H109.83V67.216H108.898V70.6315H106.61V71.402H115.936V70.6315H112.383ZM121.846 72.1265C120.19 72.1265 119.259 71.8045 119.259 71.1835C119.259 70.574 120.19 70.2405 121.846 70.2405C123.514 70.2405 124.434 70.574 124.434 71.1835C124.434 71.8045 123.514 72.1265 121.846 72.1265ZM121.846 69.539C119.604 69.539 118.316 70.114 118.316 71.1835C118.316 72.2645 119.604 72.8395 121.846 72.8395C124.089 72.8395 125.377 72.2645 125.377 71.1835C125.377 70.114 124.089 69.539 121.846 69.539ZM122.318 67.998V66.986H125.423V66.25H119.351V65.238H125.089V64.525H119.351V63.5705H125.365V62.8345H118.408V66.986H121.375V67.998H117.177V68.757H126.515V67.998H122.318ZM128.883 65.5945C128.883 64.617 129.619 63.95 130.654 63.95C131.678 63.95 132.425 64.617 132.425 65.5945C132.425 66.5605 131.678 67.239 130.654 67.239C129.619 67.239 128.883 66.5605 128.883 65.5945ZM133.345 65.5945C133.345 64.1455 132.207 63.1565 130.654 63.1565C129.09 63.1565 127.963 64.1455 127.963 65.5945C127.963 67.032 129.09 68.0325 130.654 68.0325C132.207 68.0325 133.345 67.032 133.345 65.5945ZM129.067 69.9185H134.829V72.851H135.772V69.148H129.067V69.9185ZM137.267 64.893V64.111H135.772V62.547H134.829V68.665H135.772V67.0895H137.267V66.319H135.772V64.893H137.267ZM141.82 64.3755H144.108V63.5935H138.531V64.3755H140.888V65.6865C140.888 67.4345 139.646 69.3895 138.174 70.1255L138.726 70.873C139.888 70.275 140.888 68.964 141.36 67.4575C141.831 68.8375 142.797 70.045 143.947 70.62L144.488 69.861C142.993 69.1595 141.82 67.331 141.82 65.6865V64.3755ZM147.984 66.6985H146.282V62.547H145.339V72.851H146.282V67.492H147.984V66.6985ZM155.741 66.894L152.843 66.894V63.9845H155.741V66.894ZM156.661 63.237H151.923V67.653L156.661 67.653V63.237ZM159.674 69.792V69.033L152.935 69.033V69.792L155.81 69.792C155.695 70.896 154.235 71.839 152.533 72.092L152.878 72.8165C154.407 72.575 155.73 71.839 156.316 70.7925C156.903 71.8275 158.225 72.575 159.72 72.828L160.077 72.1035C158.398 71.839 156.914 70.873 156.799 69.792H159.674ZM159.502 65.008V62.5355H158.559V68.4235H159.502V65.79H161.031V65.008H159.502ZM162.905 67.032C164.607 66.8595 166.113 66.2615 166.746 65.261C167.367 66.2615 168.873 66.8595 170.575 67.032L170.863 66.3075C168.919 66.135 167.332 65.376 167.252 64.249H170.449V63.5015L167.217 63.5015V62.4665H166.274V63.5015H163.043V64.249H166.228C166.148 65.376 164.561 66.135 162.629 66.3075L162.905 67.032ZM169.345 71.954H164.147V70.275H169.345V71.954ZM171.403 68.4005V67.63H162.077V68.4005H166.274V69.5275H163.227V72.713H170.265V69.5275H167.217V68.4005H171.403ZM180.2 65.2035V66.5835H177.497V67.354H180.2V68.711H181.154V62.547H180.2V64.433H177.865C177.934 64.0765 177.98 63.697 177.98 63.3175H173.323V64.0765H176.957C176.784 65.859 175.255 67.2275 172.794 67.9635L173.173 68.711C175.393 68.067 176.957 66.8595 177.624 65.2035H180.2ZM177.785 72.069C176.267 72.069 175.301 71.5975 175.301 70.8155C175.301 70.045 176.267 69.5735 177.785 69.5735C179.303 69.5735 180.269 70.045 180.269 70.8155C180.269 71.5975 179.303 72.069 177.785 72.069ZM177.785 68.826C175.703 68.826 174.369 69.5735 174.369 70.8155C174.369 72.0575 175.703 72.805 177.785 72.805C179.866 72.805 181.2 72.0575 181.2 70.8155C181.2 69.5735 179.866 68.826 177.785 68.826ZM188.375 70.804V68.8605H191.676V68.1015H185.328V66.434H191.434V63.2945H184.373V64.065H190.514V65.675H184.396V68.8605H187.421V70.804H183.223V71.5745H192.596V70.804H188.375ZM197.501 65.8015C197.501 64.7895 198.26 64.0765 199.272 64.0765C200.284 64.0765 201.043 64.7895 201.043 65.8015C201.043 66.8135 200.284 67.5265 199.272 67.5265C198.26 67.5265 197.501 66.8135 197.501 65.8015ZM201.963 65.8015C201.963 64.3065 200.813 63.26 199.272 63.26C197.731 63.26 196.581 64.3065 196.581 65.8015C196.581 67.2965 197.731 68.343 199.272 68.343C200.813 68.343 201.963 67.2965 201.963 65.8015ZM198.916 69.355H197.973V72.621H204.85V71.8505H198.916V69.355ZM204.39 65.675V62.5355H203.447V70.1255H204.39V66.457H205.908V65.675H204.39ZM208.414 63.789H207.471V70.1715H208.126C209.242 70.1715 210.426 70.114 211.818 69.8495L211.726 69.033C210.495 69.2745 209.403 69.3435 208.414 69.355V63.789ZM214.808 62.5355V66.733H213.347V62.7655H212.462V72.322H213.347V67.515H214.808V72.8395H215.716V62.5355H214.808ZM223.773 63.4325H222.841V65.284C222.841 67.239 221.588 69.217 220.07 69.9415L220.645 70.712C221.852 70.091 222.841 68.803 223.313 67.2505C223.807 68.7225 224.796 69.9415 225.969 70.5165L226.533 69.7575C225.003 69.0675 223.773 67.17 223.773 65.284V63.4325ZM227.614 62.5355V72.874H228.557V62.5355H227.614ZM239.584 67.722C237.779 67.377 235.824 65.813 235.824 64.0535V63.26H234.835V64.0535C234.835 65.813 232.891 67.3655 231.086 67.722L231.511 68.504C233.064 68.136 234.674 67.032 235.329 65.5255C235.985 67.0435 237.595 68.1475 239.159 68.504L239.584 67.722ZM230.695 70.689V71.471L240.044 71.471V70.689L230.695 70.689ZM247.082 68.642H247.979V62.708H247.082V65.1345H245.713V65.8935H247.082V68.642ZM246.116 67.0895C245.046 67.308 244.115 67.3655 242.654 67.3655V65.974H245.242V65.238H242.654V63.9615H245.644V63.2025H241.746V68.1245H242.401C244.046 68.1245 245.023 68.0785 246.196 67.8485L246.116 67.0895ZM244.126 69.9875H249.06V71.954H244.126V69.9875ZM243.206 72.713H249.98V69.24H243.206V72.713ZM249.071 62.5355V68.7455H249.98V62.5355H249.071Z" fill="#121212"/>
<path d="M30.002 86.1915H32.44V85.674H26.966V86.1915H29.3925V87.8705C29.3925 89.63 27.9435 91.562 26.6095 92.229L26.989 92.712C28.1045 92.1025 29.2545 90.711 29.7145 89.1585C30.1515 90.6075 31.2785 91.9185 32.394 92.505L32.762 92.022C31.428 91.355 30.002 89.515 30.002 87.8705V86.1915ZM34.349 84.593V88.388H31.8995V88.917H34.349V94.8165H34.9585V84.593H34.349ZM43.0651 89.768C41.6506 89.262 40.5006 88.0085 40.5006 86.5595V85.8925H42.9156V85.375H37.4761V85.8925H39.9026V86.571C39.9026 88.135 38.6836 89.4575 37.2576 89.9865L37.5796 90.4695C38.7756 90.0095 39.7876 89.0435 40.2131 87.79C40.6386 88.9285 41.5931 89.8255 42.7431 90.2625L43.0651 89.768ZM38.5686 91.8495H44.4911V94.7935H45.1006V91.332H38.5686V91.8495ZM46.6991 87.399H45.1006V84.593H44.4911V90.734H45.1006V87.928H46.6991V87.399ZM55.2312 87.491H49.6307V85.444H55.2312V87.491ZM55.8292 84.9495H49.0442V87.997H55.8292V84.9495ZM57.0367 89.561V89.055H47.8022V89.561H52.1147V90.7685H48.9637V91.263H55.2197V92.4015H48.9867V94.6555H56.1512V94.1495H49.5847V92.873H55.8177V90.7685H52.7242V89.561H57.0367ZM61.7471 88.664C63.2536 88.457 65.0016 87.7095 65.5536 86.502C66.1171 87.7095 67.8766 88.457 69.3716 88.664L69.5901 88.1695C68.0031 87.974 65.9216 87.0655 65.9216 85.697V85.5935H69.3371V85.0875H61.7931V85.5935H65.2086V85.697C65.2086 87.0655 63.1156 87.974 61.5171 88.1695L61.7471 88.664ZM65.5651 94.276C63.7941 94.276 62.6901 93.816 62.6901 93.034C62.6901 92.275 63.7941 91.8035 65.5651 91.8035C67.3131 91.8035 68.4171 92.275 68.4171 93.034C68.4171 93.816 67.3131 94.276 65.5651 94.276ZM65.5651 91.309C63.3801 91.309 62.0806 91.9415 62.0806 93.034C62.0806 94.1495 63.3801 94.7705 65.5651 94.7705C67.7271 94.7705 69.0266 94.1495 69.0266 93.034C69.0266 91.9415 67.7271 91.309 65.5651 91.309ZM65.8526 89.791V88.1925H65.2431V89.791H60.9306V90.3085H70.1651V89.791H65.8526ZM79.0192 86.9505L72.6712 86.9505V89.492L79.8357 89.492V88.986L73.2807 88.986V87.4335H79.6172V85.03L72.6367 85.03V85.5475L79.0192 85.5475V86.9505ZM80.7787 90.734L71.4982 90.734V91.2515H74.0742V94.805H74.6837V91.2515L77.5817 91.2515V94.805H78.1912V91.2515H80.7787V90.734Z" fill="#121212"/>
<path d="M107.346 85.1335V85.8925H110.934C110.899 86.295 110.819 86.663 110.681 87.0195L106.828 87.192L106.989 87.9625L110.301 87.7095C109.68 88.6525 108.565 89.3885 106.897 89.8945L107.254 90.642C110.462 89.6645 111.923 87.7555 111.923 85.1335H107.346ZM109.37 91.792H114.177V93.954H109.37V91.792ZM108.438 94.713H115.108V91.0445H108.438V94.713ZM114.154 84.547V87.261H111.9V88.043H114.154V90.4925H115.108V84.547H114.154ZM123.134 88.6525H120.57V85.881H123.134V88.6525ZM119.627 88.6525H118.109V89.423H125.595V88.6525H124.077V85.881H125.63V85.1105H118.074V85.881H119.627V88.6525ZM126.527 90.6075H117.177V91.378H119.615V94.851H120.558V91.378H123.18V94.851H124.123V91.378H126.527V90.6075ZM129.182 89.1355H132.563V88.3765H129.182V86.249H133.012V85.467H128.239V92.3785H129.033C130.999 92.3785 132.253 92.321 133.748 92.0565L133.644 91.286C132.241 91.539 131.045 91.608 129.182 91.608V89.1355ZM135.323 84.524V88.4225H133.196V89.2045H135.323V94.8625H136.266V84.524H135.323ZM144.281 89.9175H141.716V86.3295H144.281V89.9175ZM140.773 89.9175H139.198V90.688H146.799V89.9175H145.224V86.3295H146.822V85.5705H139.175V86.3295H140.773V89.9175ZM138.347 92.7465V93.5285H147.696V92.7465H138.347ZM154.066 92.804V90.8605L157.367 90.8605V90.1015L151.019 90.1015V88.434L157.125 88.434V85.2945L150.064 85.2945V86.065L156.205 86.065V87.675L150.087 87.675V90.8605H153.112V92.804H148.914V93.5745L158.287 93.5745V92.804L154.066 92.804ZM166.658 86.663C166.658 87.9395 166.658 89.4805 166.244 91.585L167.187 91.6885C167.59 89.4575 167.59 87.974 167.59 86.663V85.628H160.517V86.3985H166.658V86.663ZM159.517 92.5625V93.3445H168.843V92.5625H159.517ZM175.018 89.1815C173.81 89.423 172.798 89.4805 171.464 89.4805V88.02H174.408V85.214H170.533V85.973H173.5V87.307H170.556V90.2395H171.234C172.718 90.2395 173.799 90.182 175.11 89.9405L175.018 89.1815ZM172.936 91.9415H177.87V93.954H172.936V91.9415ZM172.016 94.713H178.79V91.194H172.016V94.713ZM177.881 84.5355V87.1575H176.501V84.731H175.604V90.5615H176.501V87.928H177.881V90.6995H178.79V84.5355H177.881ZM184.228 86.364H186.574V85.5935H180.951V86.364H183.285V87.56C183.285 89.3885 182.055 91.3435 180.583 92.068L181.135 92.8155C182.308 92.1945 183.308 90.872 183.757 89.354C184.228 90.78 185.217 92.0105 186.367 92.597L186.931 91.861C185.436 91.148 184.228 89.2735 184.228 87.56V86.364ZM188.219 84.5355V88.2845H185.988V89.055H188.219V94.8625H189.162V84.5355H188.219ZM197.234 89.584C195.716 89.0665 194.727 87.79 194.727 86.4215V86.019H197.004V85.26H191.472V86.019H193.784V86.433C193.784 87.905 192.749 89.239 191.196 89.7795L191.691 90.527C192.898 90.0785 193.83 89.17 194.267 88.02C194.715 89.078 195.601 89.9175 196.751 90.32L197.234 89.584ZM192.53 92.068H198.303V94.8625H199.246V91.309H192.53V92.068ZM200.776 87.2495H199.246V84.547H198.303V90.757H199.246V88.0315H200.776V87.2495ZM209.009 87.2725H203.949V85.628H209.009V87.2725ZM209.94 84.8805H203.029V88.02H209.94V84.8805ZM211.148 89.6415V88.8825H201.81V89.6415H206.007V90.6535H202.937V91.3665H209.02V92.2865H202.971V94.736H210.262V94H203.891V92.9765H209.952V90.6535H206.95V89.6415H211.148ZM212.228 92.321L217.737 90.159V89.308L212.228 87.146V88.066L214.942 89.0665L216.667 89.7105V89.7565L214.942 90.4005L212.228 91.401V92.321ZM218.779 89.5495V90.3085H228.094V89.5495H218.779ZM223.437 91.171C221.24 91.171 219.906 91.8265 219.906 93.011C219.906 94.184 221.24 94.851 223.437 94.851C225.645 94.851 226.967 94.184 226.967 93.011C226.967 91.8265 225.645 91.171 223.437 91.171ZM223.437 91.8955C225.058 91.8955 226.013 92.3095 226.013 93.011C226.013 93.7125 225.058 94.115 223.437 94.115C221.815 94.115 220.861 93.7125 220.861 93.011C220.861 92.3095 221.815 91.8955 223.437 91.8955ZM223.437 84.8C221.217 84.8 219.814 85.5245 219.814 86.7665C219.814 87.997 221.217 88.7215 223.437 88.7215C225.668 88.7215 227.059 87.997 227.059 86.7665C227.059 85.5245 225.668 84.8 223.437 84.8ZM223.437 85.536C225.07 85.536 226.093 85.996 226.093 86.7665C226.093 87.5255 225.07 87.9855 223.437 87.9855C221.804 87.9855 220.78 87.5255 220.78 86.7665C220.78 85.996 221.804 85.536 223.437 85.536ZM234.016 94.115C232.395 94.115 231.44 93.7125 231.44 93.011C231.44 92.3095 232.395 91.907 234.016 91.907C235.626 91.907 236.592 92.3095 236.592 93.011C236.592 93.7125 235.626 94.115 234.016 94.115ZM234.016 91.171C231.808 91.171 230.486 91.8265 230.486 93.011C230.486 94.1955 231.808 94.8395 234.016 94.8395C236.236 94.8395 237.547 94.1955 237.547 93.011C237.547 91.8265 236.236 91.171 234.016 91.171ZM232.59 88.434C233.016 88.503 233.499 88.549 234.016 88.549C234.545 88.549 235.028 88.503 235.454 88.434V89.6415L232.59 89.6415V88.434ZM231.36 86.64C231.36 85.8925 232.372 85.4555 234.016 85.4555C235.661 85.4555 236.673 85.8925 236.673 86.64C236.673 87.376 235.661 87.8245 234.016 87.8245C232.372 87.8245 231.36 87.376 231.36 86.64ZM236.385 89.6415V88.181C237.179 87.859 237.639 87.33 237.639 86.64C237.639 85.4325 236.259 84.7195 234.016 84.7195C231.785 84.7195 230.394 85.4325 230.394 86.64C230.394 87.3415 230.842 87.859 231.659 88.1925V89.6415H229.347V90.4005L238.685 90.4005V89.6415H236.385ZM245.872 89.9175H243.307V86.3295H245.872V89.9175ZM242.364 89.9175H240.789V90.688H248.39V89.9175H246.815V86.3295H248.413V85.5705H240.766V86.3295H242.364V89.9175ZM239.938 92.7465V93.5285H249.287V92.7465H239.938ZM255.657 92.804V90.8605H258.958V90.1015H252.61V88.434H258.716V85.2945H251.655V86.065H257.796V87.675H251.678V90.8605H254.703V92.804H250.505V93.5745H259.878V92.804H255.657ZM268.249 86.663C268.249 87.9395 268.249 89.4805 267.835 91.585L268.778 91.6885C269.18 89.4575 269.18 87.974 269.18 86.663V85.628H262.108V86.3985H268.249V86.663ZM261.107 92.5625V93.3445H270.434V92.5625H261.107ZM276.608 89.1815C275.401 89.423 274.389 89.4805 273.055 89.4805V88.02H275.999V85.214H272.123V85.973H275.09V87.307H272.146V90.2395H272.825C274.308 90.2395 275.389 90.182 276.7 89.9405L276.608 89.1815ZM274.527 91.9415H279.46V93.954H274.527V91.9415ZM273.607 94.713H280.38V91.194H273.607V94.713ZM279.472 84.5355V87.1575H278.092V84.731H277.195V90.5615H278.092V87.928H279.472V90.6995H280.38V84.5355H279.472ZM106.437 109.321L111.946 107.159V106.308L106.437 104.146V105.066L109.151 106.066L110.876 106.71V106.756L109.151 107.4L106.437 108.401V109.321ZM118.37 107.32C118.658 105.399 118.658 104.054 118.658 103.226V102.662H113.448V103.433H117.738C117.738 104.261 117.715 105.514 117.427 107.228L118.37 107.32ZM116.001 105.606H115.07V108.78C114.299 108.803 113.54 108.815 112.885 108.815L112.988 109.597C114.817 109.597 117.243 109.551 119.382 109.206L119.325 108.516C118.278 108.642 117.128 108.711 116.001 108.757V105.606ZM122.545 105.848H120.9V101.535H119.957V111.851H120.9V106.641H122.545V105.848ZM129.686 102.628H127.11V101.478H126.167V102.628H123.602V103.387H129.686V102.628ZM125.074 105.779C125.074 105.1 125.695 104.652 126.638 104.652C127.581 104.652 128.214 105.1 128.214 105.779C128.214 106.469 127.581 106.917 126.638 106.917C125.695 106.917 125.074 106.469 125.074 105.779ZM129.111 105.779C129.111 104.652 128.11 103.916 126.638 103.916C125.178 103.916 124.177 104.652 124.177 105.779C124.177 106.917 125.178 107.642 126.638 107.642C128.11 107.642 129.111 106.917 129.111 105.779ZM124.879 109.321H130.629V111.863H131.572V108.55H124.879V109.321ZM133.101 104.387H131.572V101.547H130.629V107.987H131.572V105.169H133.101V104.387ZM134.756 102.651V103.41H138.632C138.436 105.859 137.056 107.837 134.285 109.16L134.791 109.93C138.218 108.251 139.586 105.629 139.586 102.651H134.756ZM141.668 101.535V111.851H142.611V101.535H141.668ZM153.546 104.445C151.672 104.238 149.878 103.226 149.878 101.972V101.581H148.912V101.972C148.912 103.226 147.095 104.238 145.22 104.445L145.542 105.158C147.187 104.951 148.739 104.226 149.395 103.122C150.039 104.226 151.591 104.951 153.224 105.158L153.546 104.445ZM154.052 106.595V105.836H144.714V106.595H148.912V107.619H145.841V108.343H151.925V109.286H145.876V111.736H153.167V111H146.796V109.976H152.856V107.619H149.855V106.595H154.052Z" fill="#121212"/>
<path d="M34.3605 133.127H29.1855V131.631H34.3605V133.127ZM34.3605 131.125H29.1855V129.699H28.576L28.576 133.644H34.9585V129.699H34.3605V131.125ZM31.083 128.216H27.817V126.341H31.083V128.216ZM34.3605 123.581V126.203H31.681V124.11H31.083V125.847H27.817V124.11H27.2075V128.733H31.681V126.721H34.3605V129.17H34.97V123.581H34.3605ZM45.5376 123.604H44.9281V131.137H45.5376V123.604ZM38.1086 126.801C38.1086 125.709 38.9711 124.881 40.1096 124.881C41.2481 124.881 42.1106 125.709 42.1106 126.801C42.1106 127.905 41.2481 128.745 40.1096 128.745C38.9711 128.745 38.1086 127.905 38.1086 126.801ZM42.6971 126.801C42.6971 125.352 41.6046 124.34 40.1096 124.34C38.6146 124.34 37.5221 125.352 37.5221 126.801C37.5221 128.262 38.6146 129.285 40.1096 129.285C41.6046 129.285 42.6971 128.262 42.6971 126.801ZM39.7301 133.035V130.343H39.1206V133.552H45.8826V133.035H39.7301ZM52.2757 128.331H48.9062V124.892H52.2757V128.331ZM55.5187 125.858V127.365H52.8737V125.858H55.5187ZM52.8737 127.882H55.5187V129.665H56.1282V123.593H55.5187V125.341H52.8737V124.386H48.3197V128.837H52.8737V127.882ZM52.8277 133.276C51.1602 133.276 50.0907 132.747 50.0907 131.884C50.0907 131.033 51.1602 130.493 52.8277 130.493C54.4952 130.493 55.5762 131.033 55.5762 131.884C55.5762 132.747 54.4952 133.276 52.8277 133.276ZM52.8277 129.998C50.7577 129.998 49.4812 130.677 49.4812 131.884C49.4812 133.092 50.7577 133.771 52.8277 133.771C54.8977 133.771 56.1742 133.092 56.1742 131.884C56.1742 130.677 54.8977 129.998 52.8277 129.998Z" fill="#121212"/>
<path d="M110.221 124.421H109.278V126.272C109.278 128.181 108.105 130.171 106.61 130.918L107.185 131.666C108.346 131.045 109.301 129.745 109.749 128.216C110.221 129.665 111.164 130.895 112.336 131.482L112.889 130.734C111.394 130.021 110.221 128.147 110.221 126.272V124.421ZM114.165 123.535V127.031H111.773V127.802H114.165V133.863H115.108V123.535H114.165ZM121.846 124.363C123.537 124.363 124.503 124.754 124.503 125.444C124.503 126.134 123.537 126.525 121.846 126.525C120.156 126.525 119.19 126.134 119.19 125.444C119.19 124.754 120.156 124.363 121.846 124.363ZM121.846 127.227C124.123 127.227 125.469 126.606 125.469 125.444C125.469 124.283 124.123 123.65 121.846 123.65C119.581 123.65 118.224 124.283 118.224 125.444C118.224 126.606 119.581 127.227 121.846 127.227ZM126.504 128.664V127.905H117.189V128.664H121.375V129.63H118.316V130.343H124.388V131.263H118.339V133.736H125.63V133H119.259V131.953H125.319V129.63H122.318V128.664H126.504ZM131.425 124.432H130.493V126.284C130.493 128.239 129.24 130.217 127.722 130.941L128.297 131.712C129.504 131.091 130.493 129.803 130.965 128.25C131.459 129.722 132.448 130.941 133.621 131.516L134.185 130.757C132.655 130.067 131.425 128.17 131.425 126.284V124.432ZM135.266 123.535V133.874H136.209V123.535H135.266ZM144.614 127.894C142.981 128.158 141.636 128.216 139.807 128.216V126.824H143.545V124.041H138.853V124.8H142.613V126.1H138.887V128.986H139.715C141.624 128.986 143.027 128.929 144.718 128.653L144.614 127.894ZM145.879 132.942H141.061V131.677H145.879V132.942ZM145.879 130.941H141.061V129.722H140.129V133.713H146.811V129.722H145.879V130.941ZM145.868 123.547V129.205H146.811V123.547H145.868ZM150.225 125.559L153.135 125.559V124.789L149.294 124.789V131.31H149.972C151.513 131.31 152.56 131.263 153.79 130.999L153.71 130.217C152.583 130.458 151.605 130.516 150.225 130.527V125.559ZM156.78 123.535V127.675L155.32 127.675V123.765H154.434V133.334H155.32V128.446H156.78V133.851H157.689V123.535H156.78ZM165.623 124.628H163.047V123.478H162.104V124.628H159.54V125.387H165.623V124.628ZM161.012 127.779C161.012 127.1 161.633 126.652 162.576 126.652C163.519 126.652 164.151 127.1 164.151 127.779C164.151 128.469 163.519 128.917 162.576 128.917C161.633 128.917 161.012 128.469 161.012 127.779ZM165.048 127.779C165.048 126.652 164.048 125.916 162.576 125.916C161.115 125.916 160.115 126.652 160.115 127.779C160.115 128.917 161.115 129.642 162.576 129.642C164.048 129.642 165.048 128.917 165.048 127.779ZM160.816 131.321H166.566V133.863H167.509V130.55H160.816V131.321ZM169.039 126.387H167.509V123.547H166.566V129.987H167.509V127.169H169.039V126.387ZM177.375 125.709C177.375 126.985 177.375 128.342 177.019 130.182L177.95 130.297C178.318 128.365 178.318 127.02 178.318 125.709V124.57H171.05V125.341H177.375V125.709ZM175.857 131.631V128.216H174.926V131.631H173.304V128.216H172.373V131.631H170.084V132.402H179.411V131.631H175.857ZM189.249 128.722C187.731 128.181 186.708 126.87 186.708 125.456V124.156H185.765V125.433C185.765 127.031 184.764 128.411 183.189 128.975L183.683 129.722C184.914 129.262 185.834 128.319 186.259 127.1C186.719 128.181 187.616 129.044 188.778 129.469L189.249 128.722ZM185.788 130.424H184.845V133.621H191.687V132.85H185.788V130.424ZM191.239 126.698V123.524H190.296V131.148H191.239V127.48H192.757V126.698H191.239ZM199.932 124.628H197.356V123.478H196.413V124.628H193.849V125.387H199.932V124.628ZM195.321 127.779C195.321 127.1 195.942 126.652 196.885 126.652C197.828 126.652 198.46 127.1 198.46 127.779C198.46 128.469 197.828 128.917 196.885 128.917C195.942 128.917 195.321 128.469 195.321 127.779ZM199.357 127.779C199.357 126.652 198.357 125.916 196.885 125.916C195.424 125.916 194.424 126.652 194.424 127.779C194.424 128.917 195.424 129.642 196.885 129.642C198.357 129.642 199.357 128.917 199.357 127.779ZM195.125 131.321L200.875 131.321V133.863H201.818V130.55L195.125 130.55V131.321ZM203.348 126.387H201.818V123.547H200.875V129.987H201.818V127.169H203.348V126.387ZM210.189 124.57H207.82V123.432H206.877V124.57H204.416V125.329H210.189V124.57ZM205.888 127.698C205.888 127.008 206.475 126.56 207.337 126.56C208.2 126.56 208.786 127.008 208.786 127.698C208.786 128.388 208.2 128.837 207.337 128.837C206.475 128.837 205.888 128.388 205.888 127.698ZM209.672 127.698C209.672 126.583 208.706 125.847 207.337 125.847C205.957 125.847 205.003 126.583 205.003 127.698C205.003 128.814 205.957 129.55 207.337 129.55C208.706 129.55 209.672 128.814 209.672 127.698ZM211.96 132.965H207.142V131.873H211.96V132.965ZM211.96 131.148H207.142V130.09H206.21V133.713H212.892V130.09H211.96V131.148ZM211.937 123.547V125.95H210.201V126.709H211.937V127.951H210.189V128.722H211.937V129.63H212.892V123.547H211.937ZM220.423 128.4C219.227 128.595 218.238 128.641 216.329 128.641V127.077H219.825V124.156H215.375V124.927H218.905V126.353H215.409V129.412H216.145C218.204 129.412 219.25 129.377 220.515 129.159L220.423 128.4ZM216.559 131.206H222.516V133.863H223.471V130.435H216.559V131.206ZM222.516 123.547V125.065H220.504V125.835H222.516V127.215H220.504V127.974H222.516V129.883H223.471V123.547H222.516ZM231.52 128.055C230.174 128.319 229.001 128.4 226.966 128.4V125.191H230.588V124.432H226.023V129.17H226.828C228.99 129.17 230.209 129.101 231.623 128.814L231.52 128.055ZM228.081 130.251H227.138V133.621H234.015V132.85H228.081V130.251ZM233.555 126.594V123.535H232.612V130.999H233.555V127.376H235.085V126.594H233.555Z" fill="#121212"/>
<path d="M34.3605 155.127H29.1855V153.631H34.3605V155.127ZM34.3605 153.125H29.1855V151.699H28.576L28.576 155.644H34.9585V151.699H34.3605V153.125ZM31.083 150.216H27.817V148.341H31.083V150.216ZM34.3605 145.581V148.203H31.681V146.11H31.083V147.847H27.817V146.11H27.2075V150.733H31.681V148.721H34.3605V151.17H34.97V145.581H34.3605ZM45.5376 145.604H44.9281V153.137H45.5376V145.604ZM38.1086 148.801C38.1086 147.709 38.9711 146.881 40.1096 146.881C41.2481 146.881 42.1106 147.709 42.1106 148.801C42.1106 149.905 41.2481 150.745 40.1096 150.745C38.9711 150.745 38.1086 149.905 38.1086 148.801ZM42.6971 148.801C42.6971 147.352 41.6046 146.34 40.1096 146.34C38.6146 146.34 37.5221 147.352 37.5221 148.801C37.5221 150.262 38.6146 151.285 40.1096 151.285C41.6046 151.285 42.6971 150.262 42.6971 148.801ZM39.7301 155.035V152.343H39.1206V155.552H45.8826V155.035H39.7301ZM55.9442 148.916H49.5962V146.593H55.8637V146.076H48.9982V149.434H55.9442V148.916ZM52.4252 155.276C50.6772 155.276 49.5617 154.781 49.5617 153.953C49.5617 153.125 50.6772 152.631 52.4252 152.631C54.1732 152.631 55.2887 153.125 55.2887 153.953C55.2887 154.781 54.1732 155.276 52.4252 155.276ZM52.4252 152.136C50.2632 152.136 48.9522 152.792 48.9522 153.953C48.9522 155.127 50.2632 155.771 52.4252 155.771C54.5872 155.771 55.8982 155.127 55.8982 153.953C55.8982 152.792 54.5872 152.136 52.4252 152.136ZM47.8137 150.572V151.09H57.0482V150.572H47.8137ZM59.4163 153.24H65.8678V155.667H66.4773V152.723H59.4163V153.24ZM63.3148 151.297V150.009H66.6498V149.503H60.1983V148.18H66.4198V145.892H59.5773V146.386H65.8218V147.697H59.6003V150.009H62.7053V151.297H58.3698V151.814H67.6503V151.297H63.3148ZM73.3994 150.825H70.1334V148.732H73.3994V150.825ZM73.9974 149.089H76.6769V153.171H77.2864V145.604H76.6769V148.571H73.9974V146.271H73.3994V148.226H70.1334V146.271H69.5239V151.343H73.9974V149.089ZM71.4559 155.035V152.435H70.8464V155.552H77.5394V155.035H71.4559ZM88.245 147.226H84.473V145.788H83.8635V147.226H80.0455V147.743H88.245V147.226ZM81.506 150.48C81.506 149.618 82.5525 149.077 84.1625 149.077C85.7725 149.077 86.819 149.618 86.819 150.48C86.819 151.354 85.7725 151.906 84.1625 151.906C82.5525 151.906 81.506 151.354 81.506 150.48ZM84.473 153.988V152.389C86.3015 152.32 87.4285 151.63 87.4285 150.48C87.4285 149.273 86.175 148.571 84.1625 148.571C82.15 148.571 80.8965 149.273 80.8965 150.48C80.8965 151.63 82.0235 152.32 83.8635 152.401V153.988H79.551V154.505H88.8085V153.988H84.473Z" fill="#121212"/>
<path d="M106.506 155H111.807V154.091H109.473C109.048 154.091 108.53 154.137 108.093 154.172C110.071 152.297 111.394 150.584 111.394 148.905C111.394 147.398 110.451 146.409 108.944 146.409C107.875 146.409 107.15 146.904 106.46 147.651L107.07 148.249C107.53 147.697 108.128 147.272 108.818 147.272C109.864 147.272 110.37 147.973 110.37 148.939C110.37 150.388 109.151 152.067 106.506 154.379V155ZM115.748 150.549C116.772 150.549 117.278 151.274 117.278 152.412C117.278 153.562 116.645 154.333 115.84 154.333C114.782 154.333 114.15 153.378 114.023 151.63C114.541 150.86 115.219 150.549 115.748 150.549ZM115.84 155.15C117.151 155.15 118.255 154.045 118.255 152.412C118.255 150.653 117.347 149.767 115.921 149.767C115.254 149.767 114.518 150.158 114 150.791C114.046 148.169 115.024 147.283 116.174 147.283C116.691 147.283 117.197 147.525 117.531 147.927L118.106 147.272C117.646 146.777 117.013 146.409 116.139 146.409C114.506 146.409 113.023 147.674 113.023 150.975C113.023 153.758 114.219 155.15 115.84 155.15ZM120.08 151.837L122.001 148.962C122.242 148.548 122.472 148.134 122.679 147.72H122.725C122.702 148.157 122.668 148.836 122.668 149.25V151.837H120.08ZM122.668 155H123.657V152.677H124.772V151.837H123.657V146.559H122.495L118.988 151.987V152.677H122.668V155ZM126.149 155H130.772V154.126H129.081V146.559H128.276C127.816 146.835 127.276 147.03 126.528 147.168V147.835H128.023V154.126H126.149V155ZM133.793 155H134.885C135.012 151.699 135.38 149.733 137.358 147.203V146.559H132.079V147.467H136.162C134.517 149.767 133.931 151.803 133.793 155ZM138.907 155H143.53V154.126H141.839V146.559H141.034C140.574 146.835 140.034 147.03 139.286 147.168V147.835H140.781V154.126H138.907V155ZM144.802 152.182H147.746V151.377H144.802V152.182ZM151.457 155.15C153.056 155.15 154.079 153.689 154.079 150.756C154.079 147.835 153.056 146.409 151.457 146.409C149.847 146.409 148.824 147.824 148.824 150.756C148.824 153.689 149.847 155.15 151.457 155.15ZM151.457 154.31C150.491 154.31 149.847 153.24 149.847 150.756C149.847 148.295 150.491 147.249 151.457 147.249C152.412 147.249 153.056 148.295 153.056 150.756C153.056 153.24 152.412 154.31 151.457 154.31ZM157.836 155.15C159.435 155.15 160.458 153.689 160.458 150.756C160.458 147.835 159.435 146.409 157.836 146.409C156.226 146.409 155.203 147.824 155.203 150.756C155.203 153.689 156.226 155.15 157.836 155.15ZM157.836 154.31C156.87 154.31 156.226 153.24 156.226 150.756C156.226 148.295 156.87 147.249 157.836 147.249C158.791 147.249 159.435 148.295 159.435 150.756C159.435 153.24 158.791 154.31 157.836 154.31ZM164.215 155.15C165.814 155.15 166.837 153.689 166.837 150.756C166.837 147.835 165.814 146.409 164.215 146.409C162.605 146.409 161.582 147.824 161.582 150.756C161.582 153.689 162.605 155.15 164.215 155.15ZM164.215 154.31C163.249 154.31 162.605 153.24 162.605 150.756C162.605 148.295 163.249 147.249 164.215 147.249C165.17 147.249 165.814 148.295 165.814 150.756C165.814 153.24 165.17 154.31 164.215 154.31ZM170.766 150.549C171.79 150.549 172.296 151.274 172.296 152.412C172.296 153.562 171.663 154.333 170.858 154.333C169.8 154.333 169.168 153.378 169.041 151.63C169.559 150.86 170.237 150.549 170.766 150.549ZM170.858 155.15C172.169 155.15 173.273 154.045 173.273 152.412C173.273 150.653 172.365 149.767 170.939 149.767C170.272 149.767 169.536 150.158 169.018 150.791C169.064 148.169 170.042 147.283 171.192 147.283C171.709 147.283 172.215 147.525 172.549 147.927L173.124 147.272C172.664 146.777 172.031 146.409 171.157 146.409C169.524 146.409 168.041 147.674 168.041 150.975C168.041 153.758 169.237 155.15 170.858 155.15ZM174.282 155H179.583V154.091H177.249C176.823 154.091 176.306 154.137 175.869 154.172C177.847 152.297 179.169 150.584 179.169 148.905C179.169 147.398 178.226 146.409 176.72 146.409C175.65 146.409 174.926 146.904 174.236 147.651L174.845 148.249C175.305 147.697 175.903 147.272 176.593 147.272C177.64 147.272 178.146 147.973 178.146 148.939C178.146 150.388 176.927 152.067 174.282 154.379V155ZM182.432 155H183.524C183.651 151.699 184.019 149.733 185.997 147.203V146.559H180.718V147.467H184.801C183.156 149.767 182.57 151.803 182.432 155ZM189.57 155.15C191.065 155.15 192.272 154.252 192.272 152.746C192.272 151.596 191.479 150.837 190.49 150.607V150.561C191.375 150.227 191.985 149.549 191.985 148.525C191.985 147.191 190.95 146.409 189.535 146.409C188.558 146.409 187.81 146.835 187.178 147.421L187.741 148.088C188.213 147.605 188.811 147.272 189.489 147.272C190.363 147.272 190.915 147.801 190.915 148.606C190.915 149.514 190.317 150.216 188.581 150.216V151.021C190.524 151.021 191.203 151.699 191.203 152.7C191.203 153.677 190.49 154.275 189.489 154.275C188.535 154.275 187.891 153.827 187.396 153.31L186.867 153.999C187.419 154.597 188.247 155.15 189.57 155.15Z" fill="#121212"/>
<path d="M32.555 172.779C31.152 172.331 29.9675 171.169 29.9675 169.812V169.444H32.371V168.938H29.979V167.524H29.3695V168.938H26.943V169.444H29.3695V169.812C29.3695 171.319 28.162 172.572 26.736 173.055L27.035 173.538C28.231 173.101 29.266 172.181 29.68 170.985C30.117 172.043 31.106 172.871 32.256 173.262L32.555 172.779ZM31.3015 177.276C29.657 177.276 28.6105 176.781 28.6105 175.988C28.6105 175.183 29.657 174.7 31.3015 174.7C32.946 174.7 34.004 175.183 34.004 175.988C34.004 176.781 32.946 177.276 31.3015 177.276ZM31.3015 174.205C29.243 174.205 28.0125 174.838 28.0125 175.988C28.0125 177.127 29.243 177.759 31.3015 177.759C33.36 177.759 34.602 177.127 34.602 175.988C34.602 174.838 33.36 174.205 31.3015 174.205ZM34.5215 170.376V167.593H33.912V173.906H34.5215V170.905H36.12V170.376H34.5215ZM43.0651 172.768C41.6506 172.262 40.5006 171.008 40.5006 169.559V168.892H42.9156V168.375H37.4761V168.892H39.9026V169.571C39.9026 171.135 38.6836 172.457 37.2576 172.986L37.5796 173.469C38.7756 173.009 39.7876 172.043 40.2131 170.79C40.6386 171.928 41.5931 172.825 42.7431 173.262L43.0651 172.768ZM38.5686 174.849H44.4911V177.794H45.1006V174.332H38.5686V174.849ZM46.6991 170.399H45.1006V167.593H44.4911V173.734H45.1006V170.928H46.6991V170.399ZM48.5727 170.767C48.5727 169.663 49.4237 168.812 50.5737 168.812C51.7237 168.812 52.5747 169.663 52.5747 170.767C52.5747 171.894 51.7237 172.745 50.5737 172.745C49.4237 172.745 48.5727 171.894 48.5727 170.767ZM55.5187 169.801V171.721H53.0002C53.1037 171.434 53.1612 171.112 53.1612 170.767C53.1612 170.422 53.0922 170.088 52.9887 169.801H55.5187ZM55.5187 172.239V175.183H56.1282V167.593H55.5187V169.283H52.7127C52.2412 168.662 51.4822 168.271 50.5737 168.271C49.0787 168.271 47.9862 169.295 47.9862 170.767C47.9862 172.25 49.0787 173.274 50.5737 173.274C51.4937 173.274 52.2642 172.883 52.7242 172.239H55.5187ZM50.3552 177.035V174.389H49.7457V177.552H56.4387V177.035H50.3552ZM63.8208 172.526V172.975H65.9943V173.665H66.6038V167.604H65.9943V172.526H63.8208ZM61.6703 168.271C62.8203 168.271 63.5793 168.708 63.5793 169.352C63.5793 169.996 62.8203 170.433 61.6703 170.433C60.5088 170.433 59.7498 169.996 59.7498 169.352C59.7498 168.708 60.5088 168.271 61.6703 168.271ZM61.6703 170.882C63.1768 170.882 64.1658 170.307 64.1658 169.352C64.1658 168.398 63.1768 167.823 61.6703 167.823C60.1523 167.823 59.1748 168.398 59.1748 169.352C59.1748 170.307 60.1523 170.882 61.6703 170.882ZM61.3023 173.711H61.9118V172.02C62.9698 171.963 64.0623 171.882 65.0858 171.721L65.0513 171.296C62.8548 171.56 60.3018 171.583 58.3353 171.583L58.4273 172.089C59.3013 172.089 60.2788 172.078 61.3023 172.043V173.711ZM60.5663 177.173V176.034H66.6038V174.079H59.9453V174.539H66.0058V175.585H59.9798V177.656H67.0178V177.173H60.5663ZM77.2749 167.581H76.6654V172.906H77.2749V167.581ZM69.8574 170.226C69.8574 169.249 70.6969 168.513 71.8354 168.513C72.9739 168.513 73.8134 169.249 73.8134 170.226C73.8134 171.215 72.9739 171.94 71.8354 171.94C70.6969 171.94 69.8574 171.215 69.8574 170.226ZM74.4114 170.226C74.4114 168.904 73.3419 167.995 71.8354 167.995C70.3289 167.995 69.2594 168.904 69.2594 170.226C69.2594 171.549 70.3289 172.446 71.8354 172.446C73.3419 172.446 74.4114 171.549 74.4114 170.226ZM71.4214 177.138V175.723H77.2749V173.458H70.7889V173.964H76.6769V175.24H70.8234V177.644H77.6774V177.138H71.4214Z" fill="#121212"/>
<path d="M106.506 177H111.807V176.091H109.473C109.048 176.091 108.53 176.137 108.093 176.172C110.071 174.297 111.394 172.584 111.394 170.905C111.394 169.398 110.451 168.409 108.944 168.409C107.875 168.409 107.15 168.904 106.46 169.651L107.07 170.249C107.53 169.697 108.128 169.272 108.818 169.272C109.864 169.272 110.37 169.973 110.37 170.939C110.37 172.388 109.151 174.067 106.506 176.379V177ZM115.576 177.15C117.174 177.15 118.198 175.689 118.198 172.756C118.198 169.835 117.174 168.409 115.576 168.409C113.966 168.409 112.942 169.824 112.942 172.756C112.942 175.689 113.966 177.15 115.576 177.15ZM115.576 176.31C114.61 176.31 113.966 175.24 113.966 172.756C113.966 170.295 114.61 169.249 115.576 169.249C116.53 169.249 117.174 170.295 117.174 172.756C117.174 175.24 116.53 176.31 115.576 176.31ZM119.77 177H124.393V176.126H122.702V168.559H121.897C121.437 168.835 120.897 169.03 120.149 169.168V169.835H121.644V176.126H119.77V177ZM128.345 177.15C129.932 177.15 130.99 176.195 130.99 174.964C130.99 173.814 130.3 173.182 129.564 172.756V172.699C130.07 172.308 130.691 171.549 130.691 170.664C130.691 169.364 129.817 168.444 128.38 168.444C127.069 168.444 126.068 169.295 126.068 170.583C126.068 171.468 126.586 172.101 127.207 172.526V172.584C126.436 172.998 125.654 173.78 125.654 174.907C125.654 176.206 126.793 177.15 128.345 177.15ZM128.92 172.423C127.931 172.032 127.023 171.595 127.023 170.583C127.023 169.766 127.586 169.214 128.368 169.214C129.277 169.214 129.794 169.893 129.794 170.721C129.794 171.342 129.495 171.917 128.92 172.423ZM128.368 176.367C127.356 176.367 126.609 175.712 126.609 174.815C126.609 174.01 127.08 173.343 127.759 172.906C128.955 173.389 129.99 173.814 129.99 174.941C129.99 175.781 129.334 176.367 128.368 176.367ZM132.045 174.182H134.989V173.377H132.045V174.182ZM138.699 177.15C140.298 177.15 141.321 175.689 141.321 172.756C141.321 169.835 140.298 168.409 138.699 168.409C137.089 168.409 136.066 169.824 136.066 172.756C136.066 175.689 137.089 177.15 138.699 177.15ZM138.699 176.31C137.733 176.31 137.089 175.24 137.089 172.756C137.089 170.295 137.733 169.249 138.699 169.249C139.654 169.249 140.298 170.295 140.298 172.756C140.298 175.24 139.654 176.31 138.699 176.31ZM144.883 177.15C146.309 177.15 147.643 176.103 147.643 174.251C147.643 172.4 146.504 171.572 145.101 171.572C144.595 171.572 144.227 171.698 143.848 171.905L144.055 169.467H147.24V168.559H143.135L142.87 172.515L143.434 172.86C143.917 172.538 144.273 172.365 144.837 172.365C145.895 172.365 146.585 173.078 146.585 174.286C146.585 175.516 145.78 176.275 144.791 176.275C143.813 176.275 143.204 175.827 142.721 175.344L142.203 176.034C142.767 176.597 143.572 177.15 144.883 177.15ZM148.789 174.182H151.733V173.377H148.789V174.182ZM155.444 177.15C157.043 177.15 158.066 175.689 158.066 172.756C158.066 169.835 157.043 168.409 155.444 168.409C153.834 168.409 152.811 169.824 152.811 172.756C152.811 175.689 153.834 177.15 155.444 177.15ZM155.444 176.31C154.478 176.31 153.834 175.24 153.834 172.756C153.834 170.295 154.478 169.249 155.444 169.249C156.399 169.249 157.043 170.295 157.043 172.756C157.043 175.24 156.399 176.31 155.444 176.31ZM159.638 177H164.261V176.126H162.57V168.559H161.765C161.305 168.835 160.765 169.03 160.017 169.168V169.835H161.512V176.126H159.638V177Z" fill="#121212"/>
<path d="M34.786 192.916H28.438V190.593H34.7055V190.076H27.84V193.434H34.786V192.916ZM31.267 199.276C29.519 199.276 28.4035 198.781 28.4035 197.953C28.4035 197.125 29.519 196.631 31.267 196.631C33.015 196.631 34.1305 197.125 34.1305 197.953C34.1305 198.781 33.015 199.276 31.267 199.276ZM31.267 196.136C29.105 196.136 27.794 196.792 27.794 197.953C27.794 199.127 29.105 199.771 31.267 199.771C33.429 199.771 34.74 199.127 34.74 197.953C34.74 196.792 33.429 196.136 31.267 196.136ZM26.6555 194.572V195.09H35.89V194.572H26.6555ZM38.2581 197.24H44.7096V199.667H45.3191V196.723H38.2581V197.24ZM42.1566 195.297V194.009H45.4916V193.503H39.0401V192.18H45.2616V189.892H38.4191V190.386H44.6636V191.697H38.4421V194.009H41.5471V195.297H37.2116V195.814H46.4921V195.297H42.1566ZM53.2417 195.688V196.171H55.4152V197.378H56.0247V189.604H55.4152V195.688H53.2417ZM51.0912 190.513C52.2182 190.513 53.0002 191.042 53.0002 191.789C53.0002 192.56 52.2182 193.077 51.0912 193.077C49.9642 193.077 49.1822 192.56 49.1822 191.789C49.1822 191.042 49.9642 190.513 51.0912 190.513ZM51.0912 193.549C52.5862 193.549 53.5752 192.87 53.5752 191.789C53.5752 190.72 52.5862 190.041 51.0912 190.041C49.5962 190.041 48.5957 190.72 48.5957 191.789C48.5957 192.87 49.5962 193.549 51.0912 193.549ZM50.8612 196.964H51.4707V194.883C52.4597 194.825 53.4832 194.745 54.4492 194.584L54.3917 194.135C52.1952 194.411 49.6422 194.434 47.7447 194.434L47.8367 194.963C48.7337 194.963 49.7572 194.963 50.8612 194.917V196.964ZM49.8952 199.035V196.608H49.2972V199.552H56.2892V199.035H49.8952ZM63.8208 194.526V194.975H65.9943V195.665H66.6038V189.604H65.9943V194.526H63.8208ZM61.6703 190.271C62.8203 190.271 63.5793 190.708 63.5793 191.352C63.5793 191.996 62.8203 192.433 61.6703 192.433C60.5088 192.433 59.7498 191.996 59.7498 191.352C59.7498 190.708 60.5088 190.271 61.6703 190.271ZM61.6703 192.882C63.1768 192.882 64.1658 192.307 64.1658 191.352C64.1658 190.398 63.1768 189.823 61.6703 189.823C60.1523 189.823 59.1748 190.398 59.1748 191.352C59.1748 192.307 60.1523 192.882 61.6703 192.882ZM61.3023 195.711H61.9118V194.02C62.9698 193.963 64.0623 193.882 65.0858 193.721L65.0513 193.296C62.8548 193.56 60.3018 193.583 58.3353 193.583L58.4273 194.089C59.3013 194.089 60.2788 194.078 61.3023 194.043V195.711ZM60.5663 199.173V198.034H66.6038V196.079H59.9453V196.539H66.0058V197.585H59.9798V199.656H67.0178V199.173H60.5663ZM77.2749 189.581H76.6654V194.906H77.2749V189.581ZM69.8574 192.226C69.8574 191.249 70.6969 190.513 71.8354 190.513C72.9739 190.513 73.8134 191.249 73.8134 192.226C73.8134 193.215 72.9739 193.94 71.8354 193.94C70.6969 193.94 69.8574 193.215 69.8574 192.226ZM74.4114 192.226C74.4114 190.904 73.3419 189.995 71.8354 189.995C70.3289 189.995 69.2594 190.904 69.2594 192.226C69.2594 193.549 70.3289 194.446 71.8354 194.446C73.3419 194.446 74.4114 193.549 74.4114 192.226ZM71.4214 199.138V197.723H77.2749V195.458H70.7889V195.964H76.6769V197.24H70.8234V199.644H77.6774V199.138H71.4214Z" fill="#121212"/>
<path d="M106.506 199H111.807V198.091H109.473C109.048 198.091 108.53 198.137 108.093 198.172C110.071 196.297 111.394 194.584 111.394 192.905C111.394 191.398 110.451 190.409 108.944 190.409C107.875 190.409 107.15 190.904 106.46 191.651L107.07 192.249C107.53 191.697 108.128 191.272 108.818 191.272C109.864 191.272 110.37 191.973 110.37 192.939C110.37 194.388 109.151 196.067 106.506 198.379V199ZM115.576 199.15C117.174 199.15 118.198 197.689 118.198 194.756C118.198 191.835 117.174 190.409 115.576 190.409C113.966 190.409 112.942 191.824 112.942 194.756C112.942 197.689 113.966 199.15 115.576 199.15ZM115.576 198.31C114.61 198.31 113.966 197.24 113.966 194.756C113.966 192.295 114.61 191.249 115.576 191.249C116.53 191.249 117.174 192.295 117.174 194.756C117.174 197.24 116.53 198.31 115.576 198.31ZM119.77 199H124.393V198.126H122.702V190.559H121.897C121.437 190.835 120.897 191.03 120.149 191.168V191.835H121.644V198.126H119.77V199ZM128.345 199.15C129.932 199.15 130.99 198.195 130.99 196.964C130.99 195.814 130.3 195.182 129.564 194.756V194.699C130.07 194.308 130.691 193.549 130.691 192.664C130.691 191.364 129.817 190.444 128.38 190.444C127.069 190.444 126.068 191.295 126.068 192.583C126.068 193.468 126.586 194.101 127.207 194.526V194.584C126.436 194.998 125.654 195.78 125.654 196.907C125.654 198.206 126.793 199.15 128.345 199.15ZM128.92 194.423C127.931 194.032 127.023 193.595 127.023 192.583C127.023 191.766 127.586 191.214 128.368 191.214C129.277 191.214 129.794 191.893 129.794 192.721C129.794 193.342 129.495 193.917 128.92 194.423ZM128.368 198.367C127.356 198.367 126.609 197.712 126.609 196.815C126.609 196.01 127.08 195.343 127.759 194.906C128.955 195.389 129.99 195.814 129.99 196.941C129.99 197.781 129.334 198.367 128.368 198.367ZM132.045 196.182H134.989V195.377H132.045V196.182ZM138.699 199.15C140.298 199.15 141.321 197.689 141.321 194.756C141.321 191.835 140.298 190.409 138.699 190.409C137.089 190.409 136.066 191.824 136.066 194.756C136.066 197.689 137.089 199.15 138.699 199.15ZM138.699 198.31C137.733 198.31 137.089 197.24 137.089 194.756C137.089 192.295 137.733 191.249 138.699 191.249C139.654 191.249 140.298 192.295 140.298 194.756C140.298 197.24 139.654 198.31 138.699 198.31ZM143.376 193.146C143.376 191.996 143.997 191.237 144.802 191.237C145.883 191.237 146.527 192.157 146.642 193.894C146.102 194.687 145.458 195.021 144.883 195.021C143.882 195.021 143.376 194.285 143.376 193.146ZM144.572 199.15C146.159 199.15 147.631 197.838 147.631 194.423C147.631 191.743 146.424 190.409 144.802 190.409C143.491 190.409 142.387 191.513 142.387 193.146C142.387 194.894 143.307 195.803 144.71 195.803C145.412 195.803 146.136 195.4 146.654 194.768C146.573 197.378 145.63 198.275 144.538 198.275C143.997 198.275 143.48 198.034 143.135 197.631L142.548 198.287C143.02 198.781 143.664 199.15 144.572 199.15ZM148.789 196.182H151.733V195.377H148.789V196.182ZM152.753 199H158.055V198.091H155.72C155.295 198.091 154.777 198.137 154.34 198.172C156.318 196.297 157.641 194.584 157.641 192.905C157.641 191.398 156.698 190.409 155.191 190.409C154.122 190.409 153.397 190.904 152.707 191.651L153.317 192.249C153.777 191.697 154.375 191.272 155.065 191.272C156.111 191.272 156.617 191.973 156.617 192.939C156.617 194.388 155.398 196.067 152.753 198.379V199ZM161.823 199.15C163.421 199.15 164.445 197.689 164.445 194.756C164.445 191.835 163.421 190.409 161.823 190.409C160.213 190.409 159.189 191.824 159.189 194.756C159.189 197.689 160.213 199.15 161.823 199.15ZM161.823 198.31C160.857 198.31 160.213 197.24 160.213 194.756C160.213 192.295 160.857 191.249 161.823 191.249C162.777 191.249 163.421 192.295 163.421 194.756C163.421 197.24 162.777 198.31 161.823 198.31Z" fill="#121212"/>
</svg>
