<svg width="310" height="270" viewBox="0 0 310 270" fill="none" xmlns="http://www.w3.org/2000/svg">
<rect x="0.5" y="0.5" width="308" height="269" rx="9.5" fill="#FAFAFA" stroke="#E0E0E0"/>
<rect x="23.9995" y="18" width="65" height="23" rx="2" fill="#0032A0"/>
<path d="M49.4435 28.844H43.3235V28.196H49.0955V27.044H43.3235V26.444H49.3595V25.244H41.7515V30.044H49.4435V28.844ZM41.6195 33.92H47.6915V36.044H49.2755V32.672H41.6195V33.92ZM40.5035 30.716V31.976H50.4995V30.716H40.5035ZM57.9986 26.612H55.5866V25.172H54.0026V26.612L51.5546 26.612V27.896L57.9986 27.896V26.612ZM54.7826 32.444C54.1106 32.444 53.5946 31.952 53.5946 31.136C53.5946 30.32 54.1106 29.828 54.7826 29.828C55.4666 29.828 55.9946 30.32 55.9946 31.136C55.9946 31.952 55.4666 32.444 54.7826 32.444ZM54.7826 28.496C53.2706 28.496 52.1306 29.612 52.1306 31.136C52.1306 32.66 53.2706 33.776 54.7826 33.776C56.3066 33.776 57.4466 32.66 57.4466 31.136C57.4466 29.612 56.3066 28.496 54.7826 28.496ZM59.2466 24.98V29.324H57.7946V30.608H59.2466V36.032H60.8306V24.98H59.2466ZM68.2576 30.872V32.096H70.3936V33.296H71.9776V24.98L70.3936 24.98V30.872H68.2576ZM65.6056 34.58V32.624H66.9856V30.248C67.9096 30.164 68.8336 30.068 69.7336 29.9L69.6256 28.784C69.2896 28.832 68.9416 28.88 68.5936 28.916C68.7856 27.524 68.7856 26.504 68.7856 25.916V25.532H63.5176V26.792H67.2136C67.1896 27.368 67.1296 28.112 66.9976 29.036C65.3896 29.132 63.8056 29.144 62.5096 29.144L62.7016 30.404C63.5176 30.404 64.4416 30.392 65.4136 30.344V32.468H64.0216V35.84L72.2176 35.84V34.58L65.6056 34.58Z" fill="white"/>
<path d="M35.74 66.365H29.5185V65.077H35.4065V64.5825H29.5185V63.3865H35.694V62.892H28.909V66.871H35.74V66.365ZM28.679 70.2405H35.0385V72.805H35.648V69.7345H28.679L28.679 70.2405ZM27.6555 68.0325V68.55H36.8785V68.0325H27.6555ZM44.2836 64.2835H41.5696V62.685H40.9601V64.2835H38.2001V64.801H44.2836V64.2835ZM41.2591 69.8725C40.2241 69.8725 39.4651 69.1135 39.4651 68.113C39.4651 67.1125 40.2241 66.342 41.2591 66.342C42.2826 66.342 43.0531 67.1125 43.0531 68.113C43.0531 69.1135 42.2826 69.8725 41.2591 69.8725ZM41.2591 65.813C39.9021 65.813 38.9016 66.7675 38.9016 68.113C38.9016 69.4585 39.9021 70.4015 41.2591 70.4015C42.6276 70.4015 43.6166 69.4585 43.6166 68.113C43.6166 66.7675 42.6276 65.813 41.2591 65.813ZM45.9396 62.5815V67.032H44.0536V67.5495H45.9396V72.7935H46.5491V62.5815H45.9396ZM53.2757 67.331H49.9062V63.8925L53.2757 63.8925V67.331ZM56.5187 64.8585V66.365H53.8737V64.8585H56.5187ZM53.8737 66.8825H56.5187V68.665H57.1282V62.593H56.5187V64.341H53.8737V63.3865L49.3197 63.3865V67.837H53.8737V66.8825ZM53.8277 72.276C52.1602 72.276 51.0907 71.747 51.0907 70.8845C51.0907 70.0335 52.1602 69.493 53.8277 69.493C55.4952 69.493 56.5762 70.0335 56.5762 70.8845C56.5762 71.747 55.4952 72.276 53.8277 72.276ZM53.8277 68.9985C51.7577 68.9985 50.4812 69.677 50.4812 70.8845C50.4812 72.092 51.7577 72.7705 53.8277 72.7705C55.8977 72.7705 57.1742 72.092 57.1742 70.8845C57.1742 69.677 55.8977 68.9985 53.8277 68.9985Z" fill="#121212"/>
<path d="M83.634 64.5135H85.474V63.743H80.7705V64.5135H82.7255V65.445C82.7255 67.3425 81.9205 69.217 80.483 70.0795L81.058 70.781C82.0815 70.137 82.829 68.9295 83.1855 67.515C83.542 68.826 84.255 69.93 85.2555 70.528L85.8305 69.838C84.4045 69.033 83.634 67.239 83.634 65.445V64.5135ZM86.394 66.2385H84.692V67.009H86.394V72.3105H87.291V62.7655H86.394V66.2385ZM88.464 62.524V72.8395H89.3725V62.524H88.464ZM94.1629 72H98.7859V71.126H97.0954V63.559H96.2904C95.8304 63.835 95.2899 64.0305 94.5424 64.1685V64.8355H96.0374V71.126H94.1629V72ZM102.727 72.1495C104.325 72.1495 105.349 70.689 105.349 67.7565C105.349 64.8355 104.325 63.4095 102.727 63.4095C101.117 63.4095 100.093 64.824 100.093 67.7565C100.093 70.689 101.117 72.1495 102.727 72.1495ZM102.727 71.31C101.761 71.31 101.117 70.2405 101.117 67.7565C101.117 65.2955 101.761 64.249 102.727 64.249C103.681 64.249 104.325 65.2955 104.325 67.7565C104.325 70.2405 103.681 71.31 102.727 71.31ZM106.438 69.1825H109.382V68.3775H106.438V69.1825ZM110.908 72H115.531V71.126H113.84V63.559H113.035C112.575 63.835 112.035 64.0305 111.287 64.1685V64.8355H112.782V71.126H110.908V72ZM117.769 66.1465C117.769 64.9965 118.39 64.2375 119.195 64.2375C120.276 64.2375 120.92 65.1575 121.035 66.894C120.495 67.6875 119.851 68.021 119.276 68.021C118.275 68.021 117.769 67.285 117.769 66.1465ZM118.965 72.1495C120.552 72.1495 122.024 70.8385 122.024 67.423C122.024 64.7435 120.817 63.4095 119.195 63.4095C117.884 63.4095 116.78 64.5135 116.78 66.1465C116.78 67.8945 117.7 68.803 119.103 68.803C119.805 68.803 120.529 68.4005 121.047 67.768C120.966 70.3785 120.023 71.2755 118.931 71.2755C118.39 71.2755 117.873 71.034 117.528 70.6315L116.941 71.287C117.413 71.7815 118.057 72.1495 118.965 72.1495ZM126.023 67.5495C127.046 67.5495 127.552 68.274 127.552 69.4125C127.552 70.5625 126.92 71.333 126.115 71.333C125.057 71.333 124.424 70.3785 124.298 68.6305C124.815 67.86 125.494 67.5495 126.023 67.5495ZM126.115 72.1495C127.426 72.1495 128.53 71.0455 128.53 69.4125C128.53 67.653 127.621 66.7675 126.195 66.7675C125.528 66.7675 124.792 67.1585 124.275 67.791C124.321 65.169 125.298 64.2835 126.448 64.2835C126.966 64.2835 127.472 64.525 127.805 64.9275L128.38 64.272C127.92 63.7775 127.288 63.4095 126.414 63.4095C124.781 63.4095 123.297 64.6745 123.297 67.975C123.297 70.758 124.493 72.1495 126.115 72.1495ZM132.034 72.1495C133.46 72.1495 134.794 71.103 134.794 69.2515C134.794 67.4 133.655 66.572 132.252 66.572C131.746 66.572 131.378 66.6985 130.999 66.9055L131.206 64.4675H134.391V63.559H130.286L130.021 67.515L130.585 67.86C131.068 67.538 131.424 67.3655 131.988 67.3655C133.046 67.3655 133.736 68.0785 133.736 69.286C133.736 70.5165 132.931 71.2755 131.942 71.2755C130.964 71.2755 130.355 70.827 129.872 70.344L129.354 71.034C129.918 71.5975 130.723 72.1495 132.034 72.1495ZM138.608 72.1495C140.207 72.1495 141.23 70.689 141.23 67.7565C141.23 64.8355 140.207 63.4095 138.608 63.4095C136.998 63.4095 135.975 64.824 135.975 67.7565C135.975 70.689 136.998 72.1495 138.608 72.1495ZM138.608 71.31C137.642 71.31 136.998 70.2405 136.998 67.7565C136.998 65.2955 137.642 64.249 138.608 64.249C139.563 64.249 140.207 65.2955 140.207 67.7565C140.207 70.2405 139.563 71.31 138.608 71.31ZM144.792 72.1495C146.218 72.1495 147.552 71.103 147.552 69.2515C147.552 67.4 146.413 66.572 145.01 66.572C144.504 66.572 144.136 66.6985 143.757 66.9055L143.964 64.4675H147.149V63.559L143.044 63.559L142.779 67.515L143.343 67.86C143.826 67.538 144.182 67.3655 144.746 67.3655C145.804 67.3655 146.494 68.0785 146.494 69.286C146.494 70.5165 145.689 71.2755 144.7 71.2755C143.722 71.2755 143.113 70.827 142.63 70.344L142.112 71.034C142.676 71.5975 143.481 72.1495 144.792 72.1495ZM148.675 72H153.976V71.0915H151.642C151.216 71.0915 150.699 71.1375 150.262 71.172C152.24 69.2975 153.562 67.584 153.562 65.905C153.562 64.3985 152.619 63.4095 151.113 63.4095C150.043 63.4095 149.319 63.904 148.629 64.6515L149.238 65.2495C149.698 64.6975 150.296 64.272 150.986 64.272C152.033 64.272 152.539 64.9735 152.539 65.9395C152.539 67.3885 151.32 69.0675 148.675 71.379V72ZM163.989 64.042H160.298V62.6965H159.355V64.042H155.617V64.8125H163.989V64.042ZM157.388 67.469C157.388 66.71 158.32 66.25 159.826 66.25C161.31 66.25 162.23 66.71 162.23 67.469C162.23 68.2395 161.31 68.6995 159.826 68.6995C158.32 68.6995 157.388 68.2395 157.388 67.469ZM160.298 70.873V69.424C162.092 69.309 163.184 68.619 163.184 67.469C163.184 66.227 161.885 65.514 159.826 65.514C157.733 65.514 156.434 66.227 156.434 67.469C156.434 68.619 157.538 69.3205 159.355 69.424V70.873H155.157V71.6435H164.507V70.873H160.298Z" fill="#121212"/>
<path d="M28.4145 88.664C29.967 88.503 31.6805 87.928 32.267 86.8125C32.8535 87.9395 34.567 88.503 36.1195 88.664L36.315 88.181C34.6475 88.0315 32.658 87.3415 32.589 86.0305H35.9125V85.536H32.5775V84.4895H31.968V85.536H28.6445V86.0305H31.945C31.876 87.3415 29.8865 88.0315 28.219 88.181L28.4145 88.664ZM36.8785 89.745V89.2505H27.6555V89.745H31.9565V90.872H28.8055V91.3435H35.0615V92.459H28.8285V94.6555H35.993V94.161H29.4265V92.9305H35.6595V90.872H32.566V89.745H36.8785ZM43.6626 90.688V91.171H45.8361V92.3785H46.4456V84.6045H45.8361V90.688H43.6626ZM41.5121 85.513C42.6391 85.513 43.4211 86.042 43.4211 86.7895C43.4211 87.56 42.6391 88.0775 41.5121 88.0775C40.3851 88.0775 39.6031 87.56 39.6031 86.7895C39.6031 86.042 40.3851 85.513 41.5121 85.513ZM41.5121 88.549C43.0071 88.549 43.9961 87.8705 43.9961 86.7895C43.9961 85.72 43.0071 85.0415 41.5121 85.0415C40.0171 85.0415 39.0166 85.72 39.0166 86.7895C39.0166 87.8705 40.0171 88.549 41.5121 88.549ZM41.2821 91.9645H41.8916V89.883C42.8806 89.8255 43.9041 89.745 44.8701 89.584L44.8126 89.1355C42.6161 89.4115 40.0631 89.4345 38.1656 89.4345L38.2576 89.9635C39.1546 89.9635 40.1781 89.9635 41.2821 89.9175V91.9645ZM40.3161 94.0345V91.608H39.7181V94.552H46.7101V94.0345H40.3161ZM53.2412 89.8255H49.9752V87.7325H53.2412V89.8255ZM53.8392 88.089H56.5187V92.1715H57.1282V84.6045H56.5187V87.5715H53.8392V85.2715H53.2412V87.2265H49.9752V85.2715H49.3657V90.343H53.8392V88.089ZM51.2977 94.0345V91.4355H50.6882V94.552H57.3812V94.0345H51.2977ZM68.0868 86.226H64.3148V84.7885H63.7053V86.226H59.8873V86.7435H68.0868V86.226ZM61.3478 89.4805C61.3478 88.618 62.3943 88.0775 64.0043 88.0775C65.6143 88.0775 66.6608 88.618 66.6608 89.4805C66.6608 90.3545 65.6143 90.9065 64.0043 90.9065C62.3943 90.9065 61.3478 90.3545 61.3478 89.4805ZM64.3148 92.988V91.3895C66.1433 91.3205 67.2703 90.6305 67.2703 89.4805C67.2703 88.273 66.0168 87.5715 64.0043 87.5715C61.9918 87.5715 60.7383 88.273 60.7383 89.4805C60.7383 90.6305 61.8653 91.3205 63.7053 91.401V92.988H59.3928V93.5055H68.6503V92.988H64.3148Z" fill="#121212"/>
<path d="M83.634 86.5135H85.474V85.743H80.7705V86.5135H82.7255V87.445C82.7255 89.3425 81.9205 91.217 80.483 92.0795L81.058 92.781C82.0815 92.137 82.829 90.9295 83.1855 89.515C83.542 90.826 84.255 91.93 85.2555 92.528L85.8305 91.838C84.4045 91.033 83.634 89.239 83.634 87.445V86.5135ZM86.394 88.2385H84.692V89.009H86.394V94.3105H87.291V84.7655H86.394V88.2385ZM88.464 84.524V94.8395H89.3725V84.524H88.464ZM94.1629 94H98.7859V93.126H97.0954V85.559H96.2904C95.8304 85.835 95.2899 86.0305 94.5424 86.1685V86.8355H96.0374V93.126H94.1629V94ZM102.727 94.1495C104.325 94.1495 105.349 92.689 105.349 89.7565C105.349 86.8355 104.325 85.4095 102.727 85.4095C101.117 85.4095 100.093 86.824 100.093 89.7565C100.093 92.689 101.117 94.1495 102.727 94.1495ZM102.727 93.31C101.761 93.31 101.117 92.2405 101.117 89.7565C101.117 87.2955 101.761 86.249 102.727 86.249C103.681 86.249 104.325 87.2955 104.325 89.7565C104.325 92.2405 103.681 93.31 102.727 93.31ZM106.438 91.1825H109.382V90.3775H106.438V91.1825ZM110.402 94H115.703V93.0915H113.369C112.943 93.0915 112.426 93.1375 111.989 93.172C113.967 91.2975 115.289 89.584 115.289 87.905C115.289 86.3985 114.346 85.4095 112.84 85.4095C111.77 85.4095 111.046 85.904 110.356 86.6515L110.965 87.2495C111.425 86.6975 112.023 86.272 112.713 86.272C113.76 86.272 114.266 86.9735 114.266 87.9395C114.266 89.3885 113.047 91.0675 110.402 93.379V94ZM119.471 94.1495C121.07 94.1495 122.093 92.689 122.093 89.7565C122.093 86.8355 121.07 85.4095 119.471 85.4095C117.861 85.4095 116.838 86.824 116.838 89.7565C116.838 92.689 117.861 94.1495 119.471 94.1495ZM119.471 93.31C118.505 93.31 117.861 92.2405 117.861 89.7565C117.861 87.2955 118.505 86.249 119.471 86.249C120.426 86.249 121.07 87.2955 121.07 89.7565C121.07 92.2405 120.426 93.31 119.471 93.31ZM123.665 94H128.288V93.126H126.598V85.559H125.793C125.333 85.835 124.792 86.0305 124.045 86.1685V86.8355H125.54V93.126H123.665V94ZM131.309 94H132.402C132.528 90.6995 132.896 88.733 134.874 86.203V85.559H129.596V86.4675H133.678C132.034 88.7675 131.447 90.803 131.309 94ZM135.94 91.1825H138.884V90.3775H135.94V91.1825ZM142.595 94.1495C144.193 94.1495 145.217 92.689 145.217 89.7565C145.217 86.8355 144.193 85.4095 142.595 85.4095C140.985 85.4095 139.961 86.824 139.961 89.7565C139.961 92.689 140.985 94.1495 142.595 94.1495ZM142.595 93.31C141.629 93.31 140.985 92.2405 140.985 89.7565C140.985 87.2955 141.629 86.249 142.595 86.249C143.549 86.249 144.193 87.2955 144.193 89.7565C144.193 92.2405 143.549 93.31 142.595 93.31ZM148.974 94.1495C150.572 94.1495 151.596 92.689 151.596 89.7565C151.596 86.8355 150.572 85.4095 148.974 85.4095C147.364 85.4095 146.34 86.824 146.34 89.7565C146.34 92.689 147.364 94.1495 148.974 94.1495ZM148.974 93.31C148.008 93.31 147.364 92.2405 147.364 89.7565C147.364 87.2955 148.008 86.249 148.974 86.249C149.928 86.249 150.572 87.2955 150.572 89.7565C150.572 92.2405 149.928 93.31 148.974 93.31ZM153.478 90.8375L155.399 87.9625C155.64 87.5485 155.87 87.1345 156.077 86.7205H156.123C156.1 87.1575 156.066 87.836 156.066 88.25V90.8375H153.478ZM156.066 94H157.055V91.677H158.17V90.8375H157.055V85.559H155.893L152.386 90.987V91.677H156.066V94ZM161.904 89.5495C162.928 89.5495 163.434 90.274 163.434 91.4125C163.434 92.5625 162.801 93.333 161.996 93.333C160.938 93.333 160.306 92.3785 160.179 90.6305C160.697 89.86 161.375 89.5495 161.904 89.5495ZM161.996 94.1495C163.307 94.1495 164.411 93.0455 164.411 91.4125C164.411 89.653 163.503 88.7675 162.077 88.7675C161.41 88.7675 160.674 89.1585 160.156 89.791C160.202 87.169 161.18 86.2835 162.33 86.2835C162.847 86.2835 163.353 86.525 163.687 86.9275L164.262 86.272C163.802 85.7775 163.169 85.4095 162.295 85.4095C160.662 85.4095 159.179 86.6745 159.179 89.975C159.179 92.758 160.375 94.1495 161.996 94.1495ZM168.283 89.5495C169.307 89.5495 169.813 90.274 169.813 91.4125C169.813 92.5625 169.18 93.333 168.375 93.333C167.317 93.333 166.685 92.3785 166.558 90.6305C167.076 89.86 167.754 89.5495 168.283 89.5495ZM168.375 94.1495C169.686 94.1495 170.79 93.0455 170.79 91.4125C170.79 89.653 169.882 88.7675 168.456 88.7675C167.789 88.7675 167.053 89.1585 166.535 89.791C166.581 87.169 167.559 86.2835 168.709 86.2835C169.226 86.2835 169.732 86.525 170.066 86.9275L170.641 86.272C170.181 85.7775 169.548 85.4095 168.674 85.4095C167.041 85.4095 165.558 86.6745 165.558 89.975C165.558 92.758 166.754 94.1495 168.375 94.1495ZM172.787 88.1465C172.787 86.9965 173.408 86.2375 174.213 86.2375C175.294 86.2375 175.938 87.1575 176.053 88.894C175.513 89.6875 174.869 90.021 174.294 90.021C173.293 90.021 172.787 89.285 172.787 88.1465ZM173.983 94.1495C175.57 94.1495 177.042 92.8385 177.042 89.423C177.042 86.7435 175.835 85.4095 174.213 85.4095C172.902 85.4095 171.798 86.5135 171.798 88.1465C171.798 89.8945 172.718 90.803 174.121 90.803C174.823 90.803 175.547 90.4005 176.065 89.768C175.984 92.3785 175.041 93.2755 173.949 93.2755C173.408 93.2755 172.891 93.034 172.546 92.6315L171.959 93.287C172.431 93.7815 173.075 94.1495 173.983 94.1495ZM179.166 88.1465C179.166 86.9965 179.787 86.2375 180.592 86.2375C181.673 86.2375 182.317 87.1575 182.432 88.894C181.892 89.6875 181.248 90.021 180.673 90.021C179.672 90.021 179.166 89.285 179.166 88.1465ZM180.362 94.1495C181.949 94.1495 183.421 92.8385 183.421 89.423C183.421 86.7435 182.214 85.4095 180.592 85.4095C179.281 85.4095 178.177 86.5135 178.177 88.1465C178.177 89.8945 179.097 90.803 180.5 90.803C181.202 90.803 181.926 90.4005 182.444 89.768C182.363 92.3785 181.42 93.2755 180.328 93.2755C179.787 93.2755 179.27 93.034 178.925 92.6315L178.338 93.287C178.81 93.7815 179.454 94.1495 180.362 94.1495ZM193.492 86.042H189.8V84.6965H188.857V86.042H185.12V86.8125H193.492V86.042ZM186.891 89.469C186.891 88.71 187.822 88.25 189.329 88.25C190.812 88.25 191.732 88.71 191.732 89.469C191.732 90.2395 190.812 90.6995 189.329 90.6995C187.822 90.6995 186.891 90.2395 186.891 89.469ZM189.8 92.873V91.424C191.594 91.309 192.687 90.619 192.687 89.469C192.687 88.227 191.387 87.514 189.329 87.514C187.236 87.514 185.936 88.227 185.936 89.469C185.936 90.619 187.04 91.3205 188.857 91.424V92.873H184.66V93.6435H194.009V92.873H189.8Z" fill="#121212"/>
<path d="M28.4145 110.664C29.967 110.503 31.6805 109.928 32.267 108.812C32.8535 109.939 34.567 110.503 36.1195 110.664L36.315 110.181C34.6475 110.031 32.658 109.341 32.589 108.03H35.9125V107.536H32.5775V106.489H31.968V107.536H28.6445V108.03H31.945C31.876 109.341 29.8865 110.031 28.219 110.181L28.4145 110.664ZM36.8785 111.745V111.25H27.6555V111.745H31.9565V112.872H28.8055V113.343H35.0615V114.459H28.8285V116.656H35.993V116.161H29.4265V114.93H35.6595V112.872H32.566V111.745H36.8785ZM43.6626 112.688V113.171H45.8361V114.378H46.4456V106.604H45.8361V112.688H43.6626ZM41.5121 107.513C42.6391 107.513 43.4211 108.042 43.4211 108.789C43.4211 109.56 42.6391 110.077 41.5121 110.077C40.3851 110.077 39.6031 109.56 39.6031 108.789C39.6031 108.042 40.3851 107.513 41.5121 107.513ZM41.5121 110.549C43.0071 110.549 43.9961 109.87 43.9961 108.789C43.9961 107.72 43.0071 107.041 41.5121 107.041C40.0171 107.041 39.0166 107.72 39.0166 108.789C39.0166 109.87 40.0171 110.549 41.5121 110.549ZM41.2821 113.964H41.8916V111.883C42.8806 111.825 43.9041 111.745 44.8701 111.584L44.8126 111.135C42.6161 111.411 40.0631 111.434 38.1656 111.434L38.2576 111.963C39.1546 111.963 40.1781 111.963 41.2821 111.917V113.964ZM40.3161 116.035V113.608H39.7181V116.552H46.7101V116.035H40.3161ZM57.1167 106.581H56.5072V111.906H57.1167V106.581ZM49.6992 109.226C49.6992 108.249 50.5387 107.513 51.6772 107.513C52.8157 107.513 53.6552 108.249 53.6552 109.226C53.6552 110.215 52.8157 110.94 51.6772 110.94C50.5387 110.94 49.6992 110.215 49.6992 109.226ZM54.2532 109.226C54.2532 107.904 53.1837 106.995 51.6772 106.995C50.1707 106.995 49.1012 107.904 49.1012 109.226C49.1012 110.549 50.1707 111.446 51.6772 111.446C53.1837 111.446 54.2532 110.549 54.2532 109.226ZM51.2632 116.138V114.723H57.1167V112.458H50.6307V112.964H56.5187V114.24H50.6652V116.644H57.5192V116.138H51.2632Z" fill="#121212"/>
<path d="M80.506 116H85.8075V115.091H83.473C83.0475 115.091 82.53 115.137 82.093 115.172C84.071 113.297 85.3935 111.584 85.3935 109.905C85.3935 108.398 84.4505 107.409 82.944 107.409C81.8745 107.409 81.15 107.904 80.46 108.651L81.0695 109.249C81.5295 108.697 82.1275 108.272 82.8175 108.272C83.864 108.272 84.37 108.973 84.37 109.939C84.37 111.388 83.151 113.067 80.506 115.379V116ZM89.5759 116.15C91.1744 116.15 92.1979 114.689 92.1979 111.756C92.1979 108.835 91.1744 107.409 89.5759 107.409C87.9659 107.409 86.9424 108.824 86.9424 111.756C86.9424 114.689 87.9659 116.15 89.5759 116.15ZM89.5759 115.31C88.6099 115.31 87.9659 114.24 87.9659 111.756C87.9659 109.295 88.6099 108.249 89.5759 108.249C90.5304 108.249 91.1744 109.295 91.1744 111.756C91.1744 114.24 90.5304 115.31 89.5759 115.31ZM93.7698 116H98.3928V115.126H96.7023V107.559H95.8973C95.4373 107.835 94.8968 108.03 94.1493 108.168V108.835H95.6443V115.126H93.7698V116ZM101.414 116H102.506C102.633 112.699 103.001 110.733 104.979 108.203V107.559H99.7002V108.467H103.783C102.138 110.767 101.552 112.803 101.414 116ZM106.045 113.182H108.989V112.377H106.045V113.182ZM112.699 116.15C114.298 116.15 115.321 114.689 115.321 111.756C115.321 108.835 114.298 107.409 112.699 107.409C111.089 107.409 110.066 108.824 110.066 111.756C110.066 114.689 111.089 116.15 112.699 116.15ZM112.699 115.31C111.733 115.31 111.089 114.24 111.089 111.756C111.089 109.295 111.733 108.249 112.699 108.249C113.654 108.249 114.298 109.295 114.298 111.756C114.298 114.24 113.654 115.31 112.699 115.31ZM117.204 112.837L119.124 109.962C119.366 109.548 119.596 109.134 119.803 108.72H119.849C119.826 109.157 119.791 109.836 119.791 110.25V112.837H117.204ZM119.791 116H120.78V113.677H121.896V112.837H120.78V107.559H119.619L116.111 112.987V113.677H119.791V116ZM122.789 113.182H125.733V112.377H122.789V113.182ZM127.259 116L131.882 116V115.126H130.192V107.559H129.387C128.927 107.835 128.386 108.03 127.639 108.168V108.835H129.134V115.126H127.259V116ZM133.638 116H138.261V115.126H136.57V107.559H135.765C135.305 107.835 134.765 108.03 134.017 108.168V108.835H135.512V115.126H133.638V116Z" fill="#121212"/>
<path d="M35.786 131.916H29.438V129.593H35.7055V129.076H28.84V132.434H35.786V131.916ZM32.267 138.276C30.519 138.276 29.4035 137.781 29.4035 136.953C29.4035 136.125 30.519 135.631 32.267 135.631C34.015 135.631 35.1305 136.125 35.1305 136.953C35.1305 137.781 34.015 138.276 32.267 138.276ZM32.267 135.136C30.105 135.136 28.794 135.792 28.794 136.953C28.794 138.127 30.105 138.771 32.267 138.771C34.429 138.771 35.74 138.127 35.74 136.953C35.74 135.792 34.429 135.136 32.267 135.136ZM27.6555 133.572V134.09H36.89V133.572H27.6555ZM39.2581 136.24H45.7096V138.667H46.3191V135.723H39.2581V136.24ZM43.1566 134.297V133.009H46.4916V132.503H40.0401V131.18H46.2616V128.892H39.4191V129.386H45.6636V130.697H39.4421V133.009H42.5471V134.297H38.2116V134.814H47.4921V134.297H43.1566ZM57.1167 128.581H56.5072V133.906H57.1167V128.581ZM49.6992 131.226C49.6992 130.249 50.5387 129.513 51.6772 129.513C52.8157 129.513 53.6552 130.249 53.6552 131.226C53.6552 132.215 52.8157 132.94 51.6772 132.94C50.5387 132.94 49.6992 132.215 49.6992 131.226ZM54.2532 131.226C54.2532 129.904 53.1837 128.995 51.6772 128.995C50.1707 128.995 49.1012 129.904 49.1012 131.226C49.1012 132.549 50.1707 133.446 51.6772 133.446C53.1837 133.446 54.2532 132.549 54.2532 131.226ZM51.2632 138.138V136.723H57.1167V134.458H50.6307V134.964H56.5187V136.24H50.6652V138.644H57.5192V138.138H51.2632Z" fill="#121212"/>
<path d="M80.506 138H85.8075V137.091H83.473C83.0475 137.091 82.53 137.137 82.093 137.172C84.071 135.297 85.3935 133.584 85.3935 131.905C85.3935 130.398 84.4505 129.409 82.944 129.409C81.8745 129.409 81.15 129.904 80.46 130.651L81.0695 131.249C81.5295 130.697 82.1275 130.272 82.8175 130.272C83.864 130.272 84.37 130.973 84.37 131.939C84.37 133.388 83.151 135.067 80.506 137.379V138ZM89.5759 138.15C91.1744 138.15 92.1979 136.689 92.1979 133.756C92.1979 130.835 91.1744 129.409 89.5759 129.409C87.9659 129.409 86.9424 130.824 86.9424 133.756C86.9424 136.689 87.9659 138.15 89.5759 138.15ZM89.5759 137.31C88.6099 137.31 87.9659 136.24 87.9659 133.756C87.9659 131.295 88.6099 130.249 89.5759 130.249C90.5304 130.249 91.1744 131.295 91.1744 133.756C91.1744 136.24 90.5304 137.31 89.5759 137.31ZM93.7698 138H98.3928V137.126H96.7023V129.559H95.8973C95.4373 129.835 94.8968 130.03 94.1493 130.168V130.835H95.6443V137.126H93.7698V138ZM100.632 132.146C100.632 130.996 101.253 130.237 102.058 130.237C103.139 130.237 103.783 131.157 103.898 132.894C103.357 133.687 102.713 134.021 102.138 134.021C101.138 134.021 100.632 133.285 100.632 132.146ZM101.828 138.15C103.415 138.15 104.887 136.838 104.887 133.423C104.887 130.743 103.679 129.409 102.058 129.409C100.747 129.409 99.6427 130.513 99.6427 132.146C99.6427 133.894 100.563 134.803 101.966 134.803C102.667 134.803 103.392 134.4 103.909 133.768C103.829 136.378 102.886 137.275 101.793 137.275C101.253 137.275 100.735 137.034 100.39 136.631L99.8037 137.287C100.275 137.781 100.919 138.15 101.828 138.15ZM106.045 135.182H108.989V134.377H106.045V135.182ZM112.699 138.15C114.298 138.15 115.321 136.689 115.321 133.756C115.321 130.835 114.298 129.409 112.699 129.409C111.089 129.409 110.066 130.824 110.066 133.756C110.066 136.689 111.089 138.15 112.699 138.15ZM112.699 137.31C111.733 137.31 111.089 136.24 111.089 133.756C111.089 131.295 111.733 130.249 112.699 130.249C113.654 130.249 114.298 131.295 114.298 133.756C114.298 136.24 113.654 137.31 112.699 137.31ZM118.917 138.15C120.412 138.15 121.62 137.252 121.62 135.746C121.62 134.596 120.826 133.837 119.837 133.607V133.561C120.723 133.227 121.332 132.549 121.332 131.525C121.332 130.191 120.297 129.409 118.883 129.409C117.905 129.409 117.158 129.835 116.525 130.421L117.089 131.088C117.56 130.605 118.158 130.272 118.837 130.272C119.711 130.272 120.263 130.801 120.263 131.606C120.263 132.514 119.665 133.216 117.928 133.216V134.021C119.872 134.021 120.55 134.699 120.55 135.7C120.55 136.677 119.837 137.275 118.837 137.275C117.882 137.275 117.238 136.827 116.744 136.31L116.215 136.999C116.767 137.597 117.595 138.15 118.917 138.15ZM122.789 135.182H125.733V134.377H122.789V135.182ZM126.753 138H132.055V137.091H129.72C129.295 137.091 128.777 137.137 128.34 137.172C130.318 135.297 131.641 133.584 131.641 131.905C131.641 130.398 130.698 129.409 129.191 129.409C128.122 129.409 127.397 129.904 126.707 130.651L127.317 131.249C127.777 130.697 128.375 130.272 129.065 130.272C130.111 130.272 130.617 130.973 130.617 131.939C130.617 133.388 129.398 135.067 126.753 137.379V138ZM134.903 138H135.995C136.122 134.699 136.49 132.733 138.468 130.203V129.559H133.189V130.467H137.272C135.627 132.767 135.041 134.803 134.903 138Z" fill="#121212"/>
<path d="M32.175 154.928H28.7595V153.111H32.175V154.928ZM32.773 150.984H32.175V152.605H28.7595V150.984H28.15V155.434H32.773V150.984ZM29.806 158.758H35.5215V156.469H29.185V156.964H34.9235V158.263H29.208L29.208 160.656H35.9355V160.15H29.806V158.758ZM35.5215 152.916V150.581H34.912V155.917H35.5215V153.445H37.1085V152.916H35.5215ZM42.6966 155.331H39.3271V151.892H42.6966V155.331ZM45.9396 152.858V154.365H43.2946V152.858H45.9396ZM43.2946 154.882H45.9396V156.665H46.5491V150.593H45.9396V152.341H43.2946V151.386H38.7406V155.837H43.2946V154.882ZM43.2486 160.276C41.5811 160.276 40.5116 159.747 40.5116 158.884C40.5116 158.033 41.5811 157.493 43.2486 157.493C44.9161 157.493 45.9971 158.033 45.9971 158.884C45.9971 159.747 44.9161 160.276 43.2486 160.276ZM43.2486 156.998C41.1786 156.998 39.9021 157.677 39.9021 158.884C39.9021 160.092 41.1786 160.771 43.2486 160.771C45.3186 160.771 46.5951 160.092 46.5951 158.884C46.5951 157.677 45.3186 156.998 43.2486 156.998ZM53.2757 155.331H49.9062V151.892H53.2757V155.331ZM56.5187 152.858V154.365H53.8737V152.858H56.5187ZM53.8737 154.882H56.5187V156.665H57.1282V150.593H56.5187V152.341H53.8737V151.386H49.3197V155.837H53.8737V154.882ZM53.8277 160.276C52.1602 160.276 51.0907 159.747 51.0907 158.884C51.0907 158.033 52.1602 157.493 53.8277 157.493C55.4952 157.493 56.5762 158.033 56.5762 158.884C56.5762 159.747 55.4952 160.276 53.8277 160.276ZM53.8277 156.998C51.7577 156.998 50.4812 157.677 50.4812 158.884C50.4812 160.092 51.7577 160.771 53.8277 160.771C55.8977 160.771 57.1742 160.092 57.1742 158.884C57.1742 157.677 55.8977 156.998 53.8277 156.998ZM67.6958 150.604H67.0863V156.918H67.6958V150.604ZM65.6488 155.768C64.2113 155.331 62.9348 154.158 62.9348 152.732V152.467H65.3843V151.961H62.9348V150.581H62.3253V151.961H59.8528V152.467H62.3253V152.732C62.3253 154.261 61.0833 155.549 59.6573 156.044L59.9678 156.527C61.1753 156.09 62.2218 155.124 62.6473 153.882C63.0843 155.009 64.1653 155.86 65.3498 156.251L65.6488 155.768ZM64.3378 160.276C62.6473 160.276 61.5663 159.77 61.5663 158.965C61.5663 158.148 62.6473 157.654 64.3378 157.654C66.0398 157.654 67.1208 158.148 67.1208 158.965C67.1208 159.77 66.0398 160.276 64.3378 160.276ZM64.3378 157.148C62.2218 157.148 60.9568 157.803 60.9568 158.965C60.9568 160.115 62.2218 160.771 64.3378 160.771C66.4538 160.771 67.7303 160.115 67.7303 158.965C67.7303 157.803 66.4538 157.148 64.3378 157.148Z" fill="#121212"/>
<path d="M82.7025 160H83.933L86.6125 151.559H85.5315L84.1745 156.136C83.8755 157.125 83.6685 157.93 83.358 158.919H83.312C82.99 157.93 82.7945 157.125 82.4955 156.136L81.127 151.559H80.0115L82.7025 160ZM87.1207 160H92.4222V159.091H90.0417C89.6047 159.091 89.0987 159.137 88.6617 159.172C90.6052 157.125 92.0082 155.595 92.0082 154.054C92.0082 152.605 91.0652 151.651 89.5587 151.651C88.4892 151.651 87.7647 152.145 87.0747 152.893L87.6842 153.479C88.1442 152.939 88.7422 152.502 89.4322 152.502C90.4787 152.502 90.9847 153.169 90.9847 154.1C90.9847 155.446 89.5932 156.918 87.1207 159.379V160ZM93.1892 160H94.3047L95.5237 157.723C95.7422 157.297 95.9607 156.872 96.2022 156.366H96.2482C96.5242 156.872 96.7542 157.297 96.9727 157.723L98.2147 160H99.3877L96.9267 155.699L99.2267 151.559H98.1112L96.9842 153.721C96.7772 154.112 96.6162 154.468 96.3862 154.951H96.3402C96.0642 154.468 95.8917 154.112 95.6732 153.721L94.5232 151.559H93.3502L95.6502 155.641L93.1892 160ZM103.377 151.651V152.41H107.252C107.057 154.859 105.677 156.837 102.905 158.16L103.411 158.93C106.838 157.251 108.207 154.629 108.207 151.651H103.377ZM110.288 150.535V160.851H111.231V150.535H110.288ZM117.624 155.63H114.703V153.744H117.624V155.63ZM118.544 151.283H117.624V153.008H114.703V151.283H113.772V156.389H118.544V151.283ZM115.876 157.389H114.933V160.621H121.81V159.85H115.876V157.389ZM121.35 153.664V150.547H120.407V158.114H121.35V154.457H122.868V153.664H121.35ZM131.818 160.115C130.185 160.115 129.23 159.712 129.23 158.988C129.23 158.263 130.185 157.861 131.818 157.861C133.428 157.861 134.382 158.263 134.382 158.988C134.382 159.712 133.428 160.115 131.818 160.115ZM131.818 157.125C129.61 157.125 128.276 157.792 128.276 158.988C128.276 160.184 129.61 160.851 131.818 160.851C134.003 160.851 135.337 160.184 135.337 158.988C135.337 157.792 134.003 157.125 131.818 157.125ZM132.289 155.63V154.434H135.394V153.675H129.265V151.766H135.325V151.007H128.322V154.434H131.346V155.63H127.149V156.389H136.487V155.63H132.289ZM143.811 155.572C142.316 155.043 141.304 153.744 141.304 152.421V152.007H143.57V151.237H138.061V152.007H140.361V152.421C140.361 153.882 139.292 155.262 137.762 155.802L138.257 156.55C139.464 156.101 140.407 155.158 140.844 153.974C141.304 155.043 142.19 155.894 143.34 156.308L143.811 155.572ZM139.326 158.033H145.272V160.863H146.226V157.274H139.326V158.033ZM145.272 150.535V153.226H143.259V153.997H145.272V156.711H146.226V150.535H145.272ZM156.187 160.127C154.531 160.127 153.6 159.804 153.6 159.183C153.6 158.574 154.531 158.24 156.187 158.24C157.855 158.24 158.775 158.574 158.775 159.183C158.775 159.804 157.855 160.127 156.187 160.127ZM156.187 157.539C153.945 157.539 152.657 158.114 152.657 159.183C152.657 160.265 153.945 160.84 156.187 160.84C158.43 160.84 159.718 160.265 159.718 159.183C159.718 158.114 158.43 157.539 156.187 157.539ZM156.659 155.998V154.986H159.764V154.25H153.692V153.238H159.43V152.525H153.692V151.57H159.706V150.834H152.749V154.986H155.716V155.998H151.518V156.757H160.856V155.998H156.659ZM168.595 154.112H169.906V157.067H170.815V150.535H169.906V153.341H168.595V150.731H167.698V156.688H168.595V154.112ZM167.284 151.766H165.145V150.616H164.214V151.766H162.052V152.513H167.296L167.284 151.766ZM163.328 154.813C163.328 154.181 163.869 153.755 164.685 153.755C165.49 153.755 166.042 154.181 166.042 154.813C166.042 155.457 165.49 155.883 164.685 155.883C163.869 155.883 163.328 155.457 163.328 154.813ZM166.882 154.813C166.882 153.755 165.985 153.054 164.685 153.054C163.386 153.054 162.477 153.755 162.477 154.813C162.477 155.894 163.386 156.584 164.685 156.584C165.985 156.584 166.882 155.894 166.882 154.813ZM167.422 160.115C165.847 160.115 164.904 159.724 164.904 159.045C164.904 158.355 165.847 157.964 167.422 157.964C168.986 157.964 169.929 158.355 169.929 159.045C169.929 159.724 168.986 160.115 167.422 160.115ZM167.422 157.24C165.272 157.24 163.972 157.884 163.972 159.045C163.972 160.196 165.272 160.84 167.422 160.84C169.573 160.84 170.872 160.196 170.872 159.045C170.872 157.884 169.573 157.24 167.422 157.24ZM179.338 157.504H177.176V154.779H179.338V157.504ZM179.338 154.031H177.176V151.513H176.279V158.263H180.224V151.513H179.338V154.031ZM183.777 150.535V154.618H182.386V150.765H181.5V160.345H182.386V155.388H183.777V160.851H184.674V150.535H183.777ZM191.999 153.215V153.985H194.034V156.688H194.989V150.547H194.034V153.215H191.999ZM192.574 155.561C191.079 155.032 190.067 153.732 190.067 152.41V152.053H192.332V151.294H186.824V152.053H189.124V152.41C189.124 153.893 188.066 155.285 186.525 155.848L187.019 156.596C188.227 156.136 189.181 155.17 189.618 153.974C190.067 155.032 190.952 155.883 192.102 156.297L192.574 155.561ZM191.585 160.115C190.032 160.115 189.089 159.678 189.089 158.93C189.089 158.183 190.032 157.734 191.585 157.734C193.137 157.734 194.08 158.183 194.08 158.93C194.08 159.678 193.137 160.115 191.585 160.115ZM191.585 157.01C189.469 157.01 188.146 157.711 188.146 158.93C188.146 160.15 189.469 160.851 191.585 160.851C193.701 160.851 195.023 160.15 195.023 158.93C195.023 157.711 193.701 157.01 191.585 157.01ZM201.727 151.421C203.417 151.421 204.383 151.812 204.383 152.502C204.383 153.192 203.417 153.583 201.727 153.583C200.036 153.583 199.07 153.192 199.07 152.502C199.07 151.812 200.036 151.421 201.727 151.421ZM201.727 154.284C203.992 154.284 205.349 153.664 205.349 152.502C205.349 151.34 203.992 150.708 201.727 150.708C199.461 150.708 198.104 151.34 198.104 152.502C198.104 153.664 199.461 154.284 201.727 154.284ZM199.139 158.953H205.2V156.63H198.185V157.343H204.268V158.263H198.219V160.736H205.51V160H199.139V158.953ZM197.058 154.986V155.745H206.396V154.986H197.058ZM214.253 151.8C215.253 151.8 215.966 152.341 215.966 153.146C215.966 153.951 215.253 154.491 214.253 154.491C213.241 154.491 212.528 153.951 212.528 153.146C212.528 152.341 213.241 151.8 214.253 151.8ZM214.253 155.262C215.782 155.262 216.875 154.399 216.875 153.146C216.875 151.881 215.782 151.018 214.253 151.018C212.712 151.018 211.619 151.881 211.619 153.146C211.619 154.399 212.712 155.262 214.253 155.262ZM217.645 155.768C215.38 156.113 212.769 156.136 210.849 156.136L210.975 156.929C211.826 156.929 212.804 156.918 213.827 156.872V160.529H214.77V156.814C215.748 156.757 216.748 156.642 217.726 156.469L217.645 155.768ZM218.393 150.547V160.863H219.336V150.547H218.393ZM227.569 151.8H224.993V150.535H224.05V151.8H221.485V152.559H227.569V151.8ZM222.957 155.043C222.957 154.33 223.59 153.87 224.521 153.87C225.453 153.87 226.097 154.33 226.097 155.043C226.097 155.768 225.453 156.228 224.521 156.228C223.59 156.228 222.957 155.768 222.957 155.043ZM226.994 155.043C226.994 153.893 225.982 153.134 224.521 153.134C223.061 153.134 222.06 153.893 222.06 155.043C222.06 156.205 223.061 156.964 224.521 156.964C225.982 156.964 226.994 156.205 226.994 155.043ZM223.981 157.665H223.038V160.621H229.915V159.85H223.981V157.665ZM229.455 153.939V150.535H228.512V158.275H229.455V154.733H230.973V153.939H229.455ZM241.233 155.526C239.715 155.02 238.738 153.813 238.738 152.467V152.065H241.015V151.306H235.483V152.065H237.795V152.467C237.795 153.951 236.76 155.285 235.207 155.825L235.69 156.573C236.921 156.136 237.852 155.216 238.289 154.043C238.726 155.066 239.612 155.883 240.785 156.262L241.233 155.526ZM239.98 160.092C238.439 160.092 237.519 159.666 237.519 158.93C237.519 158.206 238.439 157.78 239.98 157.78C241.498 157.78 242.429 158.206 242.429 158.93C242.429 159.666 241.498 160.092 239.98 160.092ZM239.98 157.033C237.864 157.033 236.576 157.734 236.576 158.93C236.576 160.138 237.864 160.84 239.98 160.84C242.073 160.84 243.372 160.138 243.372 158.93C243.372 157.734 242.073 157.033 239.98 157.033ZM243.257 153.146V150.547H242.314V156.768H243.257V153.939H244.787V153.146H243.257ZM249.627 153.077H251.985V152.318H249.639V150.719H248.684V152.318H246.304V153.077H248.696V153.87C248.696 155.676 247.557 157.412 246.028 158.137L246.557 158.85C247.741 158.275 248.719 157.102 249.179 155.664C249.65 157.021 250.628 158.137 251.812 158.677L252.33 157.941C250.8 157.274 249.627 155.595 249.627 153.87V153.077ZM253.33 150.524V160.84H254.285V150.524H253.33ZM256.664 162.185C257.699 161.748 258.343 160.886 258.343 159.781C258.343 159.011 258.01 158.539 257.458 158.539C257.032 158.539 256.664 158.827 256.664 159.275C256.664 159.758 257.032 160.012 257.435 160.012C257.481 160.012 257.515 160.012 257.561 160C257.561 160.679 257.136 161.242 256.411 161.564L256.664 162.185ZM269.682 150.535V160.874H270.625V150.535H269.682ZM265.185 151.329C263.656 151.329 262.563 152.732 262.563 154.928C262.563 157.125 263.656 158.528 265.185 158.528C266.715 158.528 267.807 157.125 267.807 154.928C267.807 152.732 266.715 151.329 265.185 151.329ZM265.185 152.18C266.186 152.18 266.899 153.261 266.899 154.928C266.899 156.607 266.186 157.688 265.185 157.688C264.173 157.688 263.46 156.607 263.46 154.928C263.46 153.261 264.173 152.18 265.185 152.18ZM279.985 152.341H273.959V154.549H281.1V153.87H274.89V152.985H280.916V150.834H273.936V151.501H279.985V152.341ZM274.833 159.08H280.951V156.883H273.878V157.562H280.019V158.424H273.901V160.713H281.273V160.035H274.833V159.08ZM272.763 155.331V156.044H282.112V155.331H272.763ZM289.946 151.8C290.947 151.8 291.66 152.341 291.66 153.146C291.66 153.951 290.947 154.491 289.946 154.491C288.934 154.491 288.221 153.951 288.221 153.146C288.221 152.341 288.934 151.8 289.946 151.8ZM289.946 155.262C291.476 155.262 292.568 154.399 292.568 153.146C292.568 151.881 291.476 151.018 289.946 151.018C288.405 151.018 287.313 151.881 287.313 153.146C287.313 154.399 288.405 155.262 289.946 155.262ZM293.339 155.768C291.073 156.113 288.463 156.136 286.542 156.136L286.669 156.929C287.52 156.929 288.497 156.918 289.521 156.872V160.529H290.464V156.814C291.441 156.757 292.442 156.642 293.419 156.469L293.339 155.768ZM294.086 150.547V160.863H295.029V150.547H294.086ZM303.262 151.8H300.686V150.535H299.743V151.8H297.179V152.559H303.262V151.8ZM298.651 155.043C298.651 154.33 299.283 153.87 300.215 153.87C301.146 153.87 301.79 154.33 301.79 155.043C301.79 155.768 301.146 156.228 300.215 156.228C299.283 156.228 298.651 155.768 298.651 155.043ZM302.687 155.043C302.687 153.893 301.675 153.134 300.215 153.134C298.754 153.134 297.754 153.893 297.754 155.043C297.754 156.205 298.754 156.964 300.215 156.964C301.675 156.964 302.687 156.205 302.687 155.043ZM299.674 157.665H298.731V160.621H305.608V159.85H299.674V157.665ZM305.148 153.939V150.535H304.205V158.275H305.148V154.733H306.666V153.939H305.148ZM84.8875 172.181H81.9665V170.479H84.8875V172.181ZM85.8075 168.191H84.8875V169.743H81.9665V168.191H81.035V172.94H85.8075V168.191ZM85.336 177.104C83.795 177.104 82.875 176.666 82.875 175.93C82.875 175.194 83.795 174.769 85.336 174.769C86.854 174.769 87.7855 175.194 87.7855 175.93C87.7855 176.666 86.854 177.104 85.336 177.104ZM85.336 174.01C83.2315 174.01 81.932 174.711 81.932 175.93C81.932 177.15 83.2315 177.851 85.336 177.851C87.429 177.851 88.7285 177.15 88.7285 175.93C88.7285 174.711 87.429 174.01 85.336 174.01ZM88.6135 170.134V167.535H87.6705V173.745H88.6135V170.916H90.143V170.134H88.6135ZM98.7441 176.942H94.0061V175.654H98.7441V176.942ZM98.7441 174.918H94.0061V173.665H93.0746V177.702H99.6756V173.665H98.7441V174.918ZM95.4206 172.02H92.6376V170.387H95.4206V172.02ZM98.7326 167.547V170.077H96.3521V168.076H95.4206V169.651H92.6376V168.076H91.7061V172.791H96.3521V170.847H98.7326V173.182H99.6871V167.547H98.7326ZM113.443 167.535H112.5V173.458H113.443V167.535ZM109.43 171.664H106.451V168.95H109.43V171.664ZM110.35 168.202H105.531V172.423H110.35V168.202ZM113.685 174.884V174.159H110.66V173.159H109.706V174.159H106.681V174.884H109.694C109.683 175.907 108.038 176.885 106.279 177.092L106.589 177.817C108.142 177.598 109.568 176.908 110.189 175.93C110.798 176.885 112.178 177.598 113.731 177.817L114.053 177.092C112.282 176.873 110.683 175.873 110.672 174.884H113.685ZM126.291 167.535V177.874H127.234V167.535H126.291ZM121.795 168.329C120.265 168.329 119.173 169.732 119.173 171.928C119.173 174.125 120.265 175.528 121.795 175.528C123.324 175.528 124.417 174.125 124.417 171.928C124.417 169.732 123.324 168.329 121.795 168.329ZM121.795 169.18C122.795 169.18 123.508 170.261 123.508 171.928C123.508 173.607 122.795 174.688 121.795 174.688C120.783 174.688 120.07 173.607 120.07 171.928C120.07 170.261 120.783 169.18 121.795 169.18ZM136.873 172.181H133.952V170.479H136.873V172.181ZM137.793 168.191H136.873V169.743H133.952V168.191H133.021V172.94H137.793V168.191ZM137.322 177.104C135.781 177.104 134.861 176.666 134.861 175.93C134.861 175.194 135.781 174.769 137.322 174.769C138.84 174.769 139.771 175.194 139.771 175.93C139.771 176.666 138.84 177.104 137.322 177.104ZM137.322 174.01C135.217 174.01 133.918 174.711 133.918 175.93C133.918 177.15 135.217 177.851 137.322 177.851C139.415 177.851 140.714 177.15 140.714 175.93C140.714 174.711 139.415 174.01 137.322 174.01ZM140.599 170.134V167.535H139.656V173.745H140.599V170.916H142.129V170.134H140.599ZM150.73 176.942H145.992V175.654H150.73V176.942ZM150.73 174.918H145.992V173.665H145.06V177.702H151.661V173.665H150.73V174.918ZM147.406 172.02H144.623V170.387H147.406V172.02ZM150.718 167.547V170.077H148.338V168.076H147.406V169.651H144.623V168.076H143.692V172.791H148.338V170.847H150.718V173.182H151.673V167.547H150.718ZM158.411 168.421C160.102 168.421 161.068 168.812 161.068 169.502C161.068 170.192 160.102 170.583 158.411 170.583C156.721 170.583 155.755 170.192 155.755 169.502C155.755 168.812 156.721 168.421 158.411 168.421ZM158.411 171.284C160.677 171.284 162.034 170.664 162.034 169.502C162.034 168.34 160.677 167.708 158.411 167.708C156.146 167.708 154.789 168.34 154.789 169.502C154.789 170.664 156.146 171.284 158.411 171.284ZM155.824 175.953H161.884V173.63H154.869V174.343H160.953V175.263H154.904V177.736H162.195V177H155.824V175.953ZM153.742 171.986V172.745H163.08V171.986H153.742ZM176.434 171.468C174.559 171.193 172.719 169.916 172.719 168.478V167.903H171.73V168.478C171.73 169.95 169.913 171.193 168.039 171.468L168.418 172.227C170.028 171.951 171.581 171.066 172.225 169.812C172.892 171.054 174.444 171.951 176.043 172.227L176.434 171.468ZM176.882 173.343H167.567V174.125H171.73V177.863H172.673V174.125H176.894L176.882 173.343ZM184.621 171.112H185.932V174.067H186.84V167.535H185.932V170.341H184.621V167.731H183.724V173.688H184.621V171.112ZM183.31 168.766H181.171V167.616H180.239V168.766L178.077 168.766V169.513L183.321 169.513L183.31 168.766ZM179.354 171.813C179.354 171.181 179.894 170.755 180.711 170.755C181.516 170.755 182.068 171.181 182.068 171.813C182.068 172.457 181.516 172.883 180.711 172.883C179.894 172.883 179.354 172.457 179.354 171.813ZM182.907 171.813C182.907 170.755 182.01 170.054 180.711 170.054C179.411 170.054 178.503 170.755 178.503 171.813C178.503 172.894 179.411 173.584 180.711 173.584C182.01 173.584 182.907 172.894 182.907 171.813ZM183.448 177.115C181.872 177.115 180.929 176.724 180.929 176.045C180.929 175.355 181.872 174.964 183.448 174.964C185.012 174.964 185.955 175.355 185.955 176.045C185.955 176.724 185.012 177.115 183.448 177.115ZM183.448 174.24C181.297 174.24 179.998 174.884 179.998 176.045C179.998 177.196 181.297 177.84 183.448 177.84C185.598 177.84 186.898 177.196 186.898 176.045C186.898 174.884 185.598 174.24 183.448 174.24ZM191.738 174.769C190.807 174.769 190.128 174.102 190.128 173.182C190.128 172.25 190.807 171.583 191.738 171.583C192.681 171.583 193.36 172.25 193.36 173.182C193.36 174.102 192.681 174.769 191.738 174.769ZM191.738 170.801C190.289 170.801 189.243 171.79 189.243 173.182C189.243 174.585 190.289 175.551 191.738 175.551C193.21 175.551 194.257 174.585 194.257 173.182C194.257 171.79 193.21 170.801 191.738 170.801ZM192.198 167.662H191.255V169.191H188.656V169.95H194.74V169.191H192.198V167.662ZM198.351 171.779H196.66V167.547H195.717V177.851H196.66V172.572H198.351V171.779ZM207.562 170.64H201.49V167.915H200.547V171.411H207.562V170.64ZM201.421 174.585H200.478V177.598H207.619V176.827H201.421V174.585ZM199.282 172.791V173.55H208.631V172.791H199.282ZM219.029 172.917H216.465V169.329H219.029V172.917ZM215.522 172.917H213.946V173.688H221.548V172.917H219.972V169.329H221.571V168.57H213.923V169.329H215.522V172.917ZM213.095 175.746V176.528H222.445V175.746H213.095ZM228.815 175.804V173.86H232.115V173.101H225.767V171.434H231.874V168.294H224.813V169.065H230.954V170.675H224.836V173.86H227.86V175.804H223.663V176.574H233.035V175.804H228.815ZM241.407 169.663C241.407 170.939 241.407 172.48 240.993 174.585L241.936 174.688C242.338 172.457 242.338 170.974 242.338 169.663V168.628H235.266V169.398H241.407V169.663ZM234.265 175.563V176.344H243.592V175.563H234.265ZM249.766 172.181C248.559 172.423 247.547 172.48 246.213 172.48V171.02H249.157V168.214H245.281V168.973H248.248V170.307H245.304V173.239H245.983C247.466 173.239 248.547 173.182 249.858 172.94L249.766 172.181ZM247.685 174.941H252.618V176.954H247.685V174.941ZM246.765 177.713H253.538V174.194H246.765V177.713ZM252.63 167.535V170.157H251.25V167.731H250.353V173.561H251.25V170.928H252.63V173.699H253.538V167.535H252.63ZM262.91 167.535V177.874H263.853V167.535H262.91ZM258.413 168.329C256.884 168.329 255.791 169.732 255.791 171.928C255.791 174.125 256.884 175.528 258.413 175.528C259.943 175.528 261.035 174.125 261.035 171.928C261.035 169.732 259.943 168.329 258.413 168.329ZM258.413 169.18C259.414 169.18 260.127 170.261 260.127 171.928C260.127 173.607 259.414 174.688 258.413 174.688C257.401 174.688 256.688 173.607 256.688 171.928C256.688 170.261 257.401 169.18 258.413 169.18ZM269.823 168.651V169.41H273.699C273.503 171.859 272.123 173.837 269.352 175.16L269.858 175.93C273.285 174.251 274.653 171.629 274.653 168.651H269.823ZM276.735 167.535V177.851H277.678V167.535H276.735ZM280.828 175.539H287.061V177.759H288.004V174.769H280.828V175.539ZM284.945 173.205V172.124H288.165V171.388H281.921V170.307H287.947V167.8H280.966V168.536H287.015V169.605H280.989V172.124H283.991V173.205H279.782V173.975H289.143V173.205H284.945ZM298.813 167.535H297.87V175.252H298.813V167.535ZM297.042 172.894C296.157 172.998 295.225 173.055 294.271 173.101V171.675H296.318V170.916H292.281V168.973H296.249V168.202H291.338V171.675H293.328V173.136C292.316 173.17 291.315 173.182 290.418 173.182L290.556 173.952C292.477 173.952 294.926 173.883 297.111 173.573L297.042 172.894ZM293.086 176.85V174.746H292.143V177.621H299.158V176.85H293.086ZM81.3455 185.133V185.892H84.9335C84.899 186.295 84.8185 186.663 84.6805 187.019L80.828 187.192L80.989 187.962L84.301 187.709C83.68 188.652 82.5645 189.388 80.897 189.894L81.2535 190.642C84.462 189.664 85.9225 187.755 85.9225 185.133H81.3455ZM83.3695 191.792H88.1765V193.954H83.3695V191.792ZM82.438 194.713H89.108V191.045H82.438L82.438 194.713ZM88.1535 184.547V187.261H85.8995V188.043H88.1535V190.492H89.108V184.547H88.1535ZM97.1341 188.652H94.5696V185.881H97.1341V188.652ZM93.6266 188.652H92.1086V189.423H99.5951V188.652H98.0771V185.881H99.6296V185.11H92.0741V185.881H93.6266V188.652ZM100.527 190.607H91.1771V191.378H93.6151V194.851H94.5581V191.378H97.1801V194.851H98.1231V191.378H100.527V190.607ZM103.182 189.135H106.563V188.376H103.182V186.249H107.012V185.467H102.239V192.378H103.033C104.999 192.378 106.253 192.321 107.748 192.056L107.644 191.286C106.241 191.539 105.045 191.608 103.182 191.608V189.135ZM109.323 184.524V188.422H107.196V189.204H109.323V194.863H110.266V184.524H109.323ZM117.824 186.26H119.468V189.722C118.916 189.756 118.364 189.768 117.824 189.779V186.26ZM121.883 189.526C121.4 189.584 120.894 189.63 120.377 189.664V186.26H121.4V185.501H115.892V186.26H116.904V189.802C116.444 189.814 116.007 189.814 115.604 189.814L115.708 190.596C117.49 190.596 119.894 190.55 121.952 190.228L121.883 189.526ZM118.1 191.424H117.157V194.621H124.034V193.85H118.1V191.424ZM123.574 187.675V184.535H122.631V192.137H123.574V188.457H125.092V187.675H123.574ZM127.184 192.206H133.394V194.932H134.349V191.435H127.184V192.206ZM131.29 189.676V188.445H134.418V187.686H128.265V185.708H134.326V184.949H127.322V188.445H130.347V189.676H126.149V190.435H135.487V189.676H131.29ZM140.503 185.639V186.421H144.287C144.068 188.859 142.654 190.837 140.02 192.16L140.538 192.896C143.873 191.228 145.218 188.572 145.218 185.639H140.503ZM149.542 188.721H147.886V184.535H146.943V194.851H147.886V189.503H149.542V188.721ZM158.799 187.41H152.738V184.754H151.795V188.169H158.799V187.41ZM155.188 194.081C153.566 194.081 152.612 193.655 152.612 192.942C152.612 192.206 153.566 191.792 155.188 191.792C156.809 191.792 157.764 192.206 157.764 192.942C157.764 193.655 156.798 194.081 155.188 194.081ZM155.188 191.056C152.991 191.056 151.657 191.734 151.657 192.942C151.657 194.138 152.991 194.817 155.188 194.817C157.384 194.817 158.718 194.138 158.718 192.942C158.718 191.734 157.384 191.056 155.188 191.056ZM150.542 189.365V190.136H159.868V189.365H150.542ZM167.228 185.8H164.652V184.535H163.709V185.8H161.144V186.559H167.228V185.8ZM162.616 189.043C162.616 188.33 163.249 187.87 164.18 187.87C165.112 187.87 165.756 188.33 165.756 189.043C165.756 189.768 165.112 190.228 164.18 190.228C163.249 190.228 162.616 189.768 162.616 189.043ZM166.653 189.043C166.653 187.893 165.641 187.134 164.18 187.134C162.72 187.134 161.719 187.893 161.719 189.043C161.719 190.205 162.72 190.964 164.18 190.964C165.641 190.964 166.653 190.205 166.653 189.043ZM163.64 191.665H162.697V194.621H169.574V193.85H163.64V191.665ZM169.114 187.939V184.535H168.171V192.275H169.114V188.733H170.632V187.939H169.114ZM175.521 185.651V186.41H179.397C179.201 188.859 177.821 190.837 175.05 192.16L175.556 192.93C178.983 191.251 180.351 188.629 180.351 185.651H175.521ZM182.433 184.535V194.851H183.376V184.535H182.433ZM186.526 192.539L192.759 192.539V194.759H193.702V191.769L186.526 191.769V192.539ZM190.643 190.205V189.124H193.863V188.388L187.618 188.388V187.307L193.644 187.307V184.8L186.664 184.8V185.536L192.713 185.536V186.605L186.687 186.605V189.124H189.688V190.205H185.479V190.975L194.84 190.975V190.205H190.643ZM197.323 186.479H199.485V191.332H197.323V186.479ZM196.438 192.079H200.359V185.731H196.438V192.079ZM203.936 184.535V188.618H202.544V184.765H201.659V194.334H202.544V189.388H203.936V194.84H204.833V184.535H203.936ZM209.651 187.215H211.56V186.433H209.662V184.903H208.754V186.433H206.845V187.215H208.754V187.709C208.754 189.4 207.96 191.205 206.569 192.033L207.121 192.735C208.133 192.125 208.857 190.975 209.214 189.664C209.593 190.906 210.329 191.953 211.33 192.516L211.87 191.803C210.479 191.056 209.651 189.354 209.651 187.709V187.215ZM212.434 188.606H210.858V189.388H212.434V194.311H213.331V184.777H212.434V188.606ZM214.504 184.535V194.84H215.412V184.535H214.504Z" fill="#121212"/>
<path d="M32.175 212.928H28.7595V211.111H32.175V212.928ZM32.773 208.984H32.175V210.605H28.7595V208.984H28.15V213.434H32.773V208.984ZM29.806 216.758H35.5215V214.469H29.185V214.964H34.9235V216.263H29.208L29.208 218.656H35.9355V218.15H29.806V216.758ZM35.5215 210.916V208.581H34.912V213.917H35.5215V211.445H37.1085V210.916H35.5215ZM42.6966 213.331H39.3271V209.892H42.6966V213.331ZM45.9396 210.858V212.365H43.2946V210.858H45.9396ZM43.2946 212.882H45.9396V214.665H46.5491V208.593H45.9396V210.341H43.2946V209.386H38.7406V213.837H43.2946V212.882ZM43.2486 218.276C41.5811 218.276 40.5116 217.747 40.5116 216.884C40.5116 216.033 41.5811 215.493 43.2486 215.493C44.9161 215.493 45.9971 216.033 45.9971 216.884C45.9971 217.747 44.9161 218.276 43.2486 218.276ZM43.2486 214.998C41.1786 214.998 39.9021 215.677 39.9021 216.884C39.9021 218.092 41.1786 218.771 43.2486 218.771C45.3186 218.771 46.5951 218.092 46.5951 216.884C46.5951 215.677 45.3186 214.998 43.2486 214.998ZM52.0682 210.203H54.4717V209.674H49.0207V210.203H51.4702V211.916C51.4702 213.687 49.9982 215.642 48.6757 216.31L49.0552 216.815C50.1592 216.206 51.3207 214.803 51.7692 213.25C52.2177 214.688 53.3217 215.976 54.4257 216.562L54.7822 216.068C53.4367 215.412 52.0682 213.584 52.0682 211.916V210.203ZM58.3587 212.848H56.5762V208.593H55.9667V218.805H56.5762V213.365H58.3587V212.848Z" fill="#121212"/>
<path d="M88.1075 208.535V218.874H89.0505V208.535H88.1075ZM83.611 209.329C82.0815 209.329 80.989 210.732 80.989 212.928C80.989 215.125 82.0815 216.528 83.611 216.528C85.1405 216.528 86.233 215.125 86.233 212.928C86.233 210.732 85.1405 209.329 83.611 209.329ZM83.611 210.18C84.6115 210.18 85.3245 211.261 85.3245 212.928C85.3245 214.607 84.6115 215.688 83.611 215.688C82.599 215.688 81.886 214.607 81.886 212.928C81.886 211.261 82.599 210.18 83.611 210.18ZM99.9746 211.905C98.1461 211.64 96.3406 210.479 96.3406 209.168V208.708H95.3746V209.168C95.3746 210.513 93.5806 211.64 91.7406 211.905L92.0856 212.641C93.6841 212.388 95.2136 211.571 95.8576 210.387C96.5131 211.56 98.0311 212.388 99.6181 212.641L99.9746 211.905ZM95.8576 218.115C94.2246 218.115 93.2701 217.724 93.2701 217.011C93.2701 216.31 94.2246 215.907 95.8576 215.907C97.4676 215.907 98.4221 216.31 98.4221 217.011C98.4221 217.724 97.4676 218.115 95.8576 218.115ZM95.8576 215.182C93.6496 215.182 92.3156 215.838 92.3156 217.011C92.3156 218.196 93.6496 218.851 95.8576 218.851C98.0541 218.851 99.3766 218.196 99.3766 217.011C99.3766 215.838 98.0541 215.182 95.8576 215.182ZM91.1886 213.457V214.228H100.515V213.457H91.1886ZM104.815 210.525H106.69V209.754H101.906V210.525H103.907V211.33C103.907 213.423 103.136 215.182 101.664 216.01L102.239 216.723C103.309 216.102 104.033 214.987 104.378 213.584C104.746 214.803 105.459 215.803 106.471 216.367L107.023 215.642C105.563 214.883 104.815 213.216 104.815 211.33V210.525ZM109.657 208.524V212.698H108.3V208.765H107.414V218.345H108.3V213.48H109.657V218.851H110.565V208.524H109.657ZM112.6 220.185C113.635 219.748 114.279 218.886 114.279 217.781C114.279 217.011 113.945 216.539 113.393 216.539C112.968 216.539 112.6 216.827 112.6 217.275C112.6 217.758 112.968 218.012 113.37 218.012C113.416 218.012 113.451 218.012 113.497 218C113.497 218.679 113.071 219.242 112.347 219.564L112.6 220.185ZM118.775 209.191V209.961H122.512C122.328 211.709 120.753 213.066 118.234 213.722L118.614 214.469C121.627 213.664 123.524 211.824 123.524 209.191H118.775ZM120.833 215.608H125.652V217.942H120.833V215.608ZM119.913 218.702H126.583V214.86H119.913V218.702ZM125.64 208.535V214.366H126.583V208.535H125.64ZM129.618 213.549C131.217 213.273 132.735 212.411 133.367 211.192C133.988 212.411 135.518 213.273 137.116 213.549L137.484 212.802C135.667 212.537 133.885 211.353 133.885 209.996V209.938H137.116V209.179H129.584V209.938H132.838V209.996C132.838 211.353 131.056 212.537 129.262 212.802L129.618 213.549ZM138.025 214.412H128.71V215.182H132.873V218.851H133.816V215.182H138.036L138.025 214.412ZM140.335 211.594C140.335 210.64 141.094 209.95 142.095 209.95C143.107 209.95 143.843 210.64 143.843 211.594C143.843 212.56 143.107 213.25 142.095 213.25C141.094 213.25 140.335 212.56 140.335 211.594ZM146.821 210.789V212.399H144.602C144.694 212.146 144.74 211.882 144.74 211.594C144.74 211.295 144.694 211.031 144.613 210.789H146.821ZM146.821 213.17V214.642H147.776V208.535H146.821V210.019H144.176C143.705 209.49 142.969 209.156 142.095 209.156C140.565 209.156 139.438 210.157 139.438 211.594C139.438 213.043 140.565 214.055 142.095 214.055C142.969 214.055 143.705 213.722 144.176 213.17H146.821ZM144.36 218.092C142.808 218.092 141.865 217.632 141.865 216.861C141.865 216.079 142.808 215.619 144.36 215.619C145.936 215.619 146.879 216.079 146.879 216.861C146.879 217.632 145.936 218.092 144.36 218.092ZM144.36 214.883C142.244 214.883 140.933 215.608 140.933 216.861C140.933 218.115 142.244 218.84 144.36 218.84C146.488 218.84 147.81 218.115 147.81 216.861C147.81 215.608 146.488 214.883 144.36 214.883ZM150.11 220.185C151.145 219.748 151.789 218.886 151.789 217.781C151.789 217.011 151.455 216.539 150.903 216.539C150.478 216.539 150.11 216.827 150.11 217.275C150.11 217.758 150.478 218.012 150.88 218.012C150.926 218.012 150.961 218.012 151.007 218C151.007 218.679 150.581 219.242 149.857 219.564L150.11 220.185ZM159.907 213.308H156.986V211.537H159.907V213.308ZM160.827 209.191H159.907V210.801H156.986V209.191H156.055V214.067H160.827V209.191ZM156.929 216.079H162.69V218.863H163.633V215.32H156.929V216.079ZM165.163 211.215H163.633V208.547H162.69V214.768H163.633V211.997H165.163V211.215ZM172.165 213.388C170.682 212.882 169.67 211.594 169.67 210.203V209.064H168.727V210.122C168.727 211.698 167.726 213.101 166.162 213.664L166.657 214.412C167.864 213.952 168.784 213.009 169.21 211.801C169.67 212.859 170.555 213.71 171.671 214.124L172.165 213.388ZM170.935 218.104C169.405 218.104 168.474 217.678 168.474 216.965C168.474 216.24 169.405 215.815 170.935 215.815C172.453 215.815 173.384 216.24 173.384 216.965C173.384 217.678 172.453 218.104 170.935 218.104ZM170.935 215.079C168.83 215.079 167.531 215.757 167.531 216.965C167.531 218.161 168.83 218.84 170.935 218.84C173.028 218.84 174.327 218.161 174.327 216.965C174.327 215.757 173.028 215.079 170.935 215.079ZM174.212 211.203V208.547H173.269V214.791L174.212 214.791V211.985H175.742V211.203H174.212ZM181.456 209.49C183.078 209.49 184.101 209.938 184.101 210.697C184.101 211.456 183.078 211.905 181.456 211.905C179.812 211.905 178.788 211.456 178.788 210.697C178.788 209.938 179.812 209.49 181.456 209.49ZM181.456 212.641C183.676 212.641 185.067 211.916 185.067 210.697C185.067 209.467 183.676 208.742 181.456 208.742C179.214 208.742 177.822 209.467 177.822 210.697C177.822 211.916 179.214 212.641 181.456 212.641ZM184.021 216.999C184.021 217.712 183.066 218.115 181.456 218.115C179.823 218.115 178.869 217.712 178.869 216.999C178.869 216.298 179.823 215.884 181.456 215.884C183.066 215.884 184.021 216.298 184.021 216.999ZM186.114 214.182V213.423H176.787V214.182H180.973V215.171C179.053 215.263 177.914 215.907 177.914 216.999C177.914 218.184 179.248 218.84 181.456 218.84C183.653 218.84 184.975 218.184 184.975 216.999C184.975 215.907 183.848 215.263 181.928 215.171V214.182H186.114Z" fill="#121212"/>
<path d="M35.74 234.365H29.5185V233.077H35.4065V232.582H29.5185V231.386H35.694V230.892H28.909V234.871H35.74V234.365ZM28.679 238.24H35.0385V240.805H35.648V237.734H28.679L28.679 238.24ZM27.6555 236.032V236.55H36.8785V236.032H27.6555ZM44.2836 232.283H41.5696V230.685H40.9601V232.283H38.2001V232.801H44.2836V232.283ZM41.2591 237.872C40.2241 237.872 39.4651 237.113 39.4651 236.113C39.4651 235.112 40.2241 234.342 41.2591 234.342C42.2826 234.342 43.0531 235.112 43.0531 236.113C43.0531 237.113 42.2826 237.872 41.2591 237.872ZM41.2591 233.813C39.9021 233.813 38.9016 234.767 38.9016 236.113C38.9016 237.458 39.9021 238.401 41.2591 238.401C42.6276 238.401 43.6166 237.458 43.6166 236.113C43.6166 234.767 42.6276 233.813 41.2591 233.813ZM45.9396 230.581V235.032H44.0536V235.549H45.9396V240.794H46.5491V230.581H45.9396ZM54.0577 236.205V236.711H56.4267V238.321H57.0362V230.593H56.4267V236.205H54.0577ZM51.7462 237.642H52.3442V235.181C53.3677 235.112 54.4372 235.02 55.4377 234.848L55.3917 234.388C54.9892 234.445 54.5522 234.503 54.1267 234.549C54.3567 233.226 54.3567 232.272 54.3567 231.685V231.271H49.6532V231.789H53.7587C53.7587 232.375 53.7472 233.307 53.5057 234.583C51.8267 234.721 50.1017 234.733 48.7332 234.733L48.8252 235.273C49.6877 235.273 50.6997 235.262 51.7462 235.216V237.642ZM50.9182 240.035V237.435H50.3087V240.552H57.3007V240.035H50.9182ZM62.6473 232.203H65.0508V231.674H59.5998V232.203H62.0493V233.916C62.0493 235.687 60.5773 237.642 59.2548 238.31L59.6343 238.815C60.7383 238.206 61.8998 236.803 62.3483 235.25C62.7968 236.688 63.9008 237.976 65.0048 238.562L65.3613 238.068C64.0158 237.412 62.6473 235.584 62.6473 233.916V232.203ZM68.9378 234.848H67.1553V230.593H66.5458V240.805H67.1553V235.365H68.9378V234.848Z" fill="#121212"/>
<path d="M82.7485 242.266L83.404 241.955C82.4035 240.322 81.932 238.378 81.932 236.423C81.932 234.468 82.4035 232.536 83.404 230.892L82.7485 230.593C81.6905 232.306 81.058 234.169 81.058 236.423C81.058 238.689 81.6905 240.541 82.7485 242.266ZM85.4152 235.549C87.0137 235.273 88.5317 234.411 89.1642 233.192C89.7852 234.411 91.3147 235.273 92.9132 235.549L93.2812 234.802C91.4642 234.537 89.6817 233.353 89.6817 231.996V231.938H92.9132V231.179H85.3807V231.938H88.6352V231.996C88.6352 233.353 86.8527 234.537 85.0587 234.802L85.4152 235.549ZM93.8217 236.412H84.5067V237.182H88.6697V240.851H89.6127V237.182H93.8332L93.8217 236.412ZM95.6033 242.266C96.6728 240.541 97.3053 238.689 97.3053 236.423C97.3053 234.169 96.6728 232.306 95.6033 230.593L94.9593 230.892C95.9483 232.536 96.4313 234.468 96.4313 236.423C96.4313 238.378 95.9483 240.322 94.9593 241.955L95.6033 242.266ZM107.85 235.722C106.044 235.377 104.089 233.813 104.089 232.053V231.26H103.1V232.053C103.1 233.813 101.157 235.365 99.3511 235.722L99.7766 236.504C101.329 236.136 102.939 235.032 103.595 233.525C104.25 235.043 105.86 236.147 107.424 236.504L107.85 235.722ZM98.9601 238.689V239.471H108.31V238.689H98.9601ZM110.873 232.329H113.76V237.47H110.873V232.329ZM109.953 238.229H114.68V231.57H109.953V238.229ZM119.176 234.652H117.474V230.547H116.531V240.851H117.474V235.446H119.176V234.652ZM128.398 236.101H122.269V234.468H128.065V233.721H122.269V232.191H128.295V231.432H121.314V236.86H128.398V236.101ZM120.107 238.746V239.517H129.468V238.746H120.107ZM132.71 232.145H137.988V235.492H132.71V232.145ZM135.838 238.746V236.239H138.908V231.398H131.801V236.239H134.883V238.746H130.697V239.528H140.047V238.746H135.838ZM149.729 230.547H148.786V235.929H149.729V230.547ZM145.715 234.71H142.748V233.169H145.715V234.71ZM146.647 230.949H145.715V232.444H142.748V230.949H141.817V235.469H146.647V230.949ZM144.013 240V238.896H149.74V236.458H143.059V237.194H148.809V238.206H143.082V240.736H150.085V240H144.013ZM153.167 235.101H156.824V231.49H152.212V232.26H155.904V234.342H152.235V238.378H153.029C154.892 238.378 156.203 238.321 157.755 238.045L157.663 237.263C156.18 237.527 154.926 237.596 153.167 237.596V235.101ZM159.4 230.524V234.503H157.433V235.273H159.4V240.863H160.343V230.524H159.4ZM164.022 235.124H167.713V234.365H164.022V232.237H168.093V231.467H163.09V238.367H163.907C165.873 238.367 167.253 238.298 168.863 238.022L168.771 237.251C167.23 237.527 165.896 237.596 164.022 237.596V235.124ZM169.956 230.535V240.84H170.899V230.535H169.956Z" fill="#121212"/>
</svg>
