<svg width="309" height="233" viewBox="0 0 309 233" fill="none" xmlns="http://www.w3.org/2000/svg">
<rect x="0.5" y="0.5" width="308" height="232" rx="9.5" fill="#FAFAFA" stroke="#E0E0E0"/>
<rect x="23.9995" y="18" width="66" height="23" rx="2" fill="#0032A0"/>
<path d="M49.4435 28.844H43.3235V28.196H49.0955V27.044H43.3235V26.444H49.3595V25.244H41.7515V30.044H49.4435V28.844ZM41.6195 33.92H47.6915V36.044H49.2755V32.672H41.6195V33.92ZM40.5035 30.716V31.976H50.4995V30.716H40.5035ZM57.9986 26.612H55.5866V25.172H54.0026V26.612L51.5546 26.612V27.896L57.9986 27.896V26.612ZM54.7826 32.444C54.1106 32.444 53.5946 31.952 53.5946 31.136C53.5946 30.32 54.1106 29.828 54.7826 29.828C55.4666 29.828 55.9946 30.32 55.9946 31.136C55.9946 31.952 55.4666 32.444 54.7826 32.444ZM54.7826 28.496C53.2706 28.496 52.1306 29.612 52.1306 31.136C52.1306 32.66 53.2706 33.776 54.7826 33.776C56.3066 33.776 57.4466 32.66 57.4466 31.136C57.4466 29.612 56.3066 28.496 54.7826 28.496ZM59.2466 24.98V29.324H57.7946V30.608H59.2466V36.032H60.8306V24.98H59.2466ZM68.2576 30.872V32.096H70.3936V33.296H71.9776V24.98L70.3936 24.98V30.872H68.2576ZM65.6056 34.58V32.624H66.9856V30.248C67.9096 30.164 68.8336 30.068 69.7336 29.9L69.6256 28.784C69.2896 28.832 68.9416 28.88 68.5936 28.916C68.7856 27.524 68.7856 26.504 68.7856 25.916V25.532H63.5176V26.792H67.2136C67.1896 27.368 67.1296 28.112 66.9976 29.036C65.3896 29.132 63.8056 29.144 62.5096 29.144L62.7016 30.404C63.5176 30.404 64.4416 30.392 65.4136 30.344V32.468H64.0216V35.84L72.2176 35.84V34.58L65.6056 34.58Z" fill="white"/>
<path d="M32.74 67.365H26.5185V66.077H32.4065V65.5825H26.5185V64.3865H32.694V63.892H25.909V67.871H32.74V67.365ZM25.679 71.2405H32.0385V73.805H32.648V70.7345H25.679L25.679 71.2405ZM24.6555 69.0325V69.55H33.8785V69.0325H24.6555ZM41.2836 65.2835H38.5696V63.685H37.9601V65.2835H35.2001V65.801H41.2836V65.2835ZM38.2591 70.8725C37.2241 70.8725 36.4651 70.1135 36.4651 69.113C36.4651 68.1125 37.2241 67.342 38.2591 67.342C39.2826 67.342 40.0531 68.1125 40.0531 69.113C40.0531 70.1135 39.2826 70.8725 38.2591 70.8725ZM38.2591 66.813C36.9021 66.813 35.9016 67.7675 35.9016 69.113C35.9016 70.4585 36.9021 71.4015 38.2591 71.4015C39.6276 71.4015 40.6166 70.4585 40.6166 69.113C40.6166 67.7675 39.6276 66.813 38.2591 66.813ZM42.9396 63.5815V68.032H41.0536V68.5495H42.9396V73.7935H43.5491V63.5815H42.9396ZM50.2757 68.331H46.9062V64.8925H50.2757V68.331ZM53.5187 65.8585V67.365H50.8737V65.8585H53.5187ZM50.8737 67.8825H53.5187V69.665H54.1282V63.593H53.5187V65.341H50.8737V64.3865H46.3197V68.837H50.8737V67.8825ZM50.8277 73.276C49.1602 73.276 48.0907 72.747 48.0907 71.8845C48.0907 71.0335 49.1602 70.493 50.8277 70.493C52.4952 70.493 53.5762 71.0335 53.5762 71.8845C53.5762 72.747 52.4952 73.276 50.8277 73.276ZM50.8277 69.9985C48.7577 69.9985 47.4812 70.677 47.4812 71.8845C47.4812 73.092 48.7577 73.7705 50.8277 73.7705C52.8977 73.7705 54.1742 73.092 54.1742 71.8845C54.1742 70.677 52.8977 69.9985 50.8277 69.9985Z" fill="#121212"/>
<path d="M82.634 65.5135H84.474V64.743H79.7705V65.5135H81.7255V66.445C81.7255 68.3425 80.9205 70.217 79.483 71.0795L80.058 71.781C81.0815 71.137 81.829 69.9295 82.1855 68.515C82.542 69.826 83.255 70.93 84.2555 71.528L84.8305 70.838C83.4045 70.033 82.634 68.239 82.634 66.445V65.5135ZM85.394 67.2385H83.692V68.009H85.394V73.3105H86.291V63.7655H85.394V67.2385ZM87.464 63.524V73.8395H88.3725V63.524H87.464ZM93.1629 73H97.7859V72.126H96.0954V64.559H95.2904C94.8304 64.835 94.2899 65.0305 93.5424 65.1685V65.8355H95.0374V72.126H93.1629V73ZM101.727 73.1495C103.325 73.1495 104.349 71.689 104.349 68.7565C104.349 65.8355 103.325 64.4095 101.727 64.4095C100.117 64.4095 99.0933 65.824 99.0933 68.7565C99.0933 71.689 100.117 73.1495 101.727 73.1495ZM101.727 72.31C100.761 72.31 100.117 71.2405 100.117 68.7565C100.117 66.2955 100.761 65.249 101.727 65.249C102.681 65.249 103.325 66.2955 103.325 68.7565C103.325 71.2405 102.681 72.31 101.727 72.31ZM105.438 70.1825H108.382V69.3775H105.438V70.1825ZM109.908 73H114.531V72.126H112.84V64.559H112.035C111.575 64.835 111.035 65.0305 110.287 65.1685V65.8355H111.782V72.126H109.908V73ZM116.597 69.8375L118.517 66.9625C118.759 66.5485 118.989 66.1345 119.196 65.7205H119.242C119.219 66.1575 119.184 66.836 119.184 67.25V69.8375H116.597ZM119.184 73H120.173V70.677H121.289V69.8375H120.173V64.559H119.012L115.504 69.987V70.677H119.184V73ZM123.93 73H125.023C125.149 69.6995 125.517 67.733 127.495 65.203V64.559L122.217 64.559V65.4675L126.299 65.4675C124.655 67.7675 124.068 69.803 123.93 73ZM131.068 73.1495C132.563 73.1495 133.771 72.2525 133.771 70.746C133.771 69.596 132.977 68.837 131.988 68.607V68.561C132.874 68.2275 133.483 67.549 133.483 66.5255C133.483 65.1915 132.448 64.4095 131.034 64.4095C130.056 64.4095 129.309 64.835 128.676 65.4215L129.24 66.0885C129.711 65.6055 130.309 65.272 130.988 65.272C131.862 65.272 132.414 65.801 132.414 66.606C132.414 67.5145 131.816 68.216 130.079 68.216V69.021C132.023 69.021 132.701 69.6995 132.701 70.7C132.701 71.6775 131.988 72.2755 130.988 72.2755C130.033 72.2755 129.389 71.827 128.895 71.3095L128.366 71.9995C128.918 72.5975 129.746 73.1495 131.068 73.1495ZM135.423 73H140.046V72.126H138.356V64.559H137.551C137.091 64.835 136.55 65.0305 135.803 65.1685V65.8355H137.298V72.126H135.423V73ZM143.987 73.1495C145.586 73.1495 146.609 71.689 146.609 68.7565C146.609 65.8355 145.586 64.4095 143.987 64.4095C142.377 64.4095 141.354 65.824 141.354 68.7565C141.354 71.689 142.377 73.1495 143.987 73.1495ZM143.987 72.31C143.021 72.31 142.377 71.2405 142.377 68.7565C142.377 66.2955 143.021 65.249 143.987 65.249C144.942 65.249 145.586 66.2955 145.586 68.7565C145.586 71.2405 144.942 72.31 143.987 72.31ZM150.205 73.1495C151.7 73.1495 152.907 72.2525 152.907 70.746C152.907 69.596 152.114 68.837 151.125 68.607V68.561C152.01 68.2275 152.62 67.549 152.62 66.5255C152.62 65.1915 151.585 64.4095 150.17 64.4095C149.193 64.4095 148.445 64.835 147.813 65.4215L148.376 66.0885C148.848 65.6055 149.446 65.272 150.124 65.272C150.998 65.272 151.55 65.801 151.55 66.606C151.55 67.5145 150.952 68.216 149.216 68.216V69.021C151.159 69.021 151.838 69.6995 151.838 70.7C151.838 71.6775 151.125 72.2755 150.124 72.2755C149.17 72.2755 148.526 71.827 148.031 71.3095L147.502 71.9995C148.054 72.5975 148.882 73.1495 150.205 73.1495ZM162.989 65.042H159.298V63.6965H158.355V65.042H154.617V65.8125H162.989V65.042ZM156.388 68.469C156.388 67.71 157.32 67.25 158.826 67.25C160.31 67.25 161.23 67.71 161.23 68.469C161.23 69.2395 160.31 69.6995 158.826 69.6995C157.32 69.6995 156.388 69.2395 156.388 68.469ZM159.298 71.873V70.424C161.092 70.309 162.184 69.619 162.184 68.469C162.184 67.227 160.885 66.514 158.826 66.514C156.733 66.514 155.434 67.227 155.434 68.469C155.434 69.619 156.538 70.3205 158.355 70.424V71.873H154.157V72.6435H163.507V71.873H159.298Z" fill="#121212"/>
<path d="M25.4145 89.664C26.967 89.503 28.6805 88.928 29.267 87.8125C29.8535 88.9395 31.567 89.503 33.1195 89.664L33.315 89.181C31.6475 89.0315 29.658 88.3415 29.589 87.0305H32.9125V86.536H29.5775V85.4895H28.968V86.536H25.6445V87.0305H28.945C28.876 88.3415 26.8865 89.0315 25.219 89.181L25.4145 89.664ZM33.8785 90.745V90.2505H24.6555V90.745H28.9565V91.872H25.8055V92.3435H32.0615V93.459H25.8285V95.6555H32.993V95.161H26.4265V93.9305H32.6595V91.872H29.566V90.745H33.8785ZM40.6626 91.688V92.171H42.8361V93.3785H43.4456V85.6045H42.8361V91.688H40.6626ZM38.5121 86.513C39.6391 86.513 40.4211 87.042 40.4211 87.7895C40.4211 88.56 39.6391 89.0775 38.5121 89.0775C37.3851 89.0775 36.6031 88.56 36.6031 87.7895C36.6031 87.042 37.3851 86.513 38.5121 86.513ZM38.5121 89.549C40.0071 89.549 40.9961 88.8705 40.9961 87.7895C40.9961 86.72 40.0071 86.0415 38.5121 86.0415C37.0171 86.0415 36.0166 86.72 36.0166 87.7895C36.0166 88.8705 37.0171 89.549 38.5121 89.549ZM38.2821 92.9645H38.8916V90.883C39.8806 90.8255 40.9041 90.745 41.8701 90.584L41.8126 90.1355C39.6161 90.4115 37.0631 90.4345 35.1656 90.4345L35.2576 90.9635C36.1546 90.9635 37.1781 90.9635 38.2821 90.9175V92.9645ZM37.3161 95.0345V92.608H36.7181V95.552H43.7101V95.0345H37.3161ZM50.2412 90.8255H46.9752V88.7325H50.2412V90.8255ZM50.8392 89.089H53.5187V93.1715H54.1282V85.6045H53.5187V88.5715H50.8392V86.2715H50.2412V88.2265H46.9752V86.2715H46.3657V91.343H50.8392V89.089ZM48.2977 95.0345V92.4355H47.6882V95.552H54.3812V95.0345H48.2977ZM65.0868 87.226H61.3148V85.7885H60.7053V87.226H56.8873V87.7435H65.0868V87.226ZM58.3478 90.4805C58.3478 89.618 59.3943 89.0775 61.0043 89.0775C62.6143 89.0775 63.6608 89.618 63.6608 90.4805C63.6608 91.3545 62.6143 91.9065 61.0043 91.9065C59.3943 91.9065 58.3478 91.3545 58.3478 90.4805ZM61.3148 93.988V92.3895C63.1433 92.3205 64.2703 91.6305 64.2703 90.4805C64.2703 89.273 63.0168 88.5715 61.0043 88.5715C58.9918 88.5715 57.7383 89.273 57.7383 90.4805C57.7383 91.6305 58.8653 92.3205 60.7053 92.401V93.988H56.3928V94.5055H65.6503V93.988H61.3148Z" fill="#121212"/>
<path d="M82.634 87.5135H84.474V86.743H79.7705V87.5135H81.7255V88.445C81.7255 90.3425 80.9205 92.217 79.483 93.0795L80.058 93.781C81.0815 93.137 81.829 91.9295 82.1855 90.515C82.542 91.826 83.255 92.93 84.2555 93.528L84.8305 92.838C83.4045 92.033 82.634 90.239 82.634 88.445V87.5135ZM85.394 89.2385H83.692V90.009H85.394V95.3105H86.291V85.7655H85.394V89.2385ZM87.464 85.524V95.8395H88.3725V85.524H87.464ZM93.1629 95H97.7859V94.126H96.0954V86.559H95.2904C94.8304 86.835 94.2899 87.0305 93.5424 87.1685V87.8355H95.0374V94.126H93.1629V95ZM101.727 95.1495C103.325 95.1495 104.349 93.689 104.349 90.7565C104.349 87.8355 103.325 86.4095 101.727 86.4095C100.117 86.4095 99.0933 87.824 99.0933 90.7565C99.0933 93.689 100.117 95.1495 101.727 95.1495ZM101.727 94.31C100.761 94.31 100.117 93.2405 100.117 90.7565C100.117 88.2955 100.761 87.249 101.727 87.249C102.681 87.249 103.325 88.2955 103.325 90.7565C103.325 93.2405 102.681 94.31 101.727 94.31ZM105.438 92.1825H108.382V91.3775H105.438V92.1825ZM109.402 95H114.703V94.0915H112.369C111.943 94.0915 111.426 94.1375 110.989 94.172C112.967 92.2975 114.289 90.584 114.289 88.905C114.289 87.3985 113.346 86.4095 111.84 86.4095C110.77 86.4095 110.046 86.904 109.356 87.6515L109.965 88.2495C110.425 87.6975 111.023 87.272 111.713 87.272C112.76 87.272 113.266 87.9735 113.266 88.9395C113.266 90.3885 112.047 92.0675 109.402 94.379V95ZM118.471 95.1495C120.07 95.1495 121.093 93.689 121.093 90.7565C121.093 87.8355 120.07 86.4095 118.471 86.4095C116.861 86.4095 115.838 87.824 115.838 90.7565C115.838 93.689 116.861 95.1495 118.471 95.1495ZM118.471 94.31C117.505 94.31 116.861 93.2405 116.861 90.7565C116.861 88.2955 117.505 87.249 118.471 87.249C119.426 87.249 120.07 88.2955 120.07 90.7565C120.07 93.2405 119.426 94.31 118.471 94.31ZM122.665 95H127.288V94.126H125.598V86.559H124.793C124.333 86.835 123.792 87.0305 123.045 87.1685V87.8355H124.54V94.126H122.665V95ZM131.068 95.1495C132.563 95.1495 133.771 94.2525 133.771 92.746C133.771 91.596 132.977 90.837 131.988 90.607V90.561C132.874 90.2275 133.483 89.549 133.483 88.5255C133.483 87.1915 132.448 86.4095 131.034 86.4095C130.056 86.4095 129.309 86.835 128.676 87.4215L129.24 88.0885C129.711 87.6055 130.309 87.272 130.988 87.272C131.862 87.272 132.414 87.801 132.414 88.606C132.414 89.5145 131.816 90.216 130.079 90.216V91.021C132.023 91.021 132.701 91.6995 132.701 92.7C132.701 93.6775 131.988 94.2755 130.988 94.2755C130.033 94.2755 129.389 93.827 128.895 93.3095L128.366 93.9995C128.918 94.5975 129.746 95.1495 131.068 95.1495ZM134.94 92.1825H137.884V91.3775H134.94V92.1825ZM141.595 95.1495C143.193 95.1495 144.217 93.689 144.217 90.7565C144.217 87.8355 143.193 86.4095 141.595 86.4095C139.985 86.4095 138.961 87.824 138.961 90.7565C138.961 93.689 139.985 95.1495 141.595 95.1495ZM141.595 94.31C140.629 94.31 139.985 93.2405 139.985 90.7565C139.985 88.2955 140.629 87.249 141.595 87.249C142.549 87.249 143.193 88.2955 143.193 90.7565C143.193 93.2405 142.549 94.31 141.595 94.31ZM147.974 95.1495C149.572 95.1495 150.596 93.689 150.596 90.7565C150.596 87.8355 149.572 86.4095 147.974 86.4095C146.364 86.4095 145.34 87.824 145.34 90.7565C145.34 93.689 146.364 95.1495 147.974 95.1495ZM147.974 94.31C147.008 94.31 146.364 93.2405 146.364 90.7565C146.364 88.2955 147.008 87.249 147.974 87.249C148.928 87.249 149.572 88.2955 149.572 90.7565C149.572 93.2405 148.928 94.31 147.974 94.31ZM153.433 95H154.525C154.652 91.6995 155.02 89.733 156.998 87.203V86.559H151.719V87.4675H155.802C154.157 89.7675 153.571 91.803 153.433 95ZM160.732 95.1495C162.33 95.1495 163.354 93.689 163.354 90.7565C163.354 87.8355 162.33 86.4095 160.732 86.4095C159.122 86.4095 158.098 87.824 158.098 90.7565C158.098 93.689 159.122 95.1495 160.732 95.1495ZM160.732 94.31C159.766 94.31 159.122 93.2405 159.122 90.7565C159.122 88.2955 159.766 87.249 160.732 87.249C161.686 87.249 162.33 88.2955 162.33 90.7565C162.33 93.2405 161.686 94.31 160.732 94.31ZM167.111 95.1495C168.709 95.1495 169.733 93.689 169.733 90.7565C169.733 87.8355 168.709 86.4095 167.111 86.4095C165.501 86.4095 164.477 87.824 164.477 90.7565C164.477 93.689 165.501 95.1495 167.111 95.1495ZM167.111 94.31C166.145 94.31 165.501 93.2405 165.501 90.7565C165.501 88.2955 166.145 87.249 167.111 87.249C168.065 87.249 168.709 88.2955 168.709 90.7565C168.709 93.2405 168.065 94.31 167.111 94.31ZM173.501 95.1495C175.088 95.1495 176.146 94.195 176.146 92.9645C176.146 91.8145 175.456 91.182 174.72 90.7565V90.699C175.226 90.308 175.847 89.549 175.847 88.6635C175.847 87.364 174.973 86.444 173.535 86.444C172.224 86.444 171.224 87.295 171.224 88.583C171.224 89.4685 171.741 90.101 172.362 90.5265V90.584C171.592 90.998 170.81 91.78 170.81 92.907C170.81 94.2065 171.948 95.1495 173.501 95.1495ZM174.076 90.423C173.087 90.032 172.178 89.595 172.178 88.583C172.178 87.7665 172.742 87.2145 173.524 87.2145C174.432 87.2145 174.95 87.893 174.95 88.721C174.95 89.342 174.651 89.917 174.076 90.423ZM173.524 94.3675C172.512 94.3675 171.764 93.712 171.764 92.815C171.764 92.01 172.236 91.343 172.914 90.906C174.11 91.389 175.145 91.8145 175.145 92.9415C175.145 93.781 174.49 94.3675 173.524 94.3675ZM177.994 91.8375L179.914 88.9625C180.156 88.5485 180.386 88.1345 180.593 87.7205H180.639C180.616 88.1575 180.581 88.836 180.581 89.25V91.8375H177.994ZM180.581 95H181.57V92.677H182.686V91.8375H181.57V86.559H180.409L176.901 91.987V92.677H180.581V95ZM192.492 87.042H188.8V85.6965H187.857V87.042H184.12V87.8125H192.492V87.042ZM185.891 90.469C185.891 89.71 186.822 89.25 188.329 89.25C189.812 89.25 190.732 89.71 190.732 90.469C190.732 91.2395 189.812 91.6995 188.329 91.6995C186.822 91.6995 185.891 91.2395 185.891 90.469ZM188.8 93.873V92.424C190.594 92.309 191.687 91.619 191.687 90.469C191.687 89.227 190.387 88.514 188.329 88.514C186.236 88.514 184.936 89.227 184.936 90.469C184.936 91.619 186.04 92.3205 187.857 92.424V93.873H183.66V94.6435H193.009V93.873H188.8Z" fill="#121212"/>
<path d="M25.4145 111.664C26.967 111.503 28.6805 110.928 29.267 109.812C29.8535 110.939 31.567 111.503 33.1195 111.664L33.315 111.181C31.6475 111.031 29.658 110.341 29.589 109.03H32.9125V108.536H29.5775V107.489H28.968V108.536H25.6445V109.03H28.945C28.876 110.341 26.8865 111.031 25.219 111.181L25.4145 111.664ZM33.8785 112.745V112.25H24.6555V112.745H28.9565V113.872H25.8055V114.343H32.0615V115.459H25.8285V117.656H32.993V117.161H26.4265V115.93H32.6595V113.872H29.566V112.745H33.8785ZM40.6626 113.688V114.171H42.8361V115.378H43.4456V107.604H42.8361V113.688H40.6626ZM38.5121 108.513C39.6391 108.513 40.4211 109.042 40.4211 109.789C40.4211 110.56 39.6391 111.077 38.5121 111.077C37.3851 111.077 36.6031 110.56 36.6031 109.789C36.6031 109.042 37.3851 108.513 38.5121 108.513ZM38.5121 111.549C40.0071 111.549 40.9961 110.87 40.9961 109.789C40.9961 108.72 40.0071 108.041 38.5121 108.041C37.0171 108.041 36.0166 108.72 36.0166 109.789C36.0166 110.87 37.0171 111.549 38.5121 111.549ZM38.2821 114.964H38.8916V112.883C39.8806 112.825 40.9041 112.745 41.8701 112.584L41.8126 112.135C39.6161 112.411 37.0631 112.434 35.1656 112.434L35.2576 112.963C36.1546 112.963 37.1781 112.963 38.2821 112.917V114.964ZM37.3161 117.035V114.608H36.7181V117.552H43.7101V117.035H37.3161ZM54.1167 107.581H53.5072V112.906H54.1167V107.581ZM46.6992 110.226C46.6992 109.249 47.5387 108.513 48.6772 108.513C49.8157 108.513 50.6552 109.249 50.6552 110.226C50.6552 111.215 49.8157 111.94 48.6772 111.94C47.5387 111.94 46.6992 111.215 46.6992 110.226ZM51.2532 110.226C51.2532 108.904 50.1837 107.995 48.6772 107.995C47.1707 107.995 46.1012 108.904 46.1012 110.226C46.1012 111.549 47.1707 112.446 48.6772 112.446C50.1837 112.446 51.2532 111.549 51.2532 110.226ZM48.2632 117.138V115.723H54.1167V113.458H47.6307V113.964H53.5187V115.24H47.6652V117.644H54.5192V117.138H48.2632Z" fill="#121212"/>
<path d="M79.506 117H84.8075V116.091H82.473C82.0475 116.091 81.53 116.137 81.093 116.172C83.071 114.297 84.3935 112.584 84.3935 110.905C84.3935 109.398 83.4505 108.409 81.944 108.409C80.8745 108.409 80.15 108.904 79.46 109.651L80.0695 110.249C80.5295 109.697 81.1275 109.272 81.8175 109.272C82.864 109.272 83.37 109.973 83.37 110.939C83.37 112.388 82.151 114.067 79.506 116.379V117ZM88.5759 117.15C90.1744 117.15 91.1979 115.689 91.1979 112.756C91.1979 109.835 90.1744 108.409 88.5759 108.409C86.9659 108.409 85.9424 109.824 85.9424 112.756C85.9424 115.689 86.9659 117.15 88.5759 117.15ZM88.5759 116.31C87.6099 116.31 86.9659 115.24 86.9659 112.756C86.9659 110.295 87.6099 109.249 88.5759 109.249C89.5304 109.249 90.1744 110.295 90.1744 112.756C90.1744 115.24 89.5304 116.31 88.5759 116.31ZM92.7698 117H97.3928V116.126H95.7023V108.559H94.8973C94.4373 108.835 93.8968 109.03 93.1493 109.168V109.835H94.6443V116.126H92.7698V117ZM101.173 117.15C102.668 117.15 103.875 116.252 103.875 114.746C103.875 113.596 103.082 112.837 102.093 112.607V112.561C102.978 112.227 103.588 111.549 103.588 110.525C103.588 109.191 102.553 108.409 101.138 108.409C100.161 108.409 99.4132 108.835 98.7807 109.421L99.3442 110.088C99.8157 109.605 100.414 109.272 101.092 109.272C101.966 109.272 102.518 109.801 102.518 110.606C102.518 111.514 101.92 112.216 100.184 112.216V113.021C102.127 113.021 102.806 113.699 102.806 114.7C102.806 115.677 102.093 116.275 101.092 116.275C100.138 116.275 99.4937 115.827 98.9992 115.31L98.4702 115.999C99.0222 116.597 99.8502 117.15 101.173 117.15ZM105.045 114.182H107.989V113.377H105.045V114.182ZM111.699 117.15C113.298 117.15 114.321 115.689 114.321 112.756C114.321 109.835 113.298 108.409 111.699 108.409C110.089 108.409 109.066 109.824 109.066 112.756C109.066 115.689 110.089 117.15 111.699 117.15ZM111.699 116.31C110.733 116.31 110.089 115.24 110.089 112.756C110.089 110.295 110.733 109.249 111.699 109.249C112.654 109.249 113.298 110.295 113.298 112.756C113.298 115.24 112.654 116.31 111.699 116.31ZM118.251 112.549C119.274 112.549 119.78 113.274 119.78 114.412C119.78 115.562 119.148 116.333 118.343 116.333C117.285 116.333 116.652 115.378 116.526 113.63C117.043 112.86 117.722 112.549 118.251 112.549ZM118.343 117.15C119.654 117.15 120.758 116.045 120.758 114.412C120.758 112.653 119.849 111.767 118.423 111.767C117.756 111.767 117.02 112.158 116.503 112.791C116.549 110.169 117.526 109.283 118.676 109.283C119.194 109.283 119.7 109.525 120.033 109.927L120.608 109.272C120.148 108.777 119.516 108.409 118.642 108.409C117.009 108.409 115.525 109.674 115.525 112.975C115.525 115.758 116.721 117.15 118.343 117.15ZM121.789 114.182H124.733V113.377H121.789V114.182ZM126.259 117L130.882 117V116.126H129.192V108.559H128.387C127.927 108.835 127.386 109.03 126.639 109.168V109.835H128.134V116.126H126.259V117ZM133.121 111.146C133.121 109.996 133.742 109.237 134.547 109.237C135.628 109.237 136.272 110.157 136.387 111.894C135.846 112.687 135.202 113.021 134.627 113.021C133.627 113.021 133.121 112.285 133.121 111.146ZM134.317 117.15C135.904 117.15 137.376 115.838 137.376 112.423C137.376 109.743 136.168 108.409 134.547 108.409C133.236 108.409 132.132 109.513 132.132 111.146C132.132 112.894 133.052 113.803 134.455 113.803C135.156 113.803 135.881 113.4 136.398 112.768C136.318 115.378 135.375 116.275 134.282 116.275C133.742 116.275 133.224 116.034 132.879 115.631L132.293 116.287C132.764 116.781 133.408 117.15 134.317 117.15Z" fill="#121212"/>
<path d="M32.786 132.916H26.438V130.593H32.7055V130.076H25.84V133.434H32.786V132.916ZM29.267 139.276C27.519 139.276 26.4035 138.781 26.4035 137.953C26.4035 137.125 27.519 136.631 29.267 136.631C31.015 136.631 32.1305 137.125 32.1305 137.953C32.1305 138.781 31.015 139.276 29.267 139.276ZM29.267 136.136C27.105 136.136 25.794 136.792 25.794 137.953C25.794 139.127 27.105 139.771 29.267 139.771C31.429 139.771 32.74 139.127 32.74 137.953C32.74 136.792 31.429 136.136 29.267 136.136ZM24.6555 134.572V135.09H33.89V134.572H24.6555ZM36.2581 137.24H42.7096V139.667H43.3191V136.723H36.2581V137.24ZM40.1566 135.297V134.009H43.4916V133.503H37.0401V132.18H43.2616V129.892H36.4191V130.386H42.6636V131.697H36.4421V134.009H39.5471V135.297H35.2116V135.814H44.4921V135.297H40.1566ZM54.1167 129.581H53.5072V134.906H54.1167V129.581ZM46.6992 132.226C46.6992 131.249 47.5387 130.513 48.6772 130.513C49.8157 130.513 50.6552 131.249 50.6552 132.226C50.6552 133.215 49.8157 133.94 48.6772 133.94C47.5387 133.94 46.6992 133.215 46.6992 132.226ZM51.2532 132.226C51.2532 130.904 50.1837 129.995 48.6772 129.995C47.1707 129.995 46.1012 130.904 46.1012 132.226C46.1012 133.549 47.1707 134.446 48.6772 134.446C50.1837 134.446 51.2532 133.549 51.2532 132.226ZM48.2632 139.138V137.723H54.1167V135.458H47.6307V135.964H53.5187V137.24H47.6652V139.644H54.5192V139.138H48.2632Z" fill="#121212"/>
<path d="M79.506 139H84.8075V138.091H82.473C82.0475 138.091 81.53 138.137 81.093 138.172C83.071 136.297 84.3935 134.584 84.3935 132.905C84.3935 131.398 83.4505 130.409 81.944 130.409C80.8745 130.409 80.15 130.904 79.46 131.651L80.0695 132.249C80.5295 131.697 81.1275 131.272 81.8175 131.272C82.864 131.272 83.37 131.973 83.37 132.939C83.37 134.388 82.151 136.067 79.506 138.379V139ZM88.5759 139.15C90.1744 139.15 91.1979 137.689 91.1979 134.756C91.1979 131.835 90.1744 130.409 88.5759 130.409C86.9659 130.409 85.9424 131.824 85.9424 134.756C85.9424 137.689 86.9659 139.15 88.5759 139.15ZM88.5759 138.31C87.6099 138.31 86.9659 137.24 86.9659 134.756C86.9659 132.295 87.6099 131.249 88.5759 131.249C89.5304 131.249 90.1744 132.295 90.1744 134.756C90.1744 137.24 89.5304 138.31 88.5759 138.31ZM92.7698 139H97.3928V138.126H95.7023V130.559H94.8973C94.4373 130.835 93.8968 131.03 93.1493 131.168V131.835H94.6443V138.126H92.7698V139ZM99.4592 135.837L101.38 132.962C101.621 132.548 101.851 132.134 102.058 131.72H102.104C102.081 132.157 102.047 132.836 102.047 133.25V135.837H99.4592ZM102.047 139H103.036V136.677H104.151V135.837H103.036V130.559H101.874L98.3667 135.987V136.677H102.047V139ZM105.045 136.182H107.989V135.377H105.045V136.182ZM109.514 139H114.137V138.126H112.447V130.559H111.642C111.182 130.835 110.641 131.03 109.894 131.168V131.835H111.389V138.126H109.514V139ZM115.387 139H120.689V138.091H118.354C117.929 138.091 117.411 138.137 116.974 138.172C118.952 136.297 120.275 134.584 120.275 132.905C120.275 131.398 119.332 130.409 117.825 130.409C116.756 130.409 116.031 130.904 115.341 131.651L115.951 132.249C116.411 131.697 117.009 131.272 117.699 131.272C118.745 131.272 119.251 131.973 119.251 132.939C119.251 134.388 118.032 136.067 115.387 138.379V139ZM121.789 136.182H124.733V135.377H121.789V136.182ZM128.444 139.15C130.043 139.15 131.066 137.689 131.066 134.756C131.066 131.835 130.043 130.409 128.444 130.409C126.834 130.409 125.811 131.824 125.811 134.756C125.811 137.689 126.834 139.15 128.444 139.15ZM128.444 138.31C127.478 138.31 126.834 137.24 126.834 134.756C126.834 132.295 127.478 131.249 128.444 131.249C129.399 131.249 130.043 132.295 130.043 134.756C130.043 137.24 129.399 138.31 128.444 138.31ZM133.121 133.146C133.121 131.996 133.742 131.237 134.547 131.237C135.628 131.237 136.272 132.157 136.387 133.894C135.846 134.687 135.202 135.021 134.627 135.021C133.627 135.021 133.121 134.285 133.121 133.146ZM134.317 139.15C135.904 139.15 137.376 137.838 137.376 134.423C137.376 131.743 136.168 130.409 134.547 130.409C133.236 130.409 132.132 131.513 132.132 133.146C132.132 134.894 133.052 135.803 134.455 135.803C135.156 135.803 135.881 135.4 136.398 134.768C136.318 137.378 135.375 138.275 134.282 138.275C133.742 138.275 133.224 138.034 132.879 137.631L132.293 138.287C132.764 138.781 133.408 139.15 134.317 139.15Z" fill="#121212"/>
<path d="M29.175 155.928H25.7595V154.111H29.175V155.928ZM29.773 151.984H29.175V153.605H25.7595V151.984H25.15V156.434H29.773V151.984ZM26.806 159.758H32.5215V157.469H26.185V157.964H31.9235V159.263H26.208L26.208 161.656H32.9355V161.15H26.806V159.758ZM32.5215 153.916V151.581H31.912V156.917H32.5215V154.445H34.1085V153.916H32.5215ZM39.6966 156.331H36.3271V152.892H39.6966V156.331ZM42.9396 153.858V155.365H40.2946V153.858H42.9396ZM40.2946 155.882H42.9396V157.665H43.5491V151.593H42.9396V153.341H40.2946V152.386H35.7406V156.837H40.2946V155.882ZM40.2486 161.276C38.5811 161.276 37.5116 160.747 37.5116 159.884C37.5116 159.033 38.5811 158.493 40.2486 158.493C41.9161 158.493 42.9971 159.033 42.9971 159.884C42.9971 160.747 41.9161 161.276 40.2486 161.276ZM40.2486 157.998C38.1786 157.998 36.9021 158.677 36.9021 159.884C36.9021 161.092 38.1786 161.771 40.2486 161.771C42.3186 161.771 43.5951 161.092 43.5951 159.884C43.5951 158.677 42.3186 157.998 40.2486 157.998ZM50.2757 156.331H46.9062V152.892H50.2757V156.331ZM53.5187 153.858V155.365H50.8737V153.858H53.5187ZM50.8737 155.882H53.5187V157.665H54.1282V151.593H53.5187V153.341H50.8737V152.386H46.3197V156.837H50.8737V155.882ZM50.8277 161.276C49.1602 161.276 48.0907 160.747 48.0907 159.884C48.0907 159.033 49.1602 158.493 50.8277 158.493C52.4952 158.493 53.5762 159.033 53.5762 159.884C53.5762 160.747 52.4952 161.276 50.8277 161.276ZM50.8277 157.998C48.7577 157.998 47.4812 158.677 47.4812 159.884C47.4812 161.092 48.7577 161.771 50.8277 161.771C52.8977 161.771 54.1742 161.092 54.1742 159.884C54.1742 158.677 52.8977 157.998 50.8277 157.998ZM64.6958 151.604H64.0863V157.918H64.6958V151.604ZM62.6488 156.768C61.2113 156.331 59.9348 155.158 59.9348 153.732V153.467H62.3843V152.961H59.9348V151.581H59.3253V152.961H56.8528V153.467H59.3253V153.732C59.3253 155.261 58.0833 156.549 56.6573 157.044L56.9678 157.527C58.1753 157.09 59.2218 156.124 59.6473 154.882C60.0843 156.009 61.1653 156.86 62.3498 157.251L62.6488 156.768ZM61.3378 161.276C59.6473 161.276 58.5663 160.77 58.5663 159.965C58.5663 159.148 59.6473 158.654 61.3378 158.654C63.0398 158.654 64.1208 159.148 64.1208 159.965C64.1208 160.77 63.0398 161.276 61.3378 161.276ZM61.3378 158.148C59.2218 158.148 57.9568 158.803 57.9568 159.965C57.9568 161.115 59.2218 161.771 61.3378 161.771C63.4538 161.771 64.7303 161.115 64.7303 159.965C64.7303 158.803 63.4538 158.148 61.3378 158.148Z" fill="#121212"/>
<path d="M80.0005 152.869V153.64H83.094C82.956 155.779 81.9785 157.642 79.6095 158.964L80.1615 159.643C83.094 157.987 84.0255 155.526 84.0255 152.869H80.0005ZM87.4525 151.535V155.687H86.0495V151.811H85.164V161.334H86.0495V156.457H87.4525V161.851H88.361V151.535H87.4525ZM97.7326 153.743V154.882H95.3521V153.743H97.7326ZM94.4206 155.756H91.6376V154.226H94.4206V155.756ZM95.3521 155.618H97.7326V156.929H98.6756V151.547H97.7326V153.007H95.3521V152.03H94.4206V153.49H91.6376V152.018H90.7061V156.515H95.3521V155.618ZM92.9831 160.965V159.873H98.6756V157.423H92.0286V158.171H97.7441V159.16H92.0516V161.713H99.0666V160.965H92.9831ZM105.425 161.127C103.769 161.127 102.838 160.804 102.838 160.183C102.838 159.574 103.769 159.24 105.425 159.24C107.093 159.24 108.013 159.574 108.013 160.183C108.013 160.804 107.093 161.127 105.425 161.127ZM105.425 158.539C103.183 158.539 101.895 159.114 101.895 160.183C101.895 161.265 103.183 161.84 105.425 161.84C107.668 161.84 108.956 161.265 108.956 160.183C108.956 159.114 107.668 158.539 105.425 158.539ZM105.897 156.998V155.986H109.002V155.25H102.93V154.238H108.668V153.525H102.93V152.57H108.944V151.834H101.987V155.986H104.954V156.998H100.756V157.757H110.094V156.998H105.897ZM117.833 155.112H119.144V158.067H120.052V151.535H119.144V154.341H117.833V151.731H116.936V157.688H117.833V155.112ZM116.522 152.766H114.383V151.616H113.451V152.766H111.289V153.513H116.533L116.522 152.766ZM112.566 155.813C112.566 155.181 113.106 154.755 113.923 154.755C114.728 154.755 115.28 155.181 115.28 155.813C115.28 156.457 114.728 156.883 113.923 156.883C113.106 156.883 112.566 156.457 112.566 155.813ZM116.119 155.813C116.119 154.755 115.222 154.054 113.923 154.054C112.623 154.054 111.715 154.755 111.715 155.813C111.715 156.894 112.623 157.584 113.923 157.584C115.222 157.584 116.119 156.894 116.119 155.813ZM116.66 161.115C115.084 161.115 114.141 160.724 114.141 160.045C114.141 159.355 115.084 158.964 116.66 158.964C118.224 158.964 119.167 159.355 119.167 160.045C119.167 160.724 118.224 161.115 116.66 161.115ZM116.66 158.24C114.509 158.24 113.21 158.884 113.21 160.045C113.21 161.196 114.509 161.84 116.66 161.84C118.81 161.84 120.11 161.196 120.11 160.045C120.11 158.884 118.81 158.24 116.66 158.24ZM125.399 153.375H127.687V152.593H122.11V153.375H124.467V154.686C124.467 156.434 123.225 158.389 121.753 159.125L122.305 159.873C123.467 159.275 124.467 157.964 124.939 156.457C125.41 157.837 126.376 159.045 127.526 159.62L128.067 158.861C126.572 158.159 125.399 156.331 125.399 154.686V153.375ZM131.563 155.698H129.861V151.547H128.918V161.851H129.861V156.492H131.563V155.698ZM133.115 152.651V153.41H136.99C136.795 155.859 135.415 157.837 132.643 159.16L133.149 159.93C136.576 158.251 137.945 155.629 137.945 152.651H133.115ZM140.026 151.535V161.851H140.969V151.535H140.026ZM147.362 156.63H144.441V154.744H147.362V156.63ZM148.282 152.283H147.362V154.008H144.441V152.283H143.51V157.389H148.282V152.283ZM145.614 158.389H144.671V161.621H151.548V160.85H145.614V158.389ZM151.088 154.664V151.547H150.145V159.114H151.088V155.457H152.606V154.664H151.088ZM163.526 153.709C163.526 154.985 163.526 156.342 163.169 158.182L164.101 158.297C164.469 156.365 164.469 155.02 164.469 153.709V152.57H157.201V153.341H163.526V153.709ZM162.008 159.631V156.216H161.076V159.631H159.455V156.216H158.523V159.631H156.235V160.402H165.561V159.631H162.008ZM171.472 161.127C169.816 161.127 168.884 160.804 168.884 160.183C168.884 159.574 169.816 159.24 171.472 159.24C173.139 159.24 174.059 159.574 174.059 160.183C174.059 160.804 173.139 161.127 171.472 161.127ZM171.472 158.539C169.229 158.539 167.941 159.114 167.941 160.183C167.941 161.265 169.229 161.84 171.472 161.84C173.714 161.84 175.002 161.265 175.002 160.183C175.002 159.114 173.714 158.539 171.472 158.539ZM171.943 156.998V155.986L175.048 155.986V155.25L168.976 155.25V154.238L174.715 154.238V153.525L168.976 153.525V152.57L174.991 152.57V151.834L168.033 151.834V155.986H171V156.998H166.803V157.757L176.141 157.757V156.998L171.943 156.998ZM186.271 155.468C184.397 155.193 182.557 153.916 182.557 152.478V151.903H181.568V152.478C181.568 153.95 179.751 155.193 177.876 155.468L178.256 156.227C179.866 155.951 181.418 155.066 182.062 153.813C182.729 155.054 184.282 155.951 185.88 156.227L186.271 155.468ZM186.72 157.343H177.405V158.125H181.568V161.863H182.511V158.125H186.731L186.72 157.343ZM191.204 157.32C191.629 157.423 192.124 157.481 192.63 157.481C193.147 157.481 193.642 157.423 194.079 157.32V159.746H191.204V157.32ZM192.63 152.927C194.286 152.927 195.482 153.686 195.482 154.836C195.482 155.986 194.286 156.745 192.63 156.745C190.974 156.745 189.789 155.986 189.789 154.836C189.789 153.686 190.974 152.927 192.63 152.927ZM195.022 159.746V156.952C195.873 156.503 196.379 155.767 196.379 154.836C196.379 153.226 194.826 152.191 192.63 152.191C190.445 152.191 188.881 153.226 188.881 154.836C188.881 155.767 189.398 156.515 190.261 156.963V159.746H187.961V160.528H197.333V159.746H195.022ZM202.99 157.17C203.048 156.802 203.082 156.423 203.082 155.986C203.082 155.549 203.048 155.169 202.99 154.801H204.393V157.17H202.99ZM200.874 158.711C200.058 158.711 199.529 157.665 199.529 155.986C199.529 154.318 200.058 153.272 200.874 153.272C201.702 153.272 202.22 154.318 202.22 155.986C202.22 157.665 201.702 158.711 200.874 158.711ZM204.393 154.031H202.795C202.438 152.996 201.771 152.398 200.874 152.398C199.54 152.398 198.678 153.778 198.678 155.986C198.678 158.205 199.54 159.585 200.874 159.585C201.771 159.585 202.427 158.987 202.795 157.952H204.393V161.345H205.29V151.765H204.393V154.031ZM206.417 151.535V161.851H207.314V151.535H206.417ZM209.981 156.17C211.672 155.997 213.178 155.376 213.799 154.341C214.42 155.376 215.915 155.997 217.606 156.17L217.905 155.457C215.95 155.261 214.386 154.468 214.305 153.318H217.502V152.57H214.271V151.501H213.328V152.57H210.096V153.318H213.282C213.201 154.468 211.637 155.261 209.694 155.457L209.981 156.17ZM210.165 159.355H216.364V161.851H217.307V158.608H210.165V159.355ZM209.13 156.745V157.504H218.457V156.745H209.13ZM223.367 152.432H222.435V154.284C222.435 156.239 221.182 158.217 219.664 158.941L220.239 159.712C221.446 159.091 222.435 157.803 222.907 156.25C223.401 157.722 224.39 158.941 225.563 159.516L226.127 158.757C224.597 158.067 223.367 156.17 223.367 154.284V152.432ZM227.208 151.535V161.874H228.151V151.535H227.208ZM239.178 156.722C237.373 156.377 235.418 154.813 235.418 153.053V152.26H234.429V153.053C234.429 154.813 232.485 156.365 230.68 156.722L231.105 157.504C232.658 157.136 234.268 156.032 234.923 154.525C235.579 156.043 237.189 157.147 238.753 157.504L239.178 156.722ZM230.289 159.689V160.471H239.638V159.689H230.289ZM246.675 157.642H247.572V151.708H246.675V154.134H245.307V154.893H246.675V157.642ZM245.709 156.089C244.64 156.308 243.708 156.365 242.248 156.365V154.974H244.835V154.238H242.248V152.961H245.238V152.202H241.339V157.124H241.995C243.639 157.124 244.617 157.078 245.79 156.848L245.709 156.089ZM243.72 158.987H248.653V160.954H243.72V158.987ZM242.8 161.713H249.573V158.24H242.8V161.713ZM248.665 151.535V157.745H249.573V151.535H248.665Z" fill="#121212"/>
<path d="M29.175 177.928H25.7595V176.111H29.175V177.928ZM29.773 173.984H29.175V175.605H25.7595V173.984H25.15V178.434H29.773V173.984ZM26.806 181.758H32.5215V179.469H26.185V179.964H31.9235V181.263H26.208L26.208 183.656H32.9355V183.15H26.806V181.758ZM32.5215 175.916V173.581H31.912V178.917H32.5215V176.445H34.1085V175.916H32.5215ZM39.6966 178.331H36.3271V174.892H39.6966V178.331ZM42.9396 175.858V177.365H40.2946V175.858H42.9396ZM40.2946 177.882H42.9396V179.665H43.5491V173.593H42.9396V175.341H40.2946V174.386H35.7406V178.837H40.2946V177.882ZM40.2486 183.276C38.5811 183.276 37.5116 182.747 37.5116 181.884C37.5116 181.033 38.5811 180.493 40.2486 180.493C41.9161 180.493 42.9971 181.033 42.9971 181.884C42.9971 182.747 41.9161 183.276 40.2486 183.276ZM40.2486 179.998C38.1786 179.998 36.9021 180.677 36.9021 181.884C36.9021 183.092 38.1786 183.771 40.2486 183.771C42.3186 183.771 43.5951 183.092 43.5951 181.884C43.5951 180.677 42.3186 179.998 40.2486 179.998ZM49.0682 175.203H51.4717V174.674H46.0207V175.203H48.4702V176.916C48.4702 178.687 46.9982 180.642 45.6757 181.31L46.0552 181.815C47.1592 181.206 48.3207 179.803 48.7692 178.25C49.2177 179.688 50.3217 180.976 51.4257 181.562L51.7822 181.068C50.4367 180.412 49.0682 178.584 49.0682 176.916V175.203ZM55.3587 177.848H53.5762V173.593H52.9667V183.805H53.5762V178.365H55.3587V177.848Z" fill="#121212"/>
<path d="M87.1075 173.535V183.874H88.0505V173.535H87.1075ZM82.611 174.329C81.0815 174.329 79.989 175.732 79.989 177.928C79.989 180.125 81.0815 181.528 82.611 181.528C84.1405 181.528 85.233 180.125 85.233 177.928C85.233 175.732 84.1405 174.329 82.611 174.329ZM82.611 175.18C83.6115 175.18 84.3245 176.261 84.3245 177.928C84.3245 179.607 83.6115 180.688 82.611 180.688C81.599 180.688 80.886 179.607 80.886 177.928C80.886 176.261 81.599 175.18 82.611 175.18ZM98.9746 176.905C97.1461 176.64 95.3406 175.479 95.3406 174.168V173.708H94.3746V174.168C94.3746 175.513 92.5806 176.64 90.7406 176.905L91.0856 177.641C92.6841 177.388 94.2136 176.571 94.8576 175.387C95.5131 176.56 97.0311 177.388 98.6181 177.641L98.9746 176.905ZM94.8576 183.115C93.2246 183.115 92.2701 182.724 92.2701 182.011C92.2701 181.31 93.2246 180.907 94.8576 180.907C96.4676 180.907 97.4221 181.31 97.4221 182.011C97.4221 182.724 96.4676 183.115 94.8576 183.115ZM94.8576 180.182C92.6496 180.182 91.3156 180.838 91.3156 182.011C91.3156 183.196 92.6496 183.851 94.8576 183.851C97.0541 183.851 98.3766 183.196 98.3766 182.011C98.3766 180.838 97.0541 180.182 94.8576 180.182ZM90.1886 178.457V179.228H99.5151V178.457H90.1886ZM103.815 175.525H105.69V174.754H100.906V175.525H102.907V176.33C102.907 178.423 102.136 180.182 100.664 181.01L101.239 181.723C102.309 181.102 103.033 179.987 103.378 178.584C103.746 179.803 104.459 180.803 105.471 181.367L106.023 180.642C104.563 179.883 103.815 178.216 103.815 176.33V175.525ZM108.657 173.524V177.698H107.3V173.765H106.414V183.345H107.3V178.48H108.657V183.851H109.565V173.524H108.657ZM111.6 185.185C112.635 184.748 113.279 183.886 113.279 182.781C113.279 182.011 112.945 181.539 112.393 181.539C111.968 181.539 111.6 181.827 111.6 182.275C111.6 182.758 111.968 183.012 112.37 183.012C112.416 183.012 112.451 183.012 112.497 183C112.497 183.679 112.071 184.242 111.347 184.564L111.6 185.185ZM125.583 173.535H124.64V181.102H125.583V173.535ZM123.329 178.676C121.8 178.112 120.753 176.709 120.753 175.157V174.11H119.81V175.157C119.81 176.767 118.775 178.262 117.223 178.86L117.717 179.63C118.925 179.124 119.856 178.124 120.293 176.87C120.753 178.043 121.662 178.975 122.835 179.423L123.329 178.676ZM119.891 182.85V180.401H118.948V183.621H125.894V182.85H119.891ZM136.484 174.421H132.839V173.386H131.896V174.421H128.181V175.157H136.484V174.421ZM134.69 177.066C134.69 177.595 133.851 177.882 132.356 177.882C130.861 177.882 130.021 177.595 130.021 177.066C130.021 176.525 130.861 176.238 132.356 176.238C133.851 176.238 134.69 176.525 134.69 177.066ZM129.032 177.066C129.032 178.043 130.228 178.561 132.356 178.561C134.483 178.561 135.691 178.043 135.691 177.066C135.691 176.088 134.483 175.571 132.356 175.571C130.228 175.571 129.032 176.088 129.032 177.066ZM132.356 183.138C130.711 183.138 129.791 182.827 129.791 182.241C129.791 181.666 130.711 181.355 132.356 181.355C134 181.355 134.92 181.666 134.92 182.241C134.92 182.827 134 183.138 132.356 183.138ZM132.356 180.654C130.113 180.654 128.825 181.217 128.825 182.241C128.825 183.288 130.113 183.84 132.356 183.84C134.598 183.84 135.886 183.288 135.886 182.241C135.886 181.217 134.598 180.654 132.356 180.654ZM127.698 179.216V179.964H137.025V179.216H127.698ZM143.579 179.159V179.906H145.821V181.332H146.764V173.547H145.821V179.159H143.579ZM141.106 180.665H142.049V178.285C143.027 178.216 144.027 178.124 144.959 177.951L144.89 177.273C144.522 177.33 144.119 177.365 143.728 177.399C143.947 176.1 143.947 175.134 143.947 174.559V174.168H139.14V174.927H143.027C143.015 175.513 142.981 176.353 142.774 177.48C141.152 177.595 139.519 177.606 138.197 177.618L138.323 178.388C139.151 178.388 140.106 178.377 141.106 178.331V180.665ZM140.658 182.85V180.481H139.726V183.621H147.017V182.85H140.658ZM149.11 185.185C150.145 184.748 150.789 183.886 150.789 182.781C150.789 182.011 150.455 181.539 149.903 181.539C149.478 181.539 149.11 181.827 149.11 182.275C149.11 182.758 149.478 183.012 149.88 183.012C149.926 183.012 149.961 183.012 150.007 183C150.007 183.679 149.581 184.242 148.857 184.564L149.11 185.185ZM155.285 174.191V174.961H159.022C158.838 176.709 157.263 178.066 154.744 178.722L155.124 179.469C158.137 178.664 160.034 176.824 160.034 174.191H155.285ZM157.343 180.608H162.162V182.942H157.343V180.608ZM156.423 183.702H163.093V179.86H156.423V183.702ZM162.15 173.535V179.366H163.093V173.535H162.15ZM166.128 178.549C167.727 178.273 169.245 177.411 169.877 176.192C170.498 177.411 172.028 178.273 173.626 178.549L173.994 177.802C172.177 177.537 170.395 176.353 170.395 174.996V174.938H173.626V174.179L166.094 174.179V174.938H169.348V174.996C169.348 176.353 167.566 177.537 165.772 177.802L166.128 178.549ZM174.535 179.412L165.22 179.412V180.182H169.383V183.851H170.326V180.182L174.546 180.182L174.535 179.412ZM176.845 176.594C176.845 175.64 177.604 174.95 178.605 174.95C179.617 174.95 180.353 175.64 180.353 176.594C180.353 177.56 179.617 178.25 178.605 178.25C177.604 178.25 176.845 177.56 176.845 176.594ZM183.331 175.789V177.399H181.112C181.204 177.146 181.25 176.882 181.25 176.594C181.25 176.295 181.204 176.031 181.123 175.789H183.331ZM183.331 178.17V179.642H184.286V173.535H183.331V175.019H180.686C180.215 174.49 179.479 174.156 178.605 174.156C177.075 174.156 175.948 175.157 175.948 176.594C175.948 178.043 177.075 179.055 178.605 179.055C179.479 179.055 180.215 178.722 180.686 178.17H183.331ZM180.87 183.092C179.318 183.092 178.375 182.632 178.375 181.861C178.375 181.079 179.318 180.619 180.87 180.619C182.446 180.619 183.389 181.079 183.389 181.861C183.389 182.632 182.446 183.092 180.87 183.092ZM180.87 179.883C178.754 179.883 177.443 180.608 177.443 181.861C177.443 183.115 178.754 183.84 180.87 183.84C182.998 183.84 184.32 183.115 184.32 181.861C184.32 180.608 182.998 179.883 180.87 179.883ZM186.619 185.185C187.654 184.748 188.298 183.886 188.298 182.781C188.298 182.011 187.965 181.539 187.413 181.539C186.987 181.539 186.619 181.827 186.619 182.275C186.619 182.758 186.987 183.012 187.39 183.012C187.436 183.012 187.47 183.012 187.516 183C187.516 183.679 187.091 184.242 186.366 184.564L186.619 185.185ZM196.785 174.708C198.36 174.708 199.43 175.283 199.43 176.192C199.43 177.1 198.36 177.687 196.785 177.687C195.221 177.687 194.151 177.1 194.151 176.192C194.151 175.283 195.221 174.708 196.785 174.708ZM196.785 178.446C198.935 178.446 200.396 177.572 200.396 176.192C200.396 174.812 198.935 173.949 196.785 173.949C194.646 173.949 193.185 174.812 193.185 176.192C193.185 177.572 194.646 178.446 196.785 178.446ZM201.477 179.412H192.139V180.182H194.542V183.851H195.497V180.182H198.084V183.851H199.039V180.182H201.477V179.412ZM203.776 176.778C203.776 175.755 204.523 175.019 205.535 175.019C206.536 175.019 207.283 175.755 207.283 176.778C207.283 177.802 206.536 178.538 205.535 178.538C204.523 178.538 203.776 177.802 203.776 176.778ZM210.262 175.916V177.629H208.042C208.134 177.365 208.18 177.077 208.18 176.778C208.18 176.468 208.134 176.18 208.042 175.916H210.262ZM210.262 178.388V181.16H211.216V173.547H210.262V175.157H207.64C207.157 174.559 206.421 174.191 205.535 174.191C204.017 174.191 202.879 175.272 202.879 176.778C202.879 178.285 204.017 179.366 205.535 179.366C206.421 179.366 207.168 178.998 207.651 178.388H210.262ZM205.57 182.85V180.378H204.615V183.621H211.504V182.85H205.57ZM222.083 176.905C220.255 176.64 218.449 175.479 218.449 174.168V173.708H217.483V174.168C217.483 175.513 215.689 176.64 213.849 176.905L214.194 177.641C215.793 177.388 217.322 176.571 217.966 175.387C218.622 176.56 220.14 177.388 221.727 177.641L222.083 176.905ZM217.966 183.115C216.333 183.115 215.379 182.724 215.379 182.011C215.379 181.31 216.333 180.907 217.966 180.907C219.576 180.907 220.531 181.31 220.531 182.011C220.531 182.724 219.576 183.115 217.966 183.115ZM217.966 180.182C215.758 180.182 214.424 180.838 214.424 182.011C214.424 183.196 215.758 183.851 217.966 183.851C220.163 183.851 221.485 183.196 221.485 182.011C221.485 180.838 220.163 180.182 217.966 180.182ZM213.297 178.457V179.228H222.624V178.457H213.297Z" fill="#121212"/>
<path d="M32.74 199.365H26.5185V198.077H32.4065V197.582H26.5185V196.386H32.694V195.892H25.909V199.871H32.74V199.365ZM25.679 203.24H32.0385V205.805H32.648V202.734H25.679L25.679 203.24ZM24.6555 201.032V201.55H33.8785V201.032H24.6555ZM41.2836 197.283H38.5696V195.685H37.9601V197.283H35.2001V197.801H41.2836V197.283ZM38.2591 202.872C37.2241 202.872 36.4651 202.113 36.4651 201.113C36.4651 200.112 37.2241 199.342 38.2591 199.342C39.2826 199.342 40.0531 200.112 40.0531 201.113C40.0531 202.113 39.2826 202.872 38.2591 202.872ZM38.2591 198.813C36.9021 198.813 35.9016 199.767 35.9016 201.113C35.9016 202.458 36.9021 203.401 38.2591 203.401C39.6276 203.401 40.6166 202.458 40.6166 201.113C40.6166 199.767 39.6276 198.813 38.2591 198.813ZM42.9396 195.581V200.032H41.0536V200.549H42.9396V205.794H43.5491V195.581H42.9396ZM51.0577 201.205V201.711H53.4267V203.321H54.0362V195.593H53.4267V201.205H51.0577ZM48.7462 202.642H49.3442V200.181C50.3677 200.112 51.4372 200.02 52.4377 199.848L52.3917 199.388C51.9892 199.445 51.5522 199.503 51.1267 199.549C51.3567 198.226 51.3567 197.272 51.3567 196.685V196.271H46.6532V196.789H50.7587C50.7587 197.375 50.7472 198.307 50.5057 199.583C48.8267 199.721 47.1017 199.733 45.7332 199.733L45.8252 200.273C46.6877 200.273 47.6997 200.262 48.7462 200.216V202.642ZM47.9182 205.035V202.435H47.3087V205.552H54.3007V205.035H47.9182ZM59.6473 197.203H62.0508V196.674H56.5998V197.203H59.0493V198.916C59.0493 200.687 57.5773 202.642 56.2548 203.31L56.6343 203.815C57.7383 203.206 58.8998 201.803 59.3483 200.25C59.7968 201.688 60.9008 202.976 62.0048 203.562L62.3613 203.068C61.0158 202.412 59.6473 200.584 59.6473 198.916V197.203ZM65.9378 199.848H64.1553V195.593H63.5458V205.805H64.1553V200.365H65.9378V199.848Z" fill="#121212"/>
<path d="M81.7485 207.266L82.404 206.955C81.4035 205.322 80.932 203.378 80.932 201.423C80.932 199.468 81.4035 197.536 82.404 195.892L81.7485 195.593C80.6905 197.306 80.058 199.169 80.058 201.423C80.058 203.689 80.6905 205.541 81.7485 207.266ZM84.4152 200.549C86.0137 200.273 87.5317 199.411 88.1642 198.192C88.7852 199.411 90.3147 200.273 91.9132 200.549L92.2812 199.802C90.4642 199.537 88.6817 198.353 88.6817 196.996V196.938H91.9132V196.179H84.3807V196.938H87.6352V196.996C87.6352 198.353 85.8527 199.537 84.0587 199.802L84.4152 200.549ZM92.8217 201.412H83.5067V202.182H87.6697V205.851H88.6127V202.182H92.8332L92.8217 201.412ZM94.6033 207.266C95.6728 205.541 96.3053 203.689 96.3053 201.423C96.3053 199.169 95.6728 197.306 94.6033 195.593L93.9593 195.892C94.9483 197.536 95.4313 199.468 95.4313 201.423C95.4313 203.378 94.9483 205.322 93.9593 206.955L94.6033 207.266ZM106.85 200.722C105.044 200.377 103.089 198.813 103.089 197.053V196.26H102.1V197.053C102.1 198.813 100.157 200.365 98.3511 200.722L98.7766 201.504C100.329 201.136 101.939 200.032 102.595 198.525C103.25 200.043 104.86 201.147 106.424 201.504L106.85 200.722ZM97.9601 203.689V204.471H107.31V203.689H97.9601ZM109.873 197.329H112.76V202.47H109.873V197.329ZM108.953 203.229H113.68V196.57H108.953V203.229ZM118.176 199.652H116.474V195.547H115.531V205.851H116.474V200.446H118.176V199.652ZM127.398 201.101H121.269V199.468H127.065V198.721H121.269V197.191H127.295V196.432H120.314V201.86H127.398V201.101ZM119.107 203.746V204.517H128.468V203.746H119.107ZM131.71 197.145H136.988V200.492H131.71V197.145ZM134.838 203.746V201.239H137.908V196.398H130.801V201.239H133.883V203.746H129.697V204.528H139.047V203.746H134.838ZM148.729 195.547H147.786V200.929H148.729V195.547ZM144.715 199.71H141.748V198.169H144.715V199.71ZM145.647 195.949H144.715V197.444H141.748V195.949H140.817V200.469H145.647V195.949ZM143.013 205V203.896H148.74V201.458H142.059V202.194H147.809V203.206H142.082V205.736H149.085V205H143.013ZM152.167 200.101H155.824V196.49H151.212V197.26H154.904V199.342H151.235V203.378H152.029C153.892 203.378 155.203 203.321 156.755 203.045L156.663 202.263C155.18 202.527 153.926 202.596 152.167 202.596V200.101ZM158.4 195.524V199.503H156.433V200.273H158.4V205.863H159.343V195.524H158.4ZM163.022 200.124H166.713V199.365H163.022V197.237H167.093V196.467H162.09V203.367H162.907C164.873 203.367 166.253 203.298 167.863 203.022L167.771 202.251C166.23 202.527 164.896 202.596 163.022 202.596V200.124ZM168.956 195.535V205.84H169.899V195.535H168.956Z" fill="#121212"/>
</svg>
