<svg width="309" height="250" viewBox="0 0 309 250" fill="none" xmlns="http://www.w3.org/2000/svg">
<rect x="0.5" y="0.5" width="308" height="249" rx="9.5" fill="#FAFAFA" stroke="#E0E0E0"/>
<path d="M32.74 68.365H26.5185V67.077H32.4065V66.5825H26.5185V65.3865H32.694V64.892H25.909V68.871H32.74V68.365ZM25.679 72.2405H32.0385V74.805H32.648V71.7345H25.679L25.679 72.2405ZM24.6555 70.0325V70.55H33.8785V70.0325H24.6555ZM41.2836 66.2835H38.5696V64.685H37.9601V66.2835H35.2001V66.801H41.2836V66.2835ZM38.2591 71.8725C37.2241 71.8725 36.4651 71.1135 36.4651 70.113C36.4651 69.1125 37.2241 68.342 38.2591 68.342C39.2826 68.342 40.0531 69.1125 40.0531 70.113C40.0531 71.1135 39.2826 71.8725 38.2591 71.8725ZM38.2591 67.813C36.9021 67.813 35.9016 68.7675 35.9016 70.113C35.9016 71.4585 36.9021 72.4015 38.2591 72.4015C39.6276 72.4015 40.6166 71.4585 40.6166 70.113C40.6166 68.7675 39.6276 67.813 38.2591 67.813ZM42.9396 64.5815V69.032H41.0536V69.5495H42.9396V74.7935H43.5491V64.5815H42.9396ZM50.2757 69.331H46.9062V65.8925H50.2757V69.331ZM53.5187 66.8585V68.365H50.8737V66.8585H53.5187ZM50.8737 68.8825H53.5187V70.665H54.1282V64.593H53.5187V66.341H50.8737V65.3865H46.3197V69.837H50.8737V68.8825ZM50.8277 74.276C49.1602 74.276 48.0907 73.747 48.0907 72.8845C48.0907 72.0335 49.1602 71.493 50.8277 71.493C52.4952 71.493 53.5762 72.0335 53.5762 72.8845C53.5762 73.747 52.4952 74.276 50.8277 74.276ZM50.8277 70.9985C48.7577 70.9985 47.4812 71.677 47.4812 72.8845C47.4812 74.092 48.7577 74.7705 50.8277 74.7705C52.8977 74.7705 54.1742 74.092 54.1742 72.8845C54.1742 71.677 52.8977 70.9985 50.8277 70.9985Z" fill="#121212"/>
<path d="M82.634 66.5135H84.474V65.743H79.7705V66.5135H81.7255V67.445C81.7255 69.3425 80.9205 71.217 79.483 72.0795L80.058 72.781C81.0815 72.137 81.829 70.9295 82.1855 69.515C82.542 70.826 83.255 71.93 84.2555 72.528L84.8305 71.838C83.4045 71.033 82.634 69.239 82.634 67.445V66.5135ZM85.394 68.2385H83.692V69.009H85.394V74.3105H86.291V64.7655H85.394V68.2385ZM87.464 64.524V74.8395H88.3725V64.524H87.464ZM93.1629 74H97.7859V73.126H96.0954V65.559H95.2904C94.8304 65.835 94.2899 66.0305 93.5424 66.1685V66.8355H95.0374V73.126H93.1629V74ZM101.727 74.1495C103.325 74.1495 104.349 72.689 104.349 69.7565C104.349 66.8355 103.325 65.4095 101.727 65.4095C100.117 65.4095 99.0933 66.824 99.0933 69.7565C99.0933 72.689 100.117 74.1495 101.727 74.1495ZM101.727 73.31C100.761 73.31 100.117 72.2405 100.117 69.7565C100.117 67.2955 100.761 66.249 101.727 66.249C102.681 66.249 103.325 67.2955 103.325 69.7565C103.325 72.2405 102.681 73.31 101.727 73.31ZM105.438 71.1825H108.382V70.3775H105.438V71.1825ZM109.908 74H114.531V73.126H112.84V65.559H112.035C111.575 65.835 111.035 66.0305 110.287 66.1685V66.8355H111.782V73.126H109.908V74ZM118.483 74.1495C120.07 74.1495 121.128 73.195 121.128 71.9645C121.128 70.8145 120.438 70.182 119.702 69.7565V69.699C120.208 69.308 120.829 68.549 120.829 67.6635C120.829 66.364 119.955 65.444 118.517 65.444C117.206 65.444 116.206 66.295 116.206 67.583C116.206 68.4685 116.723 69.101 117.344 69.5265V69.584C116.574 69.998 115.792 70.78 115.792 71.907C115.792 73.2065 116.93 74.1495 118.483 74.1495ZM119.058 69.423C118.069 69.032 117.16 68.595 117.16 67.583C117.16 66.7665 117.724 66.2145 118.506 66.2145C119.414 66.2145 119.932 66.893 119.932 67.721C119.932 68.342 119.633 68.917 119.058 69.423ZM118.506 73.3675C117.494 73.3675 116.746 72.712 116.746 71.815C116.746 71.01 117.218 70.343 117.896 69.906C119.092 70.389 120.127 70.8145 120.127 71.9415C120.127 72.781 119.472 73.3675 118.506 73.3675ZM124.862 74.1495C126.449 74.1495 127.507 73.195 127.507 71.9645C127.507 70.8145 126.817 70.182 126.081 69.7565V69.699C126.587 69.308 127.208 68.549 127.208 67.6635C127.208 66.364 126.334 65.444 124.896 65.444C123.585 65.444 122.585 66.295 122.585 67.583C122.585 68.4685 123.102 69.101 123.723 69.5265V69.584C122.953 69.998 122.171 70.78 122.171 71.907C122.171 73.2065 123.309 74.1495 124.862 74.1495ZM125.437 69.423C124.448 69.032 123.539 68.595 123.539 67.583C123.539 66.7665 124.103 66.2145 124.885 66.2145C125.793 66.2145 126.311 66.893 126.311 67.721C126.311 68.342 126.012 68.917 125.437 69.423ZM124.885 73.3675C123.873 73.3675 123.125 72.712 123.125 71.815C123.125 71.01 123.597 70.343 124.275 69.906C125.471 70.389 126.506 70.8145 126.506 71.9415C126.506 72.781 125.851 73.3675 124.885 73.3675ZM131.034 74.1495C132.46 74.1495 133.794 73.103 133.794 71.2515C133.794 69.4 132.655 68.572 131.252 68.572C130.746 68.572 130.378 68.6985 129.999 68.9055L130.206 66.4675H133.391V65.559H129.286L129.021 69.515L129.585 69.86C130.068 69.538 130.424 69.3655 130.988 69.3655C132.046 69.3655 132.736 70.0785 132.736 71.286C132.736 72.5165 131.931 73.2755 130.942 73.2755C129.964 73.2755 129.355 72.827 128.872 72.344L128.354 73.034C128.918 73.5975 129.723 74.1495 131.034 74.1495ZM137.608 74.1495C139.207 74.1495 140.23 72.689 140.23 69.7565C140.23 66.8355 139.207 65.4095 137.608 65.4095C135.998 65.4095 134.975 66.824 134.975 69.7565C134.975 72.689 135.998 74.1495 137.608 74.1495ZM137.608 73.31C136.642 73.31 135.998 72.2405 135.998 69.7565C135.998 67.2955 136.642 66.249 137.608 66.249C138.563 66.249 139.207 67.2955 139.207 69.7565C139.207 72.2405 138.563 73.31 137.608 73.31ZM143.826 74.1495C145.321 74.1495 146.529 73.2525 146.529 71.746C146.529 70.596 145.735 69.837 144.746 69.607V69.561C145.632 69.2275 146.241 68.549 146.241 67.5255C146.241 66.1915 145.206 65.4095 143.792 65.4095C142.814 65.4095 142.067 65.835 141.434 66.4215L141.998 67.0885C142.469 66.6055 143.067 66.272 143.746 66.272C144.62 66.272 145.172 66.801 145.172 67.606C145.172 68.5145 144.574 69.216 142.837 69.216V70.021C144.781 70.021 145.459 70.6995 145.459 71.7C145.459 72.6775 144.746 73.2755 143.746 73.2755C142.791 73.2755 142.147 72.827 141.653 72.3095L141.124 72.9995C141.676 73.5975 142.504 74.1495 143.826 74.1495ZM148.181 74H152.804V73.126H151.113V65.559H150.308C149.848 65.835 149.308 66.0305 148.56 66.1685V66.8355H150.055V73.126H148.181V74ZM162.989 66.042H159.298V64.6965H158.355V66.042H154.617V66.8125H162.989V66.042ZM156.388 69.469C156.388 68.71 157.32 68.25 158.826 68.25C160.31 68.25 161.23 68.71 161.23 69.469C161.23 70.2395 160.31 70.6995 158.826 70.6995C157.32 70.6995 156.388 70.2395 156.388 69.469ZM159.298 72.873V71.424C161.092 71.309 162.184 70.619 162.184 69.469C162.184 68.227 160.885 67.514 158.826 67.514C156.733 67.514 155.434 68.227 155.434 69.469C155.434 70.619 156.538 71.3205 158.355 71.424V72.873H154.157V73.6435H163.507V72.873H159.298Z" fill="#121212"/>
<path d="M25.4145 90.664C26.967 90.503 28.6805 89.928 29.267 88.8125C29.8535 89.9395 31.567 90.503 33.1195 90.664L33.315 90.181C31.6475 90.0315 29.658 89.3415 29.589 88.0305H32.9125V87.536H29.5775V86.4895H28.968V87.536H25.6445V88.0305H28.945C28.876 89.3415 26.8865 90.0315 25.219 90.181L25.4145 90.664ZM33.8785 91.745V91.2505H24.6555V91.745H28.9565V92.872H25.8055V93.3435H32.0615V94.459H25.8285V96.6555H32.993V96.161H26.4265V94.9305H32.6595V92.872H29.566V91.745H33.8785ZM40.6626 92.688V93.171H42.8361V94.3785H43.4456V86.6045H42.8361V92.688H40.6626ZM38.5121 87.513C39.6391 87.513 40.4211 88.042 40.4211 88.7895C40.4211 89.56 39.6391 90.0775 38.5121 90.0775C37.3851 90.0775 36.6031 89.56 36.6031 88.7895C36.6031 88.042 37.3851 87.513 38.5121 87.513ZM38.5121 90.549C40.0071 90.549 40.9961 89.8705 40.9961 88.7895C40.9961 87.72 40.0071 87.0415 38.5121 87.0415C37.0171 87.0415 36.0166 87.72 36.0166 88.7895C36.0166 89.8705 37.0171 90.549 38.5121 90.549ZM38.2821 93.9645H38.8916V91.883C39.8806 91.8255 40.9041 91.745 41.8701 91.584L41.8126 91.1355C39.6161 91.4115 37.0631 91.4345 35.1656 91.4345L35.2576 91.9635C36.1546 91.9635 37.1781 91.9635 38.2821 91.9175V93.9645ZM37.3161 96.0345V93.608H36.7181V96.552H43.7101V96.0345H37.3161ZM50.2412 91.8255H46.9752V89.7325H50.2412V91.8255ZM50.8392 90.089H53.5187V94.1715H54.1282V86.6045H53.5187V89.5715H50.8392V87.2715H50.2412V89.2265H46.9752V87.2715H46.3657V92.343H50.8392V90.089ZM48.2977 96.0345V93.4355H47.6882V96.552H54.3812V96.0345H48.2977ZM65.0868 88.226H61.3148V86.7885H60.7053V88.226H56.8873V88.7435H65.0868V88.226ZM58.3478 91.4805C58.3478 90.618 59.3943 90.0775 61.0043 90.0775C62.6143 90.0775 63.6608 90.618 63.6608 91.4805C63.6608 92.3545 62.6143 92.9065 61.0043 92.9065C59.3943 92.9065 58.3478 92.3545 58.3478 91.4805ZM61.3148 94.988V93.3895C63.1433 93.3205 64.2703 92.6305 64.2703 91.4805C64.2703 90.273 63.0168 89.5715 61.0043 89.5715C58.9918 89.5715 57.7383 90.273 57.7383 91.4805C57.7383 92.6305 58.8653 93.3205 60.7053 93.401V94.988H56.3928V95.5055H65.6503V94.988H61.3148Z" fill="#121212"/>
<path d="M82.634 88.5135H84.474V87.743H79.7705V88.5135H81.7255V89.445C81.7255 91.3425 80.9205 93.217 79.483 94.0795L80.058 94.781C81.0815 94.137 81.829 92.9295 82.1855 91.515C82.542 92.826 83.255 93.93 84.2555 94.528L84.8305 93.838C83.4045 93.033 82.634 91.239 82.634 89.445V88.5135ZM85.394 90.2385H83.692V91.009H85.394V96.3105H86.291V86.7655H85.394V90.2385ZM87.464 86.524V96.8395H88.3725V86.524H87.464ZM93.1629 96H97.7859V95.126H96.0954V87.559H95.2904C94.8304 87.835 94.2899 88.0305 93.5424 88.1685V88.8355H95.0374V95.126H93.1629V96ZM101.727 96.1495C103.325 96.1495 104.349 94.689 104.349 91.7565C104.349 88.8355 103.325 87.4095 101.727 87.4095C100.117 87.4095 99.0933 88.824 99.0933 91.7565C99.0933 94.689 100.117 96.1495 101.727 96.1495ZM101.727 95.31C100.761 95.31 100.117 94.2405 100.117 91.7565C100.117 89.2955 100.761 88.249 101.727 88.249C102.681 88.249 103.325 89.2955 103.325 91.7565C103.325 94.2405 102.681 95.31 101.727 95.31ZM105.438 93.1825H108.382V92.3775H105.438V93.1825ZM109.402 96H114.703V95.0915H112.369C111.943 95.0915 111.426 95.1375 110.989 95.172C112.967 93.2975 114.289 91.584 114.289 89.905C114.289 88.3985 113.346 87.4095 111.84 87.4095C110.77 87.4095 110.046 87.904 109.356 88.6515L109.965 89.2495C110.425 88.6975 111.023 88.272 111.713 88.272C112.76 88.272 113.266 88.9735 113.266 89.9395C113.266 91.3885 112.047 93.0675 109.402 95.379V96ZM118.471 96.1495C120.07 96.1495 121.093 94.689 121.093 91.7565C121.093 88.8355 120.07 87.4095 118.471 87.4095C116.861 87.4095 115.838 88.824 115.838 91.7565C115.838 94.689 116.861 96.1495 118.471 96.1495ZM118.471 95.31C117.505 95.31 116.861 94.2405 116.861 91.7565C116.861 89.2955 117.505 88.249 118.471 88.249C119.426 88.249 120.07 89.2955 120.07 91.7565C120.07 94.2405 119.426 95.31 118.471 95.31ZM122.665 96H127.288V95.126H125.598V87.559H124.793C124.333 87.835 123.792 88.0305 123.045 88.1685V88.8355H124.54V95.126H122.665V96ZM130.309 96H131.402C131.528 92.6995 131.896 90.733 133.874 88.203V87.559H128.596V88.4675H132.678C131.034 90.7675 130.447 92.803 130.309 96ZM134.94 93.1825H137.884V92.3775H134.94V93.1825ZM141.595 96.1495C143.193 96.1495 144.217 94.689 144.217 91.7565C144.217 88.8355 143.193 87.4095 141.595 87.4095C139.985 87.4095 138.961 88.824 138.961 91.7565C138.961 94.689 139.985 96.1495 141.595 96.1495ZM141.595 95.31C140.629 95.31 139.985 94.2405 139.985 91.7565C139.985 89.2955 140.629 88.249 141.595 88.249C142.549 88.249 143.193 89.2955 143.193 91.7565C143.193 94.2405 142.549 95.31 141.595 95.31ZM147.974 96.1495C149.572 96.1495 150.596 94.689 150.596 91.7565C150.596 88.8355 149.572 87.4095 147.974 87.4095C146.364 87.4095 145.34 88.824 145.34 91.7565C145.34 94.689 146.364 96.1495 147.974 96.1495ZM147.974 95.31C147.008 95.31 146.364 94.2405 146.364 91.7565C146.364 89.2955 147.008 88.249 147.974 88.249C148.928 88.249 149.572 89.2955 149.572 91.7565C149.572 94.2405 148.928 95.31 147.974 95.31ZM154.525 91.5495C155.549 91.5495 156.055 92.274 156.055 93.4125C156.055 94.5625 155.422 95.333 154.617 95.333C153.559 95.333 152.927 94.3785 152.8 92.6305C153.318 91.86 153.996 91.5495 154.525 91.5495ZM154.617 96.1495C155.928 96.1495 157.032 95.0455 157.032 93.4125C157.032 91.653 156.124 90.7675 154.698 90.7675C154.031 90.7675 153.295 91.1585 152.777 91.791C152.823 89.169 153.801 88.2835 154.951 88.2835C155.468 88.2835 155.974 88.525 156.308 88.9275L156.883 88.272C156.423 87.7775 155.79 87.4095 154.916 87.4095C153.283 87.4095 151.8 88.6745 151.8 91.975C151.8 94.758 152.996 96.1495 154.617 96.1495ZM158.857 92.8375L160.778 89.9625C161.019 89.5485 161.249 89.1345 161.456 88.7205H161.502C161.479 89.1575 161.445 89.836 161.445 90.25V92.8375H158.857ZM161.445 96H162.434V93.677H163.549V92.8375H162.434V87.559H161.272L157.765 92.987V93.677H161.445V96ZM164.926 96H169.549V95.126H167.858V87.559H167.053C166.593 87.835 166.053 88.0305 165.305 88.1685V88.8355H166.8V95.126H164.926V96ZM173.328 96.1495C174.823 96.1495 176.031 95.2525 176.031 93.746C176.031 92.596 175.237 91.837 174.248 91.607V91.561C175.134 91.2275 175.743 90.549 175.743 89.5255C175.743 88.1915 174.708 87.4095 173.294 87.4095C172.316 87.4095 171.569 87.835 170.936 88.4215L171.5 89.0885C171.971 88.6055 172.569 88.272 173.248 88.272C174.122 88.272 174.674 88.801 174.674 89.606C174.674 90.5145 174.076 91.216 172.339 91.216V92.021C174.283 92.021 174.961 92.6995 174.961 93.7C174.961 94.6775 174.248 95.2755 173.248 95.2755C172.293 95.2755 171.649 94.827 171.155 94.3095L170.626 94.9995C171.178 95.5975 172.006 96.1495 173.328 96.1495ZM177.994 92.8375L179.914 89.9625C180.156 89.5485 180.386 89.1345 180.593 88.7205H180.639C180.616 89.1575 180.581 89.836 180.581 90.25V92.8375H177.994ZM180.581 96H181.57V93.677H182.686V92.8375H181.57V87.559H180.409L176.901 92.987V93.677H180.581V96ZM192.492 88.042H188.8V86.6965H187.857V88.042H184.12V88.8125H192.492V88.042ZM185.891 91.469C185.891 90.71 186.822 90.25 188.329 90.25C189.812 90.25 190.732 90.71 190.732 91.469C190.732 92.2395 189.812 92.6995 188.329 92.6995C186.822 92.6995 185.891 92.2395 185.891 91.469ZM188.8 94.873V93.424C190.594 93.309 191.687 92.619 191.687 91.469C191.687 90.227 190.387 89.514 188.329 89.514C186.236 89.514 184.936 90.227 184.936 91.469C184.936 92.619 186.04 93.3205 187.857 93.424V94.873H183.66V95.6435H193.009V94.873H188.8Z" fill="#121212"/>
<path d="M25.4145 112.664C26.967 112.503 28.6805 111.928 29.267 110.812C29.8535 111.939 31.567 112.503 33.1195 112.664L33.315 112.181C31.6475 112.031 29.658 111.341 29.589 110.03H32.9125V109.536H29.5775V108.489H28.968V109.536H25.6445V110.03H28.945C28.876 111.341 26.8865 112.031 25.219 112.181L25.4145 112.664ZM33.8785 113.745V113.25H24.6555V113.745H28.9565V114.872H25.8055V115.343H32.0615V116.459H25.8285V118.656H32.993V118.161H26.4265V116.93H32.6595V114.872H29.566V113.745H33.8785ZM40.6626 114.688V115.171H42.8361V116.378H43.4456V108.604H42.8361V114.688H40.6626ZM38.5121 109.513C39.6391 109.513 40.4211 110.042 40.4211 110.789C40.4211 111.56 39.6391 112.077 38.5121 112.077C37.3851 112.077 36.6031 111.56 36.6031 110.789C36.6031 110.042 37.3851 109.513 38.5121 109.513ZM38.5121 112.549C40.0071 112.549 40.9961 111.87 40.9961 110.789C40.9961 109.72 40.0071 109.041 38.5121 109.041C37.0171 109.041 36.0166 109.72 36.0166 110.789C36.0166 111.87 37.0171 112.549 38.5121 112.549ZM38.2821 115.964H38.8916V113.883C39.8806 113.825 40.9041 113.745 41.8701 113.584L41.8126 113.135C39.6161 113.411 37.0631 113.434 35.1656 113.434L35.2576 113.963C36.1546 113.963 37.1781 113.963 38.2821 113.917V115.964ZM37.3161 118.035V115.608H36.7181V118.552H43.7101V118.035H37.3161ZM54.1167 108.581H53.5072V113.906H54.1167V108.581ZM46.6992 111.226C46.6992 110.249 47.5387 109.513 48.6772 109.513C49.8157 109.513 50.6552 110.249 50.6552 111.226C50.6552 112.215 49.8157 112.94 48.6772 112.94C47.5387 112.94 46.6992 112.215 46.6992 111.226ZM51.2532 111.226C51.2532 109.904 50.1837 108.995 48.6772 108.995C47.1707 108.995 46.1012 109.904 46.1012 111.226C46.1012 112.549 47.1707 113.446 48.6772 113.446C50.1837 113.446 51.2532 112.549 51.2532 111.226ZM48.2632 118.138V116.723H54.1167V114.458H47.6307V114.964H53.5187V116.24H47.6652V118.644H54.5192V118.138H48.2632Z" fill="#121212"/>
<path d="M79.506 118H84.8075V117.091H82.473C82.0475 117.091 81.53 117.137 81.093 117.172C83.071 115.297 84.3935 113.584 84.3935 111.905C84.3935 110.398 83.4505 109.409 81.944 109.409C80.8745 109.409 80.15 109.904 79.46 110.651L80.0695 111.249C80.5295 110.697 81.1275 110.272 81.8175 110.272C82.864 110.272 83.37 110.973 83.37 111.939C83.37 113.388 82.151 115.067 79.506 117.379V118ZM88.5759 118.15C90.1744 118.15 91.1979 116.689 91.1979 113.756C91.1979 110.835 90.1744 109.409 88.5759 109.409C86.9659 109.409 85.9424 110.824 85.9424 113.756C85.9424 116.689 86.9659 118.15 88.5759 118.15ZM88.5759 117.31C87.6099 117.31 86.9659 116.24 86.9659 113.756C86.9659 111.295 87.6099 110.249 88.5759 110.249C89.5304 110.249 90.1744 111.295 90.1744 113.756C90.1744 116.24 89.5304 117.31 88.5759 117.31ZM92.7698 118H97.3928V117.126H95.7023V109.559H94.8973C94.4373 109.835 93.8968 110.03 93.1493 110.168V110.835H94.6443V117.126H92.7698V118ZM100.414 118H101.506C101.633 114.699 102.001 112.733 103.979 110.203V109.559H98.7002V110.467H102.783C101.138 112.767 100.552 114.803 100.414 118ZM105.045 115.182H107.989V114.377H105.045V115.182ZM111.699 118.15C113.298 118.15 114.321 116.689 114.321 113.756C114.321 110.835 113.298 109.409 111.699 109.409C110.089 109.409 109.066 110.824 109.066 113.756C109.066 116.689 110.089 118.15 111.699 118.15ZM111.699 117.31C110.733 117.31 110.089 116.24 110.089 113.756C110.089 111.295 110.733 110.249 111.699 110.249C112.654 110.249 113.298 111.295 113.298 113.756C113.298 116.24 112.654 117.31 111.699 117.31ZM117.883 118.15C119.309 118.15 120.643 117.103 120.643 115.251C120.643 113.4 119.504 112.572 118.101 112.572C117.595 112.572 117.227 112.698 116.848 112.905L117.055 110.467H120.24V109.559H116.135L115.87 113.515L116.434 113.86C116.917 113.538 117.273 113.365 117.837 113.365C118.895 113.365 119.585 114.078 119.585 115.286C119.585 116.516 118.78 117.275 117.791 117.275C116.813 117.275 116.204 116.827 115.721 116.344L115.203 117.034C115.767 117.597 116.572 118.15 117.883 118.15ZM121.789 115.182H124.733V114.377H121.789V115.182ZM125.753 118L131.055 118V117.091H128.72C128.295 117.091 127.777 117.137 127.34 117.172C129.318 115.297 130.641 113.584 130.641 111.905C130.641 110.398 129.698 109.409 128.191 109.409C127.122 109.409 126.397 109.904 125.707 110.651L126.317 111.249C126.777 110.697 127.375 110.272 128.065 110.272C129.111 110.272 129.617 110.973 129.617 111.939C129.617 113.388 128.398 115.067 125.753 117.379V118ZM132.948 114.837L134.869 111.962C135.11 111.548 135.34 111.134 135.547 110.72H135.593C135.57 111.157 135.536 111.836 135.536 112.25V114.837H132.948ZM135.536 118H136.525V115.677H137.64V114.837H136.525V109.559H135.363L131.856 114.987V115.677H135.536V118Z" fill="#121212"/>
<path d="M32.786 133.916H26.438V131.593H32.7055V131.076H25.84V134.434H32.786V133.916ZM29.267 140.276C27.519 140.276 26.4035 139.781 26.4035 138.953C26.4035 138.125 27.519 137.631 29.267 137.631C31.015 137.631 32.1305 138.125 32.1305 138.953C32.1305 139.781 31.015 140.276 29.267 140.276ZM29.267 137.136C27.105 137.136 25.794 137.792 25.794 138.953C25.794 140.127 27.105 140.771 29.267 140.771C31.429 140.771 32.74 140.127 32.74 138.953C32.74 137.792 31.429 137.136 29.267 137.136ZM24.6555 135.572V136.09H33.89V135.572H24.6555ZM36.2581 138.24H42.7096V140.667H43.3191V137.723H36.2581V138.24ZM40.1566 136.297V135.009H43.4916V134.503H37.0401V133.18H43.2616V130.892H36.4191V131.386H42.6636V132.697H36.4421V135.009H39.5471V136.297H35.2116V136.814H44.4921V136.297H40.1566ZM54.1167 130.581H53.5072V135.906H54.1167V130.581ZM46.6992 133.226C46.6992 132.249 47.5387 131.513 48.6772 131.513C49.8157 131.513 50.6552 132.249 50.6552 133.226C50.6552 134.215 49.8157 134.94 48.6772 134.94C47.5387 134.94 46.6992 134.215 46.6992 133.226ZM51.2532 133.226C51.2532 131.904 50.1837 130.995 48.6772 130.995C47.1707 130.995 46.1012 131.904 46.1012 133.226C46.1012 134.549 47.1707 135.446 48.6772 135.446C50.1837 135.446 51.2532 134.549 51.2532 133.226ZM48.2632 140.138V138.723H54.1167V136.458H47.6307V136.964H53.5187V138.24H47.6652V140.644H54.5192V140.138H48.2632Z" fill="#121212"/>
<path d="M79.506 140H84.8075V139.091H82.473C82.0475 139.091 81.53 139.137 81.093 139.172C83.071 137.297 84.3935 135.584 84.3935 133.905C84.3935 132.398 83.4505 131.409 81.944 131.409C80.8745 131.409 80.15 131.904 79.46 132.651L80.0695 133.249C80.5295 132.697 81.1275 132.272 81.8175 132.272C82.864 132.272 83.37 132.973 83.37 133.939C83.37 135.388 82.151 137.067 79.506 139.379V140ZM88.5759 140.15C90.1744 140.15 91.1979 138.689 91.1979 135.756C91.1979 132.835 90.1744 131.409 88.5759 131.409C86.9659 131.409 85.9424 132.824 85.9424 135.756C85.9424 138.689 86.9659 140.15 88.5759 140.15ZM88.5759 139.31C87.6099 139.31 86.9659 138.24 86.9659 135.756C86.9659 133.295 87.6099 132.249 88.5759 132.249C89.5304 132.249 90.1744 133.295 90.1744 135.756C90.1744 138.24 89.5304 139.31 88.5759 139.31ZM92.7698 140H97.3928V139.126H95.7023V131.559H94.8973C94.4373 131.835 93.8968 132.03 93.1493 132.168V132.835H94.6443V139.126H92.7698V140ZM101.345 140.15C102.932 140.15 103.99 139.195 103.99 137.964C103.99 136.814 103.3 136.182 102.564 135.756V135.699C103.07 135.308 103.691 134.549 103.691 133.664C103.691 132.364 102.817 131.444 101.38 131.444C100.069 131.444 99.0682 132.295 99.0682 133.583C99.0682 134.468 99.5857 135.101 100.207 135.526V135.584C99.4362 135.998 98.6542 136.78 98.6542 137.907C98.6542 139.206 99.7927 140.15 101.345 140.15ZM101.92 135.423C100.931 135.032 100.023 134.595 100.023 133.583C100.023 132.766 100.586 132.214 101.368 132.214C102.277 132.214 102.794 132.893 102.794 133.721C102.794 134.342 102.495 134.917 101.92 135.423ZM101.368 139.367C100.356 139.367 99.6087 138.712 99.6087 137.815C99.6087 137.01 100.08 136.343 100.759 135.906C101.955 136.389 102.99 136.814 102.99 137.941C102.99 138.781 102.334 139.367 101.368 139.367ZM105.045 137.182H107.989V136.377H105.045V137.182ZM111.699 140.15C113.298 140.15 114.321 138.689 114.321 135.756C114.321 132.835 113.298 131.409 111.699 131.409C110.089 131.409 109.066 132.824 109.066 135.756C109.066 138.689 110.089 140.15 111.699 140.15ZM111.699 139.31C110.733 139.31 110.089 138.24 110.089 135.756C110.089 133.295 110.733 132.249 111.699 132.249C112.654 132.249 113.298 133.295 113.298 135.756C113.298 138.24 112.654 139.31 111.699 139.31ZM117.158 140H118.251C118.377 136.699 118.745 134.733 120.723 132.203V131.559H115.445V132.467H119.527C117.883 134.767 117.296 136.803 117.158 140ZM121.789 137.182H124.733V136.377H121.789V137.182ZM125.753 140H131.055V139.091H128.72C128.295 139.091 127.777 139.137 127.34 139.172C129.318 137.297 130.641 135.584 130.641 133.905C130.641 132.398 129.698 131.409 128.191 131.409C127.122 131.409 126.397 131.904 125.707 132.651L126.317 133.249C126.777 132.697 127.375 132.272 128.065 132.272C129.111 132.272 129.617 132.973 129.617 133.939C129.617 135.388 128.398 137.067 125.753 139.379V140ZM133.903 140H134.995C135.122 136.699 135.49 134.733 137.468 132.203V131.559H132.189V132.467H136.272C134.627 134.767 134.041 136.803 133.903 140Z" fill="#121212"/>
<path d="M29.175 156.928H25.7595V155.111H29.175V156.928ZM29.773 152.984H29.175V154.605H25.7595V152.984H25.15V157.434H29.773V152.984ZM26.806 160.758H32.5215V158.469H26.185V158.964H31.9235V160.263H26.208L26.208 162.656H32.9355V162.15H26.806V160.758ZM32.5215 154.916V152.581H31.912V157.917H32.5215V155.445H34.1085V154.916H32.5215ZM39.6966 157.331H36.3271V153.892H39.6966V157.331ZM42.9396 154.858V156.365H40.2946V154.858H42.9396ZM40.2946 156.882H42.9396V158.665H43.5491V152.593H42.9396V154.341H40.2946V153.386H35.7406V157.837H40.2946V156.882ZM40.2486 162.276C38.5811 162.276 37.5116 161.747 37.5116 160.884C37.5116 160.033 38.5811 159.493 40.2486 159.493C41.9161 159.493 42.9971 160.033 42.9971 160.884C42.9971 161.747 41.9161 162.276 40.2486 162.276ZM40.2486 158.998C38.1786 158.998 36.9021 159.677 36.9021 160.884C36.9021 162.092 38.1786 162.771 40.2486 162.771C42.3186 162.771 43.5951 162.092 43.5951 160.884C43.5951 159.677 42.3186 158.998 40.2486 158.998ZM50.2757 157.331H46.9062V153.892H50.2757V157.331ZM53.5187 154.858V156.365H50.8737V154.858H53.5187ZM50.8737 156.882H53.5187V158.665H54.1282V152.593H53.5187V154.341H50.8737V153.386H46.3197V157.837H50.8737V156.882ZM50.8277 162.276C49.1602 162.276 48.0907 161.747 48.0907 160.884C48.0907 160.033 49.1602 159.493 50.8277 159.493C52.4952 159.493 53.5762 160.033 53.5762 160.884C53.5762 161.747 52.4952 162.276 50.8277 162.276ZM50.8277 158.998C48.7577 158.998 47.4812 159.677 47.4812 160.884C47.4812 162.092 48.7577 162.771 50.8277 162.771C52.8977 162.771 54.1742 162.092 54.1742 160.884C54.1742 159.677 52.8977 158.998 50.8277 158.998ZM64.6958 152.604H64.0863V158.918H64.6958V152.604ZM62.6488 157.768C61.2113 157.331 59.9348 156.158 59.9348 154.732V154.467H62.3843V153.961H59.9348V152.581H59.3253V153.961H56.8528V154.467H59.3253V154.732C59.3253 156.261 58.0833 157.549 56.6573 158.044L56.9678 158.527C58.1753 158.09 59.2218 157.124 59.6473 155.882C60.0843 157.009 61.1653 157.86 62.3498 158.251L62.6488 157.768ZM61.3378 162.276C59.6473 162.276 58.5663 161.77 58.5663 160.965C58.5663 160.148 59.6473 159.654 61.3378 159.654C63.0398 159.654 64.1208 160.148 64.1208 160.965C64.1208 161.77 63.0398 162.276 61.3378 162.276ZM61.3378 159.148C59.2218 159.148 57.9568 159.803 57.9568 160.965C57.9568 162.115 59.2218 162.771 61.3378 162.771C63.4538 162.771 64.7303 162.115 64.7303 160.965C64.7303 159.803 63.4538 159.148 61.3378 159.148Z" fill="#121212"/>
<path d="M86.9005 154.709C86.9005 155.985 86.9005 157.342 86.544 159.182L87.4755 159.297C87.8435 157.365 87.8435 156.02 87.8435 154.709V153.57H80.5755V154.341H86.9005V154.709ZM85.3825 160.631V157.216H84.451V160.631H82.8295V157.216H81.898V160.631H79.6095V161.402H88.936V160.631H85.3825ZM94.8461 162.127C93.1901 162.127 92.2586 161.804 92.2586 161.183C92.2586 160.574 93.1901 160.24 94.8461 160.24C96.5136 160.24 97.4336 160.574 97.4336 161.183C97.4336 161.804 96.5136 162.127 94.8461 162.127ZM94.8461 159.539C92.6036 159.539 91.3156 160.114 91.3156 161.183C91.3156 162.265 92.6036 162.84 94.8461 162.84C97.0886 162.84 98.3766 162.265 98.3766 161.183C98.3766 160.114 97.0886 159.539 94.8461 159.539ZM95.3176 157.998V156.986H98.4226V156.25H92.3506V155.238H98.0891V154.525H92.3506V153.57H98.3651V152.834H91.4076V156.986H94.3746V157.998H90.1771V158.757H99.5151V157.998H95.3176ZM104.777 153.639H103.845V160.24H104.501C105.743 160.24 106.893 160.171 108.238 159.895L108.112 159.102C106.916 159.343 105.881 159.412 104.777 159.424V153.639ZM109.009 155.997H106.709V156.779H109.009V162.334H109.906V152.788H109.009V155.997ZM111.205 152.524V162.851H112.102V152.524H111.205ZM122.199 158.101H116.069V156.468H121.865V155.721H116.069V154.191H122.095V153.432H115.115V158.86H122.199V158.101ZM113.907 160.746V161.517H123.268V160.746H113.907ZM127.821 153.777C128.822 153.777 129.523 154.306 129.523 155.077C129.523 155.87 128.822 156.388 127.821 156.388C126.821 156.388 126.119 155.87 126.119 155.077C126.119 154.306 126.821 153.777 127.821 153.777ZM127.821 157.112C129.351 157.112 130.409 156.296 130.409 155.077C130.409 153.869 129.351 153.053 127.821 153.053C126.292 153.053 125.234 153.869 125.234 155.077C125.234 156.296 126.292 157.112 127.821 157.112ZM131.248 157.63C129.006 157.952 126.407 157.963 124.463 157.963L124.578 158.757C125.395 158.757 126.326 158.745 127.304 158.711V162.541H128.247V158.665C129.259 158.607 130.294 158.504 131.306 158.331L131.248 157.63ZM132.03 152.547V159.585H129.696V160.321H132.03V162.863H132.973V152.547H132.03ZM135.928 156.721L136.066 157.503L142.287 157.158C142.23 157.952 142.115 158.803 141.885 159.792L142.816 159.884C143.265 157.768 143.265 156.376 143.265 154.847V153.582H136.192V154.352H142.345V154.847C142.345 155.376 142.345 155.905 142.322 156.445L135.928 156.721ZM135.088 160.643V161.413H144.415V160.643H135.088ZM147.99 159.711C147.162 159.711 146.645 158.665 146.645 156.974C146.645 155.318 147.162 154.272 147.99 154.272C148.795 154.272 149.324 155.318 149.324 156.974C149.324 158.665 148.795 159.711 147.99 159.711ZM151.475 156.549H150.175C150.06 154.605 149.232 153.398 147.99 153.398C146.645 153.398 145.782 154.778 145.782 156.974C145.782 159.205 146.645 160.585 147.99 160.585C149.255 160.585 150.095 159.343 150.175 157.319H151.475V162.345H152.372V152.765H151.475V156.549ZM153.522 152.535V162.851H154.419V152.535H153.522ZM159.416 153.651V154.41H163.292C163.096 156.859 161.716 158.837 158.945 160.16L159.451 160.93C162.878 159.251 164.246 156.629 164.246 153.651H159.416ZM166.328 152.535V162.851H167.271V152.535H166.328ZM173.664 157.63L170.743 157.63V155.744H173.664V157.63ZM174.584 153.283H173.664V155.008H170.743V153.283L169.811 153.283V158.389L174.584 158.389V153.283ZM171.916 159.389H170.973V162.621L177.85 162.621V161.85L171.916 161.85V159.389ZM177.39 155.664V152.547H176.447V160.114H177.39V156.457H178.908V155.664H177.39ZM182.989 159.769C182.058 159.769 181.379 159.102 181.379 158.182C181.379 157.25 182.058 156.583 182.989 156.583C183.932 156.583 184.611 157.25 184.611 158.182C184.611 159.102 183.932 159.769 182.989 159.769ZM182.989 155.801C181.54 155.801 180.494 156.79 180.494 158.182C180.494 159.585 181.54 160.551 182.989 160.551C184.461 160.551 185.508 159.585 185.508 158.182C185.508 156.79 184.461 155.801 182.989 155.801ZM183.449 152.662H182.506V154.191H179.907V154.95H185.991V154.191H183.449V152.662ZM189.602 156.779H187.911V152.547H186.968V162.851H187.911V157.572H189.602V156.779ZM195.754 158.101C195.823 157.745 195.869 157.354 195.869 156.928C195.869 156.457 195.811 156.02 195.719 155.617H198.1V158.101H195.754ZM193.304 159.688C192.315 159.688 191.625 158.607 191.625 156.928C191.625 155.261 192.315 154.18 193.304 154.18C194.282 154.18 194.983 155.261 194.983 156.928C194.983 158.607 194.282 159.688 193.304 159.688ZM198.1 152.535V154.847H195.455C195.018 153.881 194.259 153.329 193.304 153.329C191.798 153.329 190.728 154.732 190.728 156.928C190.728 159.125 191.798 160.528 193.304 160.528C194.293 160.528 195.098 159.918 195.524 158.872H198.1V162.874H199.043V152.535H198.1ZM212.147 152.547H211.204V157.894H212.147V152.547ZM210.008 156.951C208.479 156.503 207.409 155.318 207.409 153.996V153.881H209.744V153.122H204.086V153.881H206.443V153.996C206.443 155.399 205.385 156.664 203.833 157.158L204.281 157.906C205.535 157.48 206.501 156.583 206.938 155.445C207.409 156.503 208.364 157.319 209.571 157.687L210.008 156.951ZM206.432 161.988V160.861H212.159V158.389H205.477V159.125H211.227V160.16H205.5V162.736H212.504V161.988H206.432ZM221.818 154.985V156.33H219.438V154.985H221.818ZM218.506 157.262H215.723V155.571H218.506V157.262ZM219.438 157.101H221.818V158.791H222.773V152.547H221.818V154.226H219.438V153.179H218.506V154.824H215.723V153.179H214.792V158.021H219.438V157.101ZM219.357 162.104C217.816 162.104 216.873 161.666 216.873 160.919C216.873 160.171 217.816 159.723 219.357 159.723C220.921 159.723 221.864 160.171 221.864 160.919C221.864 161.666 220.921 162.104 219.357 162.104ZM219.357 158.998C217.241 158.998 215.93 159.7 215.93 160.919C215.93 162.138 217.241 162.84 219.357 162.84C221.485 162.84 222.807 162.138 222.807 160.919C222.807 159.7 221.485 158.998 219.357 158.998ZM230.806 153.8C231.806 153.8 232.519 154.341 232.519 155.146C232.519 155.951 231.806 156.491 230.806 156.491C229.794 156.491 229.081 155.951 229.081 155.146C229.081 154.341 229.794 153.8 230.806 153.8ZM230.806 157.262C232.335 157.262 233.428 156.399 233.428 155.146C233.428 153.881 232.335 153.018 230.806 153.018C229.265 153.018 228.172 153.881 228.172 155.146C228.172 156.399 229.265 157.262 230.806 157.262ZM234.198 157.768C231.933 158.113 229.322 158.136 227.402 158.136L227.528 158.929C228.379 158.929 229.357 158.918 230.38 158.872V162.529H231.323V158.814C232.301 158.757 233.301 158.642 234.279 158.469L234.198 157.768ZM234.946 152.547V162.863H235.889V152.547H234.946ZM243.996 153.616H241.477V152.432H240.534V153.616H238.016V154.375H243.996V153.616ZM239.511 156.744C239.511 156.077 240.132 155.617 241.006 155.617C241.88 155.617 242.501 156.077 242.501 156.744C242.501 157.411 241.88 157.871 241.006 157.871C240.132 157.871 239.511 157.411 239.511 156.744ZM243.386 156.744C243.386 155.64 242.397 154.904 241.006 154.904C239.603 154.904 238.614 155.64 238.614 156.744C238.614 157.848 239.603 158.573 241.006 158.573C242.397 158.573 243.386 157.848 243.386 156.744ZM240.718 160.079H245.583V161.954H240.718V160.079ZM239.798 162.713H246.503V159.332H239.798V162.713ZM245.548 152.547V155.675H243.835V156.445H245.548V158.78H246.503V152.547H245.548ZM254.835 154.375H257.261V153.593H251.5V154.375H253.892V155.686C253.892 157.469 252.638 159.412 251.155 160.114L251.707 160.873C252.88 160.275 253.892 158.975 254.363 157.469C254.858 158.883 255.87 160.068 257.066 160.62L257.595 159.861C256.077 159.217 254.835 157.434 254.835 155.686V154.375ZM258.653 152.547V162.851H259.596V152.547H258.653ZM263.333 159.953H269.278V162.863H270.233V159.182H263.333V159.953ZM267.082 156.365C267.151 156.123 267.197 155.87 267.197 155.583C267.197 155.307 267.151 155.054 267.082 154.813H269.278V156.365H267.082ZM264.54 157.273C263.54 157.273 262.792 156.572 262.792 155.583C262.792 154.617 263.54 153.915 264.54 153.915C265.552 153.915 266.3 154.617 266.3 155.583C266.3 156.572 265.552 157.273 264.54 157.273ZM269.278 152.547V154.053H266.679C266.196 153.467 265.437 153.11 264.54 153.11C263.022 153.11 261.895 154.134 261.895 155.583C261.895 157.043 263.022 158.078 264.54 158.078C265.437 158.078 266.185 157.722 266.668 157.135H269.278V158.619H270.233V152.535L269.278 152.547ZM276.971 153.421C278.661 153.421 279.627 153.812 279.627 154.502C279.627 155.192 278.661 155.583 276.971 155.583C275.28 155.583 274.314 155.192 274.314 154.502C274.314 153.812 275.28 153.421 276.971 153.421ZM276.971 156.284C279.236 156.284 280.593 155.664 280.593 154.502C280.593 153.34 279.236 152.708 276.971 152.708C274.705 152.708 273.348 153.34 273.348 154.502C273.348 155.664 274.705 156.284 276.971 156.284ZM274.383 160.953H280.444V158.63H273.429V159.343H279.512V160.263H273.463V162.736H280.754V162H274.383V160.953ZM272.302 156.986V157.745H281.64V156.986H272.302ZM80.058 170.191V170.961H83.807C83.623 172.709 82.1165 174.066 79.598 174.745L79.966 175.492C83.002 174.664 84.819 172.813 84.819 170.191H80.058ZM82.0475 176.631H86.682V178.942H82.0475V176.631ZM81.116 179.702H87.6135V175.872H81.116V179.702ZM89.143 172.054H87.6135V169.524H86.6705V175.389H87.6135V172.836H89.143V172.054ZM93.8456 170.432H92.9141V172.284C92.9141 174.239 91.6606 176.217 90.1426 176.941L90.7176 177.712C91.9251 177.091 92.9141 175.803 93.3856 174.25C93.8801 175.722 94.8691 176.941 96.0421 177.516L96.6056 176.757C95.0761 176.067 93.8456 174.17 93.8456 172.284V170.432ZM97.6866 169.535V179.874H98.6296V169.535H97.6866ZM103.792 176.769C102.861 176.769 102.182 176.102 102.182 175.182C102.182 174.25 102.861 173.583 103.792 173.583C104.735 173.583 105.414 174.25 105.414 175.182C105.414 176.102 104.735 176.769 103.792 176.769ZM103.792 172.801C102.343 172.801 101.297 173.79 101.297 175.182C101.297 176.585 102.343 177.551 103.792 177.551C105.264 177.551 106.311 176.585 106.311 175.182C106.311 173.79 105.264 172.801 103.792 172.801ZM104.252 169.662H103.309V171.191H100.71V171.95H106.794V171.191H104.252V169.662ZM110.405 173.779H108.714V169.547H107.771V179.851H108.714V174.572H110.405V173.779ZM118.626 171.594C118.626 172.836 118.626 174.285 118.235 176.263L119.178 176.366C119.569 174.285 119.569 172.87 119.569 171.594V170.57H112.336V171.341H118.626V171.594ZM115.924 177.631V173.94H114.981V177.631H111.358V178.402H120.685V177.631H115.924ZM130.006 172.215V172.985H132.042V175.688H132.996V169.547H132.042V172.215H130.006ZM130.581 174.561C129.086 174.032 128.074 172.732 128.074 171.41V171.053H130.34V170.294H124.831V171.053H127.131V171.41C127.131 172.893 126.073 174.285 124.532 174.848L125.027 175.596C126.234 175.136 127.189 174.17 127.626 172.974C128.074 174.032 128.96 174.883 130.11 175.297L130.581 174.561ZM129.592 179.115C128.04 179.115 127.097 178.678 127.097 177.93C127.097 177.183 128.04 176.734 129.592 176.734C131.145 176.734 132.088 177.183 132.088 177.93C132.088 178.678 131.145 179.115 129.592 179.115ZM129.592 176.01C127.476 176.01 126.154 176.711 126.154 177.93C126.154 179.15 127.476 179.851 129.592 179.851C131.708 179.851 133.031 179.15 133.031 177.93C133.031 176.711 131.708 176.01 129.592 176.01ZM137.112 172.882H142.379V174.779H137.112V172.882ZM140.217 177.758V175.538H143.299V170.271H142.379V172.111H137.112V170.271H136.181V175.538H139.263V177.758H135.077V178.528H144.426V177.758H140.217ZM152.878 171.341H146.852V173.549H153.993V172.87H147.783V171.985H153.809V169.834H146.829V170.501H152.878V171.341ZM147.726 178.08H153.844V175.883H146.771V176.562H152.912V177.424H146.794V179.713H154.166V179.035H147.726V178.08ZM145.656 174.331V175.044H155.005V174.331H145.656ZM161.831 171.513H163.671V170.743H158.968V171.513H160.923V172.445C160.923 174.342 160.118 176.217 158.68 177.079L159.255 177.781C160.279 177.137 161.026 175.929 161.383 174.515C161.739 175.826 162.452 176.93 163.453 177.528L164.028 176.838C162.602 176.033 161.831 174.239 161.831 172.445V171.513ZM164.591 173.238H162.889V174.009H164.591V179.311H165.488V169.765H164.591V173.238ZM166.661 169.524V179.84H167.57V169.524H166.661ZM176.596 170.938C176.596 171.743 176.596 172.503 176.32 173.56L177.24 173.664C177.528 172.606 177.528 171.766 177.528 170.938V170.064H170.501V170.823H176.596V170.938ZM174.009 179.104C172.399 179.104 171.364 178.666 171.364 177.953C171.364 177.217 172.399 176.78 174.009 176.78C175.63 176.78 176.665 177.217 176.665 177.953C176.665 178.666 175.63 179.104 174.009 179.104ZM174.009 176.056C171.812 176.056 170.421 176.757 170.421 177.953C170.421 179.127 171.812 179.84 174.009 179.84C176.205 179.84 177.608 179.127 177.608 177.953C177.608 176.757 176.205 176.056 174.009 176.056ZM174.158 174.342V172.364H173.215V174.342H169.409V175.101L178.689 175.101V174.342L174.158 174.342ZM182.989 176.769C182.058 176.769 181.379 176.102 181.379 175.182C181.379 174.25 182.058 173.583 182.989 173.583C183.932 173.583 184.611 174.25 184.611 175.182C184.611 176.102 183.932 176.769 182.989 176.769ZM182.989 172.801C181.54 172.801 180.494 173.79 180.494 175.182C180.494 176.585 181.54 177.551 182.989 177.551C184.461 177.551 185.508 176.585 185.508 175.182C185.508 173.79 184.461 172.801 182.989 172.801ZM183.449 169.662H182.506V171.191H179.907V171.95H185.991V171.191H183.449V169.662ZM189.602 173.779H187.911V169.547H186.968V179.851H187.911V174.572H189.602V173.779ZM198.813 172.64H192.741V169.915H191.798V173.411H198.813V172.64ZM192.672 176.585H191.729V179.598H198.87V178.827H192.672V176.585ZM190.533 174.791V175.55H199.882V174.791H190.533ZM209.675 174.526C208.157 174.02 207.179 172.813 207.179 171.467V171.065H209.456V170.306H203.925V171.065H206.236V171.467C206.236 172.951 205.201 174.285 203.649 174.825L204.132 175.573C205.362 175.136 206.294 174.216 206.731 173.043C207.168 174.066 208.053 174.883 209.226 175.262L209.675 174.526ZM208.421 179.092C206.88 179.092 205.96 178.666 205.96 177.93C205.96 177.206 206.88 176.78 208.421 176.78C209.939 176.78 210.871 177.206 210.871 177.93C210.871 178.666 209.939 179.092 208.421 179.092ZM208.421 176.033C206.305 176.033 205.017 176.734 205.017 177.93C205.017 179.138 206.305 179.84 208.421 179.84C210.514 179.84 211.814 179.138 211.814 177.93C211.814 176.734 210.514 176.033 208.421 176.033ZM211.699 172.146V169.547H210.756V175.768H211.699V172.939H213.228V172.146H211.699ZM218.069 172.077H220.427V171.318H218.081V169.719H217.126V171.318H214.746V172.077H217.138V172.87C217.138 174.676 215.999 176.412 214.47 177.137L214.999 177.85C216.183 177.275 217.161 176.102 217.621 174.664C218.092 176.021 219.07 177.137 220.254 177.677L220.772 176.941C219.242 176.274 218.069 174.595 218.069 172.87V172.077ZM221.772 169.524V179.84H222.727V169.524H221.772ZM235.877 169.535H234.934V175.458H235.877V169.535ZM231.864 173.664H228.885V170.95H231.864V173.664ZM232.784 170.202H227.965V174.423H232.784V170.202ZM236.119 176.884V176.159H233.094V175.159H232.14V176.159H229.115V176.884H232.128C232.117 177.907 230.472 178.885 228.713 179.092L229.023 179.817C230.576 179.598 232.002 178.908 232.623 177.93C233.232 178.885 234.612 179.598 236.165 179.817L236.487 179.092C234.716 178.873 233.117 177.873 233.106 176.884H236.119ZM244.854 174.181H241.933V172.479H244.854V174.181ZM245.774 170.191H244.854V171.743H241.933V170.191H241.001V174.94H245.774V170.191ZM245.302 179.104C243.761 179.104 242.841 178.666 242.841 177.93C242.841 177.194 243.761 176.769 245.302 176.769C246.82 176.769 247.752 177.194 247.752 177.93C247.752 178.666 246.82 179.104 245.302 179.104ZM245.302 176.01C243.198 176.01 241.898 176.711 241.898 177.93C241.898 179.15 243.198 179.851 245.302 179.851C247.395 179.851 248.695 179.15 248.695 177.93C248.695 176.711 247.395 176.01 245.302 176.01ZM248.58 172.134V169.535H247.637V175.745H248.58V172.916H250.109V172.134H248.58ZM258.71 178.942H253.972V177.654H258.71V178.942ZM258.71 176.918H253.972V175.665H253.041V179.702H259.642V175.665H258.71V176.918ZM255.387 174.02H252.604V172.387H255.387V174.02ZM258.699 169.547V172.077H256.318V170.076H255.387V171.651H252.604V170.076H251.672V174.791H256.318V172.847H258.699V175.182H259.653V169.547H258.699Z" fill="#121212"/>
<path d="M29.175 196.928H25.7595V195.111H29.175V196.928ZM29.773 192.984H29.175V194.605H25.7595V192.984H25.15V197.434H29.773V192.984ZM26.806 200.758H32.5215V198.469H26.185V198.964H31.9235V200.263H26.208L26.208 202.656H32.9355V202.15H26.806V200.758ZM32.5215 194.916V192.581H31.912V197.917H32.5215V195.445H34.1085V194.916H32.5215ZM39.6966 197.331H36.3271V193.892H39.6966V197.331ZM42.9396 194.858V196.365H40.2946V194.858H42.9396ZM40.2946 196.882H42.9396V198.665H43.5491V192.593H42.9396V194.341H40.2946V193.386H35.7406V197.837H40.2946V196.882ZM40.2486 202.276C38.5811 202.276 37.5116 201.747 37.5116 200.884C37.5116 200.033 38.5811 199.493 40.2486 199.493C41.9161 199.493 42.9971 200.033 42.9971 200.884C42.9971 201.747 41.9161 202.276 40.2486 202.276ZM40.2486 198.998C38.1786 198.998 36.9021 199.677 36.9021 200.884C36.9021 202.092 38.1786 202.771 40.2486 202.771C42.3186 202.771 43.5951 202.092 43.5951 200.884C43.5951 199.677 42.3186 198.998 40.2486 198.998ZM49.0682 194.203H51.4717V193.674H46.0207V194.203H48.4702V195.916C48.4702 197.687 46.9982 199.642 45.6757 200.31L46.0552 200.815C47.1592 200.206 48.3207 198.803 48.7692 197.25C49.2177 198.688 50.3217 199.976 51.4257 200.562L51.7822 200.068C50.4367 199.412 49.0682 197.584 49.0682 195.916V194.203ZM55.3587 196.848H53.5762V192.593H52.9667V202.805H53.5762V197.365H55.3587V196.848Z" fill="#121212"/>
<path d="M87.1075 192.535V202.874H88.0505V192.535H87.1075ZM82.611 193.329C81.0815 193.329 79.989 194.732 79.989 196.928C79.989 199.125 81.0815 200.528 82.611 200.528C84.1405 200.528 85.233 199.125 85.233 196.928C85.233 194.732 84.1405 193.329 82.611 193.329ZM82.611 194.18C83.6115 194.18 84.3245 195.261 84.3245 196.928C84.3245 198.607 83.6115 199.688 82.611 199.688C81.599 199.688 80.886 198.607 80.886 196.928C80.886 195.261 81.599 194.18 82.611 194.18ZM98.9746 195.905C97.1461 195.64 95.3406 194.479 95.3406 193.168V192.708H94.3746V193.168C94.3746 194.513 92.5806 195.64 90.7406 195.905L91.0856 196.641C92.6841 196.388 94.2136 195.571 94.8576 194.387C95.5131 195.56 97.0311 196.388 98.6181 196.641L98.9746 195.905ZM94.8576 202.115C93.2246 202.115 92.2701 201.724 92.2701 201.011C92.2701 200.31 93.2246 199.907 94.8576 199.907C96.4676 199.907 97.4221 200.31 97.4221 201.011C97.4221 201.724 96.4676 202.115 94.8576 202.115ZM94.8576 199.182C92.6496 199.182 91.3156 199.838 91.3156 201.011C91.3156 202.196 92.6496 202.851 94.8576 202.851C97.0541 202.851 98.3766 202.196 98.3766 201.011C98.3766 199.838 97.0541 199.182 94.8576 199.182ZM90.1886 197.457V198.228H99.5151V197.457H90.1886ZM103.815 194.525H105.69V193.754H100.906V194.525H102.907V195.33C102.907 197.423 102.136 199.182 100.664 200.01L101.239 200.723C102.309 200.102 103.033 198.987 103.378 197.584C103.746 198.803 104.459 199.803 105.471 200.367L106.023 199.642C104.563 198.883 103.815 197.216 103.815 195.33V194.525ZM108.657 192.524V196.698H107.3V192.765H106.414V202.345H107.3V197.48H108.657V202.851H109.565V192.524H108.657ZM111.6 204.185C112.635 203.748 113.279 202.886 113.279 201.781C113.279 201.011 112.945 200.539 112.393 200.539C111.968 200.539 111.6 200.827 111.6 201.275C111.6 201.758 111.968 202.012 112.37 202.012C112.416 202.012 112.451 202.012 112.497 202C112.497 202.679 112.071 203.242 111.347 203.564L111.6 204.185ZM117.775 193.191V193.961H121.512C121.328 195.709 119.753 197.066 117.234 197.722L117.614 198.469C120.627 197.664 122.524 195.824 122.524 193.191H117.775ZM119.833 199.608H124.652V201.942H119.833V199.608ZM118.913 202.702H125.583V198.86H118.913V202.702ZM124.64 192.535V198.366H125.583V192.535H124.64ZM128.618 197.549C130.217 197.273 131.735 196.411 132.367 195.192C132.988 196.411 134.518 197.273 136.116 197.549L136.484 196.802C134.667 196.537 132.885 195.353 132.885 193.996V193.938H136.116V193.179H128.584V193.938H131.838V193.996C131.838 195.353 130.056 196.537 128.262 196.802L128.618 197.549ZM137.025 198.412H127.71V199.182H131.873V202.851H132.816V199.182H137.036L137.025 198.412ZM139.335 195.594C139.335 194.64 140.094 193.95 141.095 193.95C142.107 193.95 142.843 194.64 142.843 195.594C142.843 196.56 142.107 197.25 141.095 197.25C140.094 197.25 139.335 196.56 139.335 195.594ZM145.821 194.789V196.399H143.602C143.694 196.146 143.74 195.882 143.74 195.594C143.74 195.295 143.694 195.031 143.613 194.789H145.821ZM145.821 197.17V198.642H146.776V192.535H145.821V194.019H143.176C142.705 193.49 141.969 193.156 141.095 193.156C139.565 193.156 138.438 194.157 138.438 195.594C138.438 197.043 139.565 198.055 141.095 198.055C141.969 198.055 142.705 197.722 143.176 197.17H145.821ZM143.36 202.092C141.808 202.092 140.865 201.632 140.865 200.861C140.865 200.079 141.808 199.619 143.36 199.619C144.936 199.619 145.879 200.079 145.879 200.861C145.879 201.632 144.936 202.092 143.36 202.092ZM143.36 198.883C141.244 198.883 139.933 199.608 139.933 200.861C139.933 202.115 141.244 202.84 143.36 202.84C145.488 202.84 146.81 202.115 146.81 200.861C146.81 199.608 145.488 198.883 143.36 198.883ZM149.11 204.185C150.145 203.748 150.789 202.886 150.789 201.781C150.789 201.011 150.455 200.539 149.903 200.539C149.478 200.539 149.11 200.827 149.11 201.275C149.11 201.758 149.478 202.012 149.88 202.012C149.926 202.012 149.961 202.012 150.007 202C150.007 202.679 149.581 203.242 148.857 203.564L149.11 204.185ZM155.285 193.191V193.961H159.022C158.838 195.709 157.263 197.066 154.744 197.722L155.124 198.469C158.137 197.664 160.034 195.824 160.034 193.191H155.285ZM157.343 199.608H162.162V201.942H157.343V199.608ZM156.423 202.702H163.093V198.86H156.423V202.702ZM162.15 192.535V198.366H163.093V192.535H162.15ZM173.994 195.905C172.166 195.64 170.36 194.479 170.36 193.168V192.708L169.394 192.708V193.168C169.394 194.513 167.6 195.64 165.76 195.905L166.105 196.641C167.704 196.388 169.233 195.571 169.877 194.387C170.533 195.56 172.051 196.388 173.638 196.641L173.994 195.905ZM169.877 202.115C168.244 202.115 167.29 201.724 167.29 201.011C167.29 200.31 168.244 199.907 169.877 199.907C171.487 199.907 172.442 200.31 172.442 201.011C172.442 201.724 171.487 202.115 169.877 202.115ZM169.877 199.182C167.669 199.182 166.335 199.838 166.335 201.011C166.335 202.196 167.669 202.851 169.877 202.851C172.074 202.851 173.396 202.196 173.396 201.011C173.396 199.838 172.074 199.182 169.877 199.182ZM165.208 197.457V198.228L174.535 198.228V197.457L165.208 197.457ZM181.583 195.284V196.054H183.32V197.446H181.583V198.216H183.32V200.401H184.274V192.547H183.32V195.284H181.583ZM181.583 193.8H179.214V192.524H178.271V193.8H175.81V194.559H181.583V193.8ZM177.294 197.089C177.294 196.365 177.88 195.87 178.731 195.87C179.582 195.87 180.169 196.365 180.169 197.089C180.169 197.825 179.582 198.331 178.731 198.331C177.88 198.331 177.294 197.825 177.294 197.089ZM181.066 197.089C181.066 195.916 180.1 195.134 178.731 195.134C177.363 195.134 176.397 195.916 176.397 197.089C176.397 198.274 177.363 199.067 178.731 199.067C180.1 199.067 181.066 198.274 181.066 197.089ZM178.593 201.85V199.734H177.65V202.621H184.516V201.85H178.593Z" fill="#121212"/>
<path d="M32.74 218.365H26.5185V217.077H32.4065V216.582H26.5185V215.386H32.694V214.892H25.909V218.871H32.74V218.365ZM25.679 222.24H32.0385V224.805H32.648V221.734H25.679L25.679 222.24ZM24.6555 220.032V220.55H33.8785V220.032H24.6555ZM41.2836 216.283H38.5696V214.685H37.9601V216.283H35.2001V216.801H41.2836V216.283ZM38.2591 221.872C37.2241 221.872 36.4651 221.113 36.4651 220.113C36.4651 219.112 37.2241 218.342 38.2591 218.342C39.2826 218.342 40.0531 219.112 40.0531 220.113C40.0531 221.113 39.2826 221.872 38.2591 221.872ZM38.2591 217.813C36.9021 217.813 35.9016 218.767 35.9016 220.113C35.9016 221.458 36.9021 222.401 38.2591 222.401C39.6276 222.401 40.6166 221.458 40.6166 220.113C40.6166 218.767 39.6276 217.813 38.2591 217.813ZM42.9396 214.581V219.032H41.0536V219.549H42.9396V224.794H43.5491V214.581H42.9396ZM51.0577 220.205V220.711H53.4267V222.321H54.0362V214.593H53.4267V220.205H51.0577ZM48.7462 221.642H49.3442V219.181C50.3677 219.112 51.4372 219.02 52.4377 218.848L52.3917 218.388C51.9892 218.445 51.5522 218.503 51.1267 218.549C51.3567 217.226 51.3567 216.272 51.3567 215.685V215.271H46.6532V215.789H50.7587C50.7587 216.375 50.7472 217.307 50.5057 218.583C48.8267 218.721 47.1017 218.733 45.7332 218.733L45.8252 219.273C46.6877 219.273 47.6997 219.262 48.7462 219.216V221.642ZM47.9182 224.035V221.435H47.3087V224.552H54.3007V224.035H47.9182ZM59.6473 216.203H62.0508V215.674H56.5998V216.203H59.0493V217.916C59.0493 219.687 57.5773 221.642 56.2548 222.31L56.6343 222.815C57.7383 222.206 58.8998 220.803 59.3483 219.25C59.7968 220.688 60.9008 221.976 62.0048 222.562L62.3613 222.068C61.0158 221.412 59.6473 219.584 59.6473 217.916V216.203ZM65.9378 218.848H64.1553V214.593H63.5458V224.805H64.1553V219.365H65.9378V218.848Z" fill="#121212"/>
<path d="M81.7485 226.266L82.404 225.955C81.4035 224.322 80.932 222.378 80.932 220.423C80.932 218.468 81.4035 216.536 82.404 214.892L81.7485 214.593C80.6905 216.306 80.058 218.169 80.058 220.423C80.058 222.689 80.6905 224.541 81.7485 226.266ZM84.4152 219.549C86.0137 219.273 87.5317 218.411 88.1642 217.192C88.7852 218.411 90.3147 219.273 91.9132 219.549L92.2812 218.802C90.4642 218.537 88.6817 217.353 88.6817 215.996V215.938H91.9132V215.179H84.3807V215.938H87.6352V215.996C87.6352 217.353 85.8527 218.537 84.0587 218.802L84.4152 219.549ZM92.8217 220.412H83.5067V221.182H87.6697V224.851H88.6127V221.182H92.8332L92.8217 220.412ZM94.6033 226.266C95.6728 224.541 96.3053 222.689 96.3053 220.423C96.3053 218.169 95.6728 216.306 94.6033 214.593L93.9593 214.892C94.9483 216.536 95.4313 218.468 95.4313 220.423C95.4313 222.378 94.9483 224.322 93.9593 225.955L94.6033 226.266ZM106.85 219.722C105.044 219.377 103.089 217.813 103.089 216.053V215.26H102.1V216.053C102.1 217.813 100.157 219.365 98.3511 219.722L98.7766 220.504C100.329 220.136 101.939 219.032 102.595 217.525C103.25 219.043 104.86 220.147 106.424 220.504L106.85 219.722ZM97.9601 222.689V223.471H107.31V222.689H97.9601ZM109.873 216.329H112.76V221.47H109.873V216.329ZM108.953 222.229H113.68V215.57H108.953V222.229ZM118.176 218.652H116.474V214.547H115.531V224.851H116.474V219.446H118.176V218.652ZM127.398 220.101H121.269V218.468H127.065V217.721H121.269V216.191H127.295V215.432H120.314V220.86H127.398V220.101ZM119.107 222.746V223.517H128.468V222.746H119.107ZM131.71 216.145H136.988V219.492H131.71V216.145ZM134.838 222.746V220.239H137.908V215.398H130.801V220.239H133.883V222.746H129.697V223.528H139.047V222.746H134.838ZM148.729 214.547H147.786V219.929H148.729V214.547ZM144.715 218.71H141.748V217.169H144.715V218.71ZM145.647 214.949H144.715V216.444H141.748V214.949H140.817V219.469H145.647V214.949ZM143.013 224V222.896H148.74V220.458H142.059V221.194H147.809V222.206H142.082V224.736H149.085V224H143.013ZM152.167 219.101H155.824V215.49H151.212V216.26H154.904V218.342H151.235V222.378H152.029C153.892 222.378 155.203 222.321 156.755 222.045L156.663 221.263C155.18 221.527 153.926 221.596 152.167 221.596V219.101ZM158.4 214.524V218.503H156.433V219.273H158.4V224.863H159.343V214.524H158.4ZM163.022 219.124H166.713V218.365H163.022V216.237H167.093V215.467H162.09V222.367H162.907C164.873 222.367 166.253 222.298 167.863 222.022L167.771 221.251C166.23 221.527 164.896 221.596 163.022 221.596V219.124ZM168.956 214.535V224.84H169.899V214.535H168.956Z" fill="#121212"/>
<rect x="24" y="18" width="66" height="23" rx="2" fill="#0032A0"/>
<path d="M49.444 28.844H43.324V28.196H49.096V27.044H43.324V26.444H49.36V25.244H41.752V30.044H49.444V28.844ZM41.62 33.92H47.692V36.044H49.276V32.672H41.62V33.92ZM40.504 30.716V31.976H50.5V30.716H40.504ZM57.9991 26.612H55.5871V25.172H54.0031V26.612L51.5551 26.612V27.896L57.9991 27.896V26.612ZM54.7831 32.444C54.1111 32.444 53.5951 31.952 53.5951 31.136C53.5951 30.32 54.1111 29.828 54.7831 29.828C55.4671 29.828 55.9951 30.32 55.9951 31.136C55.9951 31.952 55.4671 32.444 54.7831 32.444ZM54.7831 28.496C53.2711 28.496 52.1311 29.612 52.1311 31.136C52.1311 32.66 53.2711 33.776 54.7831 33.776C56.3071 33.776 57.4471 32.66 57.4471 31.136C57.4471 29.612 56.3071 28.496 54.7831 28.496ZM59.2471 24.98V29.324H57.7951V30.608H59.2471V36.032H60.8311V24.98H59.2471ZM68.2581 30.872V32.096H70.3941V33.296H71.9781V24.98L70.3941 24.98V30.872H68.2581ZM65.6061 34.58V32.624H66.9861V30.248C67.9101 30.164 68.8341 30.068 69.7341 29.9L69.6261 28.784C69.2901 28.832 68.9421 28.88 68.5941 28.916C68.7861 27.524 68.7861 26.504 68.7861 25.916V25.532H63.5181V26.792H67.2141C67.1901 27.368 67.1301 28.112 66.9981 29.036C65.3901 29.132 63.8061 29.144 62.5101 29.144L62.7021 30.404C63.5181 30.404 64.4421 30.392 65.4141 30.344V32.468H64.0221V35.84L72.2181 35.84V34.58L65.6061 34.58Z" fill="white"/>
</svg>
