<svg width="309" height="270" viewBox="0 0 309 270" fill="none" xmlns="http://www.w3.org/2000/svg">
<rect x="0.5" y="0.5" width="308" height="269" rx="9.5" fill="#FAFAFA" stroke="#E0E0E0"/>
<path d="M32.74 67.365H26.5185V66.077H32.4065V65.5825H26.5185V64.3865H32.694V63.892H25.909V67.871H32.74V67.365ZM25.679 71.2405H32.0385V73.805H32.648V70.7345H25.679L25.679 71.2405ZM24.6555 69.0325V69.55H33.8785V69.0325H24.6555ZM41.2836 65.2835H38.5696V63.685H37.9601V65.2835H35.2001V65.801H41.2836V65.2835ZM38.2591 70.8725C37.2241 70.8725 36.4651 70.1135 36.4651 69.113C36.4651 68.1125 37.2241 67.342 38.2591 67.342C39.2826 67.342 40.0531 68.1125 40.0531 69.113C40.0531 70.1135 39.2826 70.8725 38.2591 70.8725ZM38.2591 66.813C36.9021 66.813 35.9016 67.7675 35.9016 69.113C35.9016 70.4585 36.9021 71.4015 38.2591 71.4015C39.6276 71.4015 40.6166 70.4585 40.6166 69.113C40.6166 67.7675 39.6276 66.813 38.2591 66.813ZM42.9396 63.5815V68.032H41.0536V68.5495H42.9396V73.7935H43.5491V63.5815H42.9396ZM50.2757 68.331H46.9062V64.8925H50.2757V68.331ZM53.5187 65.8585V67.365H50.8737V65.8585H53.5187ZM50.8737 67.8825H53.5187V69.665H54.1282V63.593H53.5187V65.341H50.8737V64.3865H46.3197V68.837H50.8737V67.8825ZM50.8277 73.276C49.1602 73.276 48.0907 72.747 48.0907 71.8845C48.0907 71.0335 49.1602 70.493 50.8277 70.493C52.4952 70.493 53.5762 71.0335 53.5762 71.8845C53.5762 72.747 52.4952 73.276 50.8277 73.276ZM50.8277 69.9985C48.7577 69.9985 47.4812 70.677 47.4812 71.8845C47.4812 73.092 48.7577 73.7705 50.8277 73.7705C52.8977 73.7705 54.1742 73.092 54.1742 71.8845C54.1742 70.677 52.8977 69.9985 50.8277 69.9985Z" fill="#121212"/>
<path d="M82.634 65.5135H84.474V64.743H79.7705V65.5135H81.7255V66.445C81.7255 68.3425 80.9205 70.217 79.483 71.0795L80.058 71.781C81.0815 71.137 81.829 69.9295 82.1855 68.515C82.542 69.826 83.255 70.93 84.2555 71.528L84.8305 70.838C83.4045 70.033 82.634 68.239 82.634 66.445V65.5135ZM85.394 67.2385H83.692V68.009H85.394V73.3105H86.291V63.7655H85.394V67.2385ZM87.464 63.524V73.8395H88.3725V63.524H87.464ZM93.1629 73H97.7859V72.126H96.0954V64.559H95.2904C94.8304 64.835 94.2899 65.0305 93.5424 65.1685V65.8355H95.0374V72.126H93.1629V73ZM101.727 73.1495C103.325 73.1495 104.349 71.689 104.349 68.7565C104.349 65.8355 103.325 64.4095 101.727 64.4095C100.117 64.4095 99.0933 65.824 99.0933 68.7565C99.0933 71.689 100.117 73.1495 101.727 73.1495ZM101.727 72.31C100.761 72.31 100.117 71.2405 100.117 68.7565C100.117 66.2955 100.761 65.249 101.727 65.249C102.681 65.249 103.325 66.2955 103.325 68.7565C103.325 71.2405 102.681 72.31 101.727 72.31ZM105.438 70.1825H108.382V69.3775H105.438V70.1825ZM109.908 73H114.531V72.126H112.84V64.559H112.035C111.575 64.835 111.035 65.0305 110.287 65.1685V65.8355H111.782V72.126H109.908V73ZM116.769 67.1465C116.769 65.9965 117.39 65.2375 118.195 65.2375C119.276 65.2375 119.92 66.1575 120.035 67.894C119.495 68.6875 118.851 69.021 118.276 69.021C117.275 69.021 116.769 68.285 116.769 67.1465ZM117.965 73.1495C119.552 73.1495 121.024 71.8385 121.024 68.423C121.024 65.7435 119.817 64.4095 118.195 64.4095C116.884 64.4095 115.78 65.5135 115.78 67.1465C115.78 68.8945 116.7 69.803 118.103 69.803C118.805 69.803 119.529 69.4005 120.047 68.768C119.966 71.3785 119.023 72.2755 117.931 72.2755C117.39 72.2755 116.873 72.034 116.528 71.6315L115.941 72.287C116.413 72.7815 117.057 73.1495 117.965 73.1495ZM125.023 68.5495C126.046 68.5495 126.552 69.274 126.552 70.4125C126.552 71.5625 125.92 72.333 125.115 72.333C124.057 72.333 123.424 71.3785 123.298 69.6305C123.815 68.86 124.494 68.5495 125.023 68.5495ZM125.115 73.1495C126.426 73.1495 127.53 72.0455 127.53 70.4125C127.53 68.653 126.621 67.7675 125.195 67.7675C124.528 67.7675 123.792 68.1585 123.275 68.791C123.321 66.169 124.298 65.2835 125.448 65.2835C125.966 65.2835 126.472 65.525 126.805 65.9275L127.38 65.272C126.92 64.7775 126.288 64.4095 125.414 64.4095C123.781 64.4095 122.297 65.6745 122.297 68.975C122.297 71.758 123.493 73.1495 125.115 73.1495ZM131.034 73.1495C132.46 73.1495 133.794 72.103 133.794 70.2515C133.794 68.4 132.655 67.572 131.252 67.572C130.746 67.572 130.378 67.6985 129.999 67.9055L130.206 65.4675H133.391V64.559H129.286L129.021 68.515L129.585 68.86C130.068 68.538 130.424 68.3655 130.988 68.3655C132.046 68.3655 132.736 69.0785 132.736 70.286C132.736 71.5165 131.931 72.2755 130.942 72.2755C129.964 72.2755 129.355 71.827 128.872 71.344L128.354 72.034C128.918 72.5975 129.723 73.1495 131.034 73.1495ZM137.608 73.1495C139.207 73.1495 140.23 71.689 140.23 68.7565C140.23 65.8355 139.207 64.4095 137.608 64.4095C135.998 64.4095 134.975 65.824 134.975 68.7565C134.975 71.689 135.998 73.1495 137.608 73.1495ZM137.608 72.31C136.642 72.31 135.998 71.2405 135.998 68.7565C135.998 66.2955 136.642 65.249 137.608 65.249C138.563 65.249 139.207 66.2955 139.207 68.7565C139.207 71.2405 138.563 72.31 137.608 72.31ZM143.792 73.1495C145.218 73.1495 146.552 72.103 146.552 70.2515C146.552 68.4 145.413 67.572 144.01 67.572C143.504 67.572 143.136 67.6985 142.757 67.9055L142.964 65.4675H146.149V64.559H142.044L141.779 68.515L142.343 68.86C142.826 68.538 143.182 68.3655 143.746 68.3655C144.804 68.3655 145.494 69.0785 145.494 70.286C145.494 71.5165 144.689 72.2755 143.7 72.2755C142.722 72.2755 142.113 71.827 141.63 71.344L141.112 72.034C141.676 72.5975 142.481 73.1495 143.792 73.1495ZM147.675 73H152.976V72.0915H150.642C150.216 72.0915 149.699 72.1375 149.262 72.172C151.24 70.2975 152.562 68.584 152.562 66.905C152.562 65.3985 151.619 64.4095 150.113 64.4095C149.043 64.4095 148.319 64.904 147.629 65.6515L148.238 66.2495C148.698 65.6975 149.296 65.272 149.986 65.272C151.033 65.272 151.539 65.9735 151.539 66.9395C151.539 68.3885 150.32 70.0675 147.675 72.379V73ZM162.989 65.042H159.298V63.6965H158.355V65.042H154.617V65.8125H162.989V65.042ZM156.388 68.469C156.388 67.71 157.32 67.25 158.826 67.25C160.31 67.25 161.23 67.71 161.23 68.469C161.23 69.2395 160.31 69.6995 158.826 69.6995C157.32 69.6995 156.388 69.2395 156.388 68.469ZM159.298 71.873V70.424C161.092 70.309 162.184 69.619 162.184 68.469C162.184 67.227 160.885 66.514 158.826 66.514C156.733 66.514 155.434 67.227 155.434 68.469C155.434 69.619 156.538 70.3205 158.355 70.424V71.873H154.157V72.6435H163.507V71.873H159.298Z" fill="#121212"/>
<path d="M25.4145 89.664C26.967 89.503 28.6805 88.928 29.267 87.8125C29.8535 88.9395 31.567 89.503 33.1195 89.664L33.315 89.181C31.6475 89.0315 29.658 88.3415 29.589 87.0305H32.9125V86.536H29.5775V85.4895H28.968V86.536H25.6445V87.0305H28.945C28.876 88.3415 26.8865 89.0315 25.219 89.181L25.4145 89.664ZM33.8785 90.745V90.2505H24.6555V90.745H28.9565V91.872H25.8055V92.3435H32.0615V93.459H25.8285V95.6555H32.993V95.161H26.4265V93.9305H32.6595V91.872H29.566V90.745H33.8785ZM40.6626 91.688V92.171H42.8361V93.3785H43.4456V85.6045H42.8361V91.688H40.6626ZM38.5121 86.513C39.6391 86.513 40.4211 87.042 40.4211 87.7895C40.4211 88.56 39.6391 89.0775 38.5121 89.0775C37.3851 89.0775 36.6031 88.56 36.6031 87.7895C36.6031 87.042 37.3851 86.513 38.5121 86.513ZM38.5121 89.549C40.0071 89.549 40.9961 88.8705 40.9961 87.7895C40.9961 86.72 40.0071 86.0415 38.5121 86.0415C37.0171 86.0415 36.0166 86.72 36.0166 87.7895C36.0166 88.8705 37.0171 89.549 38.5121 89.549ZM38.2821 92.9645H38.8916V90.883C39.8806 90.8255 40.9041 90.745 41.8701 90.584L41.8126 90.1355C39.6161 90.4115 37.0631 90.4345 35.1656 90.4345L35.2576 90.9635C36.1546 90.9635 37.1781 90.9635 38.2821 90.9175V92.9645ZM37.3161 95.0345V92.608H36.7181V95.552H43.7101V95.0345H37.3161ZM50.2412 90.8255H46.9752V88.7325H50.2412V90.8255ZM50.8392 89.089H53.5187V93.1715H54.1282V85.6045H53.5187V88.5715H50.8392V86.2715H50.2412V88.2265H46.9752V86.2715H46.3657V91.343H50.8392V89.089ZM48.2977 95.0345V92.4355H47.6882V95.552H54.3812V95.0345H48.2977ZM65.0868 87.226H61.3148V85.7885H60.7053V87.226H56.8873V87.7435H65.0868V87.226ZM58.3478 90.4805C58.3478 89.618 59.3943 89.0775 61.0043 89.0775C62.6143 89.0775 63.6608 89.618 63.6608 90.4805C63.6608 91.3545 62.6143 91.9065 61.0043 91.9065C59.3943 91.9065 58.3478 91.3545 58.3478 90.4805ZM61.3148 93.988V92.3895C63.1433 92.3205 64.2703 91.6305 64.2703 90.4805C64.2703 89.273 63.0168 88.5715 61.0043 88.5715C58.9918 88.5715 57.7383 89.273 57.7383 90.4805C57.7383 91.6305 58.8653 92.3205 60.7053 92.401V93.988H56.3928V94.5055H65.6503V93.988H61.3148Z" fill="#121212"/>
<path d="M82.634 87.5135H84.474V86.743H79.7705V87.5135H81.7255V88.445C81.7255 90.3425 80.9205 92.217 79.483 93.0795L80.058 93.781C81.0815 93.137 81.829 91.9295 82.1855 90.515C82.542 91.826 83.255 92.93 84.2555 93.528L84.8305 92.838C83.4045 92.033 82.634 90.239 82.634 88.445V87.5135ZM85.394 89.2385H83.692V90.009H85.394V95.3105H86.291V85.7655H85.394V89.2385ZM87.464 85.524V95.8395H88.3725V85.524H87.464ZM93.1629 95H97.7859V94.126H96.0954V86.559H95.2904C94.8304 86.835 94.2899 87.0305 93.5424 87.1685V87.8355H95.0374V94.126H93.1629V95ZM101.727 95.1495C103.325 95.1495 104.349 93.689 104.349 90.7565C104.349 87.8355 103.325 86.4095 101.727 86.4095C100.117 86.4095 99.0933 87.824 99.0933 90.7565C99.0933 93.689 100.117 95.1495 101.727 95.1495ZM101.727 94.31C100.761 94.31 100.117 93.2405 100.117 90.7565C100.117 88.2955 100.761 87.249 101.727 87.249C102.681 87.249 103.325 88.2955 103.325 90.7565C103.325 93.2405 102.681 94.31 101.727 94.31ZM105.438 92.1825H108.382V91.3775H105.438V92.1825ZM109.402 95H114.703V94.0915H112.369C111.943 94.0915 111.426 94.1375 110.989 94.172C112.967 92.2975 114.289 90.584 114.289 88.905C114.289 87.3985 113.346 86.4095 111.84 86.4095C110.77 86.4095 110.046 86.904 109.356 87.6515L109.965 88.2495C110.425 87.6975 111.023 87.272 111.713 87.272C112.76 87.272 113.266 87.9735 113.266 88.9395C113.266 90.3885 112.047 92.0675 109.402 94.379V95ZM118.471 95.1495C120.07 95.1495 121.093 93.689 121.093 90.7565C121.093 87.8355 120.07 86.4095 118.471 86.4095C116.861 86.4095 115.838 87.824 115.838 90.7565C115.838 93.689 116.861 95.1495 118.471 95.1495ZM118.471 94.31C117.505 94.31 116.861 93.2405 116.861 90.7565C116.861 88.2955 117.505 87.249 118.471 87.249C119.426 87.249 120.07 88.2955 120.07 90.7565C120.07 93.2405 119.426 94.31 118.471 94.31ZM122.665 95H127.288V94.126H125.598V86.559H124.793C124.333 86.835 123.792 87.0305 123.045 87.1685V87.8355H124.54V94.126H122.665V95ZM130.309 95H131.402C131.528 91.6995 131.896 89.733 133.874 87.203V86.559H128.596V87.4675H132.678C131.034 89.7675 130.447 91.803 130.309 95ZM134.94 92.1825H137.884V91.3775H134.94V92.1825ZM141.595 95.1495C143.193 95.1495 144.217 93.689 144.217 90.7565C144.217 87.8355 143.193 86.4095 141.595 86.4095C139.985 86.4095 138.961 87.824 138.961 90.7565C138.961 93.689 139.985 95.1495 141.595 95.1495ZM141.595 94.31C140.629 94.31 139.985 93.2405 139.985 90.7565C139.985 88.2955 140.629 87.249 141.595 87.249C142.549 87.249 143.193 88.2955 143.193 90.7565C143.193 93.2405 142.549 94.31 141.595 94.31ZM147.974 95.1495C149.572 95.1495 150.596 93.689 150.596 90.7565C150.596 87.8355 149.572 86.4095 147.974 86.4095C146.364 86.4095 145.34 87.824 145.34 90.7565C145.34 93.689 146.364 95.1495 147.974 95.1495ZM147.974 94.31C147.008 94.31 146.364 93.2405 146.364 90.7565C146.364 88.2955 147.008 87.249 147.974 87.249C148.928 87.249 149.572 88.2955 149.572 90.7565C149.572 93.2405 148.928 94.31 147.974 94.31ZM152.478 91.8375L154.399 88.9625C154.64 88.5485 154.87 88.1345 155.077 87.7205H155.123C155.1 88.1575 155.066 88.836 155.066 89.25V91.8375H152.478ZM155.066 95H156.055V92.677H157.17V91.8375H156.055V86.559H154.893L151.386 91.987V92.677H155.066V95ZM160.904 90.5495C161.928 90.5495 162.434 91.274 162.434 92.4125C162.434 93.5625 161.801 94.333 160.996 94.333C159.938 94.333 159.306 93.3785 159.179 91.6305C159.697 90.86 160.375 90.5495 160.904 90.5495ZM160.996 95.1495C162.307 95.1495 163.411 94.0455 163.411 92.4125C163.411 90.653 162.503 89.7675 161.077 89.7675C160.41 89.7675 159.674 90.1585 159.156 90.791C159.202 88.169 160.18 87.2835 161.33 87.2835C161.847 87.2835 162.353 87.525 162.687 87.9275L163.262 87.272C162.802 86.7775 162.169 86.4095 161.295 86.4095C159.662 86.4095 158.179 87.6745 158.179 90.975C158.179 93.758 159.375 95.1495 160.996 95.1495ZM167.283 90.5495C168.307 90.5495 168.813 91.274 168.813 92.4125C168.813 93.5625 168.18 94.333 167.375 94.333C166.317 94.333 165.685 93.3785 165.558 91.6305C166.076 90.86 166.754 90.5495 167.283 90.5495ZM167.375 95.1495C168.686 95.1495 169.79 94.0455 169.79 92.4125C169.79 90.653 168.882 89.7675 167.456 89.7675C166.789 89.7675 166.053 90.1585 165.535 90.791C165.581 88.169 166.559 87.2835 167.709 87.2835C168.226 87.2835 168.732 87.525 169.066 87.9275L169.641 87.272C169.181 86.7775 168.548 86.4095 167.674 86.4095C166.041 86.4095 164.558 87.6745 164.558 90.975C164.558 93.758 165.754 95.1495 167.375 95.1495ZM171.787 89.1465C171.787 87.9965 172.408 87.2375 173.213 87.2375C174.294 87.2375 174.938 88.1575 175.053 89.894C174.513 90.6875 173.869 91.021 173.294 91.021C172.293 91.021 171.787 90.285 171.787 89.1465ZM172.983 95.1495C174.57 95.1495 176.042 93.8385 176.042 90.423C176.042 87.7435 174.835 86.4095 173.213 86.4095C171.902 86.4095 170.798 87.5135 170.798 89.1465C170.798 90.8945 171.718 91.803 173.121 91.803C173.823 91.803 174.547 91.4005 175.065 90.768C174.984 93.3785 174.041 94.2755 172.949 94.2755C172.408 94.2755 171.891 94.034 171.546 93.6315L170.959 94.287C171.431 94.7815 172.075 95.1495 172.983 95.1495ZM178.166 89.1465C178.166 87.9965 178.787 87.2375 179.592 87.2375C180.673 87.2375 181.317 88.1575 181.432 89.894C180.892 90.6875 180.248 91.021 179.673 91.021C178.672 91.021 178.166 90.285 178.166 89.1465ZM179.362 95.1495C180.949 95.1495 182.421 93.8385 182.421 90.423C182.421 87.7435 181.214 86.4095 179.592 86.4095C178.281 86.4095 177.177 87.5135 177.177 89.1465C177.177 90.8945 178.097 91.803 179.5 91.803C180.202 91.803 180.926 91.4005 181.444 90.768C181.363 93.3785 180.42 94.2755 179.328 94.2755C178.787 94.2755 178.27 94.034 177.925 93.6315L177.338 94.287C177.81 94.7815 178.454 95.1495 179.362 95.1495ZM192.492 87.042H188.8V85.6965H187.857V87.042H184.12V87.8125H192.492V87.042ZM185.891 90.469C185.891 89.71 186.822 89.25 188.329 89.25C189.812 89.25 190.732 89.71 190.732 90.469C190.732 91.2395 189.812 91.6995 188.329 91.6995C186.822 91.6995 185.891 91.2395 185.891 90.469ZM188.8 93.873V92.424C190.594 92.309 191.687 91.619 191.687 90.469C191.687 89.227 190.387 88.514 188.329 88.514C186.236 88.514 184.936 89.227 184.936 90.469C184.936 91.619 186.04 92.3205 187.857 92.424V93.873H183.66V94.6435H193.009V93.873H188.8Z" fill="#121212"/>
<path d="M25.4145 111.664C26.967 111.503 28.6805 110.928 29.267 109.812C29.8535 110.939 31.567 111.503 33.1195 111.664L33.315 111.181C31.6475 111.031 29.658 110.341 29.589 109.03H32.9125V108.536H29.5775V107.489H28.968V108.536H25.6445V109.03H28.945C28.876 110.341 26.8865 111.031 25.219 111.181L25.4145 111.664ZM33.8785 112.745V112.25H24.6555V112.745H28.9565V113.872H25.8055V114.343H32.0615V115.459H25.8285V117.656H32.993V117.161H26.4265V115.93H32.6595V113.872H29.566V112.745H33.8785ZM40.6626 113.688V114.171H42.8361V115.378H43.4456V107.604H42.8361V113.688H40.6626ZM38.5121 108.513C39.6391 108.513 40.4211 109.042 40.4211 109.789C40.4211 110.56 39.6391 111.077 38.5121 111.077C37.3851 111.077 36.6031 110.56 36.6031 109.789C36.6031 109.042 37.3851 108.513 38.5121 108.513ZM38.5121 111.549C40.0071 111.549 40.9961 110.87 40.9961 109.789C40.9961 108.72 40.0071 108.041 38.5121 108.041C37.0171 108.041 36.0166 108.72 36.0166 109.789C36.0166 110.87 37.0171 111.549 38.5121 111.549ZM38.2821 114.964H38.8916V112.883C39.8806 112.825 40.9041 112.745 41.8701 112.584L41.8126 112.135C39.6161 112.411 37.0631 112.434 35.1656 112.434L35.2576 112.963C36.1546 112.963 37.1781 112.963 38.2821 112.917V114.964ZM37.3161 117.035V114.608H36.7181V117.552H43.7101V117.035H37.3161ZM54.1167 107.581H53.5072V112.906H54.1167V107.581ZM46.6992 110.226C46.6992 109.249 47.5387 108.513 48.6772 108.513C49.8157 108.513 50.6552 109.249 50.6552 110.226C50.6552 111.215 49.8157 111.94 48.6772 111.94C47.5387 111.94 46.6992 111.215 46.6992 110.226ZM51.2532 110.226C51.2532 108.904 50.1837 107.995 48.6772 107.995C47.1707 107.995 46.1012 108.904 46.1012 110.226C46.1012 111.549 47.1707 112.446 48.6772 112.446C50.1837 112.446 51.2532 111.549 51.2532 110.226ZM48.2632 117.138V115.723H54.1167V113.458H47.6307V113.964H53.5187V115.24H47.6652V117.644H54.5192V117.138H48.2632Z" fill="#121212"/>
<path d="M79.506 117H84.8075V116.091H82.473C82.0475 116.091 81.53 116.137 81.093 116.172C83.071 114.297 84.3935 112.584 84.3935 110.905C84.3935 109.398 83.4505 108.409 81.944 108.409C80.8745 108.409 80.15 108.904 79.46 109.651L80.0695 110.249C80.5295 109.697 81.1275 109.272 81.8175 109.272C82.864 109.272 83.37 109.973 83.37 110.939C83.37 112.388 82.151 114.067 79.506 116.379V117ZM88.5759 117.15C90.1744 117.15 91.1979 115.689 91.1979 112.756C91.1979 109.835 90.1744 108.409 88.5759 108.409C86.9659 108.409 85.9424 109.824 85.9424 112.756C85.9424 115.689 86.9659 117.15 88.5759 117.15ZM88.5759 116.31C87.6099 116.31 86.9659 115.24 86.9659 112.756C86.9659 110.295 87.6099 109.249 88.5759 109.249C89.5304 109.249 90.1744 110.295 90.1744 112.756C90.1744 115.24 89.5304 116.31 88.5759 116.31ZM92.7698 117H97.3928V116.126H95.7023V108.559H94.8973C94.4373 108.835 93.8968 109.03 93.1493 109.168V109.835H94.6443V116.126H92.7698V117ZM100.414 117H101.506C101.633 113.699 102.001 111.733 103.979 109.203V108.559H98.7002V109.467H102.783C101.138 111.767 100.552 113.803 100.414 117ZM105.045 114.182H107.989V113.377H105.045V114.182ZM111.699 117.15C113.298 117.15 114.321 115.689 114.321 112.756C114.321 109.835 113.298 108.409 111.699 108.409C110.089 108.409 109.066 109.824 109.066 112.756C109.066 115.689 110.089 117.15 111.699 117.15ZM111.699 116.31C110.733 116.31 110.089 115.24 110.089 112.756C110.089 110.295 110.733 109.249 111.699 109.249C112.654 109.249 113.298 110.295 113.298 112.756C113.298 115.24 112.654 116.31 111.699 116.31ZM116.204 113.837L118.124 110.962C118.366 110.548 118.596 110.134 118.803 109.72H118.849C118.826 110.157 118.791 110.836 118.791 111.25V113.837H116.204ZM118.791 117H119.78V114.677H120.896V113.837H119.78V108.559H118.619L115.111 113.987V114.677H118.791V117ZM121.789 114.182H124.733V113.377H121.789V114.182ZM126.259 117L130.882 117V116.126H129.192V108.559H128.387C127.927 108.835 127.386 109.03 126.639 109.168V109.835H128.134V116.126H126.259V117ZM132.638 117H137.261V116.126H135.57V108.559H134.765C134.305 108.835 133.765 109.03 133.017 109.168V109.835H134.512V116.126H132.638V117Z" fill="#121212"/>
<path d="M32.786 132.916H26.438V130.593H32.7055V130.076H25.84V133.434H32.786V132.916ZM29.267 139.276C27.519 139.276 26.4035 138.781 26.4035 137.953C26.4035 137.125 27.519 136.631 29.267 136.631C31.015 136.631 32.1305 137.125 32.1305 137.953C32.1305 138.781 31.015 139.276 29.267 139.276ZM29.267 136.136C27.105 136.136 25.794 136.792 25.794 137.953C25.794 139.127 27.105 139.771 29.267 139.771C31.429 139.771 32.74 139.127 32.74 137.953C32.74 136.792 31.429 136.136 29.267 136.136ZM24.6555 134.572V135.09H33.89V134.572H24.6555ZM36.2581 137.24H42.7096V139.667H43.3191V136.723H36.2581V137.24ZM40.1566 135.297V134.009H43.4916V133.503H37.0401V132.18H43.2616V129.892H36.4191V130.386H42.6636V131.697H36.4421V134.009H39.5471V135.297H35.2116V135.814H44.4921V135.297H40.1566ZM54.1167 129.581H53.5072V134.906H54.1167V129.581ZM46.6992 132.226C46.6992 131.249 47.5387 130.513 48.6772 130.513C49.8157 130.513 50.6552 131.249 50.6552 132.226C50.6552 133.215 49.8157 133.94 48.6772 133.94C47.5387 133.94 46.6992 133.215 46.6992 132.226ZM51.2532 132.226C51.2532 130.904 50.1837 129.995 48.6772 129.995C47.1707 129.995 46.1012 130.904 46.1012 132.226C46.1012 133.549 47.1707 134.446 48.6772 134.446C50.1837 134.446 51.2532 133.549 51.2532 132.226ZM48.2632 139.138V137.723H54.1167V135.458H47.6307V135.964H53.5187V137.24H47.6652V139.644H54.5192V139.138H48.2632Z" fill="#121212"/>
<path d="M79.506 139H84.8075V138.091H82.473C82.0475 138.091 81.53 138.137 81.093 138.172C83.071 136.297 84.3935 134.584 84.3935 132.905C84.3935 131.398 83.4505 130.409 81.944 130.409C80.8745 130.409 80.15 130.904 79.46 131.651L80.0695 132.249C80.5295 131.697 81.1275 131.272 81.8175 131.272C82.864 131.272 83.37 131.973 83.37 132.939C83.37 134.388 82.151 136.067 79.506 138.379V139ZM88.5759 139.15C90.1744 139.15 91.1979 137.689 91.1979 134.756C91.1979 131.835 90.1744 130.409 88.5759 130.409C86.9659 130.409 85.9424 131.824 85.9424 134.756C85.9424 137.689 86.9659 139.15 88.5759 139.15ZM88.5759 138.31C87.6099 138.31 86.9659 137.24 86.9659 134.756C86.9659 132.295 87.6099 131.249 88.5759 131.249C89.5304 131.249 90.1744 132.295 90.1744 134.756C90.1744 137.24 89.5304 138.31 88.5759 138.31ZM92.7698 139H97.3928V138.126H95.7023V130.559H94.8973C94.4373 130.835 93.8968 131.03 93.1493 131.168V131.835H94.6443V138.126H92.7698V139ZM99.6317 133.146C99.6317 131.996 100.253 131.237 101.058 131.237C102.139 131.237 102.783 132.157 102.898 133.894C102.357 134.687 101.713 135.021 101.138 135.021C100.138 135.021 99.6317 134.285 99.6317 133.146ZM100.828 139.15C102.415 139.15 103.887 137.838 103.887 134.423C103.887 131.743 102.679 130.409 101.058 130.409C99.7467 130.409 98.6427 131.513 98.6427 133.146C98.6427 134.894 99.5627 135.803 100.966 135.803C101.667 135.803 102.392 135.4 102.909 134.768C102.829 137.378 101.886 138.275 100.793 138.275C100.253 138.275 99.7352 138.034 99.3902 137.631L98.8037 138.287C99.2752 138.781 99.9192 139.15 100.828 139.15ZM105.045 136.182H107.989V135.377H105.045V136.182ZM111.699 139.15C113.298 139.15 114.321 137.689 114.321 134.756C114.321 131.835 113.298 130.409 111.699 130.409C110.089 130.409 109.066 131.824 109.066 134.756C109.066 137.689 110.089 139.15 111.699 139.15ZM111.699 138.31C110.733 138.31 110.089 137.24 110.089 134.756C110.089 132.295 110.733 131.249 111.699 131.249C112.654 131.249 113.298 132.295 113.298 134.756C113.298 137.24 112.654 138.31 111.699 138.31ZM117.917 139.15C119.412 139.15 120.62 138.252 120.62 136.746C120.62 135.596 119.826 134.837 118.837 134.607V134.561C119.723 134.227 120.332 133.549 120.332 132.525C120.332 131.191 119.297 130.409 117.883 130.409C116.905 130.409 116.158 130.835 115.525 131.421L116.089 132.088C116.56 131.605 117.158 131.272 117.837 131.272C118.711 131.272 119.263 131.801 119.263 132.606C119.263 133.514 118.665 134.216 116.928 134.216V135.021C118.872 135.021 119.55 135.699 119.55 136.7C119.55 137.677 118.837 138.275 117.837 138.275C116.882 138.275 116.238 137.827 115.744 137.31L115.215 137.999C115.767 138.597 116.595 139.15 117.917 139.15ZM121.789 136.182H124.733V135.377H121.789V136.182ZM125.753 139H131.055V138.091H128.72C128.295 138.091 127.777 138.137 127.34 138.172C129.318 136.297 130.641 134.584 130.641 132.905C130.641 131.398 129.698 130.409 128.191 130.409C127.122 130.409 126.397 130.904 125.707 131.651L126.317 132.249C126.777 131.697 127.375 131.272 128.065 131.272C129.111 131.272 129.617 131.973 129.617 132.939C129.617 134.388 128.398 136.067 125.753 138.379V139ZM133.903 139H134.995C135.122 135.699 135.49 133.733 137.468 131.203V130.559H132.189V131.467H136.272C134.627 133.767 134.041 135.803 133.903 139Z" fill="#121212"/>
<path d="M29.175 155.928H25.7595V154.111H29.175V155.928ZM29.773 151.984H29.175V153.605H25.7595V151.984H25.15V156.434H29.773V151.984ZM26.806 159.758H32.5215V157.469H26.185V157.964H31.9235V159.263H26.208L26.208 161.656H32.9355V161.15H26.806V159.758ZM32.5215 153.916V151.581H31.912V156.917H32.5215V154.445H34.1085V153.916H32.5215ZM39.6966 156.331H36.3271V152.892H39.6966V156.331ZM42.9396 153.858V155.365H40.2946V153.858H42.9396ZM40.2946 155.882H42.9396V157.665H43.5491V151.593H42.9396V153.341H40.2946V152.386H35.7406V156.837H40.2946V155.882ZM40.2486 161.276C38.5811 161.276 37.5116 160.747 37.5116 159.884C37.5116 159.033 38.5811 158.493 40.2486 158.493C41.9161 158.493 42.9971 159.033 42.9971 159.884C42.9971 160.747 41.9161 161.276 40.2486 161.276ZM40.2486 157.998C38.1786 157.998 36.9021 158.677 36.9021 159.884C36.9021 161.092 38.1786 161.771 40.2486 161.771C42.3186 161.771 43.5951 161.092 43.5951 159.884C43.5951 158.677 42.3186 157.998 40.2486 157.998ZM50.2757 156.331H46.9062V152.892H50.2757V156.331ZM53.5187 153.858V155.365H50.8737V153.858H53.5187ZM50.8737 155.882H53.5187V157.665H54.1282V151.593H53.5187V153.341H50.8737V152.386H46.3197V156.837H50.8737V155.882ZM50.8277 161.276C49.1602 161.276 48.0907 160.747 48.0907 159.884C48.0907 159.033 49.1602 158.493 50.8277 158.493C52.4952 158.493 53.5762 159.033 53.5762 159.884C53.5762 160.747 52.4952 161.276 50.8277 161.276ZM50.8277 157.998C48.7577 157.998 47.4812 158.677 47.4812 159.884C47.4812 161.092 48.7577 161.771 50.8277 161.771C52.8977 161.771 54.1742 161.092 54.1742 159.884C54.1742 158.677 52.8977 157.998 50.8277 157.998ZM64.6958 151.604H64.0863V157.918H64.6958V151.604ZM62.6488 156.768C61.2113 156.331 59.9348 155.158 59.9348 153.732V153.467H62.3843V152.961H59.9348V151.581H59.3253V152.961H56.8528V153.467H59.3253V153.732C59.3253 155.261 58.0833 156.549 56.6573 157.044L56.9678 157.527C58.1753 157.09 59.2218 156.124 59.6473 154.882C60.0843 156.009 61.1653 156.86 62.3498 157.251L62.6488 156.768ZM61.3378 161.276C59.6473 161.276 58.5663 160.77 58.5663 159.965C58.5663 159.148 59.6473 158.654 61.3378 158.654C63.0398 158.654 64.1208 159.148 64.1208 159.965C64.1208 160.77 63.0398 161.276 61.3378 161.276ZM61.3378 158.148C59.2218 158.148 57.9568 158.803 57.9568 159.965C57.9568 161.115 59.2218 161.771 61.3378 161.771C63.4538 161.771 64.7303 161.115 64.7303 159.965C64.7303 158.803 63.4538 158.148 61.3378 158.148Z" fill="#121212"/>
<path d="M81.7025 161H82.933L85.6125 152.559H84.5315L83.1745 157.136C82.8755 158.125 82.6685 158.93 82.358 159.919H82.312C81.99 158.93 81.7945 158.125 81.4955 157.136L80.127 152.559H79.0115L81.7025 161ZM86.1207 161H91.4222V160.091H89.0417C88.6047 160.091 88.0987 160.137 87.6617 160.172C89.6052 158.125 91.0082 156.595 91.0082 155.054C91.0082 153.605 90.0652 152.651 88.5587 152.651C87.4892 152.651 86.7647 153.145 86.0747 153.893L86.6842 154.479C87.1442 153.939 87.7422 153.502 88.4322 153.502C89.4787 153.502 89.9847 154.169 89.9847 155.1C89.9847 156.446 88.5932 157.918 86.1207 160.379V161ZM92.1892 161H93.3047L94.5237 158.723C94.7422 158.297 94.9607 157.872 95.2022 157.366H95.2482C95.5242 157.872 95.7542 158.297 95.9727 158.723L97.2147 161H98.3877L95.9267 156.699L98.2267 152.559H97.1112L95.9842 154.721C95.7772 155.112 95.6162 155.468 95.3862 155.951H95.3402C95.0642 155.468 94.8917 155.112 94.6732 154.721L93.5232 152.559H92.3502L94.6502 156.641L92.1892 161ZM102.377 152.651V153.41H106.252C106.057 155.859 104.677 157.837 101.905 159.16L102.411 159.93C105.838 158.251 107.207 155.629 107.207 152.651H102.377ZM109.288 151.535V161.851H110.231V151.535H109.288ZM116.624 156.63H113.703V154.744H116.624V156.63ZM117.544 152.283H116.624V154.008H113.703V152.283H112.772V157.389H117.544V152.283ZM114.876 158.389H113.933V161.621H120.81V160.85H114.876V158.389ZM120.35 154.664V151.547H119.407V159.114H120.35V155.457H121.868V154.664H120.35ZM130.818 161.115C129.185 161.115 128.23 160.712 128.23 159.988C128.23 159.263 129.185 158.861 130.818 158.861C132.428 158.861 133.382 159.263 133.382 159.988C133.382 160.712 132.428 161.115 130.818 161.115ZM130.818 158.125C128.61 158.125 127.276 158.792 127.276 159.988C127.276 161.184 128.61 161.851 130.818 161.851C133.003 161.851 134.337 161.184 134.337 159.988C134.337 158.792 133.003 158.125 130.818 158.125ZM131.289 156.63V155.434H134.394V154.675H128.265V152.766H134.325V152.007H127.322V155.434H130.346V156.63H126.149V157.389H135.487V156.63H131.289ZM142.811 156.572C141.316 156.043 140.304 154.744 140.304 153.421V153.007H142.57V152.237H137.061V153.007H139.361V153.421C139.361 154.882 138.292 156.262 136.762 156.802L137.257 157.55C138.464 157.101 139.407 156.158 139.844 154.974C140.304 156.043 141.19 156.894 142.34 157.308L142.811 156.572ZM138.326 159.033H144.272V161.863H145.226V158.274H138.326V159.033ZM144.272 151.535V154.226H142.259V154.997H144.272V157.711H145.226V151.535H144.272ZM155.187 161.127C153.531 161.127 152.6 160.804 152.6 160.183C152.6 159.574 153.531 159.24 155.187 159.24C156.855 159.24 157.775 159.574 157.775 160.183C157.775 160.804 156.855 161.127 155.187 161.127ZM155.187 158.539C152.945 158.539 151.657 159.114 151.657 160.183C151.657 161.265 152.945 161.84 155.187 161.84C157.43 161.84 158.718 161.265 158.718 160.183C158.718 159.114 157.43 158.539 155.187 158.539ZM155.659 156.998V155.986H158.764V155.25H152.692V154.238H158.43V153.525H152.692V152.57H158.706V151.834H151.749V155.986H154.716V156.998H150.518V157.757H159.856V156.998H155.659ZM167.595 155.112H168.906V158.067H169.815V151.535H168.906V154.341H167.595V151.731H166.698V157.688H167.595V155.112ZM166.284 152.766H164.145V151.616H163.214V152.766H161.052V153.513H166.296L166.284 152.766ZM162.328 155.813C162.328 155.181 162.869 154.755 163.685 154.755C164.49 154.755 165.042 155.181 165.042 155.813C165.042 156.457 164.49 156.883 163.685 156.883C162.869 156.883 162.328 156.457 162.328 155.813ZM165.882 155.813C165.882 154.755 164.985 154.054 163.685 154.054C162.386 154.054 161.477 154.755 161.477 155.813C161.477 156.894 162.386 157.584 163.685 157.584C164.985 157.584 165.882 156.894 165.882 155.813ZM166.422 161.115C164.847 161.115 163.904 160.724 163.904 160.045C163.904 159.355 164.847 158.964 166.422 158.964C167.986 158.964 168.929 159.355 168.929 160.045C168.929 160.724 167.986 161.115 166.422 161.115ZM166.422 158.24C164.272 158.24 162.972 158.884 162.972 160.045C162.972 161.196 164.272 161.84 166.422 161.84C168.573 161.84 169.872 161.196 169.872 160.045C169.872 158.884 168.573 158.24 166.422 158.24ZM178.338 158.504H176.176V155.779H178.338V158.504ZM178.338 155.031H176.176V152.513H175.279V159.263H179.224V152.513H178.338V155.031ZM182.777 151.535V155.618H181.386V151.765H180.5V161.345H181.386V156.388H182.777V161.851H183.674V151.535H182.777ZM190.999 154.215V154.985H193.034V157.688H193.989V151.547H193.034V154.215H190.999ZM191.574 156.561C190.079 156.032 189.067 154.732 189.067 153.41V153.053H191.332V152.294H185.824V153.053H188.124V153.41C188.124 154.893 187.066 156.285 185.525 156.848L186.019 157.596C187.227 157.136 188.181 156.17 188.618 154.974C189.067 156.032 189.952 156.883 191.102 157.297L191.574 156.561ZM190.585 161.115C189.032 161.115 188.089 160.678 188.089 159.93C188.089 159.183 189.032 158.734 190.585 158.734C192.137 158.734 193.08 159.183 193.08 159.93C193.08 160.678 192.137 161.115 190.585 161.115ZM190.585 158.01C188.469 158.01 187.146 158.711 187.146 159.93C187.146 161.15 188.469 161.851 190.585 161.851C192.701 161.851 194.023 161.15 194.023 159.93C194.023 158.711 192.701 158.01 190.585 158.01ZM200.727 152.421C202.417 152.421 203.383 152.812 203.383 153.502C203.383 154.192 202.417 154.583 200.727 154.583C199.036 154.583 198.07 154.192 198.07 153.502C198.07 152.812 199.036 152.421 200.727 152.421ZM200.727 155.284C202.992 155.284 204.349 154.664 204.349 153.502C204.349 152.34 202.992 151.708 200.727 151.708C198.461 151.708 197.104 152.34 197.104 153.502C197.104 154.664 198.461 155.284 200.727 155.284ZM198.139 159.953H204.2V157.63H197.185V158.343H203.268V159.263H197.219V161.736H204.51V161H198.139V159.953ZM196.058 155.986V156.745H205.396V155.986H196.058ZM213.253 152.8C214.253 152.8 214.966 153.341 214.966 154.146C214.966 154.951 214.253 155.491 213.253 155.491C212.241 155.491 211.528 154.951 211.528 154.146C211.528 153.341 212.241 152.8 213.253 152.8ZM213.253 156.262C214.782 156.262 215.875 155.399 215.875 154.146C215.875 152.881 214.782 152.018 213.253 152.018C211.712 152.018 210.619 152.881 210.619 154.146C210.619 155.399 211.712 156.262 213.253 156.262ZM216.645 156.768C214.38 157.113 211.769 157.136 209.849 157.136L209.975 157.929C210.826 157.929 211.804 157.918 212.827 157.872V161.529H213.77V157.814C214.748 157.757 215.748 157.642 216.726 157.469L216.645 156.768ZM217.393 151.547V161.863H218.336V151.547H217.393ZM226.569 152.8H223.993V151.535H223.05V152.8H220.485V153.559H226.569V152.8ZM221.957 156.043C221.957 155.33 222.59 154.87 223.521 154.87C224.453 154.87 225.097 155.33 225.097 156.043C225.097 156.768 224.453 157.228 223.521 157.228C222.59 157.228 221.957 156.768 221.957 156.043ZM225.994 156.043C225.994 154.893 224.982 154.134 223.521 154.134C222.061 154.134 221.06 154.893 221.06 156.043C221.06 157.205 222.061 157.964 223.521 157.964C224.982 157.964 225.994 157.205 225.994 156.043ZM222.981 158.665H222.038V161.621H228.915V160.85H222.981V158.665ZM228.455 154.939V151.535H227.512V159.275H228.455V155.733H229.973V154.939H228.455ZM240.233 156.526C238.715 156.02 237.738 154.813 237.738 153.467V153.065H240.015V152.306H234.483V153.065H236.795V153.467C236.795 154.951 235.76 156.285 234.207 156.825L234.69 157.573C235.921 157.136 236.852 156.216 237.289 155.043C237.726 156.066 238.612 156.883 239.785 157.262L240.233 156.526ZM238.98 161.092C237.439 161.092 236.519 160.666 236.519 159.93C236.519 159.206 237.439 158.78 238.98 158.78C240.498 158.78 241.429 159.206 241.429 159.93C241.429 160.666 240.498 161.092 238.98 161.092ZM238.98 158.033C236.864 158.033 235.576 158.734 235.576 159.93C235.576 161.138 236.864 161.84 238.98 161.84C241.073 161.84 242.372 161.138 242.372 159.93C242.372 158.734 241.073 158.033 238.98 158.033ZM242.257 154.146V151.547H241.314V157.768H242.257V154.939H243.787V154.146H242.257ZM248.627 154.077H250.985V153.318H248.639V151.719H247.684V153.318H245.304V154.077H247.696V154.87C247.696 156.676 246.557 158.412 245.028 159.137L245.557 159.85C246.741 159.275 247.719 158.102 248.179 156.664C248.65 158.021 249.628 159.137 250.812 159.677L251.33 158.941C249.8 158.274 248.627 156.595 248.627 154.87V154.077ZM252.33 151.524V161.84H253.285V151.524H252.33ZM255.664 163.185C256.699 162.748 257.343 161.886 257.343 160.781C257.343 160.011 257.01 159.539 256.458 159.539C256.032 159.539 255.664 159.827 255.664 160.275C255.664 160.758 256.032 161.012 256.435 161.012C256.481 161.012 256.515 161.012 256.561 161C256.561 161.679 256.136 162.242 255.411 162.564L255.664 163.185ZM87.1075 169.535V179.874H88.0505V169.535H87.1075ZM82.611 170.329C81.0815 170.329 79.989 171.732 79.989 173.928C79.989 176.125 81.0815 177.528 82.611 177.528C84.1405 177.528 85.233 176.125 85.233 173.928C85.233 171.732 84.1405 170.329 82.611 170.329ZM82.611 171.18C83.6115 171.18 84.3245 172.261 84.3245 173.928C84.3245 175.607 83.6115 176.688 82.611 176.688C81.599 176.688 80.886 175.607 80.886 173.928C80.886 172.261 81.599 171.18 82.611 171.18ZM97.4106 171.341H91.3846V173.549H98.5261V172.87H92.3161V171.985H98.3421V169.834H91.3616V170.501H97.4106V171.341ZM92.2586 178.08H98.3766V175.883H91.3041V176.562H97.4451V177.424H91.3271V179.713H98.6986V179.035H92.2586V178.08ZM90.1886 174.331V175.044H99.5381V174.331H90.1886ZM106.72 170.8C107.721 170.8 108.434 171.341 108.434 172.146C108.434 172.951 107.721 173.491 106.72 173.491C105.708 173.491 104.995 172.951 104.995 172.146C104.995 171.341 105.708 170.8 106.72 170.8ZM106.72 174.262C108.25 174.262 109.342 173.399 109.342 172.146C109.342 170.881 108.25 170.018 106.72 170.018C105.179 170.018 104.087 170.881 104.087 172.146C104.087 173.399 105.179 174.262 106.72 174.262ZM110.113 174.768C107.847 175.113 105.237 175.136 103.316 175.136L103.443 175.929C104.294 175.929 105.271 175.918 106.295 175.872V179.529H107.238V175.814C108.215 175.757 109.216 175.642 110.193 175.469L110.113 174.768ZM110.86 169.547V179.863H111.803V169.547H110.86ZM120.037 170.8H117.461V169.535H116.518V170.8H113.953V171.559H120.037V170.8ZM115.425 174.043C115.425 173.33 116.058 172.87 116.989 172.87C117.921 172.87 118.565 173.33 118.565 174.043C118.565 174.768 117.921 175.228 116.989 175.228C116.058 175.228 115.425 174.768 115.425 174.043ZM119.462 174.043C119.462 172.893 118.45 172.134 116.989 172.134C115.529 172.134 114.528 172.893 114.528 174.043C114.528 175.205 115.529 175.964 116.989 175.964C118.45 175.964 119.462 175.205 119.462 174.043ZM116.449 176.665H115.506V179.621H122.383V178.85H116.449V176.665ZM121.923 172.939V169.535H120.98V177.275H121.923V173.733H123.441V172.939H121.923ZM133.919 174.181H130.998V172.479H133.919V174.181ZM134.839 170.191H133.919V171.743H130.998V170.191H130.067V174.94H134.839V170.191ZM134.368 179.104C132.827 179.104 131.907 178.666 131.907 177.93C131.907 177.194 132.827 176.769 134.368 176.769C135.886 176.769 136.817 177.194 136.817 177.93C136.817 178.666 135.886 179.104 134.368 179.104ZM134.368 176.01C132.263 176.01 130.964 176.711 130.964 177.93C130.964 179.15 132.263 179.851 134.368 179.851C136.461 179.851 137.76 179.15 137.76 177.93C137.76 176.711 136.461 176.01 134.368 176.01ZM137.645 172.134V169.535H136.702V175.745H137.645V172.916H139.175V172.134H137.645ZM147.776 178.942H143.038V177.654H147.776V178.942ZM147.776 176.918H143.038V175.665H142.106V179.702H148.707V175.665H147.776V176.918ZM144.452 174.02H141.669V172.387H144.452V174.02ZM147.764 169.547V172.077H145.384V170.076H144.452V171.651H141.669V170.076H140.738V174.791H145.384V172.847H147.764V175.182H148.719V169.547H147.764ZM161.824 169.535H160.881V175.458H161.824V169.535ZM157.81 173.664H154.832V170.95H157.81V173.664ZM158.73 170.202H153.912V174.423H158.73V170.202ZM162.065 176.884V176.159H159.041V175.159H158.086V176.159H155.062V176.884H158.075C158.063 177.907 156.419 178.885 154.659 179.092L154.97 179.817C156.522 179.598 157.948 178.908 158.569 177.93C159.179 178.885 160.559 179.598 162.111 179.817L162.433 179.092C160.662 178.873 159.064 177.873 159.052 176.884H162.065ZM174.02 169.535V179.874H174.963V169.535H174.02ZM169.524 170.329C167.994 170.329 166.902 171.732 166.902 173.928C166.902 176.125 167.994 177.528 169.524 177.528C171.053 177.528 172.146 176.125 172.146 173.928C172.146 171.732 171.053 170.329 169.524 170.329ZM169.524 171.18C170.524 171.18 171.237 172.261 171.237 173.928C171.237 175.607 170.524 176.688 169.524 176.688C168.512 176.688 167.799 175.607 167.799 173.928C167.799 172.261 168.512 171.18 169.524 171.18ZM183.951 174.181H181.03V172.479H183.951V174.181ZM184.871 170.191H183.951V171.743H181.03V170.191H180.098V174.94H184.871V170.191ZM184.399 179.104C182.858 179.104 181.938 178.666 181.938 177.93C181.938 177.194 182.858 176.769 184.399 176.769C185.917 176.769 186.849 177.194 186.849 177.93C186.849 178.666 185.917 179.104 184.399 179.104ZM184.399 176.01C182.295 176.01 180.995 176.711 180.995 177.93C180.995 179.15 182.295 179.851 184.399 179.851C186.492 179.851 187.792 179.15 187.792 177.93C187.792 176.711 186.492 176.01 184.399 176.01ZM187.677 172.134V169.535H186.734V175.745H187.677V172.916H189.206V172.134H187.677ZM197.808 178.942H193.07V177.654H197.808V178.942ZM197.808 176.918H193.07V175.665H192.138V179.702H198.739V175.665H197.808V176.918ZM194.484 174.02H191.701V172.387H194.484V174.02ZM197.796 169.547V172.077H195.416V170.076H194.484V171.651H191.701V170.076H190.77V174.791H195.416V172.847H197.796V175.182H198.751V169.547H197.796ZM205.489 170.421C207.179 170.421 208.145 170.812 208.145 171.502C208.145 172.192 207.179 172.583 205.489 172.583C203.798 172.583 202.832 172.192 202.832 171.502C202.832 170.812 203.798 170.421 205.489 170.421ZM205.489 173.284C207.754 173.284 209.111 172.664 209.111 171.502C209.111 170.34 207.754 169.708 205.489 169.708C203.223 169.708 201.866 170.34 201.866 171.502C201.866 172.664 203.223 173.284 205.489 173.284ZM202.901 177.953H208.962V175.63H201.947V176.343H208.03V177.263H201.981V179.736H209.272V179H202.901V177.953ZM200.82 173.986V174.745H210.158V173.986H200.82ZM222.86 173.468C220.986 173.193 219.146 171.916 219.146 170.478V169.903H218.157V170.478C218.157 171.95 216.34 173.193 214.465 173.468L214.845 174.227C216.455 173.951 218.007 173.066 218.651 171.813C219.318 173.054 220.871 173.951 222.469 174.227L222.86 173.468ZM223.309 175.343H213.994V176.125H218.157V179.863H219.1V176.125H223.32L223.309 175.343ZM231.047 173.112H232.358V176.067H233.267V169.535H232.358V172.341H231.047V169.731H230.15V175.688H231.047V173.112ZM229.736 170.766H227.597V169.616H226.666V170.766H224.504V171.513H229.748L229.736 170.766ZM225.78 173.813C225.78 173.181 226.321 172.755 227.137 172.755C227.942 172.755 228.494 173.181 228.494 173.813C228.494 174.457 227.942 174.883 227.137 174.883C226.321 174.883 225.78 174.457 225.78 173.813ZM229.334 173.813C229.334 172.755 228.437 172.054 227.137 172.054C225.838 172.054 224.929 172.755 224.929 173.813C224.929 174.894 225.838 175.584 227.137 175.584C228.437 175.584 229.334 174.894 229.334 173.813ZM229.874 179.115C228.299 179.115 227.356 178.724 227.356 178.045C227.356 177.355 228.299 176.964 229.874 176.964C231.438 176.964 232.381 177.355 232.381 178.045C232.381 178.724 231.438 179.115 229.874 179.115ZM229.874 176.24C227.724 176.24 226.424 176.884 226.424 178.045C226.424 179.196 227.724 179.84 229.874 179.84C232.025 179.84 233.324 179.196 233.324 178.045C233.324 176.884 232.025 176.24 229.874 176.24ZM238.165 176.769C237.233 176.769 236.555 176.102 236.555 175.182C236.555 174.25 237.233 173.583 238.165 173.583C239.108 173.583 239.786 174.25 239.786 175.182C239.786 176.102 239.108 176.769 238.165 176.769ZM238.165 172.801C236.716 172.801 235.669 173.79 235.669 175.182C235.669 176.585 236.716 177.551 238.165 177.551C239.637 177.551 240.683 176.585 240.683 175.182C240.683 173.79 239.637 172.801 238.165 172.801ZM238.625 169.662H237.682V171.191H235.083V171.95H241.166V171.191H238.625V169.662ZM244.777 173.779H243.087V169.547H242.144V179.851H243.087V174.572H244.777V173.779ZM253.988 172.64H247.916V169.915H246.973V173.411H253.988V172.64ZM247.847 176.585H246.904V179.598H254.045V178.827H247.847V176.585ZM245.708 174.791V175.55H255.057V174.791H245.708ZM264.804 174.917H262.24V171.329H264.804V174.917ZM261.297 174.917H259.721V175.688H267.323V174.917H265.747V171.329H267.346V170.57H259.698V171.329H261.297V174.917ZM258.87 177.746V178.528H268.22V177.746H258.87ZM274.59 177.804V175.86H277.89V175.101H271.542V173.434H277.649V170.294H270.588V171.065H276.729V172.675H270.611V175.86H273.635V177.804H269.438V178.574H278.81V177.804H274.59ZM86.7625 188.663C86.7625 189.939 86.7625 191.48 86.3485 193.585L87.2915 193.688C87.694 191.457 87.694 189.974 87.694 188.663V187.628H80.6215V188.398H86.7625V188.663ZM79.621 194.562V195.344H88.9475V194.562H79.621ZM95.1221 191.181C93.9146 191.423 92.9026 191.48 91.5686 191.48V190.02H94.5126V187.214H90.6371V187.973H93.6041V189.307H90.6601V192.239H91.3386C92.8221 192.239 93.9031 192.182 95.2141 191.94L95.1221 191.181ZM93.0406 193.941H97.9741V195.954H93.0406V193.941ZM92.1206 196.713H98.8941V193.194H92.1206L92.1206 196.713ZM97.9856 186.535V189.157H96.6056V186.731H95.7086V192.561H96.6056V189.928H97.9856V192.699H98.8941V186.535H97.9856ZM108.266 186.535V196.874H109.209V186.535H108.266ZM103.769 187.329C102.24 187.329 101.147 188.732 101.147 190.928C101.147 193.125 102.24 194.528 103.769 194.528C105.299 194.528 106.391 193.125 106.391 190.928C106.391 188.732 105.299 187.329 103.769 187.329ZM103.769 188.18C104.77 188.18 105.483 189.261 105.483 190.928C105.483 192.607 104.77 193.688 103.769 193.688C102.757 193.688 102.044 192.607 102.044 190.928C102.044 189.261 102.757 188.18 103.769 188.18ZM114.528 187.651V188.41H118.404C118.208 190.859 116.828 192.837 114.057 194.16L114.563 194.93C117.99 193.251 119.358 190.629 119.358 187.651H114.528ZM121.44 186.535V196.851H122.383V186.535H121.44ZM125.533 194.539H131.766V196.759H132.709V193.769H125.533V194.539ZM129.65 192.205V191.124H132.87V190.388H126.625V189.307H132.651V186.8H125.671V187.536H131.72V188.605H125.694V191.124H128.695V192.205H124.486V192.975H133.847V192.205H129.65ZM143.518 186.535H142.575V194.252H143.518V186.535ZM141.747 191.894C140.861 191.998 139.93 192.055 138.975 192.101V190.675H141.022V189.916H136.986V187.973H140.953V187.202H136.043V190.675H138.032V192.136C137.02 192.17 136.02 192.182 135.123 192.182L135.261 192.952C137.181 192.952 139.631 192.883 141.816 192.573L141.747 191.894ZM137.791 195.85V193.746H136.848V196.621H143.863V195.85H137.791ZM148.964 187.133V187.892H152.552C152.517 188.295 152.437 188.663 152.299 189.019L148.446 189.192L148.607 189.962L151.919 189.709C151.298 190.652 150.183 191.388 148.515 191.894L148.872 192.642C152.08 191.664 153.541 189.755 153.541 187.133H148.964ZM150.988 193.792H155.795V195.954H150.988V193.792ZM150.056 196.713H156.726V193.045H150.056V196.713ZM155.772 186.547V189.261H153.518V190.043H155.772V192.492H156.726V186.547H155.772ZM164.752 190.652H162.188V187.881H164.752V190.652ZM161.245 190.652H159.727V191.423H167.213V190.652H165.695V187.881H167.248V187.11H159.692V187.881H161.245V190.652ZM168.145 192.607H158.795V193.378H161.233V196.851H162.176V193.378H164.798V196.851H165.741V193.378H168.145V192.607ZM170.8 191.135H174.181V190.376H170.8V188.249H174.63V187.467H169.857V194.378H170.651C172.617 194.378 173.871 194.321 175.366 194.056L175.262 193.286C173.859 193.539 172.663 193.608 170.8 193.608V191.135ZM176.941 186.524V190.422H174.814V191.204H176.941V196.863H177.884V186.524H176.941ZM184.791 188.26H186.435V191.722C185.883 191.756 185.331 191.768 184.791 191.779V188.26ZM188.85 191.526C188.367 191.584 187.861 191.63 187.344 191.664V188.26H188.367V187.501H182.859V188.26H183.871V191.802C183.411 191.814 182.974 191.814 182.571 191.814L182.675 192.596C184.457 192.596 186.861 192.55 188.919 192.228L188.85 191.526ZM185.067 193.424H184.124V196.621L191.001 196.621V195.85L185.067 195.85V193.424ZM190.541 189.675V186.535H189.598V194.137H190.541V190.457H192.059V189.675H190.541ZM194.151 194.206H200.361V196.932H201.315V193.435H194.151V194.206ZM198.256 191.676V190.445H201.384V189.686H195.232V187.708H201.292V186.949H194.289V190.445H197.313V191.676H193.116V192.435H202.454V191.676H198.256ZM206.819 187.639V188.421H210.602C210.384 190.859 208.969 192.837 206.336 194.16L206.853 194.896C210.188 193.228 211.534 190.572 211.534 187.639H206.819ZM215.858 190.721H214.202V186.535H213.259V196.851H214.202V191.503H215.858V190.721ZM225.114 189.41H219.054V186.754H218.111V190.169H225.114V189.41ZM221.503 196.081C219.882 196.081 218.927 195.655 218.927 194.942C218.927 194.206 219.882 193.792 221.503 193.792C223.125 193.792 224.079 194.206 224.079 194.942C224.079 195.655 223.113 196.081 221.503 196.081ZM221.503 193.056C219.307 193.056 217.973 193.734 217.973 194.942C217.973 196.138 219.307 196.817 221.503 196.817C223.7 196.817 225.034 196.138 225.034 194.942C225.034 193.734 223.7 193.056 221.503 193.056ZM216.857 191.365V192.136H226.184V191.365H216.857ZM233.543 187.8H230.967V186.535H230.024V187.8H227.459V188.559H233.543V187.8ZM228.931 191.043C228.931 190.33 229.564 189.87 230.495 189.87C231.427 189.87 232.071 190.33 232.071 191.043C232.071 191.768 231.427 192.228 230.495 192.228C229.564 192.228 228.931 191.768 228.931 191.043ZM232.968 191.043C232.968 189.893 231.956 189.134 230.495 189.134C229.035 189.134 228.034 189.893 228.034 191.043C228.034 192.205 229.035 192.964 230.495 192.964C231.956 192.964 232.968 192.205 232.968 191.043ZM229.955 193.665H229.012V196.621H235.889V195.85H229.955V193.665ZM235.429 189.939V186.535H234.486V194.275H235.429V190.733H236.947V189.939H235.429ZM241.185 187.651V188.41H245.061C244.865 190.859 243.485 192.837 240.714 194.16L241.22 194.93C244.647 193.251 246.015 190.629 246.015 187.651H241.185ZM248.097 186.535V196.851H249.04V186.535H248.097ZM252.19 194.539H258.423V196.759H259.366V193.769H252.19V194.539ZM256.307 192.205V191.124H259.527V190.388H253.282V189.307H259.308V186.8H252.328V187.536H258.377V188.605H252.351V191.124H255.352V192.205H251.143V192.975H260.504V192.205H256.307ZM262.988 188.479H265.15V193.332H262.988V188.479ZM262.102 194.079H266.024V187.731H262.102V194.079ZM269.6 186.535V190.618H268.209V186.765H267.323V196.334H268.209V191.388H269.6V196.84H270.497V186.535H269.6ZM275.315 189.215H277.224V188.433H275.326V186.903H274.418V188.433H272.509V189.215H274.418V189.709C274.418 191.4 273.624 193.205 272.233 194.033L272.785 194.735C273.797 194.125 274.521 192.975 274.878 191.664C275.257 192.906 275.993 193.953 276.994 194.516L277.534 193.803C276.143 193.056 275.315 191.354 275.315 189.709V189.215ZM278.098 190.606H276.522V191.388H278.098V196.311H278.995V186.777H278.098V190.606ZM280.168 186.535V196.84H281.076V186.535H280.168Z" fill="#121212"/>
<path d="M29.175 213.928H25.7595V212.111H29.175V213.928ZM29.773 209.984H29.175V211.605H25.7595V209.984H25.15V214.434H29.773V209.984ZM26.806 217.758H32.5215V215.469H26.185V215.964H31.9235V217.263H26.208L26.208 219.656H32.9355V219.15H26.806V217.758ZM32.5215 211.916V209.581H31.912V214.917H32.5215V212.445H34.1085V211.916H32.5215ZM39.6966 214.331H36.3271V210.892H39.6966V214.331ZM42.9396 211.858V213.365H40.2946V211.858H42.9396ZM40.2946 213.882H42.9396V215.665H43.5491V209.593H42.9396V211.341H40.2946V210.386H35.7406V214.837H40.2946V213.882ZM40.2486 219.276C38.5811 219.276 37.5116 218.747 37.5116 217.884C37.5116 217.033 38.5811 216.493 40.2486 216.493C41.9161 216.493 42.9971 217.033 42.9971 217.884C42.9971 218.747 41.9161 219.276 40.2486 219.276ZM40.2486 215.998C38.1786 215.998 36.9021 216.677 36.9021 217.884C36.9021 219.092 38.1786 219.771 40.2486 219.771C42.3186 219.771 43.5951 219.092 43.5951 217.884C43.5951 216.677 42.3186 215.998 40.2486 215.998ZM49.0682 211.203H51.4717V210.674H46.0207V211.203H48.4702V212.916C48.4702 214.687 46.9982 216.642 45.6757 217.31L46.0552 217.815C47.1592 217.206 48.3207 215.803 48.7692 214.25C49.2177 215.688 50.3217 216.976 51.4257 217.562L51.7822 217.068C50.4367 216.412 49.0682 214.584 49.0682 212.916V211.203ZM55.3587 213.848H53.5762V209.593H52.9667V219.805H53.5762V214.365H55.3587V213.848Z" fill="#121212"/>
<path d="M87.1075 209.535V219.874H88.0505V209.535H87.1075ZM82.611 210.329C81.0815 210.329 79.989 211.732 79.989 213.928C79.989 216.125 81.0815 217.528 82.611 217.528C84.1405 217.528 85.233 216.125 85.233 213.928C85.233 211.732 84.1405 210.329 82.611 210.329ZM82.611 211.18C83.6115 211.18 84.3245 212.261 84.3245 213.928C84.3245 215.607 83.6115 216.688 82.611 216.688C81.599 216.688 80.886 215.607 80.886 213.928C80.886 212.261 81.599 211.18 82.611 211.18ZM98.9746 212.905C97.1461 212.64 95.3406 211.479 95.3406 210.168V209.708H94.3746V210.168C94.3746 211.513 92.5806 212.64 90.7406 212.905L91.0856 213.641C92.6841 213.388 94.2136 212.571 94.8576 211.387C95.5131 212.56 97.0311 213.388 98.6181 213.641L98.9746 212.905ZM94.8576 219.115C93.2246 219.115 92.2701 218.724 92.2701 218.011C92.2701 217.31 93.2246 216.907 94.8576 216.907C96.4676 216.907 97.4221 217.31 97.4221 218.011C97.4221 218.724 96.4676 219.115 94.8576 219.115ZM94.8576 216.182C92.6496 216.182 91.3156 216.838 91.3156 218.011C91.3156 219.196 92.6496 219.851 94.8576 219.851C97.0541 219.851 98.3766 219.196 98.3766 218.011C98.3766 216.838 97.0541 216.182 94.8576 216.182ZM90.1886 214.457V215.228H99.5151V214.457H90.1886ZM103.815 211.525H105.69V210.754H100.906V211.525H102.907V212.33C102.907 214.423 102.136 216.182 100.664 217.01L101.239 217.723C102.309 217.102 103.033 215.987 103.378 214.584C103.746 215.803 104.459 216.803 105.471 217.367L106.023 216.642C104.563 215.883 103.815 214.216 103.815 212.33V211.525ZM108.657 209.524V213.698H107.3V209.765H106.414V219.345H107.3V214.48H108.657V219.851H109.565V209.524H108.657ZM111.6 221.185C112.635 220.748 113.279 219.886 113.279 218.781C113.279 218.011 112.945 217.539 112.393 217.539C111.968 217.539 111.6 217.827 111.6 218.275C111.6 218.758 111.968 219.012 112.37 219.012C112.416 219.012 112.451 219.012 112.497 219C112.497 219.679 112.071 220.242 111.347 220.564L111.6 221.185ZM117.775 210.191V210.961H121.512C121.328 212.709 119.753 214.066 117.234 214.722L117.614 215.469C120.627 214.664 122.524 212.824 122.524 210.191H117.775ZM119.833 216.608H124.652V218.942H119.833V216.608ZM118.913 219.702H125.583V215.86H118.913V219.702ZM124.64 209.535V215.366H125.583V209.535H124.64ZM128.618 214.549C130.217 214.273 131.735 213.411 132.367 212.192C132.988 213.411 134.518 214.273 136.116 214.549L136.484 213.802C134.667 213.537 132.885 212.353 132.885 210.996V210.938H136.116V210.179H128.584V210.938H131.838V210.996C131.838 212.353 130.056 213.537 128.262 213.802L128.618 214.549ZM137.025 215.412H127.71V216.182H131.873V219.851H132.816V216.182H137.036L137.025 215.412ZM139.335 212.594C139.335 211.64 140.094 210.95 141.095 210.95C142.107 210.95 142.843 211.64 142.843 212.594C142.843 213.56 142.107 214.25 141.095 214.25C140.094 214.25 139.335 213.56 139.335 212.594ZM145.821 211.789V213.399H143.602C143.694 213.146 143.74 212.882 143.74 212.594C143.74 212.295 143.694 212.031 143.613 211.789H145.821ZM145.821 214.17V215.642H146.776V209.535H145.821V211.019H143.176C142.705 210.49 141.969 210.156 141.095 210.156C139.565 210.156 138.438 211.157 138.438 212.594C138.438 214.043 139.565 215.055 141.095 215.055C141.969 215.055 142.705 214.722 143.176 214.17H145.821ZM143.36 219.092C141.808 219.092 140.865 218.632 140.865 217.861C140.865 217.079 141.808 216.619 143.36 216.619C144.936 216.619 145.879 217.079 145.879 217.861C145.879 218.632 144.936 219.092 143.36 219.092ZM143.36 215.883C141.244 215.883 139.933 216.608 139.933 217.861C139.933 219.115 141.244 219.84 143.36 219.84C145.488 219.84 146.81 219.115 146.81 217.861C146.81 216.608 145.488 215.883 143.36 215.883ZM149.11 221.185C150.145 220.748 150.789 219.886 150.789 218.781C150.789 218.011 150.455 217.539 149.903 217.539C149.478 217.539 149.11 217.827 149.11 218.275C149.11 218.758 149.478 219.012 149.88 219.012C149.926 219.012 149.961 219.012 150.007 219C150.007 219.679 149.581 220.242 148.857 220.564L149.11 221.185ZM158.907 214.308H155.986V212.537H158.907V214.308ZM159.827 210.191H158.907V211.801H155.986V210.191H155.055V215.067H159.827V210.191ZM155.929 217.079H161.69V219.863H162.633V216.32H155.929V217.079ZM164.163 212.215H162.633V209.547H161.69V215.768H162.633V212.997H164.163V212.215ZM171.165 214.388C169.682 213.882 168.67 212.594 168.67 211.203V210.064H167.727V211.122C167.727 212.698 166.726 214.101 165.162 214.664L165.657 215.412C166.864 214.952 167.784 214.009 168.21 212.801C168.67 213.859 169.555 214.71 170.671 215.124L171.165 214.388ZM169.935 219.104C168.405 219.104 167.474 218.678 167.474 217.965C167.474 217.24 168.405 216.815 169.935 216.815C171.453 216.815 172.384 217.24 172.384 217.965C172.384 218.678 171.453 219.104 169.935 219.104ZM169.935 216.079C167.83 216.079 166.531 216.757 166.531 217.965C166.531 219.161 167.83 219.84 169.935 219.84C172.028 219.84 173.327 219.161 173.327 217.965C173.327 216.757 172.028 216.079 169.935 216.079ZM173.212 212.203V209.547H172.269V215.791L173.212 215.791V212.985H174.742V212.203H173.212ZM180.456 210.49C182.078 210.49 183.101 210.938 183.101 211.697C183.101 212.456 182.078 212.905 180.456 212.905C178.812 212.905 177.788 212.456 177.788 211.697C177.788 210.938 178.812 210.49 180.456 210.49ZM180.456 213.641C182.676 213.641 184.067 212.916 184.067 211.697C184.067 210.467 182.676 209.742 180.456 209.742C178.214 209.742 176.822 210.467 176.822 211.697C176.822 212.916 178.214 213.641 180.456 213.641ZM183.021 217.999C183.021 218.712 182.066 219.115 180.456 219.115C178.823 219.115 177.869 218.712 177.869 217.999C177.869 217.298 178.823 216.884 180.456 216.884C182.066 216.884 183.021 217.298 183.021 217.999ZM185.114 215.182V214.423H175.787V215.182H179.973V216.171C178.053 216.263 176.914 216.907 176.914 217.999C176.914 219.184 178.248 219.84 180.456 219.84C182.653 219.84 183.975 219.184 183.975 217.999C183.975 216.907 182.848 216.263 180.928 216.171V215.182H185.114Z" fill="#121212"/>
<path d="M32.74 235.365H26.5185V234.077H32.4065V233.582H26.5185V232.386H32.694V231.892H25.909V235.871H32.74V235.365ZM25.679 239.24H32.0385V241.805H32.648V238.734H25.679L25.679 239.24ZM24.6555 237.032V237.55H33.8785V237.032H24.6555ZM41.2836 233.283H38.5696V231.685H37.9601V233.283H35.2001V233.801H41.2836V233.283ZM38.2591 238.872C37.2241 238.872 36.4651 238.113 36.4651 237.113C36.4651 236.112 37.2241 235.342 38.2591 235.342C39.2826 235.342 40.0531 236.112 40.0531 237.113C40.0531 238.113 39.2826 238.872 38.2591 238.872ZM38.2591 234.813C36.9021 234.813 35.9016 235.767 35.9016 237.113C35.9016 238.458 36.9021 239.401 38.2591 239.401C39.6276 239.401 40.6166 238.458 40.6166 237.113C40.6166 235.767 39.6276 234.813 38.2591 234.813ZM42.9396 231.581V236.032H41.0536V236.549H42.9396V241.794H43.5491V231.581H42.9396ZM51.0577 237.205V237.711H53.4267V239.321H54.0362V231.593H53.4267V237.205H51.0577ZM48.7462 238.642H49.3442V236.181C50.3677 236.112 51.4372 236.02 52.4377 235.848L52.3917 235.388C51.9892 235.445 51.5522 235.503 51.1267 235.549C51.3567 234.226 51.3567 233.272 51.3567 232.685V232.271H46.6532V232.789H50.7587C50.7587 233.375 50.7472 234.307 50.5057 235.583C48.8267 235.721 47.1017 235.733 45.7332 235.733L45.8252 236.273C46.6877 236.273 47.6997 236.262 48.7462 236.216V238.642ZM47.9182 241.035V238.435H47.3087V241.552H54.3007V241.035H47.9182ZM59.6473 233.203H62.0508V232.674H56.5998V233.203H59.0493V234.916C59.0493 236.687 57.5773 238.642 56.2548 239.31L56.6343 239.815C57.7383 239.206 58.8998 237.803 59.3483 236.25C59.7968 237.688 60.9008 238.976 62.0048 239.562L62.3613 239.068C61.0158 238.412 59.6473 236.584 59.6473 234.916V233.203ZM65.9378 235.848H64.1553V231.593H63.5458V241.805H64.1553V236.365H65.9378V235.848Z" fill="#121212"/>
<path d="M81.7485 243.266L82.404 242.955C81.4035 241.322 80.932 239.378 80.932 237.423C80.932 235.468 81.4035 233.536 82.404 231.892L81.7485 231.593C80.6905 233.306 80.058 235.169 80.058 237.423C80.058 239.689 80.6905 241.541 81.7485 243.266ZM84.4152 236.549C86.0137 236.273 87.5317 235.411 88.1642 234.192C88.7852 235.411 90.3147 236.273 91.9132 236.549L92.2812 235.802C90.4642 235.537 88.6817 234.353 88.6817 232.996V232.938H91.9132V232.179H84.3807V232.938H87.6352V232.996C87.6352 234.353 85.8527 235.537 84.0587 235.802L84.4152 236.549ZM92.8217 237.412H83.5067V238.182H87.6697V241.851H88.6127V238.182H92.8332L92.8217 237.412ZM94.6033 243.266C95.6728 241.541 96.3053 239.689 96.3053 237.423C96.3053 235.169 95.6728 233.306 94.6033 231.593L93.9593 231.892C94.9483 233.536 95.4313 235.468 95.4313 237.423C95.4313 239.378 94.9483 241.322 93.9593 242.955L94.6033 243.266ZM106.85 236.722C105.044 236.377 103.089 234.813 103.089 233.053V232.26H102.1V233.053C102.1 234.813 100.157 236.365 98.3511 236.722L98.7766 237.504C100.329 237.136 101.939 236.032 102.595 234.525C103.25 236.043 104.86 237.147 106.424 237.504L106.85 236.722ZM97.9601 239.689V240.471H107.31V239.689H97.9601ZM109.873 233.329H112.76V238.47H109.873V233.329ZM108.953 239.229H113.68V232.57H108.953V239.229ZM118.176 235.652H116.474V231.547H115.531V241.851H116.474V236.446H118.176V235.652ZM127.398 237.101H121.269V235.468H127.065V234.721H121.269V233.191H127.295V232.432H120.314V237.86H127.398V237.101ZM119.107 239.746V240.517H128.468V239.746H119.107ZM131.71 233.145H136.988V236.492H131.71V233.145ZM134.838 239.746V237.239H137.908V232.398H130.801V237.239H133.883V239.746H129.697V240.528H139.047V239.746H134.838ZM148.729 231.547H147.786V236.929H148.729V231.547ZM144.715 235.71H141.748V234.169H144.715V235.71ZM145.647 231.949H144.715V233.444H141.748V231.949H140.817V236.469H145.647V231.949ZM143.013 241V239.896H148.74V237.458H142.059V238.194H147.809V239.206H142.082V241.736H149.085V241H143.013ZM152.167 236.101H155.824V232.49H151.212V233.26H154.904V235.342H151.235V239.378H152.029C153.892 239.378 155.203 239.321 156.755 239.045L156.663 238.263C155.18 238.527 153.926 238.596 152.167 238.596V236.101ZM158.4 231.524V235.503H156.433V236.273H158.4V241.863H159.343V231.524H158.4ZM163.022 236.124H166.713V235.365H163.022V233.237H167.093V232.467H162.09V239.367H162.907C164.873 239.367 166.253 239.298 167.863 239.022L167.771 238.251C166.23 238.527 164.896 238.596 163.022 238.596V236.124ZM168.956 231.535V241.84H169.899V231.535H168.956Z" fill="#121212"/>
<rect x="24" y="18" width="66" height="23" rx="2" fill="#0032A0"/>
<path d="M49.444 28.844H43.324V28.196H49.096V27.044H43.324V26.444H49.36V25.244H41.752V30.044H49.444V28.844ZM41.62 33.92H47.692V36.044H49.276V32.672H41.62V33.92ZM40.504 30.716V31.976H50.5V30.716H40.504ZM57.9991 26.612H55.5871V25.172H54.0031V26.612L51.5551 26.612V27.896L57.9991 27.896V26.612ZM54.7831 32.444C54.1111 32.444 53.5951 31.952 53.5951 31.136C53.5951 30.32 54.1111 29.828 54.7831 29.828C55.4671 29.828 55.9951 30.32 55.9951 31.136C55.9951 31.952 55.4671 32.444 54.7831 32.444ZM54.7831 28.496C53.2711 28.496 52.1311 29.612 52.1311 31.136C52.1311 32.66 53.2711 33.776 54.7831 33.776C56.3071 33.776 57.4471 32.66 57.4471 31.136C57.4471 29.612 56.3071 28.496 54.7831 28.496ZM59.2471 24.98V29.324H57.7951V30.608H59.2471V36.032H60.8311V24.98H59.2471ZM68.2581 30.872V32.096H70.3941V33.296H71.9781V24.98L70.3941 24.98V30.872H68.2581ZM65.6061 34.58V32.624H66.9861V30.248C67.9101 30.164 68.8341 30.068 69.7341 29.9L69.6261 28.784C69.2901 28.832 68.9421 28.88 68.5941 28.916C68.7861 27.524 68.7861 26.504 68.7861 25.916V25.532H63.5181V26.792H67.2141C67.1901 27.368 67.1301 28.112 66.9981 29.036C65.3901 29.132 63.8061 29.144 62.5101 29.144L62.7021 30.404C63.5181 30.404 64.4421 30.392 65.4141 30.344V32.468H64.0221V35.84L72.2181 35.84V34.58L65.6061 34.58Z" fill="white"/>
</svg>
